<mxfile host="65bd71144e">
    <diagram id="Yi-Ce79i6C4yrPLK3Csv" name="페이지-1">
        <mxGraphModel dx="1140" dy="881" grid="1" gridSize="10" guides="1" tooltips="1" connect="1" arrows="1" fold="1" page="1" pageScale="1" pageWidth="827" pageHeight="1169" math="0" shadow="0">
            <root>
                <mxCell id="0"/>
                <mxCell id="1" parent="0"/>
                <mxCell id="5" value="" style="shape=image;imageAspect=0;aspect=fixed;verticalLabelPosition=bottom;verticalAlign=top;fillColor=none;image=data:image/png,iVBORw0KGgoAAAANSUhEUgAAAgAAAAEiCAYAAACP9GpaAAAABGdBTUEAALGPC/xhBQAAACBjSFJNAAB6JgAAgIQAAPoAAACA6AAAdTAAAOpgAAA6mAAAF3CculE8AAAABmJLR0QA/wD/AP+gvaeTAAAAB3RJTUUH4QgKACwdFDbOVQAAgABJREFUeNrsXWdYVEcXfs/dXXpVUUDsWBA7IhqjYkkzxUQFWzSxJzExUaNpmmzUfImxRtPsvYFJTNPE2DsiFuyKXRBQet/de8/3Ayw0RQV2l533efJE7r1778yZc+aUmTkHEBAQEBAQEBAQEBAQEBAQEBAQEBAQEBCogCBBAoEffvB1SNNwLbXElQFUYkZlAJWIUYUJlQlwYoYdCNZ5XOMIhjrv5y4MusNHiycMP/2/gu/3mDqrNZheJVLiAcQxVDdJMsRnSYabSR9/nCJGQMBSwUG+Vlm2ejedolQjRXEnIjcoUlUmdieQA5PiSExqBmwAtiWQigGnvJ87AUgDwLkv40wQcgBiApIBSgI4SWEkQ6JkKJwoqaSbioJoZytdDC27ki1GQBgAAhUcWi0kO48mdVTEvgylDhNqA6h133+VS2UyY6nlhBGnjhW87j5l1loC+hbzs2wQYsCIIvAFEM4z03lFpvNxjatfRXCwLEZQwJyRHlTbnTWaBgyuD6C+wtQA4PpE8ALgYsSm3SLQTSblOpjOM9F5ZuWclaI+Z7/uXIwYOWEACJgZ5ixsUk0nGZpLCpoy4AtQUwCNAdiV8acjxg8/07rgRS/trEqyCtEAbB7jnToAFwl0EoTDMuOwrYwjV7RjksVIC5gaYkZ42jlk2LZkkD8YrQH4AKgPwNEMu5PGjP+5rI36RoxsxYVakMB8ERIC1aXkxo3UpLRnpqcB+Okh+5BCxOXcFgYWF3VdUfPrYLJ5zNdaAfBhsA8YQRKAHBXYY8qsKIAPMyiCGIfsXdSHokaPzhEcIVBu/B4YqE73uNFQIfYD4AeQH9Lhz7k8WxHgSEC7om7MGxoapDDcFRXvqZ6ME8GhIkonDACBModWG6h29Ixto5D0LMCdr6agtYrYjkHGjuVkadTWa4ucKJkGl/K3KNerovoE9AMBGSmGLI8ps/YReB8g7Y2parcLI0fqBccIlCaS+zeoC8jdJFC3VNx4FoBzhQ6iEhoUadQz3IkwV6UQYp2QOndo6H4A+5h5Z1JNt4NabWeD4BZzGWIBk8b0hQ3rEOgZgLox0A2Aq+m5Q1g5fsSZQQUvu0+e40+kHDLGXA3wTmLapij0V6x2zBXBSQKPivSg2u4GjbqDBOoGcHcGvCyMBDqnGC972rkzn0L/bmjI8wTaXMxvMpixAxL/CQn/vL8g+JrgJBEBEHgEzFjYyI9Z6gXingAasqk3mHhJkZeJhxqpRS4AvcqEV0nF8zwmzzrNRH9KJP8VM/HDvYLDBIpD2gDvxoqC3kzoLQNNCQCDLZUcVinVbtQCcDF/BEB1XkVKcb+xJ8JLYHoJMjB3aGgkAX+TIm14d2mvI4LDRARAoAh8s6Cxr4oQBHA/oOjQmymCQZfGDzvtTZR/lvTUzrdjVcZN3DuyZBrtJURJjN9AvDHms7EHUP7bJQRMTen38/ZVCEEAXgLgJyhyv8DwC85rL/5z/yWtVitVuu6bCeQdCy45roLxO4NDRy8J2kcQsicMAAvGtMUNG0osDQbzAIDMM7xI/On4YWe/LnjZffLMN4loqYm3/gaDVivQL4yfNOGi4EjLQcrr9byhYBBAQQAaCYoUawCMdl57cV7By3OHhp5C7umix504rhCwWpGx/P1lvS8IQhsHYgmgnDFrlpetwcnpJWIeAQVdc40ws7XDDArx8iLFm6ShMP3QqReBP1JB/ZHHlNkRYCwwKFZrbmlHpQtOrYC67AVv6xRXvELgEVCoq3CASgBJql/MnQtPZgBwbQY+IxU+mzs0NIKJF2Qr1ms/WtIjTRBdRAAqHGYu9GmrAG8B6A3AvoKwz5/jh59+peBVzylzGjKUM2bKX2kMbCDCjzcnjj0sONf8kdqvQSOQ8iYDQwC4CYo8Ev51XhP1fKEIwLAN34J5fCl/KwOgUGL88N6S3kL2RATAvDF/vp8mRZX1KjHeV8DtK5xzwLSoqOsKy0OIyFyNS0cCBoMx2GPK7AhmZW6skrYGWq042mRO3v4IP01qekowCO8wK08Jijw2iowAMJQoKn373h7gN5nw5p2ogJMhY8XgZYNFymIRATAf/G+Jt5vGoBkCwigANSrkBAvEOSt2NUaOjMh/3l6rVXuqnK4x4FGBhOQmwAskmebe0I5NFBxuuogd2MzeVs4aBvAY5Ka5FngyKE5JsKPNUfkSbc0dHNIJEu0sh+/HEOFnlvnn0UuDb4nhEAaAyWL6woZ1GKqPCTwIj5f61pw4Z9r4YWc+LnjZc8rsVxn8WwXtdTqDl0qE6TETx10XHG86SAvydlM0GAXgXZRSbQuBXEgyNXZcf+HM/dfmDVnryaSOLsdm5BDTcon1U0ct7SdkTxgApoOvf2pUW63GGIBG4tGPxpgn4yiyz4cjz58tZABMnvUXE16s4N3XAVivyKSN0465JCTAeEju36AuQfmQgTcJsBUUKQNZl9DDaVXUHwWvzx0amoryr3OgA2i9JBmmvruw73kxOsIAMAWPfwgsaz/F7vHDz3QqeNFr6qzqMuMqAJWF0EEYAkb0+FmDcQx8YClGt9GUBPGHTqsvzixkAAwLiQBTKyM1ywDQWplJO2ZJLyF7jwmxCfAxMG2ht5eKrKYw80ACqyyt/8UV/pGBNyxI+QO5hV8GSioO9pwyc5FE9PWNiWOjhYSUpcdf05Vg9b4CjIV5VtkzRxR9FJClCwAbywBQAzxQRdx33pANSw1q0o5Z0OumGKpHgyRI8Age/4pm9tMX+HwkQXOGmd+0MGV3BymZit2GwpMBEwODLZQ1rBk0Smacd58y+5sq06YJxVTKiBnhaZfc3/sjgtVFAF8I5V+eFj8Vk5mUTSGBj4aJR6hk5cLcoaHfzH7zNxcxYCWHWAIoAbTaQLVD9dghCmgyAdUsei4Afp4w/MzbBa9XmzK7iwTeJrgFYFAMMb68qaQsglarCIo8AS21kFLO1xtGgBYgD0ERI4wBI9plbVShTKXfDQ0ZSKAVJtbcBBBPck/BAlGmWEQAnhjfLvJ93r563CkGzbd05Q8AEktLimYkoxX+MUGrmj1BPN9D5XzIY/KsDoIij4fk171bpZ733keg+UL5G5GfCZ6xA5vZF76uMsUUvpXB9GOcEx2eOyxUyJ6IADweZs/38TAQpoEwUFDjrvd/YsLwM80KXq/59deueoN1DCr60cfHdqAoxCBhzO3Pxog1yhIg6c3aLpJO9SVAo2CZy2wmB0WSWriuOn/8/ms/vr3a1aCzSjRx4fsLah4lyhKLCECJoNVCmrGw0QgD4axQ/gWliRYWddmgtx4glP+DHCjuY6XwGY8ps96HVitkrngDk1L61xsk6dTnABotlL8JMTErhTYCvvPTgCQAt01c+F4imU7NGxryfkhQiOAnYQAUjxkLfP3tq/uEM2g+yLTK2JoAstUSrS7aLsAQQZ6HKjdnAHM8VM67PKbM9hEUyY/0AXWbpg7w3gvQcgBVBUVMjoGLK1FuDpX8HBg0J9aJwucO3dBSDKYwAPJh/nw/zfSFjbVMygEArQRFilRgv40ddqpQuM9j8gw/AEKoSk7JpwE+4jllptZXq7WyeGpoIaX0r/++zFI4GCJnv6l60uD6RV+HOSXjaQlw2Nyhod/MfW+TyB0hDABg1vxGTVOlzDCAv4AIORYLFVGRZ/+JVGLz36PDhkFfJKicwqtPntncUomQPLBhnZTz3jsAngORzMfUTYCiiwIxzC0bnwbAR8hMP/z94F8s3tmzWANAqw1UT1/g85Es0WHhwT5E9AlX0m6c3lHwutesWbYM9BUUelyvCs2YKNxzykytJe0NYICS+9cbQbIcSUBHwQlmgQbFzA0XzFT6miiSEvbdsFCtJe8NsEgDYOaCRg3sq8fuB+Eb5GZzE3jQhM1YotWi0Hl2OZN6A+wqKPREylDDoC/c1U5bamineVb0/ma87uOROqDen7lH++AgOMBs4Jbcv2YhWTdIfMGM+6QmxhexTrRn9pBf6goDwAIwY2GjngpRGED+QqZLBEVWpOXFWAYi/F9a/gijq0GlOe45ZeYrFbWPqf29exgU/WkwvShG3Ax5FDaFlgEM2dkXcu1Ys0Y7FSkR3w0N7Wt5Y2ohmDvX2zrHVv1t3vEigZJzyObxw850L3jZa8p39WXI5yBySZR6UIBAP1vJKWOvaLXZFaJDQVClarwnAZgEse/InPG685qoQieB5g0LvcGM6hVkwltpSFVGjg0NzhIRgAqCr39qVFtnq9ktlP9jTN4KF134h+UhQvmXVTCA385ROe13186ube6dSQvydkvV1PsHufn7hfI3bxSzEZArUFleHqh2xl5LWRKo8AI5Y6Fvb7WKjjPQRsjvI+NWpovqz0JXtVo1Ed4Q5ClTtCQVh7lPntXJbJV///odFQ0fB6ibGM6KawAAdL5C9ZKplYqU8HlDQl8QBoC5jiGDpi/w+YihrBdJfR4bVkiyKVwy+osvZIAyBXnKHFWJsNVzysyPzEr2AEodUH+CAt4mcvhXKDSo+BGAu6jEhL++GxaqZXCFjXRWSANAu7S2zfRFjVbm7fIXYcfHh7OdlNm7sMFPrADLBXnKBWoGfeMxZeYaT+18O5NX/i94W6cO8F7BzNMAqMXwVfwIAJF0oYL2VyLGF/OGbAiZP+JPuwrZwYrWoVk/Nahub7DdQ6ABQl6fHAQUudNfJauWAhDlNstvJPqxKmNPla9mm6xHnRLkWynFFf+C8boYr4rpEKQNrFcoTTOpcKFiix566+TsfT8MXltDGAAmjOmLG7UzqFURAFoLWS01dJi2uGHDghejtaNvAPhXkKdc0UqjcLjXV3OamVrDUvvUbQBNThgBncQwVVywHt4FryUkKZcAGCp0v4EWsqQ+OG/IhgqlWyqMAfDtgkYvQaGtBFQTYlq69q9Kloop9lN0emCBMkV1WeGdprQ5MLVvvadYJe0FCisHgQrlCZ9xtJGPFLysDQ3WAbhiARTwZOKd3w3b0F0YACaEGYt8BhLRrwDshJSWPhTCG/Pn+2kKXr8pp/wBIFZQqNz9EVci/Os5dXY/Y7ckeUC9PizRNgBuYlwqNAyA8gYtu1IoN0VuYR2ylP0e9sS88buhIRWiVLzZGwAzFvi8z4zlyC3yIFAmhj+qpVLmS4VuaLUGYl4lKGQUWDPzas8pM7XGakDKAO9RxLQWgI0YjgpvdH7tvPpSeJF3MjMmA1zbgoihIdDyeUNDJwgDwFjsyKDpC32+ZcIciIQ05YGi0/6qWSwDGNE2Y9AXHlNm/6/cPf/+3h+B8b2QPYtgsuNOepupRd2bO+yXtgSMs0yyYNrcIaHfmfMxQbNsuFYLyb56o0UADRbiWW6QFehrfzQ86kbBGx5TZu0F0N6cO+dkbY1sgwE6WTZXQZ4ZM2nsh+Xi+ff31iI3s5/50cnOEap6zWA4sU9IdMlgYHBblzUXIwremBUUYqt2oqMAGlq2gUQLEmqefFur1SoiAlAuyt9niVD+5Q6VijVvFqN8zD4K8EmX9jgwagiGtWkJK5X5VQdlYJzH1Fk/gcvOG2GAUvp7zzJH5U/WtrB+ZSQcZu+A7Qc/gmxFIcISUm5yUcofANTO9D9LV/4AwMQjKl33Xag1w5LeZhUBCAmB6mqKz2JApKE1Ei5nRJ/xLlgauNr06fZStioGMM+MizVdnLHn7TegkxXYatQ4dysB7/y2CeduJZhjdxbelFPfQil7IwxQan/vuQDeNTeCWHXpC+ve74Ocq8AQuQc5oXMgX4oU0vxwHHVycA6gBRH6gjfmDf2lPUPZBUAlyJQnI4ylSTVPDTOnSIDZWCx5yn+JUP5GRR1Hr8adC16MGz8+A8B6c+3UuI5toVGp8MV/O/HKsnWoZGeLFX1ehY3aLDc2D/dQOS1AKXojrIWU2q/+UnNU/gAgVasJcq4C3fZ1yJw2BPKlSEiedQES2xcegBxJxYOKUv7zR/xpx1CWCeVfwJsmDK50zXdVSFCI2dDFLAyAXOXfeAWAQYLNjAsFPKzI6yyZ5TJAgyqV0bOpD64npyL0+GkciY7FoevRqOHihNquzuY6TEM9VE4/l9ZyQOp57xkgNivDmxxd72myPxeAs9KhadsdqnrNYDtqNhy+3QyN/7NCoIsz+oAvHFdePFmkZWDI/hYi50MxjId+sU7SInPZGGjyBgAz6Gqqz08A9xfcZRIzQ88Z8xtUKRQF+PyDMADHza074wPbQUUEiQhvtG6O4W1a4fkG9ZBtMOBKUsrd5yZ27YDPu3WEncZsTpsOd5865+snfUnKgPpTAYwxix5rrGEdNAaOPx6Aw9d/3WPZ9GToNi8D2TnBfvIv0LR5DrodITCcPyLkuWgcdNZHzSjqxrxhIV1AeEeQ6IGT5JvzhmyYJwyAUsCMhY2/AmO4YCqTgRVL6qKNMeJl5tSRZh7V0L1RfdxMTUe6TofJzwbiy2c7Qa1S4cv/diPbkJvd1KdqFYwIaIXXmjSCWjKffT4E/sh9yqzxj638+9V7D8yfmUVnVSrYf7YS1q++A+XmZej+W5UvxK/bvAScngKwgvTPeiB78SRw8i1AJeoVFUC2RBhKoYXrfPzwTogDmBZCHP0sifCNmjs05HNhADwBvl3oMwrEnwhuMrUgQNHLAJJkvRJAjrn04+PA9iAAX+/Yi87zV6DH8vWYsGkrnl+0GssjcoMZEhG+fbEb1JKETzdvR2pOjlmNFQHTPCfPHvbIyr9/vUEg+s5c+qlu2RWq+i2R8+cCZEzpj5zffwKY7/FsZhp0mxYDJEHz1Msga1tYPf8GHObsgORRRwj1PYb5xHF11Omibsk5NJuBuoJIJSbml/OGbjDp6JnJGgDTFzXqT8BcwUQmqVSaTlvk26bg9ehP300g4Hdz6IO9lQYO1hqcib+NX0+eBQCEX4/BqiMncCI2/u5zb7RuDr/qHtgedQWbz0WZ5XAx8c/uU2cGlfQHqf3qvZpX58FsPD3KO7qpqtsUmvavwKprP1i/PAKagBcAyp3mdP8sA6cmwOr5N+EwZwdsBk4EJ9wEWYlEhnmCvd9JF1Vk6Pq7oSHPo7hkYAIPcpZmzB0SOsB0h9wEMWNB4xeY+HeI9L4mzNi0YMLw0yMLXvf8csYzLElbzKUfle1skZCZVeS9qg722P3WG9CoVOg8fwWuJaeY85BlM+P52M/H7nrQQ2n963dUwP8BsDKr3mmsYP/pCqga+BW6pftrIbLXfgsAsHphMGxe/xTKjfPI+fV76A/9ky9SYMHIYBnNXdZHXSx4Y/6IEOccWToBcA1BpseCnoiff29R8HZhADxM+S/xbcyysh+AyW7B1qhtoTdkWTpTp9vpJI9Ro06l57uq1UoeKqdLAGqZewfn93oRL/s0wNRte/DjgcMPfFZFhIZVq+B03C1T7lKiCqq2Nya9X2T99qS+jWpLkiEMQFVT7YCqfktY93gb2Wu+gRJzqZARoG76NCSXquDMVECRYT1wIsjOEWkj/QGDHtBYQ92iEwyH/xOKP79FP8p5bdSPRd2aOyx0OVicwHpS2VOYn/pgSfA5U2qUSS0B/G95o8osK3+YrvIntGoyEMP6/AtnRy9LZ2iHTCsuHFbWahUGLTX3zgXWq4WXfRrg7K3bWBj24N3itVydETowCP8Nfx2fdXkaKtM9X15JZvmP2trZLgVv3BrS0JEkwx+mrvztJ62BukUgHL76HVbPDsx/ll+vg+HIdui2r4P+4Cbow/8Dx1/PvSfnlavX58AQvkUo//xe4HantVE/Fan8h254WSj/0pE9FdGmuYNDTKpqpskYAPPn+2k0OvoFQD1THD0rjT1e7joLXdp+gthbJ5GjSxUsXcyaoEpWLQYgm3PH2tb0AgPwdHREnxa+RYbKCMBQ/5bYPmIQmnlUxcWERAxt0xLWppxAiNAoR8XrodXebSRrIVlly6sJaGrKY6LcugFIKuh3/wrDhSOweeNz2E1YDHLNb7NInnVh1aUv7CdvgKqRP3JC5wiFXzwyFBkjCChEoO8H/VoZ4AWCRKUVZEFdSPRrbvlkYQDkQ4qU+SOATqY4cFVcvTHotV/QoHY37A6fhd+2jEJ2TirsbatYOku3n7HEt3HBq9Ha0TdAvNWce/bNjn14Zdk6XE1Owbfdu2HjG31Qt9K95DJezk5Y/3pvTHkuENGpqXhl2Xo4Wllhz+VryNTrTb17z3pIztPv/JF63nsGgJdNntuSb0G+fAIqnzbI/HowsldOhdq3XW5Sn/av3DPWnx0Em6FTILlWQ9ZP46H7Z5nQPsXZg4wPilr3BwBFLc8D4C6oVKp4mjMyfhIGwH2YvsDnIwKGmeqI6fQZsLZ2AkC4nXgBGrU1ugd+g4GvbYCdTSWL5mZF5iHFWLtmXyAo4sZNvLB4Dd7/41/UdHWGtVoFAjCgZVNsHzkQT9eugT2Xr+H5RWtQ2c4W1Rwd8O/5i+Yy83/gMWXmyNT+9d+EiSb6karVLHTNcHQHpKo1civ6Hd0JJf46yM4Jtu/MhO3b00F2jsjZMBsZUwcgbUxn6PduFCqneJNqq+PaqCLl9LthoT1A6CdoVAaiRxg8b8iGt0yhLUbPWTx9YaNAEC2Hie1HIJJQpVJ9ZGYlIEeXjttJ5+FT7yXUrdEJjeo+j1rV2yHi5EpcvrEHRUTPLIeZgQYvP+Myd/PmxHwh/1odn4rKkqzfAmBv1lMkgNNxt7Ak/BiyDTIWB72MEQGtICuMHNmA2q7OSMzMRqe6tdC4mhs+2rQNGbr8EQA3ezvoFQWKiYWhn864Uf2VlHNDYGo53YlgHTQGdu9+B/nc4dzQ/x1kZcCqa1+oqteDdc/3IDk4IztkFsjGDuqWnSG5ukG//y/w7WhAkSFQLJINRM/ZnUgstJY5Y8SaKmpFtRmAWZZMtHO2QcN2NVG9gRsUWUFGcrYpTpzPdW/Vd/vmoyHXLdYAmLOwSbW8I0cmVUVOrbbBy11moKP/OJy9+DdydKlITr0GlaRGba/2sLOtjD+3jcXR02sAMKpWbgS9IQuyorfEicTOoJaO/ffn7TP3X7y1c6fs2Pl5dxDaVYhIBzN0BgOcbG3g7uiA19f+hmURx9G2lhf6tvBF42puOBodi0WHjub7nZO1NTYMDEL3Rt7499xF5MimoZRc5JykXy+v10iAq0kRWmMN25HTYPXs69Dv2wjdf6sB5V5xNU65DavOwZC86oPjriNz2hAYwrdAv+c3KNfOIuePBRZtkD+CaTvSdc3FPUXdeal53+UgtDHHXnm39sKrYzvA288LNX2roUnHunCp6oArJ2LBiknxhQrgF57177vm34iQdGM1wmhet1YLSQ95FQAPUxoVG2tnBD2/CN61umBP+EykpN3zPvYd+QHXYg4CAGrX6AAAaNYoGP1fWYt2Ld+23CiAREVuBiS1vLBCTZkAloYfwzMLV+HsrQRcTkzGy0vXYfO5KEhEhcL/1mo1lvfpAZ+qVdC+dg280bq5aYwXM/9yaf0FNbNJHWUhp0qwn7QGmvavIOeP+cia/zEgG6DpHAxo8tISMEN/dAcAIGfDHMjXcpM4QTZAf+hfgBUIPBR/Oa+5uKKoG3OHbegHQm9z7FRN32p4fkQANDZqHPn3PEKmbsOOlUdQr1V1PDvM3xSb7KGS5dVa7Q6j7Ro2mgFgX91nMoBupjQaLk41MOCVdaju3goJyZdx4twv+RUAy/hrx4dIz4hD0wY90e/lVXj2aS0uX9+Ng8fmW7AzgedmLPIpdO4/5tMPzxJwsCJ3XSfLd8sG/3PungGgIsIPr74A/xqeOHcrAQBMJkfAtzFbd1U3pJuch8dZGXeP66m8m4NsHWD77hzYDvsKVh163n3OkGcAqP2fE6r80ZGg0huKrK0ye8QvHmD+3hw7ZWWjRpc3/EAS4b/F4dgXGom4K0k4uesSTu25DO9WXqjiZYqny6mz643bEy3KAJi5qHFXAB+b0jC4uzVB/5fXwtrKAddiwlDF1RsvdZkJovyrJJlZifh92weQFT083Jpjd/gs/L71A+To0ix5UpGAYsvFLqrIHddIEvy8PHA5MRlRCYl3r09+rjO6N/LG3H2H7mYaPBYTmyvyABq6VTZKe7ukXzn+cuqFDiZJTH0OMme/A+XWDagbt4XDd7ugCXge2Wu/hW77uruPyScPgDNTIZ8LF+r8ka0ses8h9EpsUbfUivIDALPc1dwgoCYcK9nh/KHrOHfwWr57hzedxfqvtuH2DdPM5EmMSfOGhQZahAHwvyXebjLzapjYxiOdPhMpaTew5s/++G3L27gZH4l6NTvjmfaTCj17M/44tu2fivV/v4FDxxdBrDkCzDQsJKTwmOpl6/UAKqx1pFcUvLY8BAsP3UsWNLp9Gwxu3Rz/nLuI2bsPoplHVVxLTrlrCHzUuT3+GdofftXLd/XLSc5JnXv9HzdTk718fJSagMwZI8CZaSA7RxiO7YLur9yVJE2b52DzxudgXRbSJ7wA3dY1QqE/Gn53XnthbVE35g4JeZMZr5lrx5zdcvcaXz1Z2LbJTMlG/JUkk3agmLFy1tCQcje+yt0AUBs0CwioZmojkJh8Cav/6Ivk1OvQG7Lx679vITHlMpo1Ci5yfT/ybCii4yyynjgDSMr7LwHA5bx/O1xNaVTIs7ylHZUOIKQiE+RM/G0sO5xbPbBnk0b4qHN7HImOxaiNm1CnkiscrKzuev+vt2qK0e3bICI6Nl/RofLA2iu/nlBD8TR1eio3LiBr3vuALEPdsjOsnhsEq5eGwXb0XKi8mwNqDTgpHhaK1Huyx1fy/p1cgt/dklQ8oqgbswaFVAfRLHMmSkJM7mGG6vWLz81CEqFuS0+0fdUXzbt6w87ZpIpAeamAck+6VK6bD75d0OhNIrxqDgyVlZOMX/4Zif6vrEF7v3eRnhGHE+d/reiTSxJApwG+COAqEa4pkG6owHEMTpRJSfxo6LlH9uZJpcyATNkMqgdGXRBqw9yKzZQQjau54WJCIl5f9xuy9AY098y1dY/FxOG5BvXw9QtdcSruFgaH/A5dOZ4IGJh4/EA9XVJ7U6GTulVXKHFXoUQXXWHRELkH2SunwubNL2AzcCJABP2hf5D904TcnP4VDwkAzoJwGcyXiegKM6IZfJuh3Nbr7RKqhp566G7x5P41XWVF46BWUXUiVFUUdicmdwbvdVx5Mb6wNc80Tx26GKZ2GuQRce7gNTQMqInGHepAl21A2B+nocu6xyf2zjboPuopuNe952S369kEW5ccRlTEDZPoA4F6zR0S8uboJcHLyu+b5YQZi3xqsYJIkGkc+avj9TSqV2uFI6dXIzMrodjn3Ks0QZ8Xl0FSabA45AWkpsdUlAknBkAYEw5KjKOypJz6aOi58umcVquuprFvJLG6OTE3B6E1M9rAzHMG3IGTjTVSs3MAAF891xmD/Vvgs3+249MuHZCYmYVXlq1DXHpGubXHXZ8Rt+Piciti05jkJY86cJi2CZyWhIypA6DcvFzsszaDJsHquUHQ/bsC2Su/qiC7/PkmgfaD6BArSqRGozpht+J8tDFa8t3QkOcJ9AcqQOVVK1sNug1ujXqtquP66ThsnJV7ylGlUSHo085wq+GCtIRM7NtwAtkZOWjXsyncarrgtxm7EHP+tql0IwUkNRm9qFe5WCXlYgBotZDsq/tsAxBoChSuXq0Ver+wCBq1DQxyDk5f+AOHTyxDYkrRE1GdGh1gpbHHuUv/mLN8xALYSsRbSVJvHzfk5HWTap1Wq3aXXFqSJLcnhboxoTMAO3OflP4a3A+tqrvjdkYmJCL0WL4eFxPKdz1yz4VlEW6GTD9Toot1z3dh3et9cFJ8rhEQe6UYa0EFtW87GE7sNWc2iAPwL4CtDGmfy5rzl0ypcbOCQmwlJ5U/kdyBGF0Bag8zjtC516uM1FsZyEzNTQDUsW9zNO9WHwk3UvDbjN3ISs81zm0crDDwq+eRHJuG0K93mEz7CbzpvcXBL1YYA2DGAp/3mTDHVAhcw8MffV5cjrOXNkOnS0OTBj1BJOHStV0IP7EEN2IjKoqXHwnQb8y0cfzwU8eJzGe3Ym2t1kancurIjBdB6AnALMsvHv1gBKo52CNLb0Dwqg2IiL5Zrt9/63bEvg9uhbU3RdpY93of1j3fhZIYi8ypA6DE5e7eVtX2hc1gLTLnjDLntf5jzLwBKtrsvCrqKJnRTuEf3glxULLRhYleBtALZrw8QBJh5LweUFupsHrSFiTF5l/B7Pt5N1Sp4YwfR/4KxZQSBTHeGL0kaIXZGwAzlzSpocjyKQCOpsQYfV5cDs9qLbDsl1egKAq6PvUZ6tboCAC4GR+J8BNLcOHKNjCbWTpRwgUwVrKiWjNh5MmLqAhgJs+vZrVjRQoCcV+YUYGSBlUqY2XfV6H9bxc2n4sq129XNmQm7rmwHBLY6Ee7pGo1YTviG2T9OA5Kwj0jyDpoDKxffQdKQgwypwwAOVaC3SdLAb0OGV+9DiXarFj4FEDrSJZDnNZfOl8RRG/ue5uskZn5LIAggF+DmaUHVlup8PYPryHxZipWf74lv3x4OaPfF92Qna7DojF/mlrTkw16bjJ2RXCZLg2V+SZA2SDPJTIt5Q8AB47+iODuSxHYZgK27p+Myi71kJ2TgpvxkahT42kEBnyE2FsnzWXNPxPAWiZl6fih5/abk6dfMqOGOAbYD2A/QkI+9DwX3RnACIBfZRNfuzx/OwEdflpWrhv+7mD5td/PSuCnjD58TpVyy/Y6uAJW+Xde54TOBlRqWL88AnaTVoNsHfKU/0BzUf7ZBPypQFrgsub8VlQwjJ7XPQfAnwD+nDbkd0cbynmVGANA9AxMrH5LUTDoZMRE3YZbTRc4uNoiPSn3KK5TFXu8+E47EBGO/XfBFJvuotbQ3LwIjHlGAGYsaPwCE28yNiWtNPZglqE35C8K0e+lVaju3grpmfHQqG0RunkoYm+dRNXKjZCjS8+XBtgkHWPQJWJeoLfmRZ++cTYBFgavqbOqy0yjAB4BoDIE7uKllPNHZsRsbWV05W9jB7uJq6HyaoCMb96EfDYcqtq+UJLjwcn3MiNa9xkH61feAqcm5Cr/GxdMncSXAfpO1svLKoVeSrE0/po7Yl09GFSjQRgGE9+rU7W2K3p/FIj0pCwc+fc87Jxt0LyrN2zsrXDlRCz+mrsPfF+hLs8GVZBwIxU5mTpTmOVfGr04+G+zMwC08/3s7KXMkwDqGNd5lPDqM9/Dwc4Nq//oB0Ux3L1Xq3o7BL2wGIpiwPq/3zSnc/2RDMys7XxmdXAwLL7kmad2vh2r0geCaAIYdS2dHjZsyD58duEtNbiGsdti+94caNq+CMPx3cicPhxS1Rqw14ZAvnYWmV/nTx5p3fM96MM2mbrnf4iBGc76qF8pVMje3MEhbpBoCIDRAEw2x4RXIzc8O6wN7F1s7147s/8qdq46AoPu3jA26VgXnQa0QPS52/hjzh4T2BdAFx3ltCaDlw0uk5KGZWYAfLuw8QwCjzP2wHf0H4s2zYdhV9h0hJ9YWuj+nShAyKYhdwv9mCoIOMSEyR8OPbOpwoX5S8Xq1EruasdepNBUEBpYKhnmxGzZ9XxKVCdTaIvk1QB2ExZCquwJw+EtkGo0BNk5IePLPlBuXgbZOYKz0gFmE5c9ilTAU13WRIUKQSuMWUEhtmonGgTgUwA1TbGNaisVavhUhY2DNeIuJyIx5l4lZI21Gt0Gt4Z3a6/c7ZoErJ+6zSQyCBLh8/cWBU0xGwNg2sImPhLkSJRzoqGC8PF+CS8Gfotzl/7Bn9vHwUpjj1efmYu9h+ciJv4YAKC219Po/fwCXI3ej9DNw0xVvs4x82fjh5/9VSj+EhkCag+V42ACfckmVm2yzKMh+rTY7VErHWFCORXIxQ124xdCVdsXAHJL+EbuAdnYw+6LdVAunUDWwk9NlaSnCPjMcU3UHyRyfj9c9IJCrCo74W0GfQnA2Rza7FLNAd3feQqVqzvhzP6raODvhbTETKyc+K9pjDghi8C+7y0KvlzqBnpZtFcF+VtjK3+Nxg5d2n4CANAbsqBWWeHFzt/Cy90favW9jUhXbuzF5et7sCd8jinyZiID72REV2syYcTZX4TyL7EBYLg5adxC2UauzyAtgHRL6frC639dhoklVOLkW8ic3A+GI9sBADYDPsk9FTBqFlTVvaE/uMkkZQ+gD5xivFo4rYn6XSj/EopeaLDuvcXB32k0qgYA/QTAYMrtrdvCE30mdoVLNQdsXxGB+MuJUGlUOLXniumMOMOWGWWSqrnUIwDTFjfsLCnSdlOgm1ulhnj1me/h7Fgd6ZnxcLCriu0Hv8aRkytBJOGpVu/g8Inl0BsyoSgmtZzHYKzSq/XjPh0SdUtMK0+GGtppngaV5hsAAytyPztkXDu58NpfvijHDJ+FrX8VrAKDIdVqDEPEVhiO77rP3VDB5o3PYdWtf27ZX0mFrJ8nQL93oymRUQb4e4b+S5c115KE9DwZZg9b56Ni1XQAL5pa29q83BgBrzRGRkoWNv10ELEXE9Dvi2dQydMRS8dvQmZqNmwcrNC+V1PsDT1h/E2BCgeOXhq8qzRfWapeulYLSVIkkykqcSvxHFb/3gevdJsDL/fWMMg5iIk7CgBo7zcabVuMQEZWAo6dXmsyTEnAKVZo6PiRp8PE9FE6uK79KAbAIPcvZ68lFX9fETcKEjPPid6iMqryJwm278yEpm3uXG/VtS+yF02Ebsf6vAlMRvbSL6DcvASb1z9FzvoZJqX8CRTJJA9zXn1J1BkuJYxZ1PcMgJe+Hx76kqJgAUxoSS4zJRsxUbex+eeDyEzJhnvdSqhSwxkXj0QjMzUbVWu5ovs77eBY2Q43LyXi9J7LxmbQ6QwOIBCX3itLEd8uajyEmBebGhOqJA26PjURzRoFQW/IRuTZ9fBrMghnL27GXzvGw0RiPQYQZlpn6r8YPToqR0wdZQOvWbNsDRn0BYHHwwzOMZcUAxJPhE2K2xNgzDZY93wP1r1GQ/ffahhO7oPtsK+gJMYi49NXCstknSaQL580FfLpAJri5OA0jRZE6IWUlA3mDg5xYwk/EaiXqbSJJALn7fTv+oYfGneogz++2ws7R2t0HtgKzMD2FRE4d/CaqTiIwe8tDgotxfeVDqavaGaPHP15GPUoCMG3fg94ubfC2UubcTX6QL67zRoFo9tTEyFJasQnnMHaPwcUyg1gJJxjBf0njDxzREwT5YPqX87sqki0BCa6Y/mRDFxW5CPnF161VmSjRTbUvu1g9/FSyDcu5Cp8ZtiN/QmSVwNkr50GZKWDM1LBWengpDhwTpapkO8sSxjgsipKyF45Yd7Q0CAGfgRQxVTaZGWjxuAZL0GXpceZfVfg/5IP0pOysOmH/Yi7YjorQQRcSkhlH21ocKmsR6hKq2HPdq/0AYCexiRN98Cv8VSrd1CtSmP41u+BzKwExN6+52XE3T6F6zfD4V7FF79ueRtZOSaQv4Ox0k4v9Rjz9umrYmooP6Tt3HLZqtOLS1QS1yWgiTn35b2E8APtMqKbG7MNUo2GULfsDKlKdajqNAWn3IZ1r9Egp0rQtH0Rmg6vwapLX6hbdIJ+RwhgMIUkK1iZpbLrUWXVmWtCIsoPm4+Gnn6pedBKlsgHMI3juj5P14Z3q+pQaVTwalQVN87GY+PMPUiOv7d/WKWW0LyrN25dS74bNTACXG1spLh/joSUyjJVqUQAcr1/3SWAqhqLKgHNR6CD/weIPBuCyzf24bkOk5GaHoMVvxWONhFJYOOXFc0A8Yjxw86uEVOCceE+eeYgIvoZgK25tV3Diu7o2flxppD0R6paA7bvzYGqbrNc2zY9BZmz3wbZ2IMcK4GcK0GO3Av52lljNzWdgSHiTL+xfR+m74dtmMgMLYy8HOdRrzJ6TugESSXh5O5L2LX6GBT5no6o7OWMZ4b4w62mCw7/fRYHfjPq8lWsIZXrjg0NfuIwWqlEAJ55sfL7BLxmtAncrQleDJyGlLRo/PLvSCQkRaGmZwBcnGtBklSoUqk+qlXxRbUqvsjKTkSOLs3YvH+NwC+MH352i5gGjI/0HVuO23d+YSsI3QmmV7fiQfg0bt++FtlxzUxiQs9IhX73LwAz1I38QRorcGIs9DtDoVw9Dfn8EXCKseuu8zmJ6BnnNVG7BOcbF1/iS2w+Err7eb8+hyn3lICN0eaApCzosvQ4F3YNh/8+ezc1sKSS4P+SD54b3gYOLrZIjk9HneYeuHY6/m5dASPAgawo7p+joYeMHgHQzvezs5MyLxFQzVjUuH9t/2r0ARw+uQw9n/0RRPntm5u3TmDtn/2Ne+SPsUUlSf3GDjuVKKYA00IN7TRPWaX5hYG25tBeK1b0R84tSFCzYnLVEdWtusJ25DSQgzMMJ/Yh68ex4FQjszzx3wZQ/8qro1IFt5sWvntzQ31S8UYAjU2lTZU8nfDMUH9UreWKjJRsbFt6GLGXEtD/y2dh0MlYN3kr9DlGS3Nw01FOr/ukKYKfOOziIGW8bUzlDwCRZ0Ow+o9+SEi+iFrV26HXc/ORlZOCNX8OwKqNwQjdPBS/bRmFP7a+b1TlT0TLnNjuJaH8TRPXtR/F2DmrAwFeaw7tfetW+CFTVP4AYDiyDRmfvgz5fASkql6Awbib64mx0Cm6xqtC+Zsm3l/W+0IWW7Ulwm/GbgtJhFbPN0Tfz7uhai1X6LJyeTf2UiJyMvXYtuww7F1sUK2OqzGb6ZEuOb5p1AjArFletgZHx8vGNgDueh0qazzVahT8mw0BkYTTUX9g674p0OkzjN00JmLth8POThaibgZgJs+ps75g0Bem2kQVK8qxcwuva1iuZdK0VKkguVSFknDTWC1QiDHeaW3ULMHYZiB6YJo3ZMMcEEYbqw3V6lRC0KedocvSY/uKI0hPykLvjwJx9uA1bF2Su/fO1sEaWelGP619LTGV6z/JiYAnigDITk6DjKX8JUmFzm0/gnuVexu4DXIOdofPQujmoUhNv4nG3q/gjZ6/oZKLUfO+KGAeKZS/GYGIYyaN04J4DEw0BeyApJPhJq/8AUCWjan8ZSIeIpS/GYkeiN9b0vsDgIw2ZnGXE7FrzTGs1W5F1OEbiL2YgOPbouBW0wUa69zceSag/AGgZmVnGvBEevTxnSQQmN83Vs87+o+DX5M30NwnuLBZFBOGZb/0QOTZEABAWkasUSeg8SPOLhSibX64OXHcHGIaAUAxtbZ9cOugixihB0KngIKdVl9cLkhhfkbA6MW9xwH42FhtOLHjItISM+/+vf/XkwiZui3fmr+VrQZPBzeDbwfjVbxn5rEMpsen9WPi24U+3Qn42xiddnWuhSG9/8blG3vw25ZRDzzSZ2PtjGzjnPfXEaHPh8PObBQibd7wnDq7HzOvgJELXN1B17RLx3648U8LMTLFIhvEPZ1XX9wsSGHemDs05F2A5sKYKa6L0Jo+7WrhqV5NYedsg5T4dKyc+K/RcgMw0O39xUHbyjUCAGCssehfp0ZHEEk4dnptkcrfo+q9U1FGUv4yA4OE8q8YiJk4Zi2YB5tKJODjuAM6MSrFQk8S+gjlXzEwenHw9yAeBRNZinOr6YLeH3VGtyH+sHOywdkDV7Hhm53GTAwEMD543J8+lgEwfZFPEwK6GM8Ak/IiAbUL3VOprBDcfRkCmo8w3nAAIycMP7NeiG/Fwc3Px61ixnvGbkd1fWpsDX1KKzEiRRveAA9yWhX1hyBFBTICFgX/BOBzY7bBxt4KHfu1QJ+JXeHhXRm3riZjwzc78N/icGSmGjedPBFenDdiQ6NyMwBIwRgYMSRzNXofAEZ7v/dQu3r7fPca13sJGrUNbiUaJ9sYM70/fviZxUJsKx5iPx/7I8CfGrMNn8fvPQcTWYowMTARRjivubhOkKIiRgKCpjLhZ2N826WaAwb+73k07+qN7Awdtq+IwPqp23DzYoKpkIdYxqjH+eEjZwL8Zn5dZ5LUSwFojNXbzOxEWGnsUcOjDXy8X0LVyo2gVlmjhqc/AtuMx62kc9h1aKYRXH+aOWHE6alCXCsu0nds2evQ9bkqBLQp729bsZzzdfR2ZwLsxEgUwmTnNVGzBRkqLobUC/on3ZqaAPApz+9mZ+pQu4k7Yi7cxt/z9iPmwr1slmorFdzrVoZzVXvkZBog642WZ6ZRlyYvz/sv8rdHSrjxyJ6EJFn3hwlMQLsOzURmdhLatXwH9Wt3Q/3a3XKNg6wEbN75Mcp/yYg3ZEafmSDE1AIiAYbUMR6SUz0QXijP776ZcDxCAj8lRqAQVjqtifpSkKFiIzg0WJ4VFPK62gn/AdS+HD07bJy5G8p96/xWthq0edkHvh3rwsomV43qcwzYs/44Tu2+bAzyOFlZ2fUG8EinXh45jD99oU84gNamwhTWVo7w8X4JVVzrIz0jDpFnQ5GZXe6J9iJUaWkdxo69kSXE1DJQZdo0R7VOs5eAcsvDv//CsmOVDJktBPXzTWF7nfRWXSn0lNgYaSH4ftCvlRWNsh9go1QStHGwQq8Jgajk6QTZoOD66ThkZ+hQu6kHbOyt8NcP+3H5WIwxmrZn9OKgjmVmAMya36ipLFGkYMF8SASU1uOHn7ssSGFZcNfOrk0qPgygcll/y0ufenNr1KpqMHLVNNPS/YhVyyo/+3XnYgQxLAvfDf21CUEOgxGi0YEDWqJp53qIvZSILQvDkHIrN9OstZ0Vgj/rApVGwvKPNxvlZIBMcuMxi/qeKenzjzSZGFQ0VLBeAXoz9xfK3zIRqx1zhRSlH4AyX/gbFx92QSj/fNATScFC+Vsm3l/c8yQDRklE5+VTFbosPf6auw/pSVloGlgPVrYa5GTqEP7XGThWsoNXo6pGoYvEqjcf6fmSPqgN8bUiRn/Bevc5IAzthyPO/isoYbmI+eLD/wj8v7LlM+Zn0i7WEdTOR5UPnVad3yPoYMlGQNAiBlaVu9enV5ByOwNZ6Tmo1dQdga+3RItu9QHkphHWZenh6m6cquIEDNJqd5R4b1+JDQD7ZOVFAG6C7e5iV02XM18LMgjEyGmTGThQVu/vlHHtpJqVGoLSd6e5TU5rLswTdBDQ6bLeAnC6PL95OTIGlas7w6GSHW5GJSAnU4cWz3jDylaDpNg0zH/vd0RujzIWSdwrXUsMLHUDABKCBbvdRZKsSIOCgyELUghAqzUw5AEAyqTU7FsJEcmCyHdxS6XXDyUTLdIkUL4Yv3JQhiRRMIDM8vrmsf8uICdTh5dHt8cb37wAazsr6HNkuFRzMBH7WOlTqgaAdmltGyjoLtgtFwy8/fHIU9cEJQTuIG7S+MtcBiVMVawozbLiGgoK581tjKEOoVdiBSUE7uDdhb1PgeiT8vpedroOO1cdRZXqztBlG7B77TGs+GQz4q8kmQpJXps/Yn6J8vSUyACw19u+AIKTYDWAgL9Eml+BohA7cexyBpVqGtqOmddOSsxVBXUBAKud1kb9KcggUBCJXie/RxkuwxVE1OEb+H3OHqz4ZDOOb4uCbMhfJqSSpxM69GmOzoOMkrW7ss5QqVupGQBMCBIsBgBIkQzyW4IMAsVBTfwOgOTSet/w28dSBFUBAAmSiscKMggUBa1WqyhEbwHQl9c3r52Kg0F3bxVYY62GT/va6P1JZwyY/CxaPFMfDfxrQGNthMzdhD4le+xhhF1a28beYBsPwNHiuYzorfHDTs8X4ibwIHhOnvUuE554k5oE5sgzP8erwdUsnqiMgc5ro1YJ7hJ4EOYNDZ3OwIfl/d3mXb0R0MMX1na5kffb11NwavclnAu7hpxMvTFIkZRYo0pVrbaz4YEOy8Pe4qi3f1YhRSh/4Egtp9OLBBkEHoaYRl4/eZy7MQxA8yd5T7uMG2fU4MZC92O3i1D+AiWAlcrmC52c3ZOBuuX1zUZP1ULHfi0gGxSc3nMZJ3dfRtzlRGOTwtXleuJTAHY/2Ml4CBTIYvMfwAz6QOz6FygRgoNlIuVdPOFO9b5Jp24LYkIBROhfoGQYueDlTIWoXMt212tZHWBgwzc7sG15hCkofwAAQXnxYc88fA8A0bPCA+E1E4afFklHBEoeBZj44V4GhTzJO57KvGHxeTeIsdhlzcUIwVECJcX7i3pvYuC/8vqebFBg0Mu4fS250D23Wi7o/HordH2z/MvnEPBkBsDMBY0aALD0DGR6KOovhFgJPLrhaPgEwGMVqakiZybayzpLP/6XIRkMnwtOEnhUSEyfopxyRdw4Ew+1lQoNAmoCyK0U2KRTXfSZ1BV9J3VDk8C6cKxkawwy+M5+c23txzYAFJKeF7M4zZ8w8uRFIVICj4q4SeMvg7DkcX77WvKZc7Dw3P8EfC/O/As8Dt5b0vswwH+Vx7fOHryKlPh0dBvSGgMmP4ths19G54Gt4FLVASd2XsS6yVuxcZZxAshqlfqBS/gP3gTI/OyjFwyuUMhkDX0lxEngsQXQoJ9iUGneAPBILkCPlPOWTrp00mOm4CCBx3fe1JNA8otlbUgbdDI2ztqDwNdbolqdSoi5cBvnDlzFhcM38h0TNAoJgGcB/PgAI7toaEN8rexTlAQADhbMQXPHDz/7vpAkgSeB+9RZ84jx7qP85vTZn+ItOwEQT3Fec1GE/wWeCHOHha4HW3Qa+8TEGqfctFqtUtTNYi0jh1SlrWUrf+gklXqGECGBJ4UE/pYeIUGJty7pmoVn/8skVs0VnCPwxLJH8iQABmO2oZKnE/xeaIjeH3eGWy2Xcv985SuNfYufm4qBwvyUJTMOMVaNG3LyuhAhgSdFzMRx1xlYV9LnX0i9aOl8t9xp7XlxBFLgifHuwr7niVCu6aPVVirUae6BzoNaYfD0FzFg8rN4qldTeHhXRq0m7uVOA1ahU7FtLd4yoPaWXG5LYp4jxEegtKCSpBmyogwsybNd0i5ZMqkUYkl4/wKl58yBf2LQa2X9HcfKduj6hh88G7hBpc7zrRmIvZiA62fjUcOnGmr4VMPhv8+WswVAnQB8X+IIADOIgbYWzDO7xo48e0KIjkBp4cZnH0QCKNFW4Pq6pBoWTKpNTmvPnxUcI1BaGLUoaCtAZb6rNistBx7eVaDL0uPsgau4eCQaDMamHw/g4G+ncP10HKrUcDaGBdSJwVRiA2DmggYNAVSxVIZhoh+E2AiUuhwSP5SvPAwZ8WpFrmmxNGIsEJwiULr6j5hZKfMaLgadjHWTt2Lx2L/w3+JwxF1OAhGh7WtN4FLNAdXqVIKkMsrJXrcfh4bWK3kEQFK3s1jlD8Q5y7YbhdgIlDZi3Bx+BRD3oGc6pF29arGyx4h2NERtEpwiUNpQFM0SAJll/Z2k2DQwM+q29ES713yRk6lH46drY+BXz6OmbzVcPhZjnP4T/EpuAMByNwASsHbkyAi9EBmBUsfIkXowrX3QI+2zrmVarOxJWEyhot6GQOljzLLXkvEIG3GfBJ4NquD5EQFITcjEys/+wZ71x3HpaAz2rD+O7SuMk9WaIRVpAKiLUYKtLJVRJKIVQlwEykzJqbCSFXxQ3P0mGfG2lkscXik4RKAMLcyFYGVIWX+mY98WkGXG39/vQ1ZaDo79dwHH/rtg3L4rXLIIQEgIVAB8LJRFTo4bdvqokBSBskLMZ2OOAHyyuPvV5ExLXf8/7LzqYpTgEIGywuhFvQ4CVOZp3a+fjsOWRYeQEJ1qQsYP/IraCFjIALic1tAbj5i2tAIhRIiJQFmDiUKLul5FzkxUs+JuiTQhJiF7AmUve+BfyvobB38/XeRav72LLeq28ETb13zR5pXG5d1156I2AqoLC6KqWTkVUTI5qBTeKEREoMwnIQW/EeHLgtf9M2OuAKhkiSSRWRUqOEOgrCExhTLxhLL8hqyXYWWjRpUaLnCr5YqqtVxQtZYrKnk63X0mIyUbh/44Xa59l4maAYh6YASAmJtapAdCuCLO/guUB+I+H3sCQKFFQf+Mm+kWKXugE67rzl4RnCFQ1nh3Sa8IIkSX9XdeG98JvT4KRMe+zdGoXS1U8nRCVnoOTu25jAvh12HvbAMH13IOtCtoVMggKuKxJhbplTGE9y9QnihUqtQnO95Ca2/yZsEOAuVkbLIC+qfMjfzLiQCAA7+dxO+z9yD6/G2k3s7E9uUROL411wmvVqecg30SGpbEAPC1yCkI+E+Ih0D58RtvLXittj7NIotvyRL+ERwhUH6esPJ32RsASQCAq5GxuHYqDjcv3EYVL2eo1BLiryZBNijlbwDwQyIAWi0kALUskCV09jppt5AMgXKTRRtlFwDd/dec5GxL3ACY5mLnvE9whEB5wUaN7UDZ5pu4EwGoVi9XycdfTUJmSjbsXWwhGxRs+vEATuy4WN5df3AEwLFmk+oArC2QJw6OGnUqXYiGQHkhbvz4DABhd/62ZUOGyjJPABygBSLxlkD5YeSC4BQAkWX5jaSbaYi7kpsKGAAuHo3Gso82IfV2BgDgSuRNpCWWe84v5x/eDHEv1gCQZaW2hfLEHiEWAuUPuht1aph9+wYAS9wDcEDwgUD5ix52leXrmRkhU7fd8/JN5GCdQYJ3sQYAwHUskReY+aCQCIFyn4OI70YA6uckplik7EHaKzhBoNxlTyHL5Dsir2INALJQA8CK1OFCJATKG7JBvmsA1MlJybZAEih6GwoTnCBQ/nqQDltkv5lrFG8AkFTb8hgBVz4YfjJOiIRAeSNOOz4ewGUAqK1LtsTsWxfdlpxLE5wgUN54d3Gvq2DEW6AJUHwEQClgHViECwKOFOIgYCww6AQAVDekqS1uKirjjVgCAg9hwCMW2OfiDQAAVS2OHop0SkiCgBGV4CkAcNNn2lme8QOReVPAmAxoiXP/g/YAoIoFzsCnhSQIGG8SUk4DgD3nOFlc15lOCgYQMOLkf84CO+35oAiAxRUiUST5rBAEASOqwTMAoFEUZ4vrOeGiGH8Bo839ZIEGAKFykQbA3FXeTrDAJECymi4LURAwmjwquJoriGxxEQBY6a8IDhAwmgGqKlyQq+J3GrZz39t0V8/f3Xgk66QqFsgDmZ++cTbBEjrq5+fXVKVSdS/iVgozRyuKciAiIuL2w97TunXrNkTU5YGWtaLsjYiI2AsAAQEBfszcDQCYOS08PPzHB7y7nyRJNfPeceTw4cMVvj5DjPbD2/UmT7sFwM3CZC/JddmVZEubcAIDA23S09M7E1FbZq5KRGoAt5j5iMFg2Hrs2LEH0iQgIKAzM7cpQuaSJUm6YGdnt3/nzp0PPFLapk2bLoqiBBFRYwBWAG4S0RVFUXYy8+aICMvIzJjieSKu0nVfXR4NLCfykZXsAiAunwGgUzRVJCiW5n9ds5SeSpLkx8zfPOA++/v7/8vMXxw+fPjQA17VCcDXD/nWZAB3Em3o7/9umzZtNh86dOhyURNjRkbGfGZ2zLvU21LGprI+66wRDIAcABsZvJ2IXgPjWRRdHKyscNXSlL+/v/+bGRkZ/yMiDwB308Te+bdGo0nz9/f/Njw8/H9A0ZMxM7/AzOMLzWREYGZkZGQk573jGxTIPxcYGKjOyMhYysyv3//tvPeCiMYA2AGgiyWMh1arVeYO3RADcG1L4kOVZOV6xwC4K/BWsnKdiJYByLAQOlxj8PcQuDuHAHieiPb5+/u/U1ovDQsLiwTubbRk5leKei49Pf05AI55k1m6RqPZZCmE99KnXivHUT7DwMeSHjWc10T1dVlzcYHz6qgX1IqqBgMfA+W2Lm9RuTf8/f0nAVgKwOMBjzkCmOLv778Gj58W2gXA//z9/T8uQsbGAHj9Icb7b5Y17fF1i5voDYrr3fG+848xI8/c/HDY6cGKpHgw8AaArRWw7zoC/mKi4IzoavUmDD/zg4Uq+ywAz+T914uZvwWQlHdPDWBeQEDAsyV4z1kA3Qr+l2dI3u+dhN5nAPQokimJXrvvmT8OHDiQZSmDUUufdLuMP5FKoAWAFOC8Oqqxy5qoaY6hUbfuf8B+3bkYlzVR05waRDVgSM+AeC2AsstOSJxoQcq/EwDtfZeSALzPzI0URakF4BUA92cj7ePv7/9WCV59UpKk1swcAGBwAePtE29vb+sCMjbgvj//UKlUdcLDw0mlUtUB8A6AzRqNZpmFzYW3LG3ylyXprgFQKPnIR0PPpQFYAWDFjPkNGrFK9SaYBwNkxjkC6CyYl0HWLP3w7ci87E+We/qPiORDhw7db+D96ufn94MkSXsB1AAgKYoyA0BzPLiMRWp4ePi2hzKcLK+TJOmLvG939PPzq3L/fgM/Pz8NgJfvMwDWW9J4eOqzksvo1REMXqDT26ypGlqyapekhQKc3wpga2JQXWdJQ30INBJAq9J1vCxq4v3sPmdLD+C58PDw+xX+NT8/v22SJB0E0PSOAvfz81v0oPV4IsoICwuLyPvzUJs2bc4x8/470QRnZ+cWuK/iJO47A05E3x08ePAKAOT9/6e8/ywNyRbXY0WxLhQBKAofjjx/dvywMx9nOKtqgPgVAkIBGMykm2lgrATjmfHDT/uMH3Fm2vi7yl+gkKaIiLjGzBPuu9S0TZs2fqX07rO4l/RFVXAzolqt7ox7R1BTHRwctlgS7d31qamlZ90hlpm/JUnVyHlNVGuXNRcXlFT5F0Sl0EspLmsuLnBeE+XH4NZ5CqKUJkxKsoSxffrpp10BdL1P8a4soPzvyEgmgK/uu1RDkiT/R/zc+QJy5Vyct6soyhuBgYEWl32yCEM0ydK6LEn3Nj2WiAG0wad0AP4E8Oe0xQ09JVkaCMJwAPVMUZcReIGtTrVm1KjHm/gsFRqN5neDwaAHoMmbJJ4GcPgBHkil1q1bF9qsl5WV9cepU6d0BS6H3PFu8pYBVtwXIXjtzqYkZt74sF3MFQ3V9Ok5T2rTA7ydQQuc7Z030oLS38XtsuZiBIAIfrP22BSd+mUCjwCoKx5zrZqIMi1hbPV6vf/9jpaiKDuLe9ZgMOxRq+9NyXmh/f2P8Lm2+R09paDD8zuARnn0H5SRkdG2devWXxw+fDgEsLgd4HcMZouLACj8iAbA/fho6LkYANO0Wkx38PB9SpF4IIFfB2DMVKaJDNpAkH8YP/ycyC/+mDhw4ECWv7//dQB1cy1FyfOBxjOz9/3r+3dgY2PjBuB2gclorSRJU/L+fN7Pz88uz+uRiOj+fQHrLY3uzqx/3KjadQLWyJB/cl1z+ZF31XcOyfBTwF1YUm/c3dumRGeiadmVbORGAkMT+taroZKoPwFvA6j1SI4XI8cSxpaZC276K3bTmbe3d9yVK1cMd+ZlIqr2kHfb+Pv711UUxUWlUrVhZu19t+Nr16594v5gg6IoXxPRK0Tkk3epARGt9ff3Hy9J0odhYWE7LE//Q8cW12dJU8gACAgIeRpgTVhY8E6AHkoTrRYKcGovgL3fzK87QS1Z9eGyWCt8oNeD7Uy0wFm23Thy5KN5PQEBq5wUReUcHt7P4naBPmRSybnPGy+1xFAREREX/f39jwJoCcCOiLoB+KNNmzbt75skk7KysrZaGs1d9FnyIzyeQ8AfCqQFzmvOb6MH79EohG4hic56WPcBY6TCaAUQSJa/7bQ+IwKEBdbZdqu3DKISnQSqvO7idQDTWIvpKecbdJGgjGDg1TsRpAfyGVhnIcNrWyDyUazHGRoaKvv7+6cibzmMiOwf8u7mAC5KkgRmLhhh+TQ0NFQuIIMpfn5+HSVJ+omZe90XvWmlKMp2f3//yeHh4V9YmDrUP6IImX+Pi4oAMLM/Ec0KCAi9zhy6Rq2Wftq/v1eJvIqPR15KAbAAwIJvFjT2VUk8EIxhQP60g6WE6yCsIeCnD4edeWSvJyAgxA/ACAD9iehDAPOF2s83cdyfEOphu9OvFJVbwNHRsbill5A8AwCSJPUA8IeiKK/eMTiI6Lcilg4qPFzlrJKEXyMYWMxWhrWPk0Cnc0iGn6JghJ5RXLTOD4z5OdaZ0zuty1hHkrRyZ7Dt3hLxzH0bB9P71ammQD2ISRkKUMPifiMBFjHOiqKkFDhz7/6ACIA1ANf75uTHWZ9OIKKPDx06tLgYQ/w2gCB/f39/Zv6CiF687/bn/v7+58PDw1dbiuwpBB1ZWAiAi9oDIEmQ84zIGkT8kSzL4wMCQrYz0wJZTtwYETGyRB72xyNOnwLw8dy53l9k21m9QswjkLsJhp6gzTkE/MGMBR8OP7ON6NFMtqefXu2q12uCAIwC0Oxen1mCwH3GUUB9RVHc7jMGHlasJf7w4cMlNqCIaD0z/w8AMXP33Et0/wap9ZZIdxtFYS5aOlIItF6ReL7LqqhHLl3afm2Gp0rigQQarjDqlVACnUAYwayM6LQ+4zSDV0iysnhnf6cSHVV0WHs5DsB0ANOT+9fzkyCNYHB/AA75Jl6oLGV4rxWQgdrFEt7Jqcb98yTRQxOVxQPYSEQ6AAmKohxxcHDYUpI9NHkbEV/y8/MLkCQpFLmnfwDgEwAWYwBIXDB2YllQ37NUoSuQHEoC0I2Iu6nVrkkBASGhgPRDWFjvEq2xjx4dlYO8tcKZS5rUUAxyf9AjrhUyTgNYobfmRXdS9o4fUdIfa6W2bX26ADRCr0cPFJHukdmyUkCWwFv58L4/s3U6XamuCR46dOiyv7//YQD+ANwDAgICFEVpcifaYGtru12MAhjAfgavyHTIWuW5IOaRNssFhbDqFmd0ZqIRYLwG0JPs9G5MoG9YpfqyU0jGH2CsrEp2m0KDqURLFnkbB0feGtLwQ6tsw2sABgLUDQAyZcUidqAnJycfdnV1zQZgk+fV9wLwc5GTsVr9yv3qSJblvQ8xqC8fOnRo5JO0LyIiIqx169ZjiGjDnTH38/NzjoiISLGIOQ+wIwubYEi5F31T32OmB4bkXAGMAJQRAQEhEQAW2Npizc6dwSXaZT9uyMnryNs4aO/p04UID1orTGHQegnKgg9HnI14dC/2Fy8iwwBmeosZtR8y12ogAG9vb2sXF5ePAQy/7/L8h+Ulf0yszzMAwMzjgFxXkIh+2blzp8FSx4CAGwxexlAtdVlz/tKj/v7pddkN1KQMiefMNwGqVsrLmtZgBAEIiufMG4HrM1dDoZ939rO9UpIfuy25l1skrZ+3rwIMy4BkESd0oqKicvz9/dciN1EPAHTz9/cfHh4evjD/vBVQX1GU+7P3Hcw7PlsqaNmypZtare6v1+uXF5RrSZLs7zc8bGxsFAuSOxuL8zCoSANAyilhMMQPwPysLMwICAhdB8hLwsL6HiyRT66FApzZCmDr1z82ddVo9EEMuhOWjyDwgnTFfpV2ZMQjeT0vvLDJOjEx4zWAhwJyF2YqUWjfUiMAzGzt7+9/J3TvAaAdgPvX/k9YWVlNKsGrardu3bpQ8hBJkv4+dOjQX8VEGUIlSZqO3GWA+7P/hVqq8pet9b+5ZFxZQaF4lM2ACFzKNmyb9TKIRwByV36yZbaSwovBH0Hi8Z3WZ2wH04Lbku3vp4KpRGv6jmujTgEYY0njqyjKV5Ik9QJwp+LjAn9//5eYeROATCJqrijK8PvuK5IkfVrKzbADMEej0XzTunXrbUR0BkAsck/8DLrvufB9+/alWZDlbWthewDzOfv3heEU/SPOH44ADwek4QEBIWeJeJkkaZbu39+zRMl2PnnnRBLyNg7+b4m326dDoh45M1jbtut8FEX1RkJC+hCiRy+mQkSOFqpzNLkRnSKNgy0qlWpQCSeBqkT0VhHviAdQpAEQERFxzd/f/2Ce0XFnIfiWvb39Lks1AB51U1/nkAw/hXkQI/N13EugVN6QAHQDcbcqnJnUaV1GqAT+cUdfh+MQKMjzF9u0aTOAmdcBuLOz/xUiKqouhgJgbBkeybPJ2/j34n3yeuefmUT0gWU5Q7C1tCUApaglgCL2ADwKGjHTN7JsmNy2bcgWRaEVdnZVftu5s3OJQrqPovwDAlY5MVu/SsQDmdGNnmgLJ1WGAADEANjDzIsPHz68FWV/LmZ9ngFwByGWHP4vkbf/W5IL662CwXhbYbQoH2e/5DYMCCMU0Ig7xwkN1plr9/VwSxMjl4tDhw795e/vH8DMU4noJRTOwcLIraA5KTw8vNSNYZ1Ol6BWq38E0AtAtcI2O++UJGnMoUOHLMqAI+PmrzGO5U6PvgegpLBixktE/FJW1q3oNm1CVzFLC8LDe1160hfnP77HDqVk/1WylEG3srL6RafT7c7HCJKky8rKSoqMjCxxBUiDwbDwYRXDrK2tH1joxd7efn5GRsaf97XN4gpylAhalgJ9MrowS4NYx71R4Ey5icIPjPnqbLs5nUIy/iLmBTuD7beBiC19OMPDw08BeC0gIMBJURR/AO5EpFIU5ZaVlVXE/v37Hxo9ValU3xgMhp/z/l3iZEqnTp1KBzAqKChodFRUlJdKpfIC4ExE6YqinL6/NodlgauZmDFdDhYAsu4zgHLRpk1oByLeXRYRBwDbiLDY1dVh4+bN3UvMtE899WtVWdYPAmgo8lJYljJ2hoUFdxaaRsCU0CUks7qBldeJaQQoNyujmftZ5xjKUoOGl+7v6SjqcQiYDOYNDT3IQIAl9VmRpDYfLOwVXiACwAllZm8AzzDjmcTE9OSAgJAQSZJ+PnCg99Fi3J67x/dk2dADoLLcqOcpREDAFOAbwlZVlKweTDxUZn6GQFLFcUy4IYG+0ehpcqf1GX8Q8eKdsbt3YHT3HDHyAkblzAckZqqo0Cjy3QRT961DGRIeozTAo8IFwAhFuXuccKUkYeWBA8GJj3Z8r9RQE2AqSepjAYGyQqf16Z+AM8eA4FbBg5FWAHozU2+PlHOnbgJNxOgLGBnVLM7o0auT7vfOc9W/IS0R5ZsU2Q/AHEXB9YCAkIOAfJWZvgHKTfkDgE1AwNqqQgYEjIWua9KrAfQ/4NFPsZiv16UYAG5c9as51QQHCBgL80f8aQeL2wAAvl3XNaWQAZCX6tcYu3btkLsGY5S0vJKkriVEQcBYkNWq+hbXZ31mIgCSZKWR4AABY2HkgpczoXArPKDkeQVEqlZ773ReQaWbaHGTkUxiEhIwJgd6W1qPDYbMFACgBxQLEhAoD4xeGnzaWpX4FMBfANBbQJfz6fiCBkCCpTGAJCm+QgwEjAVmamB5BkD6nWOnwgAQMIFIwEj96MXBk0lmPwBHK/R8A75erAFAhJuWN/zUWIiAgBHR3OIMAH1aXqpv9hHDL2AqeG9Z8AlrVWIAgI8rbjRAuvGgCMAVCxz3ZoL1BYyIVpbW4Rxdkj5v9hEGgIAJRgOCpgH8NBhnK14PuXgDQFFwzdIGnBk127dfK/IBCJQ7nvo1rSos8Bxyji4ld95h1K7y1WwPwQkC5Y0QX1+rkKAgVXH3Ry8OPuSopLcEMA14tCJdpgwiii7WAJAkvmqJzGAwqP2FSAiUN6x0UhvLlLe0u/nX1QraC04QKHdFqFYH4ty5vSHNmhW7D2XwssHZoxcHfSwxdwDofIWPABDRFctkByVAiIRAuYsiUQeLlDY52/XunMPcQXCCQLnzINABQFsAR9c3bfqR9gHH0N9dEnxAZa34AfQTYN7FgxWSit8EqCiGq5bJDiQmIQFjmACWaQAoyr1lD0JHwQcC5T7j3zM8bYnom8bNmu0O8fUt9kjuqB+D00cv7v0OWHoWMN+lctZLF4o1AMLC+sUD9yoFWRAC2rf/3VGIhUB5we9PtkNuNkyLgsGQdgvE95dgbVZbO9tFcIRAeSGkXTtbAAWX39pDpToS0rTpCH5AdsDRS3ptRXZOU2JaYHbRAEb8mGWvJRdrAOTlxD9vgTyh0et1nYRoCJQX7DMzA5GbG9+ikJ11K7rAJSlbpTwlOEKg3JCR0QlFl9Z2BNH80KZN/1nbpEmNYo2A1a+nvrek90iS6AUAN8ym31RYtxex7kEnLJEniLibkAyBcrTGX7DEbmdlxaYVIXwvCIYQKD/Rw3MPUQbPqiTpREjTpiMe9Nh7C3v/K8vqO9EA0+830bkSGAB8ykL5oocQDYHyMzgt0wDIzr5VmBaM16DVSoIrBMrHEcbzJXjMGUTzQ5o1+z3E17fYo7pjlr2W/N6S3iMBfgkw7UR6xHzhoQYAM05YKF/UbtNmXXMhHgJljQ4haY0B1LPEvusMKU5FXK5eXXIWJ3EEyhwhLVq0APAo9V9egUp15mHRgNGLg//WaFQtAPxqaiJHoDMAb1QkaXvBm+pCF9Sqk7IsWyRzSBK9BuC4EBOBsoSKpWC20L7Lhuwi11aZuBeAA4I7BMoSzNzvMer/uoBofkjz5t0MavU7/SMibhf10Ns/94wH0Gve0NAgBn4CULkcu5YE8Gli6RQTXyLgEkl0umqycjY4NKhYhU5FiWJAQGgyACcL5I9TYWHBTYSYCJQlOq3POA1YXhpcvT715uXLaz2KmYmu3PxsTF0QseAQgTJR/gCFNmt2CUDtJ3hNPIjeCj5+/LcHPTRn2JpqEmvmo3SXlpMBXARwCcAlME6zxKfUVjg36sfg9Md5YZHGUEBAyF7AYjN0tQ4LC44Q4iJQFuiwJr2ZpCKLjDIlp5w5FB+3u9jshySRX8xnY44ILhEoC6xv2rQjEe0qlZcRhcJgeCv41KnEBz2WFw2YD8C1hG/WEXCDiS9BodMs8SlSVJdk4NKYJb0ulTZN1EX3jQ4xs6UaAAMBCANAoEwgSXjDUvuemX7tgTlGWOFBAIQBIFA2skfUr9TCS8xBUKk6rG/WbESfyMg/i3vsvcVBobNH/LJXJSsLAbx4360HhOyDy20NvsgIQNu264OZab0lMgkzbmVkwOvUqWCdEBmB0oRvCFtV4cwbANwssf+XLq2IMBiy/B4wGaXINnL1uPHjMwS3CJQm5vv5aVz1+hgAVcrg9Sutc3JG9Th3Lq1YvQKmuUM3dJFkjndAxoXBywZnmwJdiowAyLJyQJJUFskoRHCzt+deANYKsREoTVRRsnqALFP5A4DBkF37gcY34CxlS/0BLBTcIlCacDEYXisj5Q8AA3OsrTusb958SJ/jx3cUbdwSYzG2lWefQ3x9K0kqVX2ZqL5BUf4ecOJEUokMgPDwftcDAkJuAPCyTCOARgkDQKC0wRJGWuoWN13O7asA1yqB9I0SBoBAqc/pzGPL+BO1iXlbSPPmC2EwjAs+dSq9PPq1ydvbOsvWtrqByBfMjUmS6oK5LoC6AOoquX1P96xc2bVow6QYBASEhALobbEMQ4rfwYN9xXqkQKmgY0h6U2I6/iCZq8i4ffvQ3sTEo0+XTPa4fczEcfsF1wiUBkp181/JcBnMg4NPnCiVb4b4+lqpJMnLANQlIl8QNb5PydfGAyoZ5uGf4MjIIhOPqYsXQhxgtlwDgJneByx3w5ZA6UJiGscWqvwBID39ilRy2cM7AIQBIFBKzhyNK+dP1gHRjpDmzRfaqtVjXo6IyHzYD3YEBqoTExJqGoC6BNQlSarLzL4AGgOoJQMquk9AHqn/wO4H3Csa/v7r/CVJOmTBfKNXqVT19+/vdVWIkMCToMMvGR6SAZcBWFsqDS6cXxjDUDxLOGHpZZkaxWnHXBLcI/AkWNe8eQOJ+UwJvOSy8iRPKyrVm32PHQsHgNVNm7pqJMkXitKYJKkuA3dC9r4AbMqkCZL0dJ9jx/Y9UgSgdm3pyLVrSARQyUJ5R6Mo8ocA3hNiJPBE3r+BxwNkscpfr0stsfIHAAY0KjUmARgsuEfgibx/RRkLIuPVmSBqLCnK/pCmTc+DqB4AazADRGAulw1BWY7p6YeLnZuKuxEaGiwz01ZLZh5mDG3ffq2nECOBx0VgSLo7QCMtmQapqRcuPbrs8UDPKXMaCg4SeFyENG9enYgGmUBT1CBqDONEAA90j4rKeWQDAAAkCf9ZOA/ZyrJ6khAlgcc2IhWMB2BnyTRISz+vfoyfqRjKRMFBAk+AqQBsLXr+ATY/UMc/2AqX/rH4CZx5WLt2GxoJWRJ4ZO//l0wvEL1l2RMQyzp92uN68v08psz2EZwk8KhY5+vbHMyDLJ0OpFJtemwDICys1w0AZy2chmpFUbRCpAQeWfkZlG8t3fvPyrxxGsyuj/lzFZinCE4SeFRIavV0GGvjn+ngevDRo6cf2wDIsyG2CHZCsL//+o6CDAIlRYeQzDYA9bV0OiQnn0l8MhcGvdynzOwuOEqgpAhp0eJFMD8jKIG/HmooPfwdykZBR5Ak0Y+BgTvUghQCD4WWJQLPhQWf+7+DjIzr7k8sfKA5tbVaG8FYAg9V/kFBKijKNEGJh6//l8gAqFmTdjPjliAnfLOzb78tyCDwMHRqnDmSGAGWTgedPvkGs6E0dvLXz1Y5fyQ4S+ChSu/cuVHIPVNv6cjMAbY/sQEQGhosE5GIAgBg5ql+fiE1BSUEikPXNenVwPhKUAJISjheaol8CPyJOBYo8CD80rRpXYKQPQAg5r8GRUY+tKpmiTZJMCu/CJICAJw0GiwBmAQpBIqCQU3zALgKSgDpaZcql+LrrJnk7wRVBYqCFpBkoqUAHAQ1ACYKLclzJTIAZDl5O4AkQVaAGV3btNkwUFBCoCA6rc/sB0aQoARg0KfHyqxrXMqz2nMeU2aOFNQVKAjf5s3HABAbtXORmV2C9f8SGwARESP1RPSHoGsuiHhumzYhdQQlBO6g/doMT4C/F5TIRWLi0Qsok02QNNv9fzMaCwoL3MGGpk0bsTgues9OBv4oSfi/xAZAntJbJ0h7F84AVolTAQIAAC1LagnLYLl1MwohJS2qahm92pZkKcRr1ixbQWWBkKAglUK0DBae8S+fUi9h+P+RDAAvL/wH4IYg7x2DCE9lZcV/ISgh0LFx5icAxLnjPGTrbl9iRVeWG/Z8DRksjnoJAOfOfQ2IEzf3IZnt7DaX9OESGwB5pwFWCPrmMwM+bdMm5EVBB8tFp7VZHYihFZS4h4Rbh6+XueSB3vWcOutlQW3LRWjz5j0BfCgokc8zXRV84EBWqRsAAMBMywCwoPI9+hFhZbt2Id6CFJaHDr9keEBS1uIBZbUtD8yZGdcblMdUx4xV7pNniTPfFogNTZo0Y+YVEMm28kFhXvpICuxRHg4L630BwF5B5nxwVRT8EhgYIo6fWBDahbCtZMDvAKoLatxDWuqlYwzFo5w+5yQR/e6pnVFFUN5yEOLrW0mRpF8B2Atq5ENk38jII2VmAORZ+MsEnQuhWVYWQsSmQItxcsmasxYC8BfEyI9bCWGGch0KcD1WqX7znjvXWlDfApR/UJAKKtUqAPUENfKDiBY96m8e2QCwtaUQAKmC3IXwQlZWvEhUYgEIXJ85hcEDBCXyw6BPizfo01oZwSJ7Oj3FsAwsEnRVeCV3/vx3AF4QlCiEbFVOzpoyNwB27gxOB3iJoHeR7PlO27brRc7yCoxOIRkjmPCZMb7tYU9w0Jiujou/deAMAJVRJA/o6z51zkTBoRUX65s1+x8zjxKUKBKre549m1DmBkBuqEH5DoAsaF6EL8L0ddu2IaJoUAVEx3WZPcH40RjflgiY1NYaczpbm+SuJ2bFkJ5xtZFRzW/wZM8pM4UBXjGV/6cEfCIoUTQUWZ73WPPK4/zo4MF+VwD8bcoEeeWVOvD3r2aUeYgZPwQErB8i2LICef7rM14m4rXG8nBfqqtG48oSlp/SgwH4VJKglkyHPskpJyPASjVjt4NBX3tOnTlacGzFQUjTpu+KIj8PxI6+p04dLzcDINfih8mud9ev74Jx41pi1KimxnNGQPPbtg0V68QVwvNPfxZACAArY3y/kg1hRDMNdt2QsSdahrs9YXagDUY2szIZGiXePuxoIk0hZprjOXnWu4JzK4Tn/waIxN6qBzP8Y9PnsQ2AQ4eCtwOINDVi2NqqMXVqW2g0En7++aQxm6Jm5hVt2oQMFSxqxso/JOMVIvodgI2x2jCimQYOGkJ9Vwn+7ip80MoKMjPWn9MDAJq5SWhSxXjhgPT0KydlRW9K+fmJCXPdp8wW68XmrPybNh1OwOIn0VMWgEvcqNFf5W4A5MUBTM4y+/hjP9Sq5Yj580/i4MFYYzdHIsLCtm1D3xN8an7otD6zHzE2GFP5A8CyU3ocvCnD054wvaM12nqosPasAbezGDZq4JM21vgswBoqI20OuBW3N9sUHSMCz/OcOnuC4GTzQ2izZl8Q0QIYacnNbMA8Ozg09LH34z0Rcd3dnzkpSbYDAbiYAi2CgrwxcGAj7N0bgxkzjprMRATgBS+v4ErR0b5bgJ0ik6IZIDAk812AF8IEsvyl64Gt12RcS1XQ1E0FWzWhYSUJmQYgsIYaAe4qfH1Ih2tp5c9aOTm3ryQmHfeBaWZkIwDPOHZ53iO9U7t/sHOnIjjbtBESFKQKVqt/ZJHitySIg4PDG6E3bhieRECeCG3bhrzNRtoZfT98fFyxYEEXxMZmYvDgrUhP16NaNTt07OiJTp2qIyvLgPHj9xm7mb/Y2ma8vnPn4GzBu6aJoBBW3eKsrxhs9N3kHaqrEB4rI/s++95eQxjSRIPXvNWQ8qR3T7SMSftyjNLGq1dCD+boEtua/MAS/ZdjUPVO1I4WOUxMFJu8va3T7exWAegtqFEC5x8Y3ycycsaTWshPBF/fECsHB5wHUMtYhHB01GD58mfg5GQFrTYM9eo5o1On6vDxqQQiQJYZp04l4MsvDyE6OsPY43bAYFD1iojodVOwsKl5/ezAnLkGgNGLzIxopkH/RhosOqHHqjP6QvebVJEwzs8KHvYS3vw3C7EZ5e/963OSrl++GuIBM6mFQMAJEL8YM3HcdcHtJub5t2zpBkXZCOanBDVKhATIcu3gU6fSjWoA5EYBQt9j5rnGokTPnvUwYUIrpKXp4OBgBSIgNjYTYWGxOHgwDocPxyEtLXcSlSSCohg9Ch8DKL3CwvoeFHxsGui4Ibs+yfKvAJoYuy1da6owqa019kTL+CosB9kG4OnqKpxKUJCUfY931RJQ30XCmUTjRLbNxvvPj2gipW/MxA9FTRNTUf7Nm7cB83oAtQU1Sqi4mScFnTgxtRSM4lLwnAKX2mRl2V8C4GEMYqjVEn74oROysgw4eDBX6V+5UjjS9/TTHnjvveZ4991duHUry9hjmM3MYw4d6vOzYGfjotP6jJcBrIAJ7GUhAKu728JKBQzYlIUcGWhYScL3XWyQqmNMPpCD47eMv5St0yVHX7myvhrMsxKiTOCpMQ1rTEFwsEhoZiQwQKHNm38E5ikQFTUfBUkaSar72rFjySZhAORGAdaPZjbN85pEwOuvN8LbbzeBJBFOnkzA22/vhF5vEnuCfsnJ0Qw7duy1ZMHX5YvApWwD24xvmGg0TGQTm7s9Yd2Ltth+Tcbkgzlw0BAWPGsDZ6vc9X+ZgcUn9Fh7Vm/UutxXroaE6XKSAsycBbbKkvR6/GcfxAlpKF/82qhRZYOV1QoA3QU1HhkTgiMjp5fGi0rtfGVaGv3MjIumRilHRw1mzHgao0Y1RVqaHitWnIWvb2WMH9/KVJrYy9paf7Rdu5BOgq/LDx1C0hqzXeYBJnofJrSDnfO0el1nAgGwVgGJWYwxO3OgPZADgwIMbqKBi43xmpydFXdFl5NUESohdlMpyjHPKbO7CYkoP4Q0b/60wcrqqFD+j4UbsLf/vrReVmpnLG/dCpWrVw++SYQgU6FUnTpOmDevE5o2rQwAePfdXfj77yuwslKhT5/6uHkzExcumITj7cKMN7y8gjzr1w/aeeVKqE7weRl5/TtYXav7+A8J0loAXqbWvkw90K2WGjWdJMgKcDBWxqbLBiRkM1QSoYe3Gv9eNWDbNeNFrq/e2HiFFb1HBWEJBwADHbs8V8/5mZd3p23blCWkpGywolkz+/7u7lPAvAAmcnTc3MBEY/ocPhxucgYAAERHh5zx8jr9nClMrIGB1TFrVgdUqWKLbduuw9PTAQ0auGDz5qsID48HM2PTpqvQ6UxmCZAA+On16FOjRu/TN25suCTYvXTRMSS9KTIMfwD0Bkx4zfFSCqNrTTVau6vg7SIhTQ94u0j4LMAaegWYtE+HHCOxbVp61MnUlHPNKhhrEIDmzPIbDp2fjU/fseW4kJbSxfpmzV7WAJvyvH6R2e/xcLZqpUpvLb9yRSlNxi9VBASsawtI+2HEsKqbmy1++eUFWFmp8L//HcYff1xGt241MGVKW4SGXsCsWcfyPW9np0ZmpsGkRpoIf+n1GBUREXxN8P0T8uSqBCdrje0kAr8PQGMObW5aRcJ4fyvUdLw3V6bpGJ/szcHJ28bau8IcFbX0gqLoG1RkfiHCDpL4rehPx50X0vNk+KVZMy8Z+B5AD0GNJ+RL5leDTpz4vTTfWeppFqOjN9zw8gpqBsDHWITKzDQgMTEHHTp4Ijo6AwcPxuLSpVQkJmZj8+arSE/X3xF0fPBBC7z1VhP899816HQmlSisgSRhuJdXMNzdBx25eXOtXojAI+srCvQd/6Za0mwk4FmYWFpRL4fcoj7u9oRrqYz7bdD4TMaflwy4mcFIzGYcuCljxmEdrqQab+tfYsKxwxmZ15tZAOfUYaahTl2etdJ0eulI1s7NOUKYHg0h7drZBlWqNIZzi2g1ExR5Yqv0v+DIyIml/tqyaGu7diHeioITMHIO9QkTWqFnz3qYMiUcf/99Jd89jUaCVtsGXbvWAACEh8djzJg9MBhMMltoNDO+qFULy0JDxbGlkiBwfXo3Bn0DwM8U22evISx5zgaVbAgaCdArwK4bBmyMMhjRwy8eipyTdfHi8jQGV7UwVkok8LeSPc29MXas2B/wEMz389O46nSDQfQFAE9BkVKBQQFa9o2MLPXqdmXiEd24EZpYvXqwmgiBxqTaoUNx8POrChsbNfbsibl73dZWjenT26NDB09cu5aGWbOOoU+f+rCxUePQIZM8EeREhFdSUhDs5RWUWr/+O6evXFku8poXpfhDsp6u2fuTFQBNMuUJyKAAnbzUqGRD+PpQDiQiBHqp8WJdNdp7qqAwcC1NgWwilSOib/5zWK9PbWSBLGULUDfWY7hTl2dV1V576XDi5s3CCC8ALSCNatq0t42i/AaiQQAcBVVKzUuf1ScycnUZvbuMJuLc5ECRAOobk3iOjhpkZBjuZv9zdrbC7Nkd0LhxJcTHZ2HQoP+QnJyDzz5rje7da+PFF/9EcrJpR/yYcVGSeJqNTeZKUVfgnuJnKB+B8ZK5tLlJldwEP4diZUzYnQNvFwk/dbOBJm/ZP1XHWHFKjw0XjLs/JTs77vq1axs9ISqzAYRLAM/LVuuXJn38cYqlk2OTt7d1hp1dHwY+A9AAAqU92d/U2dk1ej0sLLVs2LkMERAQ8gyALaZCy6pVbTF3bkfUru2ElBQdnJ2tsHLlOfzzz1V88UUbNGjggpde+gu3b5tNpC8ZoBUGA8+0xM2Cz65g+xzrzP4A3gPQ1Bza7G5P+fL2T37KGh29VJh8MAfP1lKjjbsK34brUMuJ0KWmGhN25+BqqnGDPRcvLT8lG7J9xWycD2kEXgGo5sVM+uCcpXV+bYsWtVWyPBJEQwG4mXJbVdbWaPjmm6japg1uHz2KMwsXQs4xj20dTDSwz/Hjq8owulC2CAhYvxagvsYmpK2tGmvWPAsPD3vs3BmNr74Kx8aNL8Le/t6m8J07o/Hxx/vNUR71RPgL4KU2NlU379zZ2YAKjA4haY0lpmEADYaZnCcmAKNaWkFNwJwj99I81HAkLH3OFkSAioCZh3X485Lh7m+MvQJw+/ahw4mJR1sLfV/8HA3iLcT40VVO++eUVlthc3hoAcmnadMuJEkjwPwazCB9r03lynh63jy4+t6zX6/88QfCJ00yB5JvD4qM7EZlOA2UuQHg5/eLh1otnwHgbGxq9upVDz4+lfC//x2Gu7sdfv21O7Ztu4GUlBzcvJmJ0NALyM6rvernVxUDBzbEZ58dREaGWW3Aj2PGaiIlNCysTxhAXBEmn8CQdHcoUl8mHgiglbm1nwBsC7LDnmgZX+zP73180MoKr3qrsTdaxsR9puOZGAzpiRcvr1YRG192zQTJAP4kQqirIfXfimAMMEC/NGvWholeY+YgAHXNpe02lSuj06JFsPPwwKFPP0XC8ePosmoVrJydsfEpky86mC5LUtN+x45dKcuPlLkFFxHR62ZAwPqxAC02NkV/+eUikJetuG1bdwBAaOgFHDt2O99zTZpUxowZ7WFjo0bbttWwbdsNc5LZakQYC0hjAwJCbwChvyoK/qhSxX7v5s3dzeo4U+DarNqKinsQ80vMCASx2RYMYQDpeoardWGbe9kpPZ6ppYK/u6rQEoExceP6n1eJ0VLo9RLDBcBAZgxMVDkleEyd+RsxhUK23xujHZlpLp0ICQpS4fz5dsQcFAr0BOB1N0e1GaH+gAFwqlsXyefOIT48HPq0NGTfugVJo4HG0RH6tDTTnS+YPy5r5V8uEYA7CAgI+QvAi6ZC4G++eQpPP+2Bbt023vX6AaBePWf89FMgnJys8MMPJ7By5dmKMjllMmM3wFuYea+9fbWjprZU8PTqZFeVxiqQmLsyU1cQm/Wuc3sN4dM2Vlh4Qo8rqQpWd7eFwoyBmwvv2xzUWIMhTTSYHq7D35eNPyxJyScib8XvF+e3SymYAtBxBrZKwFbJnveZ2pHCDU2bNlKAjkQUyMDzAFzNneikUqHtN9/A69lnkXzuHGL37kWjoUPvaFikX7+OxJMnkXjqFK789hv0GRmm0vQ9pyMjA7VAmW/+KTePymBQDVer5RMAKpsChVNTdTh7Nimf8vfycsDcuR3h5GSFJUtO51P+zz1XEzdvZiIy8ra5yoMdEZ4H6HkiQlbWrcw2bULCJYnDAClSUeSTGRnSmVOngsslbOn3J9s5ZWX6yApaEyEAjDYg+IBZYqBCrFy8UFuF9tVVaFhJwujt2UjNYdR1kdC7vhqH4xRcuW9zX8h5PRSGSSh/vSEz9fatA14QKMV5lv0I8GPgIzkDOZ5TZ2ljJo79xhiNWduypadkMLSAJPkRc2sAbRTAHTD+npNS9aJlGWGffAJJo4Fn585wadgQMTt24MZ//6GKnx/cWrVCze7dkRkba0rKP0shGlYeyr9cIwC5UYDQvgCvNQUqazQSnnrKA7t2RQMAqlWzw88/B8LDwx6hoVGYOfPo3WdbtKiCefNyi/V9/fVhbNp0taJOVHoAl5hxmYgvAdKlmjV5zuMkHwoMYQcDsiupZaWqQlRTAmoCSm2FyJuAxgBqoYLmBLdSATo5V7jG+1uhex01YjIYiVmMJlXudfl2FuNwnIyIOAV7og3INpF4zJXLa47p9GkthN4uMyQYZEOTW9oJsQVv/NK0aV0FeJOBeJKkGIUojg2GWJkoMd3KKn1kRMQDNySF+Pk5y7LsSopSSUXkCaC6AnhJilKbgYYAGoLIqSIStaq/P6q0bAldaiqit29HVnw8AEDSaPDU7Nnw6NABt48cwZ533oEhKzcAY+3igpzkZNMxWpjf7XPixA/lFiUp7w62aRO6noiDTYlxXF2t8fPPnVGrliM2bbqKqVPD7+YNqFnTEYsWdYGTkxVu3EhH9eoOWLbsDBYsOGmOy2KPDEnCCwcOBP9T8HrH9ZnTCdw5708VGE55HGUHoBIAK0ub1avYEoY31eDp6ir0/jMLWYbcnf1fPmWNp6vnHqH/94oBUckK/Kqp0NxNBVs1sOmyATMO66CYAD/dTjh0NDHhqFj3L8tJl7hvzMRx6wte1wJS42bNdgDo+JBXpAEwAEhBbsKdO1alC0yotHW5hVdsbdHmf/9D9S5d7l6Ts7MR9umniN627a4R0H7OHLg//TTiw8Kw9733TO8oIPPfQSdOvEzlGIgpdw9MlvWjAESbEt27dq2BWrUcsW3b9XzK38nJCjNmtIeTkxV+//0S+vb9F3/+eRmDB/sgKKi+RQiXomBYkZMY4xBy0+z6AWgBQl0Q6iI3lGhxyr+2k4SFz9jgmVpq7Lguw1adOw/LDEw+mINj8blBFDdbwsYoAz7ek4OXN2Zi5NZsTA83DeWv0yXFJ94+6gOBMpzk8XtRyh8AfJs1G10C5Y88pe8KoDZyl1Rd8/4jSyRp2+nTUa1tWxybPh2733oLN7ZsgcrGBm2nTUOVlrm2rKLXY/+4cbh1+DDc/P1RpZXJHSS6BUUZRuW8CmMUhsmrGLgbJlSZrUsXL+zZEwO9PnfpRaOR8N13HdGqlRsUhTFixA6cPJkAAOjRoy62bLmGJk0qA2CEh8dXZPnSqVTqGvv398zXSd8QtqrCmdEAqohZHZjb2QZN3SR8dVCHrdcKx/LtNYTZgdZo4Cphb95RQNmEIkjMsnLx0spLipzjLUazzBDPKnWT2E9H3yp445emTevKRMcBOAgylRxVWrVC56VLEfbpp7j29993Qixo9dlnqBcUhIwbN/BPjx5QDLkyqbazg5ufH27u2WNSZiERvRJ0/Phf5f1ho6zBhoX1PcjMWlMage3bb9xV/kBuIaFWrdxw5Uoqrl5Nw/ffd0JgYHUAwO+/X0JWlgFNmlTCd991ROPGlSqyjFkpiuH1ghdPBZOOwavEFAS4WBOaukmIvKUUqfwBIEPP+Gh3Dq6nMZ6unnvkz5QQE/3PMaH8y9r5p1FFKX8tIMlEy4XyfwzZa9gQAJAaFXW/NYvj06cj/do12Ht5oVq7dndvGTIzTU35g4B5xlD+RjMAAODQoeCvmfGnKTJV//4N8PLLdRAfn4X339+D4cO34/jx2xgypDEk6V7QxMvLAZJEiI/PrNBCxozhABeKFknMiyEAtZQbSnO2fvBzSTmM8btzQ/4Hb5pOPZmUlDNnMjJvtBIjWaZStDZ20pgNRd3xbd58DICnBY1K4I04OaHF+PHQ2NsDALLicou3effvn+85OScHN3fvBgDYububcpfCWJbHG+vjRtyFTaxS4U0imFwO+4iIW7h8ORUffLAbcXGZSE/XY+zYPXj//d139wcAQI0aDkhKysHt27nnuuvXd0HLlm4VUe4atWkT2rbgxZ19HU8COGTpk1JCFiMmg1HbSYJftcKefe/6atyxG2Mz2CSO+t2BXp+cGBe/Wxz5K1vcYpXm/aJuhDRr1pCZpwgSPRweHTrg2V9/hXf//qjWvj0A4Obevci8eRN1evSAV7du96kXgkuj3DQiSWfOmGqX4lVA7+BTp4yWMdKox7AOHAhOZMYA5B4/MxmcO5eEAQO24NKlewWYZJmRlJR/16iXlwPOnUtCzZqOmDKlLZYv74YffuiE556rWeGET5IwtGg7DhYTBXCzJXwaYIXmbvnFhgGsOJXLwp8GWKGG471gyRuNNXi3pRVaVDXNQnrXr/4eBxalW8vU1SEMLy70D2ARAFtBpeKhcXCA/5df4unvvwcRYfeIEbixJbfGnKLT4dBnn0ExGBDwzTfwGTEClZs3R8BXX8GtdWtEb9uGxJMnTbFbChEN7BUZadQ0syaxazQgYP0QU0gV/Ciws1Nj+/bXcPt2NlxdraFSEU6cSMCyZWewf//NinhEMF2ttvbct69HvvyZgSHswJx5ExV8/dJBQwh52Qa2aoLCwMJIPdaf0+fbsju6pRV61lcj2wDsjjbA015CkyoS/r5kwPTDJpkW/uvz5xccBngDLHQHeTlMsStuThrzRjHe/3gA3woaFY+qbdrAf8oU2Lq5QTEYwAYDtgQFISM6/0Gy6l26wH/q1LtLAwBw/d9/ET5pkmlW/iP6JPj48W+M3QyTcEuiozcc9fIKdgPQxlwY85lnaqBTp+qws1Pj6NFb+Prrw/j555O4fj29osqilSzLF6OjQ4/ef/FK6Je6OkGfNQTQoiJPRDoF6FFPg+upjGtpCl6pp0Z9FwmHYhXo8vaOHoqVISuAbxUJPpVUsFYBC07oseSkSRaT+m3XGbu30r9od9qp83MSCJ2Euil17+qmSkaP1J3/Fkr7u6Fp00ZMtB5mUFHPKLSTJIAZTvXqwb19e+z74AOkXLiA6l26wNXXF1f/+AP3e1lply/j8i+/IP36ddyOiMCpn3/GhZUrwbJsit37JSgy8v0vTYNHTQOBgTvU2dm3/mFGV1NnTk9Pe6xc+QysrFQYN24vDh2KsxS5PBAWFlyojFantVkdICm7K3rnPwuwQmANNV77PQv9fdTo30iDuEyGdn8OziTeO0GiloDKNoSEbIZBMcmuHLPOsXt6yyDKzX/KTO5T56wlcB+hekpzcqXXYiaN2VjwujY34c9uAO0FlQp5xvAZOhQ1X3wRW/v1g5ydDUmjgaLXA0ToNH8+qgYEIHL2bJxbtswce3gkG+g4KDLSJHIPm0wq1p07OxuIEAzggimPniQRvvwyAPb2Gvz880lLUv4A0C4gIKRxwYu7+tnuAVOFqJokEdDWQ4WX6qrhZpvfPj5+S4FGAlpWlbDilB5nExVUsyN819kGL9a958gZFCAu02SVfywr9Mpd5Z876bLangcDOCw0UOmAiZcUpfwBoHHz5hOE8i+OcAznhg3hVLcufPIK9yh6/d17hyZOhC41FU1GjYJzgwbm1rsYFdDDVJQ/YCJLAHdw40ZoVo0avbYCNACAjYnyJ2RZgSQRZs8+ZhHpgAv0Pyc6OnRLweu1gj5xIFA3c+2XWgK611FjcntrvOqtxlOeKrxUT409NxSk6HIHOcvA6Flfgyq2Evr7aFDHWcLJ2wqcbYBAr1yDYX+MbMrdzCamF3b1sztd8Ebqv/8anDp1/5cl9CGITYFPOpXlaPQ9srduLbT4vKFp00YMrIUI/efanpKE2i+/DFcfHySfzfUhEiIjUbdXL7i1aoUbW7ZAl5Jyz7jOyEBOYiK8unWDm58frmzcaKph/oLIUiTp+eDjx03KUTK5YiwHD/Y9oyjcA0C2qY7kpk1XMWHCvnxHAi1GYAlvvPDCJusiPOflyM1PbpaY18UGH7a2AjPw83E9DsTIsFMThjW9l6zyehojIZvRzE2CoxUwPVyH97Zn491tOQiPlfH7RZPuPjPRmzv72h0s1j3Rvn+NJcNzACUJ1fQEdFZoRNLHH6cUvLEjMFCtACtM1bkxFhoNHYpmY8bkO9t/dvFiSFZWaDZuXKHnr/z+O2J27oRTvXqo9fLL5tBFmZn79z12LNzUGmaS1djCw/vsJkIfU1YozBYrr5UTE9NeKnhxZ7BDLIBN5tqpnddzvYgNF/RYd06Pb8Jzd+03cM0vIsdv5cb1px7U4e/LBjCASykKxu/OwfkkxXQ7SPzR7mC79Q97LO6z8SeZ+TVTNsBN20LGwtgvxmwu6tatxMSPQORv6SRyadgQoNzlNVYUnFm4EFYuLmgwaNDdZ84tX460q1fh2akTPDp0KPSOiClTEDFlCi798ovpW4TA2D4nTmw0xbaZbDnWgweD/wAwSswoJjnLFZkTgM04J8BvUXrEZzIG+2pQyYbQvU5uhPZUQn6lHnkr11BoWsWsKhlP2RXsML2kD8d+PnYXEfoCkAWvPxKu5hjURWZ1W9ekiQ+AiZZMHMc6ddB5+XI8ExKCTgsXwqFGDQDAtU2bkHrpEuoPHAhrFxcAuev+x77JPSXXYsIESFb564tl376NSxs2mIMnNrFPZORcU22cSc9iYWHBC4j4SzGvmBye8/MLKZTtSHKz2wQgxhw7pJOBZaf0sNcQVr5gg5HNNIiIk/Hdkfzn94/FK9DJuZv8zAQ/7upj//mj/ihm4tjfCTRGsHrJHT0CDUvUjk4teGNHYKBays31b9Ghf11SElwaNAArCqq2bo1nN2y46/Wf/uknaOzt0XDIkHuG6P79uLlnDxxq1kSD1183PzeJ6IfgyMivTLmNJu/GHDzYRwvwj2J+MS2+UavxZsGLOzuTgUArzbVT/1wx4EqqAnsNYfVoEHq/AAAUyUlEQVQZPT7clYNUXX5FfzVVwZB/s/DHRdPf7kCg1bvO2L33uL+PmTRmHgMfCnYvyWSPn2Imjdla1L34pKRPLCn0T5IEVx8fuLVunS8xT05yMqLWrQMRIfK775AVH4/m48ah27p1SL9xA7ePHYN3376wrVbtnsH97bdQdLq7RX/MCGtOHT8+2tQbqTIHSkZHh2728jrlBoj1MxNCneho33nAznwa0qv3pGsS8bsww8xyDOB2FqNLTTUkImwqJmd/qs4suvMnVbXrd2UwPVEYP33HvwecujxLAAUKli/W0rqi1+h7ZW7dWogzNjRp0gxEq8xlrn1S1HrpJbT/7js0HDwYtXv0QL2+fZERHX23Wl/yuXOoFxwMK0dH7Bg8GBoHB3h26oTar76K9KtX4Vi7NlTW1ncr9ulSUnD9n3/MYq3/PvyapNG8/uHNmya/hGYmC5nEYWHB7zLjJzHbmAxqt23r06Xgxb19bc4DvMdcO7U3WsbJ2wqaVJHQztNc52zaTpl2wTs7U6mEKWImjdOC8T/B8kVCYabBtz/6KK3gjR2BgWpFkpYAsLIEQjQYOBBtvvoKJEk4t2wZrm3aBI2dHQK+/hquvr65Cj05GVFr1qBKy5ao6u+Po19/jR1vvomM6Oi7ZXvr9Ox5d38AAKRfv25uyr/vyIgIvTk01oxmuC8RHR2yqXr101WJICIBpgGr6OgNhUzzWkGfMoFeNddORacr8KkkYX+MgpsZZnfc4x8d2fXY+zqV6i7+9B3/bnfo8rwtibK1+cGYF/v52J+LutXdyelzAvpVtC5rHBzg2bEj5Jwc6NNy7R61vT06/PAD9Kmp+LdnT8Ts2oXobdsgqVRwa90azt7euPzbb7lRgLNnUS84GC6NGuHShg3IjI3FlY0bobazg0P16ji3dCluhYdD0enMjBf4b4esrD79jFjdr4JGAO5FAg4dChpFRD+LmcckxqOnn9+aKgWv6sk+BECyufbq+C0FQ7Zk40i8mW2CJ/xFmXavHQimrLJ4fezEDz4hYLrg+7z5nhCl2MqfFnVvna9vcwI+qWh9dmnYED1270a7mTNR47nn7l53qlsXKhsbJJw4AV3qvX2QZ5csgS41FZWbN4edh0duFCA1FRdWrYJLw4bw6pqb+d2QlYVj06bhz65dcWbhQujTza6myiaHrKxe3aOicsyp0ZL5sSDxwYOnhBFgIhEAjUbVv+DFA8GUBUaIOXfM3HI8EfP69CS7njsHU9md3yfimEljJxD4Y8H6UAjS0Ljx4wuldQ3x9bWS1OrlMOPQv62bG+q89hpaTZwISXMvGZa1qytIpYI+IwPVnrpXFkSfp/TvD93fUey3DudmmK7crNnd6+dXrYI+LQ11e/fOb1QpivkRiygUsvyauSl/MzUAAECrHDwY9DaRmIiM7gUxDStydpRosaBOuc1Aq1DN/vWIkVQu644xk8ZNY/A7ABTLZXyac3PiB0UWwCJJmgjm5ubcPe/+/dFaq0W9oCA0HDz47nW1nR0AIHbfPlRp0eLu32nXriErLg5OdeoU2rF/pxwv33dmX5+Whj3vvIN9779v3pIHLHdzde0fbEZh/wpgAOTi4ME+0wB+16InIuOjaZs2G1oXvLgn2O4QgOOCPGWsh4Cfd52xfaO0NvyVFLGTxv1EjIEE6C2Q7OdUDlxkUp+QFi1aMJHZOyZxBw4AADKio9F4+HA41qlz1wCQc3JwOyICkkYDt9at73gCuBgSAhCh5SefQGWTm/Kgkq8vPAMDoU9PR/yhQ/m+kRAZedc4MEvlTzStd2Tk4M47d5ptCnTJ3Bk1LKzPD8wYCMuciEyDiSQuJjMgLRXUKTvdz4B2dx/7t6EloxjAMZ+PXQNCLwAZFkR3WWIafGPs2EL7LEJ8fa2gKCsAaMy9k7ePHYMhKwuZsbFIPn8erT//HCCC2s4O+rQ0xIfnprV3v28Z4PzKlUg6fRpVWrbEi//8g2dCQtBl1arcefrjj6FLTq5AdjcmBB0//jHl/tt85+6KMBqHDgWvAfhVAOkQMIIm4v5+fn/aFbyuURtWAcgRFCp16ED8xu4+9kbPkhkzceyfIAQScNMSCE/AnOjPxxwo8qZK9TmAphWhn4pOh1uHD6NKy5Y4MXcuKjVrhrq9ekFtbw99ejpSL15EVlzc3aN7QG6of9ewYTi3bBn0aWmQ1GpErVuHLT173j3XXwGQw0SDgiMjK8RmWKmijEpYWJ9NkoSnAFwV+qHc4aRSZfcueHFbT6cEEP4Q5ClVJJKiPLcr2MFkMi7enDj2sJR7NPeoBdD/VFEXNzRv3hLAhIrU0bgDB0CSBJvKlXF+xQo0GzsWTrVr3z36F3fgABxr14Z99ep3f6PPyEDk7NnY/PLL+LdnTxybNg0ZMTEVR/Yk6fk+x4+vqigdkioSwx44EHzCYDC0BrAHAuXrGVHRywASs9gMWFpgXCKV3H5nP8edpta0GxPHRhtk647E+LsiD4ECalj0dXyCChD6vx+x+/cDAKoGBOD0zz8jJzERtV555e4RvTv3KzVtagnSdw6yHBB07NjOitQpqaKNUkRE/9uVKjk8A2AlBMoTHdu129Co4MUdZ+z/A4uoTCngoN5Kabezt9NZU23gLe2o9Bgl9VUmfF9hDV0oRRoAzBxd0fqadvkyMm/eRLWAAMg5OTgydSqICJmxsQCAm7t348+uXXH9n38quuztg0rVIfjUqaiK1jGpIo7W5s3dc8LCgt4gokkw800aZuWgsjy40EUtKURYJqjzRFhKmXad9/d0jDf5lmq1htiJY98jxgAAmRWPyalB0ZYBnauIjBe7fz/s3N1h5+GBuIMHsbVfPxz+MnfriSErC9m3b1dsySP6HrLcJfjo0VsV06Ct4GjbNvQFZl4JoLLQI2XvpYaFBbcreLFDSFpjiaVTgjyPjCwG3t3dx36JOTa++lezWygK/wqgTgUaE91NOdUeWm2+o18hzZp1AbCtojGgbbVqUHQ65CQlWZrsZRPzO0EnTlTok0xSRR/FgweDNgOqFszYL/RJmduTG4q6qlKkpwRtHhlREnM7c1X+ABD92ZhjksrKH8CWCjQuVlVVdrUsJQKQFRdnicr/ApjbVHTlbxEGAAD8v71zD46qvuL499y7ISSbtIIGLKAVxAhkstVieD+F6SgODzV7E6SCpSozjgUJtPggzlodLMXageq0olilI48sPkEYHIQQg3A3BMKGUIIKlpAHICCQrCTZ+zv9IxmFTSIBN8k+zmdm/zmXx73n97u/8/397vmdn2nefyw+Pmk0My2GfBJoK/xK8TvNXWDC78U9V8RHlr9+0LbMhLAvpFT+9OOnKhfOvQvAE5FSNEhTMU0+Azj37asAcF66bpjD/D5iYtKM4uLiaHhcLVraNTd3rN/jcT4JwABwVnp6kOf+hPUFBUZVoH3MunP9AAwRD7VORDH4ye1G/JT8adeciaDOwZXZWUsVYQSBvgr7x9GbJgI2FoT5Qrpw2HIBwBPO4uL7jcLCqIkPWrS1smka6/x+OABskz4fTOHMbzRr92uPiHda40A6qIiG52UkLAZRRK5SVS3M8lyw9F8DWBXWAoC1ZhMBCSiVjhyWlGhKDTa83qUUZSvEWjS2dmGhcdQ0neMAzEIkZiq3P+U33kibA40pOdwJRA+Ke3489IOxPLYu7o7G8xMimtOu2ecqs7OmEfAwwnbJnG9t4YIIgHCT3cCyBJ9vYPr+/d5odIAWvW1PbJrGcgBpAArlXfgps3+85XYbVqA9Cd9NApAkHmqRo0xq/PZM+6xPplM01dNHRXbWCptV348Z68NPsSFZBEDY8zUz/8bp9c4Jx2N8RQAECdM0DlRXYxjAL0AOFLqq8dBmU/9uXhiwJP+1qD/htvz1t+UZiVuj1QVlrgUVVc9mTWJiA8DpMLr1nkmuVxMCjRZwSDp2GOg3ouWxtbWOjOLiLTIMCd8zaNCaZCLtnwDuFG+0mm2maTTx16jVvhtI4yMAdHHRpXGPGI/lZto3iCsuiqiuZb2U5l8Owt1hMXBqNLDimbl7LratdDjsnRs+a8i4Gpp8xUSPZOzbJ/lfsgLQFI8n85BpOscz0wwAp8QjrRgIiZqt9U86/06C/yXUA7zM39mXIsG/KeWu2ccqn82aQIRJCIcDvSxu8hlgutdbA6BcWjPkqCNgEez2VAn+IgAuF9LY43GuBPwpkPMELsfZ+vrO7zexMhMY08U9je4Ab9csdfv2jIQ5OyYnyV7xH6FiYdZ6suwDCPwcQvgoaaW1mAcgnwFCi63Q9dudXu8zxs6d34k7RAC0CtN84LhpGtMBvpM5Ko45vZrQ9k5h4cQmuyhGu2vGA7hZ/INKZp6RZ9jHbnsgUUoht1YEuGb5KrLnuXToqSDeHJrTBMhOgNCmnIAZhtc7zti794C4QwTAVQqBjG0ej3MgMxmAnGp3SefR9DdamPLOjHLX1DLoJX9n3615mQkrI3Vff1tzLHvOF5UL591FoHvBCLFTEEkEQGhSzcBzcTExyU6vd6W4QwRAUPS+x+N0+/1xA4j4SUjJTwDw7tyZ3mRlZGjO2a4ATYlSnygQ3JZNH5CXEf9HWe4P0opA9twPKtW5FGaeQUBlaNwVJ4OZRACEDPUgWq7HxCRneL2uiYWFUt+lNZFNXHDlDB++ukd9vb6QGmrcd4pOL/DjppnxaqB19FrfbICXRqFDtmjM8yOhfn8o033JEjvV6vOIMR9AYkfei82q71nmWlBxse3d1NQ+FoV/ueNwGohAtE4jeia9qEhKMYsAaD/S0lbfoGm2+QA/CqBzFD36hZiY+h75+dPONBUANXsB3BZFb9DnzNpTeRlxefJGtB89F71yLVu1f2DQHADXdFDkGVuVPTf3YluO06mjtLQ6ysaDjnE/8LGm1HPp+/fvFneIABAh0F6dhrBq1y5jWpPgv6YmDQRPdLw5lMtKvZiXmfCJvAEdx3WLFyd2qrM9xtAWANylfUMQzap8du7yQHOOw7EfQIq0TtsFfqVpf84sKioQd/w0JAcgCBQUTC0zTeccXdf7AViKCM8RUAorWhAGkV75T4GwgZiGbjfix0rw73i+WbDgfEX2vMUXYmp7A7wQwPF2/O9bSgQ8KC0TdCwG1ijAYXi9EyX4ywpAyDJ8+IeJfn/tTABzAfwywh7viGke6Au41MXGoTkc14l9Feig5dg2phZMOWTzL8pN/5kM7iFMisvV6ZQtcbLGNI+BwW08eG6oyM6aGGhf63AsIuApaY2gcB5Eq8H8suH1SoJlkLGJC4LPjh2TzzesBLj+MWRI/3uYaQGA4RGhGAkrAoM/AMSoGieIIi34VwF4vT5GvfL5fYknpGeHPiUuVx0ANwB3jxdeGgHWZzP4PrRBVUqG1AJoQ75i5tc76fpr9xYVfSvukBWAsCYtbV0KET9IxA8DuDZMH0MpZd1UUDC1LPDC6JzqPDCNjICmUgC2gml59dm4DwpnkRwQFeZ0f35Jb431mSA8BKBXEP9pf1frnL1RdHzPGodjiAbsFM9fuT8BfAxNe/1AUdEmV8O7KIgAiBzuvntj7KlTNZOI+FEA48KsDTaapnFPoHHEmgvJOlkHw7w/VRDoP4rotTwj7oj01AjE5dJ66D+/E8CjDJ6MIGzhJV31r3h6/iWfhd5JTe0SQ3RaHN5qvmBgFVnWm0ZJyVFxhwiAqGDw4HW3APwgwE4A/UL/jjndNDPeDbSOWev7C4MXhGET+ED4mBlvdaf4zW6DLOmVUbIq4FrSTdP1qQAMAEOvdiwkwpSKhVkfBtpzHI4TAJLE0y1yGsD7BLyd7vXmU0N2vyACIDpJS1uXouuWs7HkcP8QvMVvunZN6LVp04RLDmgZs41tfMJ3FMAvwsTV34HwKSt2a5r9vVyDqqX3RTc9Xct6Kd1/PwAngGFXMi4y8Keq7KwlzQiAfERI3k8Q+RbAegbcZFmbjZKSOnFJxyJJgCFCQUF6CYASAK5Bg9b8iojSAZoA4PbQEGr8dmDwBwA67ruHKeSDvw+ErRL0heYod80+hobtu0u7u/7eR7OpKQyaQIyRuMxnAvrxrYAiABoO5dkIoo/Y7/9Egr4IAOEyeDyZ+wDsA5A9cmROUm0tjSHi8QAmdtxMm95szqpCc++/ArCXQFsAtSUu0f7ZpglUKz1LuBzHXXMPA3gZwMs9XK/FQ/cNY+aJINwL4IZm/kqzxwIT8yGmqFxgVQD2MrCBmNc7i4v3yPJ+6CKfAMIIpzNHLyvT7lDKGkdEw9CwXNke1c92mqYxLNA4Jqf6emYqCxEhWQlCPoAtfgsbdky1V0iPEYIGM13/4t/6k18bBeJRDG00gXsAOFGZndU98I+7U1MnM9EHUeAZC0AREeVBqe2s1GdGSYkkQMoKgBBs3G7DAmA2/gAwpaW9O0DXrWHMGAHQUAB9gy3smJuv/AfgoQ7qQz4QikhxAQi7Nbbt3JrZWQ5gEdpwqkRcBRxAw+9fANDt+b/ebINtFFwuG1wuf8DMqjRCp71nAOxhwAPm/Pr4+PzfmuY56SCyAiCEAI1VCJOZKYUIAwEegIY8gqutPVBts8X2aCxudMmMaPTamlIQ3dLGj1QD4CABuxWhQFe8m7vbS3LHkl9aWwhVclJSOkHXDwC4CW1QhKidKAfwXybaA6CQLaswc/9+EdoiAITwgmnQIPdNzNRH11UfZvQG0BugPszoTdTydiUirNi1y3g40D5m9fkxrGnbgnSD9WCUgXAYjMOs0QGNVYnfZjucXxz7NVwkBUGEsGRj376xPru9rwKSWalkDUhmoptB1BPMvdCxh4dZaKh2eZSYy9CwanEQQGlsXd2hyaWl56UFIxv5BBAdOo89HhwBcATAp4FXhw7NifP7reuIYrprGicphSRN4+uUom4ArWpeUugzA3J7zqIhAagGjDoQagH4GgeZbwg4yaDjAKoI6iQBJ/0WKhFLJ/Wu8SdlRi9EIhO+/LIWDbt7Spq7/p7D0U0R9bSYe4H5eg3owo0/0rSuYO6CH/J87PhhV0Ji4/itGt89gEiB+Wzj9XNg/paAM4roDAFnCDgD5pNgLmdd/19Sly7Hx+bmynsnCIIgCIIgCIIgCIIgCIIgCIIQWfwfLFYScodFE/kAAAAldEVYdGRhdGU6Y3JlYXRlADIwMTctMDgtMTBUMDA6NDQ6MjkrMDA6MDD/KCYfAAAAJXRFWHRkYXRlOm1vZGlmeQAyMDE3LTA4LTEwVDAwOjQ0OjI5KzAwOjAwjnWeowAAAABJRU5ErkJggg==;" vertex="1" parent="1">
                    <mxGeometry x="400" y="413.28" width="312" height="176.72" as="geometry"/>
                </mxCell>
                <mxCell id="6" value="" style="shape=image;verticalLabelPosition=bottom;labelBackgroundColor=#ffffff;verticalAlign=top;aspect=fixed;imageAspect=0;image=data:image/png,iVBORw0KGgoAAAANSUhEUgAABAAAAAPMCAYAAADckMvCAAAABmJLR0QA/wD/AP+gvaeTAAAgAElEQVR4nOzdeXhU5dk/8O99ZrLNJDNBBAUFlQwI0lorLrVAGHBpca1LJhviVrHV2tZq3bW4tLZara1aW6riQnbFXauihIC7dLFFBJLUBUFBIJNkJiGZOffvD+zv8rUuQJ4zZybz/fzzXu9V+d63GHjmueec5xEQEaWZLafvXSx9ubvAsosVCHiAgNoIQhBQIGApghAttlVyLaBQgUJAcgEtVkWeCHwAigB4B9BGAkCXAjEB+gDdAlh9Ao3ZQLcl2geVDlsQFaATNqLiQWcS6Nz2/1sddn9i0y5N7VEzvytERNnhiMbNwV6Pb6jVlwxasIO2xwpYqgFVCUA0KLCCgBYrkAtBIRR+ALkAhgDIhcIPMbAGKLogiAPYCmALgD4IYlB0b1sXpENhRxXSaUGjtkinlbQ7k2J1ao6nIz8Z37QosgvXACJKK+J2A0SUHRSQ+KwJuycSidHq0VFi6wgIhitkhAC7ARgOYMQn/zfP3W6N6gWwEYJ1UGxU4COBrgesjSq6TpLyvtfrfc+3YOWHAqjbzRIROWXqQ7ERSMoor2KUrRiposMtxQgVDFfBcFGMBDAMQL7bvRrUC2CjCtaJYoMoNtiC9aKywRKsSwjeh0ffX3qyf73bjRJRduAAgIiMic8et8dW2x7rSSKkonsBMloUo1UwCsCeGFwbe9O2AlgrivdV8B6g74nKu0kPWm1F69Ca1rVuN0hE9GUm18VG5nqssUnYIVHsBWAvQEYBOgrAKHAN+DJbAbwPyPuAvg/gXVG8p2K3ebze9qHJ/LVNEUm63SQRZT4OAIhoh3SVhYbBi/2Slo6DjRAEIQtWSKEhAD63+xusFOixIGts2K1QtMJCq4qs8Yq+VfRA2wa3+yOi7BCu7dzV9uTsZ6k9DiIhGxoSIARgLLgGOKkPqu+qSLso2lW0DSJrvLZnxQtv5/0Hc8V2u0EiygwcABDR/1BAOirG72VJ/3iB7AdgvIpMAHQCgKFu90f/YzOAlQqstETfVhsr1OtdFXxg1Tt8rYCIdpiqzFjYO1oTyfE2rP2gOh6WToDKBAC7ut0e/Y84gJUAVgC6whJZoUlrRXNF/rsQ4RpARP8HBwBEWU7L9izo8uZOUvFMAnQSgEnY9k1Ojsut0cD1A1gDYDkgy0WTy4sSfculaW2P240RUXoIz9d8+HsPsqGTxMYkiHINGDy2rQEqy9XCcguyHLH8N5rPkF63GyMi93AAQJRFFJCuynH7qiQPAeRgCA6E4hsA/G73RikTB/AmBH8TldcliVcLJ6xZJXPBx0eJBjtVmdKwdazHShwKlYMVOFCAbwAodLs1SpmYAv8Q4G8Qfd2C/drisqLVfFKAKHtwAEA0iHVVhiba8t9v9WUSgAPAzT79r34AbwL6IoDllsrywrrWt/j6AFFmm17bNTFpySQRTFLIJOEaQJ/vk6GALlfFco+tyxdXFa1wuykicgYHAESDSLRqzFgRa6oqpgGYAmCM2z1RptJ3AFkqihZ4PEsDC1atcrsjIvpyM+p7S5JIlAJSCsEUbDucj2hntEKxDNAWD7wtL1Tkt7ndEBGZwQEAUYbSsom5Xd6eQ2yxJgv0CEAOBVDkdl80aHUD+gogLyqsZcEt9lJ5unWr200RZauJjZo7DL2H2JqcLJBP1gDlGkAOkS5AX1XoIks8L25E/msrItLndldEtOM4ACDKIJsqSkbleORIVTkS0MMBDHO7J8pamwR4wRZ9TtV+dkjtf951uyGiwW5GY3wPG/aRaltHQvQIAMPd7omy1gaoLBLLfs6C9dwLEd8HbjdERNuHAwCiNBYtm7gLcnqPFcixCp0CyAi3eyL6XIIPRbHUhi7Ksb1P+OtXrXO7JaJMd1hjdJdcO+dwQI8AcASEr3VRmlK0A1gEyKI+q//5lyPBzW63RESfjwMAojTTUR4qES+Og8qxgJaCVzFR5kmIYhlEn0RSHws0tK92uyGiTDHlod4xnoR9LKDHASgFkOt2T0Q7qE9FlgrwlIXEk4sjAZ4hQ5RGOAAgcpnODOV1FeMoiByrsI8CZG+XWyIy7SMAzyrweK/H99TuD7wZc7shonQxsVFzd9X4d6A4FoKjAOztdk9Ehm2AyjMAHs+xep9dFNkl6nZDRNmMAwAiF2jZngVd3rzvqMiJAI4BMNTtnohSZAtE/6qQhb2W72kOAygbhedrvu2PHyU2ToTgGPA8F8oeMRUsEuhDOeh7jMMAotTjAIAoRTZVhwJeW44R6EkqmAnexbwztgAaBaRDFB0qiArQZyu6LJGELXbUUrFtYIulYtti7/QHC0usYttWyxIU26KWpVbQVvVagiIFchUothTFKhoEpBhAscF/z6ygQA+AZwRYqOh7orj2vS1u90TklMmPbizybPUfLWqfBMjRAArd7ikDbQHQAUEHIFGodkDQLzY6FUgCEhWBbcPeIgIbkAFsLjWoCsuCNUQVFqBBCLz4ZA0QSBCq//27n2vAztkKwXOq+qCV2/9o84lDOtxuiCgbcABA5KBo2cRdJHfr9xR6ElSOAJDndk9pZqNA1iv0Q2x7THyjQNcrsAGCjbZa62F7OpDf2zHk3nfS/oNBR9XoIWr7guJN7CK2vbuIDAOs3VR1dwiGQbGbArsLMALArm73m2b6Abyg0IWefnm4qKl1o9sNEQ3UlJqOId4c7wmqchKAIwHku91TmvkIwIcA1gPYIJCNNuz1UGy0LGwQG+slx9NhJXs6MuGb4vDDW4rRm19swx4igt0VOkws7AYbuwPWMFi6G4DdoRgBPvXxWX0AFkH1Qcnrf5jDACLncABAZJiW7VkQzc07XmypguC7yN4DnLpE0W6LtgnwvgBrVax1IvK+beODYG7fOrn3nV63m3SLnr53frTHu4eVY41U2x4tKiNV7D1VrVGWoEShY5C93xAmADwHRe3WRN4jw5tWdLvdENH2OqxRC3LtnmMhWgVgJrJ38NsBoB1Au0LXCqz3VLDOgnyAJNZu9OSvy+Z75MPzNT8R2DrS06d7qCc5ylKMhGJPFRkNYAwgYwAtcrtPl2wF8DRUavusgidejkiP2w0RDSYcABAZoOGwt3OP94+ESiWA7wHIlkW7E8DbUFkJQRsEbYC2W5a2Fz3QtsHt5jJdd+U+u9nwjFHBGChKICgBZAKg45E9P2NxQB4TS+uKtub9VZpWZO2GgdJXWaN6PtbYEQqpVOBEAAG3e0qRLRCsFBsrVdCuIm1ia7s3N9n+/EmBTW43l+m+vbBreG6fZ4xt2WNEpUSAEgUmABiP7PkZ6xTgYYHW7Sr+RU0RSbrdEFGm4wCAaAC2VI09wBKcCdVyAMPd7sdBHVD9l4i1UkVXKvBWMqkrh9a3ve92Y9lq8+wxo62kNV4UE0UxQUUmAPo1DO73UDeLaJMmrfnB+jWvut0M0dTa7v09Fs5UkQoAu7ndj4M2AvJvYNvf/xB7pQV5qzlS+KHbjWWr0rr4KPHY4xXWfmLrfrB0AlS+BmCI27056CNAG9SWe1sq/X93uxmiTMUBANEO6q7cZ7eEeE4X6BmA7Ot2PyYp0CPA3wSyQoG3RJPLk3n2vzPh/XvapqNq9BBLvRNVPJME2E+hExU4UIACt3sz7H0BapO2909D6t9+x+1mKHscXtu9W78Hp4tap0N0vNv9GBZT4B8CXQ6RFQLrLS96/pUJ79/TNuGHtxSjP/9rNnSS2LqfCiYKcCAG3RqgqwVSZ4t1X0uk4D9ud0OUSTgAINoOOhdWdNXYw0VwJqDfw+A4yEkBrIHgNai8DtHXYv74myPnrYu73RiZtW7OSJ8/5tsfKodA9GAoDgEwFoNjDehT6BOWWPOL+tY8LU3g46Fk3ly1pu8bm26LdSZET8LgWAOSAN4C8LoqXlPg9c2W79/Z/F7+YHVYoxbkJ3v2Vw8OVhuHADgYovticKwB/QCeVpX7NlkFT/Dnl+irDYY/+ESOic2aMKI/2XemiJwNYC+3+xmgTQBeAuQ1FX1NcxKv8Zv97LXl9L2Lpd97CGw9WEQOBfBtAEPd7muA1gF6d9Krd+1yf/t7bjdDme/w2u7dEh6cCcjZAPZxu58BWg/BMlF9zYbnNUvy/9YcER6wmaWOaNwcTGjuwQo5RAWHiGIyMv92mo+hMl8sa15zJL/V7WaI0hUHAESfoeGwNzpy7YkCnQPIDACW2z3tBAWwUiDLbOiiHNvzor9+1Tq3m6L0FqvYd2S/lZxsQY5Q6BRsO2wqU9eJFxX4fbAw+IjMW97vdjOUOcKL1asf9ZwI0TkAMnUNsAH8XSCLFPqiiL7O9/Xpq0yui430ikyG2FMAmYxtrw5k6hqwHIJ53QW+BcuPEz7ZSPQpmfqHmsi4ztnjhyLZf7qqzAEwzu1+dpQAa1XlebHsxbZ6lhbXrm53uyfKbB2n7ruPJBNTodYMiM4AMMrtnnacvqOQv3j7E/cUNr3DDRB9oSk1HUO8ntzTFDgnM9/t19VQeV5FmtWrS5ee7F/vdkeU2cJ1PXurJzkVKtOhmAHJyCch1wO4KynWXcsiBXwyjAgcABBhS0Xom2LhfAEqkVnvdX4simbbkuetRPKFQEP7arcbosEtWjVmrIrncEt1hgLTkVmPi/ZD9EFA/hCsaX3F7WYofUyt7d7f8sj5AKqRWQelrQXwgqo+b+VYLzSf7FvrdkM0uIUbe0OK5AyxdYaKzAAwzO2edkBSgUcssW5tjhQsc7sZIjdxAEBZScNhb3SPtd8TW38Mkalu97OdEgq8BOAphTxTPG7NmzIXtttNUXbSubA6Wsd93aP6HVv1aAEmA/C63df2kdcB/X2gP69JmlbwwKgsVNaong3oOR7Aj6Eadruf7dQDYImIPClIPLc4EljldkOUxVRlal3s65YX34FaM7HttbEct9vaLoI3FPq72BZ/0/JzhK+IUdbhAICyyqbq0J45ih8pcAaA4W73sx3eA/QRhefxYH/8RWla2+N2Q0SfR8v2LIjm+CYLkscBcgIy49DMKKD32bBvGVL7n3fdboacN6MxvoetOF+hpwPYze1+tsNygSyCyBPDkP9yU0R4ywWlpcMatSBPY5MB6whVnJAhr9FsFMg98OJ2PkFD2YQDAMoKWyrG7215Ej9XxRlpfx+6YCUgC6HyWGDc6jf4LT9lGp0LK/r2mAPFYx2nNk4Swdfc7ukrbFVFjeXx3BhYsIrfqg5CUxp7RnvUvgjAWQB8bvfzJRTA6wpdqKKPL40UveV2Q0Q7TFWmNsS/6REcr4ITodjf7Za+QlwV98CybmmJFPzH7WaInMYBAA1q0apxhwD2VQCORvqe5JwAtBmwnkh6kw/z+jIabDZVlIzyWJgpkOMAfBdp/aqALhIbvwjUt73kdic0cNPqYwfDwtXQtF4DtkLwnNralJNrP/n8SYFNbjdEZFJpXXyUeHQmgOOg+A7S91UBG4KnNCk3tFT6uAbQoMUBAA1K0apxhyjsywQ4Hun5oU8heBmKB23b+/CQ+rffcbsholTYPHvMaE/CcyKAUwD9NtLzzycAPGMpbiiqa13idiO048J1sYNsC5cKcCLS82csAWCRKB5KWvajSyNFG91uiCgVwg/F99R+nAixTwFkCtLzz6cq8KzA/s2S8qLFbjdDZBoHADSobKkqme6BXKnb7m5OR38TlfqkJBr5zjFlu00VJaNyPIioWuWAHux2P59L8BLU/mWwtv0pt1uhr1ba0FMqYl8BxVFu9/I5bIi0qK31lp18qLkq8LHbDRG5aUZjfI+kIqKi5aI4BOm5L3ldBde3lPkeh4i63QyRCen4B41ohygg0arQKRbkSoWm23tmCuAlQJoSog8NrWnlITNEnyM+e9we/Qk9BdAyAN9G+q1PKwC9MdDfViNN4EFs6URVpjX0nALRywEc4HY7n5GA4K9qa5OdTDy+rLp4i9sNEaWjcG3nrur1nKSK2ZKea8Bbqvqb3Sx/DQ/jpEyXbn+4iLabAtJZMfZoePQqKA51u5/P2AhorQ3r3iG1a/7hdjNEmaS7eszXk2qdjm33sqfVSe2i+Kdt4frg2NaFPKDTfdPqYzNh4Uoovu12L5/xjgD3Jbye+5ednN/udjNEmWR6bddE2/KcBtFZAEa43c9n/E0F1/CJAMpkHABQxlFAuipLTlCRqwAc6HY/n9IP4ClRvbcokf8U7xcnGhgNh71dI9bOhOA0BY4DkOt2T5+yAiq/DOy7poGDgBRTlWmN8WMBXAUgnV4diQnwIGz73uaKwiXcHBANTFmjej5G/Ls2cBoUxwPIc7unT+EggDIWBwCUUaJVoe8A+CWASW738l+q+LdYuNuytLbogbYNbvdDNBh1zh4/VPv7qyByJtLrMe8VonplUV3bo7LtlR9yULih+wiF/BLAIW738v+JLhXgHsD/YHNEut1uh2gwmlLTMcTjyamE4Eyk0WdAAK8J9Irm8sJFbjdCtL04AKCM0FE95nBR61dInw99mwX4iwjuL6pp5T3NRCnUWTluPMQ+Xbfd6b6r2/18YoUC1wRrWx/kIMC80sauGYD1K0mf173eV+gdlteqaT7Zx7NdiFJoemPnvqreMxSaNmuACl4F7MtbIkUvuN0L0VfhAIDSWuescVPVtm8AMNntXrbRRQqZF8xNPC73vtPrdjdE2UxnhvKiQ3C8QOcAcjjSY017xYZePqS2jVdHGRCuix2kFm4AcITbvQBIQrBQVOcNE/9iHgRG5K6ZT2levLPneIjOAZAua8AisXFZc6X/DbcbIfoi6fAHheh/bKkYv7dlJX4JoALu3xHbB0EjgDuCNa2vuNwLEX2OjlmhA2HjXNl2cGC+y+2oqjxieazLAgtWrXK5l4xUWhcfJYJfQrQa7q8BnaI6H177T82nBN52uRci+hzT67u/YUPOhWAWAJ/L7dhQqfHkyFUvnFzAK58p7XAAQGmlqyw0THPkeoWeASDH5XbeBeR3yf7kvbs0tUdd7oWItsPGM/ctyulNVArkAgDjXW7HBlDj6U9cXNj0zocu95IRwrWdu6rl+SUE7q8BgjfV1pv9AX/D00fLVld7IaLtMvnRjUXerb5KKH4CYD+X2+mHYn5/rn3VSycV8YwoShscAFBa+ORR3p8KcAmAIS53s0hU/lC0b+uTPN2bKDPpXFjR1eNmCOyfADgG7q53MQC/DfT3/kaa1va42EfamtiouUM1doFALgawi4utJCB4WGD9oTlSsMzFPohoIOaqFZ4Qm6EiP4G6vgZ0C3Az4r5fN58hfH2UXMcBALmuozp0FGzcLIKvudiGrdBHLMEtgZq2F13sg4gM66gYc5BYngsBPQWA18VW1ojqxYG6tkdc7CHtTK/rPty25GYA33CxjV4AD6jav2upKFrpYh9EZFhpXeybliUXKjQCN58sUl2jsC5tqfAtdK0HInAAQC6KVo0ZC3huBfRot3pQoEeg9wF6S7C2fY1bfRCR87adLdL/U0DOAlDoVh8CLLbE/klhTfu/3OohHcyo7y1JSvIWAMe72MZmUdzpsfW256sKP3KxDyJy2JTGntEeO/kTiHU2oEWuNSK61LJx/uKKwn+61gNlNQ4AKOU2l40JenLkWkDOhUvfxgmwViG/TYjOH1rT2ulGD0Tkjg1lEwvzcvrOAvQCAHu51IYCWGB59KKiB9qy6t3QQxdsCuTn5F0HyA/h3rdxb6nqbzZZ/voVEelzqQcicsFR96t/a368GqoXAjLOpTYUKgu8tv1zDh8p1TgAoJSKVpVUCOQmBfZ0qYX3Ab0xVthzz8h56+Iu9UBEaUBnhvK6inGqCi4DMMalNjaI4LKisa33ZsOZI+HG+CmqejOA0S618C9R+dUwq6CJ1/gRZbdtZ4/EZwlwGYCQS218DODyJSt9d2OuDPo1gNIDBwCUEtHq0LeguB3AJJdaeFuBq4PjWh/Khg/ZRLT9dC6srlWhY1QwF8CBbvQgin/CY50fWLB6qRv1nTa1MX6IpXo7gINdauEVgV7VXF64yKX6RJSuVGVaY/xYCK6G4iB3mpBVqvaPWyoKn3WnPmUTDgDIUdsetd16LYDz4c7j/m0i+FWRP/iAzFve70J9IsoQWgZPZ06oAoIroJjgQgu2iP7F1v7Limvf2+JCfeOOul/9W3N7fgHRn8KNx/0FbyhwXUuZ73GIaMrrE1HmmKtWeHxPRKFXQjDRhQ4UwN19krjk5Uhwswv1KUtwAECO6awKnaDAbQBGuVC+FdDrAutG1Upzc8KF+kSUoXQurOiq0CkiuBpw5UPgRxD5WbBmTa0LtY0J18eOVeB2iCvnLLymwDUt5f6nXKhNRJlsrlrTJ/ScaIteDcX+LnSwAaIXLSnzL+DgkpzAAQAZ1zlr332RTP5JBWEXyq9W4Eo+6k9EJnRUjTtCYN8E4IDUV5dlluoPiupaV6S+9s4L1/XsrZZ9B4DU3/AiulTgubw5UrAs5bWJaNAJN3QfoZDfwIXXwxR40VL7B80VRf9OdW0a3DgAIGN0ZiivcwguU+BiAQpSXL4d0Gv4jT8RmaZzYUVXh04W4HoAqT4xuh/QO3s8/st3f+DNWIpr75CJjZo7TOOXK3AxUr8G/E2gl/AdfyIyTlWmNfScAsF1gO6b4uoJQP8o4r+iOSLdKa5NgxQHAGTElorQNy0LdwP4ZopLfywqN3YXxe7gqf5E5CSdGcrrLNY5EFwGyIgUl39LbD07UN/2Uorrbpeptd37W16524UDtN4R0WswzL+gebpw+EtEjpnYqLm7In4WFFcA2COlxVXetgTfX1zuezGldWlQ4gCABkRnhvK6huDqT77xSeUhf3GI/C4BvXFoTWtnCusSUZZbN2ekz9dVcIGIXAwgkMLSNqC39Xj8V6TL0wATGzV3Vzt+xbahSEoP+ftYRa7fhII7V0SkL4V1iSjLHdaoBTka+7FALgVQnMLSNoA7RHyX82kAGggOAGindVSPOVzU+guAfVJYdqsAt8LrvSlw/9ubUliXiOj/+OSWk4tS/9qTrhfFuYG6tkdSV/N/TWvomg617oJgTArLRhV6Q8znv235ccKnvojINeFGLbQ1dp7AugLQohSW/lBVzmup8C1MYU0aRDgAoB3WUTV6iCD39wBmIXU/QwpgQdJrX7nL/e3vpagmEdFX2lQd2jNH5SqFngXAk6q6AjRBrXMDdas/TlVNAJj86MYib4/vtxCcjdStAVsFcqsnJ3HT8ycFOPwlorQxozG+R9LWqyE4E6l8GlbQZMM+b2mkaGPKatKgwAEA7ZCuytA0W3APkMpvfOR1seTCwILVS1NXk4hox0SrxxwMW26GyNRU1VTFB2Lp2cGatqdTUW96Q3yyrfZ8iIxNRT0AgOBpK2H/fHFVUUbdhkBE2WVqfexAS+S3gE5PYdl1lmDO4oj/yRTWpAzHAQBtlw9P3d/vS/bcotAUfuOj74jKjwN1rY+nph4R0cB1VoaOU8HvAJSkqqYATTb6zimufW+LE/mTHldfYSz+u5R+6y94E2r/dEl50eKU1CMiMuCTqwN/D2C/lBUVNCX7+89ZVl3syBpAgwsHAPSVOirGHCSW9QCA8amop0CPADfGCuM38mR/IspEOmdSTmd357mAXovUHRT4rqU4raiudYnJ0G3famEBgAkmc7/ExxBcIcN89/BkfyLKRJP+rDn+IT3niqZ0DXhPbPu05sqi5hTVowzFAQB9IZ0zKaerO3qdAhcide80PZAQXD60pnVtiuoRETkmNmvCiKSdmKvQ7wOwUlBSAb0tsEUulqdbtw4kqKxRPRs1fpUCVyA1a0AS0Dv6JHnNy5Hg5hTUIyJyVLixe3e15RoIUroG+Ir8Fz99tAxoDaDBiwMA+lxbqvbZS+C5T4Bpqamo74hY5wdq1jyRmnpERKnTUVkyQwR/BGTflBQUvAq1Tw3Wtq/ZmV8efii+p53EvaJ6uOnWvsA/ROWHzRW+V1JUj4goZUobekoF9p1I3WsBryfVM2tZRf7qFNWjDMIBAP2PaFXJbEBuB5CKK016FZgbLAzeIvOW96egHhGRKzQc9naO/OA8QK8HUJiCkr2AXBqsXfP7HflFpfXd1SLWnSm61mqzql7QUu5/ACKagnpERK4IL1avvbHnPFFcl6K/X3tV5NKWsoI/8O9X+jQOAOj/23L63sWePu88BcpSVPI5WHpucEFba4rqERG5Lj573B6JhP17BU5ORT0FHpH+vLOCTSu+9LH6cKMWqt3zR4iemoq+oPKAWPbFzZHCD1NSj4goDUyui430enArNGWftx/pk8RZfLWK/osDAAIARKtD34JqHSB7p6DcBgV+VFzb2pSCWkREaemT2wJuBzA6BeXeF8uq/qLrVEvrYt8US+oATcErCroa0B/wdH8iymbTGmLHQXEbBHuloNz7sK3qJZUFvFKbUnIYBaW5juqxP1DFC6nY/AvQ5NHk/tz8E1G2C9S1Pq7oOwDQe1NQbpTa9qLO6pIL9TPD/3B97PtiYVkKNv+2AHck8nsO4uafiLLdknL/45LXdwCAuwA4/Yj+KFj28+GG7ougyi+Asxx/ALLY5rIxQW+OdXdKHkMVfGirnDekds1Cx2sREWWYjurQUaKYB6Tkm6CnRa3ZMyte3JrTU/AXFSl3vKLqGqjnLH77RET0v6bXdR9ui8yDYEwKyv1VkslTm6sCH6egFqUhPgGQpTorQ4d5cqx/pWDzbwvwm5g/XsLNPxHR5yuuaX020N87QYDfAEg6XG7mW0P3X+OPWa0p2Pz3KfTS7qh/Ijf/RESfb3Fl4fPS45sowDUA+hwu9131eN4KN3Qf4XAdSlN8AiALdVSFLhHgejh+r7OuEtXvB+ralzlbh4ho8NhSNfYAC3o3gAOdyH+spBr3Tfgp+j25TsR/2usqelZLpPBfThciIhosptZ272955W4oDnK4VFKA65tX+q7FXLEdrkVphAOALKJlexZ05uT9EZDTnS4lovO25nl/PuyeVV0O1yIiGnT09D2Qq+4AACAASURBVL3zo3051wn0ZzD0tF6flYd5+1+CZ/dy/K2vhAK/3iS+61ZExOlvsoiIBp2ZT2lerLNnroj+HIDH0WKCpkRe/KwXTxjGz+xZggOALNFdPebrSbUeBDDO4VKtYutpgfq2lxyuQ0Q06EWrxxwMte4HMH4gOe8VleDXB9+CtUV7m2nsiwj+LrY9u7mi6N/OFiIiGvxKG7u/Lir3AzjA4VLvWbZEFlf6XnW4DqUBngGQBTorQ8cl1VoG5zf/NYq+Q7j5JyIyI1jT/vrW/ryDRfTP2MlTopcPn4JLpt7n9ObfFtXf98E3mZt/IiIzWiKF/+r2+SYLcAecvSlgtG3pC+H6eIWDNShN8AmAQUzL4OnKCf1SgYvh4H9rVXwggrOCta3POFWDiCjbdVaUfFstuQ9AaHv+eRsWHtjvx1gYOh0qTi73ssqycRq/OSIics60xvhhsO37IDLW0UKKed1R34+WnyP9jtYh13AAMEhtPHPfopwe+z4RPdHhUk94NPn9wrr/fORwHSKirNdRNXqIIPdOAF96ev9WTwFuPfBavDjyKEf7EeC+nv7eH786a2ino4WIiAjhh7cUoy/vdoVWO1pI8GwfEpUvR4KbHa1DruAAYBDqOrXka3ZSHsZ2fku0k2KAnhusbbvfwRpERPQ5OqpDp4hiHoAhn/3f3isag18dcivWFe7lZAubBPh+c7n/ESeLEBHR/yqtj58kon8BsIuDZdbaIicvjfhec7AGuYADgEEmWl0yEyq1AIodKyJYaYtVOWTB6n86VoOIiL5UZ+W48Sp2HT51ONQ/hn8LN026CV25ASdLv5b0eiqXnZzf7mQRIiL6YqUP9o6VZLIOwCQHy3SLyBnNEd+DDtagFOMAYJBQQDqrQr8AcDWc+++qgN4W2CIXy9OtWx2qQURE20nDYW/nyLVXAriqbvwPrfpx5zj5vn+/Qq/aTfy/bYpI0qkiRES0fcKL1YsN8SsVuBKOXheof1iy0n8B5ortXA1KFQ4ABgGdMymnq7vzdoXOcbBMhwJzimtbmxysQUREOyi8WL2jW9989N1A6Ginagzp/RhnvPW7F47/6JFj5N53ep2qQ0REOy7c2P1dVbkXwG6OFVGplZ6Cs5rPEK4BGY4DgAzXXbnPbknxPAzgMMeKqC5NWFI1tKZ1rWM1iIhoh01t7Bomaj0swGSnahz04VJc8PcrUNQXhSj+mcixj9/l/vb3nKpHREQ7Llzbuat6PPcBcGwYDOCfSbGOXxYp4BqQwTgAyGBdlaGJtuBxAPs4VMIGcF1g3Z7XS3NzwqEaRES0E0rruyaIWI8DKHEi36sJnL7iFhzXXgvR/3P99Dq17ROK69vfcKIuERHtJFUpber5sajeBCDHoSrrxMYJzZV+rgEZigOADLWlqmS6BXkQzp3+uUVUzwzUtfGEZyKiNDOtrmcqLHshgF2dyB/S+zEu/Ntl2H/jFx7+3AnYlcHa9qecqE9ERDsv3NB9hEIWwLFXAqQLquVLKvxPO5NPTrLcboB2XEd1ydkW5Dk4tflXXZrjtb7OzT8RUfopbYydBct+AQ5t/g/6cCluX3zSl23+ASAAWE90VpVc5EQPRES085rLCxdJMvk1AA4NabUIgienNXRf7Ew+OYlPAGSYzsrQz1RwE5wa3ojcFujLvUiaVvQ5kk9ERDttWn38fIjeCgfWAFFF2Zq7UPX2nbB0Bw75V/wiWNd6rel+iIhoYMoa1bNB49cCuAwO7fsUuL4l4rsaIvrV/zSlAw4AMoSGw97oiLV/FsGZDpWIq+iZxTVtDQ7lExHRzpqr1rQJ8VsBnO9EvL+/Cxe9cSkmbVi2sxEPBAqDZ8m85f0m+yIiooGbVh+bCUEtgGJHCggW9sE36+WI9DiST0ZxAJABtGzPgs6c/DoAJzhU4j+2ZZ04ZMHqfzqUT0REOyk8X/PVF68FcKIT+aO72nH5az/FyO53B5gkzydETxpa09pppDEiIjKm9MHesZJMPgJgP4dKvCzJ5PHNVYGPHconQzgASHObqkMBr8pCQA93pIDgJa/knOJfsHK9I/lERLTTwo1aqBpvAvBdJ/K/sfFVXPzGz1HUFzUTKHhJPN7jA/e/vclMIBERmXL4ws6h/Qlvg6hD+wrgHwkbx7xY6V/nUD4ZwAFAGovPHrdHf8J+Fg5N6gT4TdG6Pa/kFX9EROlncl1spNfCMwC+ZjpbVDH77T/oSWvmy2eu+DPhP5rEkcUNrW2mg4mIaIBUpbQxdrFAboAze8H1ovZRzRVF/3YgmwzgACBNbZ49ZrQnIc8Csq8D8QlALwjWtt3uQDYREQ3QjMb4HklVpwbAW0X0B488+o0cUbkDztwV/S5gHxmsbV/jQDYREQ1QuLH7dFX5E4A8B+LXWUn7qMVVRSscyKYB4gAgDW2pGnuABf0rnLm7c4OInhSoaXvRgWwiIhqgqbXd+1se+SuAEQ7Evy+ixzdHCv8BANHq0LcAPAzF7g7U2iKKYwJ1rS87kE1ERAMUbuw+QFUeAzDKgfioiHVsc6Rgp0+XJWc4c5Uc7bTO6pLJFnQxnNn8r1BYh3HzT0SUnqY1xg+zPNIMJzb/gjcSNr71380/AARrWl/J8VgHAVhuvB4wRAXPRatC33Egm4iIBqg5UviPhI1vQfCGA/FBVfuZcGO3I2fY0M7jACCNRKtLZqrKs3Dmio5Ht/bnfau4dnW7A9lERDRA0xu6vwPV5wAMMR6uUisx39TPO5jJd//qD7b254UVeMR4XcAP4LGOqlCZA9lERDRAL1b610nMNxUqtQ7E+1Tl0Wn1ca4BaYQDgDQRrRh7DFQWAvAZDxf8MbBuz1OGN63oNp5NREQDNr2h+zs25GFs2zAbJZCbh1sFs5vPkN4v+meGN63oDva3ngLoH0zXB5ArQE1HdUm5A9lERDRAzWdI73CrYLZAbnYgPheiNaUN8YgD2bQTeAZAGohWhU4FMB+Ax3B0QoAfBGpb7zacS0REhoQb46eoai3MH8bXr9CzW8oL79uRX9RZOfYMFZ0HwGu4H4Xg/GBN6x2Gc4mIyJDShu7TBPIXmF+TFIofLanw/9FwLu0gDgBc1lk19nSF3gXzm/+4WKgMLGh9zHAuEREZUlrfPVtE7oH5NaBToCc3lxcu2plf3FEdOkoUDwIoMtyXAnJBsHbN7w3nEhGRIeGG7iMU8hCAgOFoBeSnS8p9TjxtRtuJAwAXRatD50FxG8z/d9gAWMcFa1e/ZjiXiIgMmVbffQZE/gLzm/8P7KQevbSq8M2BhESrxxwMtZ4AMNxQX/+lorgoUNd6i+FcIiIypLSx++ui8jSAPQxHKyAXLin3/c5wLm0nngHgkmjV2B87tPlfrbAO4+afiCh9lTbEzoPI3TC9+Vd5W2xrykA3/wAQrGl/XT2ebwG6ykRrnyIquDlaGbracC4RERnSEin8l9jWFKi8bThaAL1lWmOMa4BL+ASACzoqx54jonfC/O//371WzjH+BSvXG84lIiJDShtiZwrwF5gewgve8Cb02OerCj8yGRubNWFEwu5/EsA3TeYCgIhcEqhZc6PpXCIiMuPbC7uG5/RbTwA42Hi46MVLIoU3Gc+lL8UnAFIsWlXyI0c2/4K/9nh8U7n5JyJKX9PqY+cKcBfMr79PdRf4ppne/AOAf8HK9bHC+BQI/mo6W1V/01FZcoXpXCIiMuOlk4o2+Ip8UwE8bDxc5cbSxhjXgBTjACCFopWhcwH5A8x/898Q6Ms7YfcH3owZziUiIkNK62PnQHA7TK8BintluO+E5cdJ3Gjup4ycty4e6Ms7AUCD6WwRub6jOnSZ6VwiIjLj6aNl63DxlWHbrWVGieL6cGP3paZz6YvxFYAU6age+wNR/SOM/57rnwLj2s6TubDN5hIRkSmfnPY/H4YH7wq9tSXi/xlE1GTuF9Yrg6crt+QOVTnHdDZfByAiSnOqMq0xdjMgFzgQfsmS8kKuASnAAUAKdFSXnC0qf4bh328FLi2ubf2NyUwiIjIr3NA9SyH3wvCBfwq9tKW80JU1oKMqdIkAvzYcqxCcH6xpvcNwLhERGVTa0H2JQIyvAQqc31Lu5xrgMA4AHNZROfZkEa0H4DUYqyq4orim9QaDmUREZFhpY+x4UTwIIMdgrAJ6xZLyQlfXgGjV2KsAvdZwrA3oGcHatvsN5xIRkUGfDAFugNn9pA3R05dECh8wmEmfwQGAg6KVJd+FyKMAcg3GKqA/Dta23W4wk4iIDJte1324bcmTAPIMxipUfrKkwnebwcydFq0O/RSKW2D280RSRMsCNW3mD5wiIiJjptXHznXgbJukqkRaKnwLDWbSp3AA4JCuytA0e9uJyfkGYxNQmR2sW1NnMJOIiAybVtczFZb9DIACg7FJFZ3dEimsNZg5YJ3VoTNVjV9r2A/RE4I1bU8bzCQiIsPC9fEKFX0AZp927rcEJy6O+J80mEmf4ADAAR2zQgeKjcUAAgZjEyo6q7imzfgJzEREZE64sfsAVWkGEDQYmxCVU5srfPUGM42JVo6thOj9MPsBMC5qfydQ177MYCYRERlW2hCPCLQGZteAHkusmYsjBUsMZhI4ADCuc9a++6qdXApgmMHYfgWqi2tbmwxmEhGRYVPqe8d5JLkUwHCDsQmFVLeU+xoNZhrXUV1SLioLYPYDYNS2rGlDFqz+p8FMIiIyLNwYP0VVa2H2zJtOSzBjccS/3GBm1uMAwKDNs8eM9iSsZQBGGYzdKiKnBGrWPGEwk4iIDJv6UGyElcBSACUGY/tFpKo54nvQYKZjOqpCZQLUwOwHwHXq8UwpfmDVfwxmEhGRYeH62LEqeBBmz775WNUubakoWmkwM6sZvY84m22qDgU8CesRmN38JxQ4lZt/IqL0Fm7UQiuBR2F2859U0dMzZfMPAJ88qXYGgKTB2JGSTD7ROXv8UIOZRERkWHOF/wmFzAaQMBi7q4j15NSHYiMMZmY1DgAM+PDU/f1e4FkA3zQY2y+iET72T0SU3sLzNd/W2BMADjYYm7Ag5el24N/2CNa21qigAmY/AO6nicRfN5RNLDSYSUREhrWU+xohEgHQbzB2HyuBRVNqOoYYzMxaHAAMkIbD3oJkvB6KQw3GJmxIBa9AIiJKb2WN6rH98XqBTDMYm4BK1eJy30MGM1OquKb1QVVUw+wQ4KD8nK2PatlEk1frEhGRYUsivoctSCUMD4I9Xu8j4flq8oa1rMQBwAB1jVj7RwDHGoxMqKBySO0a3n1JRJTmPtL47aI4wWBkUkVmLanwZfzTX8V1rY0i+n0AtqlMBWZ05mydrzzDiIgorS0u9z0ElSoYHQJIqfpi92Gucg87APzNG4BoVegXKjjbYGRSFdXFNa0Z874nEVG2mtbQfZkAPzAYaYvo91sivkFz3Wugpu0+UTE6BABQ1VUVusFgHhEROWBJha9JYXYQDEhk2vjYTebysg8n6DspWlUyG5B7Ye73UFXk3OKaNX8ylEdERA6Z1hCvBHQBjA7S5SdLyn1/MJeXPqLVoZ9C8TuTmaryg+K6NX82mUlEROaVNsTOE+A2mNx7Cs5dEvHfaSwvi3AAsBM6KsceKaJPwuA1R6JycaBuDadZRERpLlzXFVbLegaAsXfRVXBlS8T/S1N56ShaGboagmsMRiZF5Hu8KYeIKP2FG7svVRWTT28lRfG95go/14AdxAHADtpcuc/+HvEsA1BkMPaaYG3rXIN5RETkgHB919dUrBcBBAzG/mpJuf8Kg3lpq7Mq9GsFLjGVp0CPwAoHa1e/ZiqTiIicMa0hdi2AqwxG9tgi4aURH9eAHcABwA7ortxnt6R4XgWwl6lMVdxcXNd6kak8IiJyxrcXdg3P6bdeBbC3qUyF3tpSXniBqbx0p4B0VZfcqSrnGExdn7Bx6ND6tvfNZRIRkROmNXTfAojJdW+92nJoS6WPa8B24iGA22ndnJG+pHiegMnNP3B3sK7156byiIjIGTOf0jxvv7UQBjf/gNa1rPRfaC4v/QmgRWPbzgWk3mDqCK8lj3546v5+c5lEROSEJRH/hQDmG4wcIR599Kj7lWvAduIAYDsoIIXdvnsBHGQqUxQPBvtbzxFATWUSEZEz4l3xeQJMNpWnwJPdHf7TMFdMno6fEWQu7EBhYDYgTxmM/WaBHWvQMngMZhIRkWkiOlx8Z0Ng7spzxTd78+INZY3KNWA7cACwHaKVoUsUKDMY+Up3Ufw0aULSYCYRETlgWmP8ZwBmGwsUvGGJr2L5OdJvLDPDyLzl/X35VgWAvxkLVTmmMzd0tbE8IiJyRFNEknm9vtkAjL27L8AxGzT+C1N5gxnPAPgKnbNCx6uNh2FuWLLG6sfkoqbWjYbyiIjIIdPqYzMheBww9M2yot1r67efryr8yEhehovNmjAiYfe9BMjehiJVFRXFda2NhvKIiMghn5yt8xKAEkORKipVzRU+g6+ZDT4cAHyJ7uoxX0+q9TIAI++UCLC2X3DY0JrWtSbyiIjIOdNruybaHusVAIWGIj9SsQ5riRT8x1DeoNBRNW6MwH4JwG6GInshdmmwpv11Q3lEROSQcF3P3mrZLwPY3VBkr2VLeHGl71VDeYMOXwH4Ap2V43ZNqjwGQ5t/AFFL7KO5+SciSn/hh7cU2x5ZCHOb/25LcAw3//+ruHZ1O8Q+DkDMUGQ+1Hqw69SS4YbyiIjIIc2VBe9YgmMBdBuKzLctfXhGY3wPQ3mDDgcAn0PL4FFJ1hl8JLHPhp5YWNP+L0N5RETkkLJG9Wh/bgMg4wxFJhQoXxzxLzeUN+gEa9pfhy3lABKGIkfbSeshLZuYayiPiIgcsjjiXw5FBObWgBFJ1aaZT2meobxBhQOAz9GZU/ILQI4wlaciPxlS27bYVB4RETlno8Yvg+Ioc4lyYUu53+SJ94NSsH7NkwAuNpeoU6Le3uvM5RERkVOWVPifFpELDEYeFu+K32Iwb9DgGQCfEa0qqQCkzlyiXh+sbbvKXB4RETmltCEeEWg9jK2PcuOSct8lZrKyQ7QqdDOAn5nKE8FZgZrWe0zlERGRc0rr4zeI6KWm8kTk/OaI73ZTeYMBnwD4lM7KceMBmWcw8tHAuDZeR0FElAHCjb0hgc6DueH4U8Ol4HJDWVkjsG7PSwA8YypPFX/oOrXka6byiIjIObtZBVdC8ISpPFX97dTG+CGm8gYDPgHwic1lY4KeHOt1AGMNRb4S6O+dIU1rewzlERGRQyY/urHI2+t/HdB9DUW+1ie+8MsR4RqwEzaUTSzM925dpoJvGIp8V7zeSYH7395kKI+IiBxyWKMW5Gq8GYCpjfuHthcHLj3Zv95QXkbjEwAAFBBPjnUfzG3+3/P0J07k5p+IKDN4ewvmGdz8r7W9+B43/ztveNOKbo96jhbA1M05e2kica/yiw8iorT3ckR6bC++B+B9Q5G7WwmpKWtUj6G8jMYBAIDOqtBPAZxgKC5qKY4ubHrnQ0N5RETkoNKG2HmAVBiKi6mN4/ktw8D561etsy2cAHPXAx4brQoZPGSQiIicsvRk/3oRPR7GrgfU6Rs0fq2ZrMyW9ZPwaNW4QwC7BYCJayJUVcqK69Y8ZCCLiIgcNrU+dqAleBFAvoE4BaR6SbnP4EGyFK0KVQNYYCiuX0SnB2raXjSUR0REDjJ8OK9tQY9eXF5o7JyZTJTVTwDEZk0YAbEfhZnNP1T1Km7+iYgyQ7i2c1dL8AjMbP4BxXXc/JsXrG2tgcgvDcXlqMpD8dnj9jCUR0REDmop9zUqcI2hOMuG1E95qHeMobyMlLUDAAUkYSfugmJ3Q5FPBPdtu8FQFhEROUlVbK/nLgCjjMQBzwy3fHy00CGBvjW/AHSRobjd+hP2fJ2bvZ+BiIgySctK33UQPG0ortiTSC4IL1avobyMk7WLX7QydAmgR5vIUsW/t/bnVcpc2CbyiIjIWdOaei4QNXb2y1vJ/HhZU0SShvLoM6QJSUV/BECrocgjO1eFrjSURURETpordiIvXg7gLUOJh2FDz68NZWWcrDwDoLOi5NtqyRIAJiY/HYB9SLC2fY2BLCIictj0uvihtqVLAeQYiItakjx0cSSwykAWfYXOynHjVexXAQQMxNk29IghtW2LDWQREZHDptT3jvNI8jUAQQNxKorjmyv8TxjIyihZ9wRAtGziLmpJPcxs/pMqKOfmn4goMxy6YFPAtrQGZjb/tgpmc/OfOoG61W+L6mkA1ECc5YHc3zl7/FADWURE5LBlFfmrVTAbMPLUtajgnqkPxUYYyMooWTcAQM7WW2HonU9Af1Vc0/qsmSwiInJagTf/FgAlJrIEclNLxP+YiSzafoG6tkcA3GoiS4E9NZG4w0QWERE5ryXif0wgNxmKG2YlcBdUs+qp+KwaAHRWhr4P4FRDcY8Gatt+YSiLiIgcVlrfPVsFZ5nIUuCZ5pUFl5vIoh0XGNd6kcFDAcs7qkI/NJRFREQOa15ZcLkCpq7yO7q0MXaxoayMkDXTjuiskhBs+TuAwoFmqeIDj1cPLHqgbYOB1oiIyGHhup691bL/ATPvDX5oe3Hg0pP96w1k0U6Kzx63R3/C/juAYQbiYmJ5JgUWrOLrHEREGSDc2L27qvwdMHKj21YR/VZzpPAfBrLSXlY8AaBzJuXAlgYY2PwD2CqWfSI3/0REmaGsUT1q2bUws/nvE5UTufl3n+/+1R9YijIACQNxfrWT9Vo2MddAFhEROaw5UvihqJwIoM9AXJ7aVt2kx9VnICvtZcUAoLM7egWAA42Eqf48WNP+upEsIiJy3AaNXwLgMBNZCr28ucL3ioksGriiutYlqrjKUNwBXTlb+WofEVGGaK7wvQKRy4yEiY4vjMez4mrAQf8KQLRi7KGwdBlMnPovWBCsaTV1hgARETlsWn3sYAhegoE1QIGHWiK+MoiYOIGeDFFAolWhhQJ8z0CcbUGmF9WuaTGQRURETlOV0sZ4kwAnm0iD4pglFf6nDWSlrUH9BICevnc+LL0bZq78a7dzEucbyCEiohSY2Ki5EMyDmTXgvX5JzOHmP/0IoJZaZ6viAwNxlg3987o5I7PiMVAioownov2SmAPFuybSANx5RONmE68Mpq1BPQDo7PPeBGCigahej9jfG3LvOx0GsoiIKAV2tWM3ADjAQFQ/FKe8HAluNpBFDgjUrf7YsrQcZs4DGF8YK7jFQA4REaXAy5HgZlGcAhPnAQj26tfcOwfeVfoatAOALbNCYQDnmsgSkV8U1rT/y0QWERE5b3pDfDJEfmIiS4BfLanw8+yXNBeoaXtRgBtNZKnKnI7KsUeayCIiIuc1V/rfEOAGM2lSOa0xfqKZrPQzKAcAW07fu1iSWAAT/36Kx4pq1tw08K6IiCgVwo1aaEMXAPAMPE1eaF7pu3bgOZQKReNarxJFs4EoEbHv66gaPcRAFhERpUDzSt+1KvK8kTDVvxxe272bkaw0MygHAJ5+z69FsIeBqHUC6ywB+M4nEVGGUI3/CsDeBqI2eQSzMVdsA1mUAjIXdr+FUwEYeF1DRkBzfzvwHCIiSom5YnuB0wB8bCBtaMIrtxnISTuDbgDQUR06SlXmGIhKWoqqQN1qEz9ARESUAtMbe6YBOM9ElgDffyHiM3GwHKXQ0JrWtYY+B0AEZ0YrS75rIouIiJz3QsT3gW4bAgz8C1xFWbgxfsrAu0ovg2oAsG7OSJ8o7oCB6w1VcWtRXesSA20REVEKhOdrvm3rn2BmbZvfXO5/xEAOuaC4bs1DECwwEibyxw9P3d9vJIuIiBzXUu5/CsB8E1mq+vspNR2D6nWwQTUA8Hf7bgQQMhD1RrAoeJmBHCIiShH1xX4F0fEGklZ3+3w/GngOuanH8v0AQKuBqH18duxmAzlERJQi3T7f+YCuNhA10uPJvd1ATtoY8Dfl6aKjatwRAvtZDPzfqdcSTCqqaX3LRF9EROS8aXU9U2HZzRj4YDsJkalLIr6XDbRFLuv8f+zdd5ycVb3H8c95ZtN7gNARwtKLBVQQSRZQFMRCSSChqyi2axcvIjcKXrChXFCEK4KUkCLC1asIUpJQFC9dOgmE3kPapu3unPvHb8adeXbqc56d2Um+79drX7tTnjNnpz3n/M45v3Ps9vt57+YTnhDSe8eHx1698KY06iUiIv1v8pxV++L97aSQFNh7d+SCY4b/PoVqNd16MQPAH9I+xJG9gFSm/vuz1fkXEWkde13sBxFlf0kqO7/489X5X3+MvnrRneB/kUJRznku8CdtOzSFskREpAHmTx3+N4/7WRplOed/1jHHj0yjrGZbLwIAy8f5M4DgaZ8e5o/ZaVFK+0eKiEgjjBy36t+B3VMo6sE3ohFa/rWeGf2W+5bDPZRCUTuuWNt2ZgrliIhIg0QThv07jntSKGqb3C5DLa/llwCsOLZ916znfmBwaFE+k3n72CufeCaNeomISP/r+N3ynX1P5gFgSGBRa6Ke7N63TR/1SBr1koHlrek7vCPC3014W6E7G0V7j7vqyQfTqJeIiPS//ees2DXy0b1A6CyuLM69v9VnCrb0DAAPznsuIPyEDvjT1fkXEWktvifzM8I7/+A4R53/9de4mU89AKQxw6/NZbPn+/VgAEVEZENx+9RRj3rH2SkUFeH9+VPm+OCcAs3U0gGAFdPbP+nhwBSK+uvomYvSWCMoIiINMnnOyuOBNPZo/78JDP9BCuXIADb6pa3OhvBpoA4mL5u+/SkpVElERBpkwaPDz/FwZwpFvftV3/mVFMppmpaNYK84fvsJ2R73GDA+sKiV2WzbHuNmPb44hWqJiEgDdMxcvrHPZB4HNgosaq332XcuOGbUY2nUSwa2JdO22zPjMvcAgwKLWtaWzew6YtYTL6VRLxER6X+5ZYP3E74UYJV30e4Lpg5rydnjLTsDoKfbnUN45x/v+YE6/yIirSWbyZxFeOcf5/mJOv8bjvHX9SBDagAAIABJREFUPPOQg/NSKGpMt8uuF8mgREQ2FPOOGv048OMUihruyP4khXKaoiUDACumtU92jpODC3LcNWanhT9KoUoiItIgHbNW7ePgsykUdR+bDp+RQjnSQkZ1DTnTex4OLsj5E986rr0jvEYiItIobsLw7wP3BRfkOWLS7M5Dw2vUeC0XAPBTyGQdPyd8+cLaqNt92s0gm0a9RESkAWb4yDt/IeHngC7n/KfmHeC606iWtA4395F1zkWfAnpCy4qyXOg7OtpSqJaIiDTAvANcd+T9J4Gu0LIcnH/In314IuIGa7kAwIq29pOBd4SW4+Cno2Y/pWmfIiItZNLOnccBe4WW43D/NW/qyAdSqJK0oDEzn/wHzv0yhaJ2W7bF859MoRwREWmQ244Z+aDD/VcKRbWvWrn6CymU01AtFQBYPm3Hjb3jh8EFOR4b1TXkeylUSUREGqTjurfGOudSWLvnnxw2ath3wsuRVtY5ovPbQHACJ4c7d/m0HTdOoUoiItIg1g7wTwYX5P33DpyzassUqtQwLRUA8C77fcIT//nIu1Pd3EfWpVEnERFpkLWDZgATQovxni/dcKhbG14haWVbXPLSKpxPY+RmHFFPGvtLi4hIg9xwqFvrPV9KoaiRWZ/CAHUDtcw2gEuPmbi3i6K7CQ1aePfbMdc8dVIqlRIRkYbYf+bKPaOMuxcIW2/tmDt/6oip6dRK1gdLp7df5+ATgcVkcdl9xlz99P+lUikREWmIybNXzgYX2i7wnqhjwdHDFqRRp/7WMjMAoij6IeH1fStD92lp1EdERBonyrgfEtr5h5U9RN9Ioz6yHslkvgasCiwlcj5qqREgEREBn42+AawMLMY5sj/G+5YYXG+JAMBb03c4wsOBoeU4774+8ppnXk2jTiIi0hgdszoPAz4cWo537ow7pg57LoUqyXpk7JVPPOO8mxFajocDlk7b4cgUqiQiIg2yYNrw571zZ6RQ1Hsmzek8IYVy+t2ADwD4Q9qHRPjgpE8Obh11zVOXp1AlERFpkL0u9oO8cz9Joaj7NmXYhSmUI+uhUS9v+TMgeFcI5/yP/CHtLbcllIjIhizXPrgvtByH+8HBV/gRKVSpXw34AMDycf4UYGJgMT09UfQ1Bz6NOomISGOMHLfqZPA7BRbjyUZfmTvVBe/7LusnN29edxb/tRSKmrh8rP9MCuWIiEiDzJ3qepyLvkx4X3HLtUM6/y2NOvWnAb1OYfkJO2/ku7ufAsaFleTPHzNz0VdSqZSIiDTEB+YsGdPlhzwFbBJSjoPfzjt6xEnp1ErWZ8umt18NTA8sZqlra2sffcXjb6ZRJxERaYzJszovw3FSYDErs23sePuRI15Oo079YUDPAPBd3WcQ3Pnn9ezgnhkpVEdERBqoyw89ncDOP7As0+OV/FVqMqgt+hbhyaDG+u6u76ZRHxERaZy2rP82sCywmJGZLs5Koz79ZcAGAJZNn7gDjuD9eT3+jHGXL16aRp1ERKQxJl2zamvwwfvzesePb5k+UslfpSbDr3jyRe/9ueEluc8vP3rijuHliIhIo+TaCz8KLcc7Tjxg5ordUqhSvxiwAQCIZgCDQkpwuIfGdC26NJ36iIhIozjnvw8MCyrE83TUOfyn6dRINhRjuteeBzwbWMwgn8l8L436iIhI4wwfNfynwKLAYtqymeg/06hPfxiQAYBlx+zwXmBaYDGebPZzbi5K+iQi0kI65qx8B47grXSiiH+bd7Jbk0adZMPh5r6w2nmfQt4gf/SyY9v3CS9HREQa5YZD3Vqc/1wKRX2s45oVHSmUk7oBGQAg4kwCExQ6+N3oWYvuSqlGIiLSIN67/yD8/PTX26aO+FMa9ZENz+hrFl3vPPMCi3F4zkyjPiIi0jjzp478K46bQsvxmcx/pFGftA24AMDSYyceBP7QwGLW9mTbvpVKhUREpGFy0fJPBBbT7TI9A34bHhnYuun5MpANLOYQa9eIiEgrcVHPl4HuoEK875g0uzO0X5u6ARUA8OCcj4KT73jPheNmPb44hSqJiEgDZaPo7BSKuXzeUaMfT6Ec2YCNv+aZh/DuytBynI/O9QN822URESmWa0dcFlqOg3OZ4QdUn3tAVWbZtB2OAPYOLGYJbt0P0qiPiIg0zuTZnR91sF9gMZ3dWQbklDtpPYMGue8AqwKL2TvXvhERkRaSbeM/gM7AYvaYtOvqKWnUJy0DJgDgZxCBnxFcjuMnY2c+91YKVRIRkUbx3uEIzprucBfeOW3ES2lUSWT4FU++CPwqvCQ/w9o5IiLSKm4/csTL3rsLQstx3v/HlDk+k0ad0jBgTkbLn2w/1jl2Dyzm2TGDun+WSoVERKRhJs1dPRXPOwOLeRU3LI0lBCL/kh3cfRbwRkgZzrH78ifbj02pSiIi0iBRNOwHwCuBxezyqu88Lo36pGFABAB8R0cbpJIp97vu8sXa8klEpJXM8JHzPvgc4Jw7e95UtzKNKonkjbt88VIcaSwtPDPX3hERkRYxb6pbiees0HIc7rsdt/kBcQ4YEAGAZVs+fyTQHljMI6O7Fs5Moz4iItI4k3dd/XFg18BiFg8bOey/06iPSNzoQd2/Ap4PLKY9194REZEW8kY0/NfAM4HFbO9fGxi5AJoeAPBTyDjvwqMqEae7ufSkUScREWmQGT4i61OIrPvv3nCoW5tGlUTi3OWL1zjvgpNLOu/O8lMYMOtARUSkukemunXe+++Gl+S/PxBmATQ9ALB88A5HAzsEFvO30Vct/EMa9RERkcbp2HX1ETh2CyzmwXmPjdAMMOlXo7qfugLHY4HF7JBr94iISAtZ8PiIa4AHA4tp57XOY9KoT4imBgBymf/PCC0nwn07jfqIiEgDzfCRz4bv/oJz32OGy4ZXSKQ8N5ce79PYYtKfoR0BRERazAyXjVI4B3jPmc2eBdDUE9Cyp9qPwLNLSBke5o+a+dSCtOokIiKNMWnXVYelMPp/3/wpw65PpUIiVYzZceG1Hv4ZVIhnl2VPtR+RUpVERKRBbjt6+B+A+4IKcW6H7Gurm3oOaFoAwIOLvAtdS+HJZr+RSoVERKShHISvp3P+2zjnU6iOSFVuBllHNnjWYeTddz24NOokIiIN4px3+NOCi8HPYIZvWj+8aQ+8bPqOB3n8nkGFOP/nsbOevielKomISINMmr16Ep69A4u5Y/7UkX9NpUIiNRo98+kbcNwdUobH77ls+o4HpVUnERFpjHlHj7wZuCOwmF0m77zqQ2nUJ4nmRR589juBRfisj4LzB4iISOM5F3wOwGWzKWTkFamPA+/hzNByIrKnp1EfERFprDTaHz5KI6dMMk2ZfrZ8Wvu+3nFXYDF/HDNz4cdSqZCIiDTM/rM63xU57g0qxPnb508dOSmlKonUbdmx7XfieV9QIY59x1y98O8pVUlERBpk8pyVC/Bu/6BCstGk+dOG3Z5SlWrWlBkAWedD1+17HzEjjbqIiEhjRc5/M7gMzw/SqItIUg53TnAZHuUxEhFpQT7L2cFlRNngfAJJNHwGwIqjd9glm/EPExJ8cPxlzNULD0mvViIi0ggHzlqzfY/reQLIBBTzj/lHj3hvWnUSSWrZ9PZ7gL0Cisi6nuwuo2c//WRadRIRkcaYPKczeCaYz/KuBdNG3J9WnWrR8BkA2Yz/UujjRj486i4iIo2XpftLhHX+8d79MKXqiATxzv84sIjIt0VfTqUyIiLSYO4noSVEEQ0/BzR0BsDKadtt2uMyzwJDkpfibx4zc9EHU6uUiIg0xEG/X75Rd1fmOWB4QDH3zp86/N3a+k8GAg9u2fT2Bx3sEVDM2ozvedvIa555NbWKiYhIQ0ye3Rk6E6zLZ932C6YNfz6tOlXT0BkA3S7zKYI6/+DJaORHRKQF9XRFJxPW+cc7f546/zJQOPCR8z8NLGZIrn0kIiItx4WeAwa5yJ+SSlVq1LAAgD9p26GOwCkOjrvHznzy5pSqJCIiDbLbHD/Y474aWMzCTRkxO5UKiaRk1ItbXw08G1KGgy/7k7YdmlKVRESkQSa4YXOAhYHFfPHgK/yINOpTi4YFAFasG3QMMCGkDJ/lvJSqIyIiDbQRnUcBW4SU4eHnc6e6npSqJJIKN29eN46fBxYzYUVX5uhUKiQiIg0zd6rrwfOzwGLGrRm86rhUKlSDhgQAPLis918PLGbhmO6F16ZSIRERaSjn3dcCi3ijc/jwy1KpjEjKVkfD/xt4M6SMrHdf903YnUlERMKsHDH8cuD1kDKcc1/F+4acAxoSAFg6ffsO59g9qBDHz91cNPIjItJiDpi9aj/CEuSA55f3ftStSqdGIuna7MqHOp3nkpAyHOyxdPr2HSlVSUREGuTej7pVDn4ZVorf6YA5nQenU6PKGhIAcD76UmARS9auG/LbVCojIiIN5X029BywxkX+olQqI9JP2gZFvwDWhZSRQntJRESaINPjLwLWhJSRde6LKVWnon4PACw5YeI2zvmPhZTh4FcT5j6yMq06iYhIY3Rcu2or79yRQYV4Lps3deQrKVVJpF8Mv+LJF8HPDCnDOf+xJSdM3CatOomISGPcMn3kq8BvggrxfOT9s9bsmE6Nyuv3AECm250CZAKK6MpEgy5Mqz4iItI4vsd/EmgLKcKTvSCt+oj0px6fDU0Elcm1m0REpMW4TM8FQMhWxS4ie3Ja9SmnXwMA/pD2IeBODSxm1oirHns5lQqJiEjD7HWxH4Qn9Bxw44JjRj2WSoVE+tn4a555CHzgdsXuVGs/iYhIK5l31OjHgRtCynDOn9Jxme/XbWH7NQCwfKw7Atg4pAwfBW+tIyIiTTB67OqPAZuHlOFBo//SUlzkQt+zGy8f5w9PpTIiItJQzvnQc8BGDO88KpXKlNHPSwCynwss4O9jr1p4XypVERGRhupxBJ4D3BMLpg4PiqSLNNqo9oX/CywKKcOHz54UEZEmmDdlxI1493hIGdl+Pgf0WwBg5bET98C5/YMKccFRdBERaYID5izfyXl/YEgZ3nERzoWspRNpODeDrPNh20E5mLzi+O3Dtk8WEZHGc867iF8EFQH77T9z5Z5pVSmu3wIAPT76bMjx3vPi6BGj56ZVHxERaZysnQNcQBHLe4Z0hmXTFWmSniHdvwGCdi/KZqPPpFQdERFpqGGXA8tCSoii/psF0C8BAH/StkOB6SFlOOd/4y65tyulKomISIPsNscPBnd8SBkeZt758U1WpFUnkUYad/nipQ4XtCUg3h+rZIAiIq1n3lS30nuuDCrEMW3fOX5YSlUq0i8BgOXr2o4ExgUU0dUWDb4orfqIiEjjbJxd/XHCEsB6fPa/0qqPSDO4Hn5O2HZQ45UMUESkNUVR5nzCzgFjB2U7p6RVn0L9tATABe1f6OFP2vpPRKRFRT5wD1t/u7b+k1Y3avZTjwF3hZUS1p4SEZHmmDd16EJw80LKcFHUL+eA1AMAS6fvOBHCEj855y9Jqz4iItI4k65ZtTWeD4WU4R0Xp1UfkSYLfS9/YMkJE7dJpSYiItJQwe0Z7ycfOGvN9ilV519SDwA4nz2OoMRPfvHoHRbdmFqFRESkYaJM9ljCzi2vvcmI36VVH5FmGj24ey6wJKCIKOoKy6chIiLN8SbDrgNeCyjC9bieE9OqT16qAQAPDhc69TO61M0gm06NRESkYbx33hN2DvDut49MdetSqpFIU7nLF6/Bc0VQGc59yoftqCEiIk1g7Rl3eWAxJ0+Z4zNp1Ccv1QDAymntk8BtG1BEV6ar69fp1EZERBpp8tzV+4DbMaCIbIZI0/9lveLsPR2SCGq7Fcft+P606iMiIo3T0xZdDEGD21u94Ts/kFZ9IOUAQI8jdJraX0bOXfxKKpUREZHGyvqwc4BzC249ZuiilGojMiCMvubJxwlNBpj1x6VTGxERaaQ7jhz6NLj5IWVkiVI9B6QWAHjpM1sMdzA1pAwXodF/EZEWdMif/RAcx4SU4bNZnQNkveRwQe9tjz/GT9mqX/aDFhGR/uVdaPvGH9Exx49MpzYpBgCGrxh+GDAqoIhXR72w1Z/Tqo+IiDTO6hWrDgHGBRSxtCsa8fu06iMykKzKDJsLrAwoYvTSQcMOSas+IiLSOF2MuA5YGlDE8Gy28+Np1Se1AICDY8NK8LPcvHnd6dRGREQayQeeA5zn2r9NdavTqo/IQLLZlQ91AkEBrgx+ekrVERGRBsq1b8J2OHJuWjq1SSkAsPyEnTfCERSZzmbdb9Ooi4iINFbHdW+NBQ4LKcP7SOcAWa9574Pe4x4+8tZJ245Nqz4iItI4zoW1cxwc3DFz+cZp1CWVAEC2q+coYFDS453nwXGzFt6fRl1ERKSx/NpBhwNDA4pYNP+YoXekVR+RgWjMTovmAc8FFDE009V2RErVERGRBpo3ZeidQEii40G+LTMljbqkEgBwZAOn/4ftkSsiIs3joyjoHODhSpwL2SZNZMBzM8ji3JUhZXjvtAxARKQVOedxoX1en8oygOAAwJvHtm+Fc/sFFNGT8ZlZofUQEZHGO2jmyk2d9x0BRfjIZa5Oqz4iA1nUTeB73XesnLbdpunURkREGimTzVwNJB/w8G6/jmtXbRVaj+AAwKAsUwPLuXXErCdeCq2HiIg0Xk9bNAXIBBTx93lThy5Mqz4iA9mo2U89BtwTUESmx0WpTAEVEZHGuvWYoYtw/C2giMh3E3wOCA4A+IgjQ453MDu0DiIi0hyesHOAd07nANmgOHzQe955F/SZExGRJvJh7R6PDz4HBAUAOo/ZaQs8+wQUsbZncPe1IXUQEZHmeN/vV0zA+/0DiuiJyCoAIBuUriyzgWzS471j/xXHbz8hxSqJiEiDOJedA/QkPh723e+azi1C6hAUAOjO9BweVIbnxnGXL14aUgcREWmOQV3Rxwma/u/mz5s68pXUKiTSAjaateh5cHcFFJHpyfLx1CokIiINY+0eNz+giCgTcXhIHYICAM6HTf0k0tRPEZFWFTr9Hxc2FVqkdYXNfNEyABGRFhbY/nGEnQMSBwBWTGnfxMOkgMfuXB0N+5+A40VEpEnef/XScQ4ODChiXU9X19zUKiTSQqIuNxvoDijiwGVTdhufVn1ERKRxcu2fdclL8JPe9/sViZeCJQ4A+DZ3GAFTPx38ZbMrH+pMeryIiDRPlGk7FBiU9HgPt91x7Ni3UqySSMsYNXfh685zR0ARg2hbe2hqFRIRkYa549ixb+GYF1BEpq0rOizpwckDAM4HrT3wzv0+5HgREWki54LOAc6hc4Bs0Dw+6DMQ2g4TEZHm8dmwdpBzyfMAJAoAvHL8niOADyZ9UGDN2nWD/xBwvIiINEnHZX6ogw8HFNHtunsUAJANWptvuxbwSY93uA/5k7YdmmKVRESkQboHZ68jYDcAPB84+Ao/IsmhiQIAw/2qg4CQk87NE+Y+sjLgeBERaZYRnR1AopOO8XfNmz76jbSqI9KKRsx64iXg7pAilq/NdKRUHRERaaC7jhj1Gvg7A4oY2jV41QeSHJhsCUAPidccADjHdSHHi4hIE3kXdg7wkc4BIoBzLuyz4NxHUqqKiIg0WGh7KOtIdA6oOwDgwXnnQxp/3WTalP1fRKRFefhoyOHRoMBOj8h6wrts6FKYj6VSERERabhceyjxUjDgMLx3dT9uvQcsm779u8BtXu9xeQ5uH33F428mPV5ERJpn0pyVewDbJC7A8cCtRw57Nr0aibSuMVctWgg8ElDENiuPnbhHWvUREZHGufXIYc/ieCCgiM0PmLvqXfUeVHcAwBEFbTvjHUr+J0mNAT5U8LNbc6sjsgHyhG09luWPKdVEZL3gfFi7KEvmkLTqIiIijRV8DkjQLkuQAyBo+j/47J+CjpcN2a7AXwp+vt7c6ohseBxh6/+B/02lIiLrC++DPhNZ75UHQESkVWXD2kU+QR6AutYMrDh++wnZHvdKvcf18k+Mmblo52TH9ptasyeuAJYAbwBv9V91pIJ9gbsKLl8GfLJJdRHZ4Ow7Z9n4wb7tNSCTsIiX5k8dvhXOhax3E1mv+BlEy59sfxmYkLCIHs+6TcbOfE5tExGRVuO9mzxn1QvAFglLyHYNym5uuwrUpq2u0rujg3D1Jxro5f6c/Nh+89cEx2SBJ7Hte67DRqPXplkpEZGBZqgfdEAWn7TzD/AXdf5FirkZZJcdy014jktYRCZygzpAOyyJiLQc5zyzO/9C8kHNaPC6zIHArJoPqKd07/wH665S4fFEAzEAkEQE7AycCFwPPAecDYxtZqVERPqTJ+wc4Jy7Ia26iKxfwj4b3rugz6ZIkwwHPgH8BLgB+D9gMTbjdgnWvl4A/Bz4CDC0AXX6ETY4+Ffg8gY8nkhw+6jePnpdMwDwHJx08j+wYkzXoAWJj26MNZTOxjsMGA+MA4aUuH0C8B3gc8C/AVf3VwVFZEA6A5iMLUuZ2eS69BtvyTeT6lq9bvVNqVVGZH2ybvBfGLS2h+TLaw5Oszoi/awd+BZwLBYEKGccsDWwP/BlbDnur4EfAq/2Q722BL5Kcf/ol8A/+uGxRP5l9brVNw0dNLQLGJSwiLrOATXPAFhx9A67OMeW9dfHeLjFzX1kXdLjG+QZYO8SP7sBm2ORx42Bj2PRyldix48HrgJ+QfKTuIi0lggL/H0A2K7Jdek3B85asz2wbeICnLvz7uM2Wp5ahUTWI2PmPrKEsE7G9kun7zgxrfqI9JMMMAN4GDiFyp3/UkZhHfTHgONTrZk5mb6Do6f0w+OIFLn7uI2We/xd1e9Z1lYdv1tec569mgMA2Uz2oGT1yXHuxqDjB443gT8A3wQmYg3/N2L3+TxwSYPrJSLN8S5gk2ZXor/1RD1B5wBHdn05B4j0l7DPiAv7jIr0s6HYLjD/QenZtG8Cfwf+BMzFlgTcA3SWuO844ArgpyROTN5HhtKd/WOA0Sk9hkhZLvAckO3J1HwOqCMHgAuZ+glRtD42/lYDFwB7YeuWCn0Sm64kIuu3DWUP7rBzgCVLFZFysi7oMxL5wHaaSP9xwJXAh2PXrwTOAd6NLafdFzgMmAocmrt+PNAB/DfQHTv+a9hygDQcAGyT+/t1ID9reSRwVEqPIVKWDzwHONfn81VWTQEA39HRBkxKXCN4duyVTzwTcPxA9xy2PunO2PXnAjs2vjoi0kDrfwBgho/wdASU8Ma8R0c8lFZ1RNZHo1/Z8l5gWdLjPXT4GfUldxZpkC/QtxP9O2B74HRspD9b5th1wHzgM8CuwN9it38DCxaEOrXg75uAOwoufy6F8kUqWvDE8AexmTDJeCZ13OZryu9X052Wb/biXgRMf3GeDSHx01pgCvYllt/HcSgWBDgiYZnbAO8DtsJyDywHXsS+CBfXcPxYiqdGLaP8F2w142KXlwK1bOe1A/BeLLHKOOAt7H+4BXg5YV3SsAWWtG0z7LkFW8rxInAbFv2t1zB6M9SuwWaIxO0KHIQ9H925x1mMPR8r63y8IfSun+sqcfwYbNQ2//5Zhz3nz2FrTSt9yTjgHdjslk1yZXVhr9892IyXUv9fvUZgwcWJWJ6NHuA14H5sKmC979dqr0E+mLkr9pwMxZ6317BGxaO5OtRqZ2yEIm8ofT8reesoPZVxwJu006q3Y6MwCfmbmeGSfveIbBDcvHndS6ftcKtz/vCERWy09Mkd9oSnHki1YiJhNgV+ELvuauAE6j/HP4Xl27kJ2C93nQMuBfag75LcWm0CfLTg8gLsnHdg7vLewJ6AAtnSf2a4rJu18mbv3NEJSxjd8/rqd1FDPpmaAgDOMSlk4+Zs5G8JOLyVvIzlBijcBeDjWIRzUY1lOCwr6lextcXl3A/8J3At5Tviv8emNOVNo449IgvsCxQmpngc2KXC/TNYtPRzWEerFJ8r8/vQsABRBEwHTgN2r3C/LPbh+R71TVv+Hvb6g2Wpza8lG4a9nicAO5U5dh3wx9zxtc6WORY76YHNPnl/7u/B2Bq7L2Md7FK6gWtyjxfPpPsB4HzKv3ZggYDzsal7SZJ77g6chQUohpW5z+vAxcCPseBXLb6T+wFbH3hi7u827DX4KhZoKOdpbE3hxZQPBLQBh2PP736x287I/ZQyE3vNWk/GTcInPws47zaUc4BIEBf5W/AkDQAQWYBTAQAZSL5F8SDik1j7KGlQeBVwNJYIcFTuus2wNtgXEpZ5AtZ2AmvTXIsFBc4puM+nsbxfIv3GO3cL9v5OJCI7mRoCALUtAXB+/6QVAXwm4raA41vNHKwTkRdhHe9aTMBGn6+kcucf4J1YkpSbsNHZUi6NXU6aMTXeaflthftOxN54F1C5A+mwztONWFCiVEKYNL0tV68rqdz5B3vN9sES0PyRZLNfdir4fR8W/S7X+Qc78RyJbUN5QsDjvQ2btnY65Tv/YJ3Y47GG4jsLrv8K9n9Xeu3ARrlnYLNRKj1OnMOCPvdhe/+W6/yDnXzPwCL++9TxGHn552Q37LX/EZU7/2Dv319g/9fYMvf5NfY5j3f+118+6BxANCj6a1pVEVmfOZe5Oej4wM+qSMpGYlP3C32G8BmELwJnxq47mWQJeR2WvDvvemyG5OPA3QXXn0B97R2RumXaosBBUVfTkv2qAQA/hQwB6/8d7p+jrlz0WtLjW1A3fTvetSTmmYBNA58cu74H6wDdi3WaVsVu/wDWWSnVSb0WG6nNO5jqHaC4wRQHMLqBy8vcdyIWwIgHL7qwL9J7sdHt+FDi0VinM+nel9W8HZvevVfBdWtyj3khlkDmUmxGQrxuhwG3U//zthM2zf9GbJp43jIsan0vFgXvih03DNtL/uQ6H29jLN/EbfROSX8FG3U+L/dzLX2n/W8G/A/2/jkW+Bm9M4MWY6PoPwF+jmXvjS8z2Cd3ey1crpzv0ve1fgWb1fIIts9vofxno6PGx8nbCXtO5tMb5MivJbwIe93/C8s4/Fbs2P1KnqocAAAgAElEQVSA2ZTOLlwu4AY20+fmMj8P11n/gcF758JywCy69chhz6ZWH5H12OirnngCeD7p8d4x2aeXFV0k1BFYECDvTuwcnIZfAUsKLg8DvpignP2x9mvelQV/F87oHUPyJb0iNcm1l2qdNd6XZ/8pc3zVreirBgA6B0/clcoN3ir1yG5Io/958S+3vai83MJh07ELR6bXYiOsW2CdmL1z5YzHOmqF6+ffjnVk49bkys1rw6bA1+NDFK/9/QvWWYsbhEVNtym4bgU25XoCtmRgb+xLdlus41U4xfoAbGQ4bWOA6+jtwK/Dlk5siiWN+RLwbWxq1365+sWXSeyJjfjWk1xpAhZ0eFvu8vVYPoeNsNH1vbEO6lhs3VnhurII+CXQXsfjAdyK7UP/OnAc9t45Fvh67ueoXH3+O3bc1tgJ7+Lc5WewxHbbYVPov4m9jh/NXffH2PGfwoId1ZxC3+lzf8YCRpvnfu+ORfCPojjPxXDsRLwxtRuLPScbYYGrc7GARwcW7f82No3/MCxPwtmx4w+mdIK/w7HPrMsdV+gy4INlfs6hBXVcu2InwrY53BDPASIhQj4zm6w4euIOqdVEJMwHYpfT3CJ7DX0HpJLMdC1M/vcC1i7Juxprj+cpGaA0Qsg5YMwb2c5qM52rd2h6fOaAavepxEXu1pDjW9S9FK+LHoZ1sso5md5EI2BTow7F1jPFZ0+sxUZ198W+qPKOxzoZcb+JXa73y/G42OX47Ia807AELHlLsFHDn2MJAws9h3W8jqd4Ddi3YmWk4QKs0wp2sjgcWyNebk35YmzGw1cong3wfuqfmp9/zb+We9y/0Xdd+SpsZP09FOcbGIo9d/XYEpthMBk7aZVatN0JfJa+O1Z8DJva9jQWCCmX++ANbHuewmUug6i+Xmlz+m7Vcz7wEWzkv9BabLbC3sCDBddvUaKMarbMlXcI8O/0HenPW4XNTIgvbym1J/CGpSfTEVbABnkOEEnMOR/0mclmXEdKVREJVZgk19N3ACHU9bHL22HJp2u1Cbb8Mu9qitulS4A/FFzel+rLSEUChbWbeqKoo9p9qgYAAteTZf3aIXdUv9t6Zw19R8k3KnPfCOt4FPoCNnJZybNYJ7VQfD0UWDCiMCHQ23M/tRiLdQzzXsY6q3EjsG1YCp1K9URE12BTuPIiyidQS2J7ivMX/CfFkd1Kzqd3RDzv1FJ3rGIuNq2+mrXYqHfh1M9DsdkS9fg+tsSgEk/52RafpvruDGvo2xF/T5VjvkLxmvq7sFkJlbyJBWMKg2nH0xvQqdXp2BT8WsT/r/fV+VjrHe9d0JrijGNBWnUR2RBku11Qu8m5sM+sSEo2ojj30VOUD8IndS82w6/QvnUcfxy9yf+gdI6r+HWfrqN8kbqFtpuc9/Hl5H1UzwHgAhrAjifGzH1kSfU7rpfio97ltgb7EMWdvFuxacS1uI7iadLvp3TnKD4LoNaR7CPo3VIN4Cr6ftGCdbILl4nMwzq+tTiL4nXwRxCw5WTMF+l9jy/HssnX43SKt217D/VPy59Rx307KQ7i5HeEqFUPtma/FrfSd0u6e6h92lE8EFRpV4ih2DKBPI+9NrVst/cYxUsyBlHfc7KSvoGcao+3uODyhNzPhsv5kCDI87dOHf5ianUR2QCMnb1wEa7kUrvaeAUuZUBopzgfxX398BirsBxThXar8VhHcYLCf1B6AOVGigdGTqR3C2aR1OXaTYlzwVBDEKxiAOCtY3belt497evnfVqJPlpRrQGAI2OXaxktzsvSt8N2YIn7XY2N2uYdR21bQBZO//dY9vNSPhG7XE+H6xWs45nXRnrZ1Qv3dL2R4uegFm9R3NF19G61V4v7sX3l6/E7irPj1pN87QFq3wO3m+KOLti2kbV6ieIAQrn3N9jrWTgD5h76Tvuv5A+xy/U8J6UCHdXEX7NK/9t67cA5q7ak/lkoBdyGfA4QCREyAjRx5ZRtN0utJiLJxHfSeamfHueF2OVtSt6rr/0oTtJcboerboqTAY6F5Ft1itQmqP202aQ5qyvOlq0YAIiiriRbbxUIm8bW4uJZzstl5S18jruBerfLindWSk3vX0LxOqkJWIKzSrameEeCu7Cs9XEOeG/B5R4su349HoxdrnWJQiWbYksA8u5KWE58//KdS96rtL8neLyVFK/P37OOY5+o87HieRDqre+ygr8rzdqIf4/8qc7HeSh2+R11HPtInY8FxVmFIb0ZKS2nO1v02a6b935DPgeIJJcN++xk2zKB7TeRYPHg+bKS9woXX1ZQbsltXGGOn3jS7LjLKxwrkrrQ9pPzvuI5oPISAO+CGn89bdnbQ45vcfEvoPj2fWBboxROnX4DS1o2sY6f+Eh+uWzd8eR91ZIBTqf4/RFfRpA3keJdAhZR/5f867HLIRnH8+JbEcaniNUqHmCpZwlAks5n/LjNqH0XjngUvJps7HK9U7ULkwxW2nbq3bHL9U4DjCfCHA9U3eIkJ8n2c/FlLvXs/rBecS4sAJDJZhUAEEkg6wMHUKKw9ptICuLB83LJl0PF25y1TM8fB0wpuPxHKucneATLN5A3mcpLH0WChLafnM9WPAdUngYe1vh7bvwVTz8XcHyri29XVmo93wSKOxebEbL3oxlf5vpbsMzt+b1OP4FNY4ovVcgrzBOwAtsTvZT4NMNtqP9/iE8TK/c/1CMegKmW2K6ceKd4VB3HJk12E1/3M5bagir1TnWPK/deCBV/j1xEfTscxIMLGSwoUkt+kZV1PI7EeLLvdcm3FH/ztmkjH61741ERYWzPwoeWR+3LSLoNc7bPzCuRRovn+ak1cF+veLmlclXFTcd26MorN/2/0G+x7bjzPoltkyySutumjXx08pxVb1L7jJYi2cglmwHgp+w2GHhnkgfN+VvAsa1uU/pOfSqVzCHe8U1DudfUU5wgbiiWdb6Ud2B71efNoXznMv5/DqW+GQzxGQSV/od6xOuVtHO8InZ5RMCxtYp3WmsNOqyufpeKajlpJhF/Leqd5VJqHVOt75HQ52SDNWWOzzjcXtXvWYbjHzhXaitKEanCzaUH/P8lPd479vJT+q3DJVKL+MBFsmBWdfFya2l7FSb/exnLE1XN1diOTXknAUNqOE6kftZ+ujvx4Z637zbHDy53e9kZAMsz695JcQb4eiWu9HrgAxSPWr5E6RkAI2OXV5F8rXpepenVl2JbDuYbBSdQOrFfPMt6fPlAofj/sAh4plIFa5B06nyh+Hs3aee2K3a5nuBE0qHT+GPG80m0mvh75G6SB0fy4s+RpOzVnlV7uqjPa1ePJDkwRKTX37H2RBKjlg7aYQ94qtp2vCL9JT6rsL/y6cTLrda+2Ivi/EpLgbNrfKwlwOa5vzcGPkJ9CZRF6vF3bEvwJIZukl39Lsq0xcovAXDZ9yTvv4Dz2cSR6/VAPBN/uWBIPC/AEuCD6VfnX17AlgLkEwC+H0uUVzhlPwNFk3YfpfJsjvj/MBf497BqpiI+4l/PyH2h+Oh7PdP6m/GYA1H8tfgGoLXhA53jPSGHe1+0u4eI1Mnh7gmZQuPIvgfbHUakGeIBgLf10+NsFbtcLffPqbHLu5B8Pf/nUABA+ovnnoCuON5ycJUMAJQfzXQunrirHl2jutfdW/1u66Ut6TuCXi7reTwhynhCoi61KVzn5IBjYrdPonjrx2r7ysf/h0RrVfpBfH140uUW8eUJ9XTGk+4TG58y319r8xtloL5HpIKob/LGevgu160ZACIBXMYHLqUMaseJhHqU4tmXe/fDY4ygb+f94Qr3H03fdm+Ig6gvObRIzdZF3XdTnHC7XmXPAeVzAPig9f8Pu7kvbKhrb79G8Zqg1cD/lLnvyxRnYh8O7NRP9cr7HcVZ94+L3X5iwd9dwGVVyosnyQt536RpYezyjgnLib8e9SxvqLgHZwWFWw0uof+2zmmU+N6/9WzjJ03iXdBnedHfpo6pJUmjiJQx6spFr4FfnPR4N3DOx7JhWgU8VnB5K9LZ5anQ2+mbBLBSAOAoipclPoll96/nZ3HB8Y7ipNkiqbF2lH8qcQHOlz0HlAwAvPSZLYY7l3x7C+f8P5Ie2+ImAV+KXXcVtr1fKSso/nIEiyb2p3VYUr+8nYHdcn8PxnYHyLuBvluwxS2keFT8HQyMEd5HsP81L74tYK3iEet6cjTsVv0uVR/zH4RF/waC+PdBf7/HJVAucczuiQvwbkM9B4ikywV9lnb3n9mr1XPISGuLzwQrl3w6qcNjl58DHqpw/88V/L0Cywewd50/B1I8eHcKrZ+rSQasKOQcsMtef/QlZyOXDACMWD5iD0K26/BuQ1z/vx02ul74JbCG6olF4h3KL9L/+45fHLs8Lff7gxRnU72khrI8xf9DG/CF5FVLzWqKO56Hk+x5PbLg7y7qS2x2IPUn0nwHlpchLzQp5EAQ/x/2J3lAZqCJB2fWi0bARj2rdsMCgok42BDPASKpcwQNqAx5a8US7VUuzXRb7PLxKZbdRt8lt/9L+UGTd1I8wDKHZFsFPwPMK7i8GZYMUCR9vs8gWj0yw1evLjmYU7JD5KPs2wMejJ4o2tCSP+0F3E7fqU1nY9HISuIZ9ncGvppSvcr5J3B/weV8J/djBde9Qm3bogD8Jnb5aySfcp+muQV/l8rNUM1RFK/t+h315QAYDRxd52OeVvB3Ftt2ptXNozjRJMAFBHQwB5B4tuF4MqKWFGV80DmAyG1o5wCRfuGyYZ+ljMuEfZZFwvyB4vPkvlgC6jRMozcjP1jHv9Ky1U/HLlfa4aqa+LGnBJQlUl4UllA58qXbcyUDABFR8r2fYc3YF7ZIYxu3VrAVcC42wrll7LbbgR/VUMbd9B1VPpdkSUrqmbVROLq/M9ZhP6Lgusuofeu8/6F4TdQY7Es/ScbXNPctvori9fM/pfZkLZsC5xVc9sDPEtThJ9TeKfwoxQGDm4CnEzzmQJMFLoxd9z7sPZZkD92BtLf1SoobN+tFfoNs1oWcA7KD1wy9v/rdRKSadRH3E7QMzId8lkVCdQL/FbvuYsJny21M3zbZdVC2szSC4kGgR6i8w1U1v6c42fSH6b9dDmQDto5hDwA9SY93NkjdR+kZAGGJYx518+Yl3XN9oBsMvBf4N+zD/ww2YhsfyXwUG1Wvda/yLwBrCy63ATOBn9M3C30pOwIzgCdqfDyAayjewu8M7AsVrLHx6zrK6sG2VSlcE7UTNgV/OtWn3g/C1oXPpO+JIsQS4KyCy5tg09H2q3LcVtg0sq0LrvsVyaY1bwwsAPaocr+DsNckvwtEF8WzAVrdL7HkOYWmY7MDammgjsWmDt6BBUoGCk9xg2Mv4JNNqkt6QhIAer/ophNcfOtHEUlgo6sXLqe+5LNFPE6JAKXZzqM4n9SuwPcDystgQYTCfFNrsXZwOVMoXuJaTxu3lDXYIFNeBJwcWKZIH3+b6lbjXeJEgOX69G197jiFzDL87sn3ovOVkm8MdO30naoMto57LLVt6zYP+6Ipl/ivlPuwTsNv6X1NHPBl7AvlBqwT+SbWyR6HbdU3EQtI5Kfbr6njMZcB12OdMCiOjN5J/SPPNwLfxEa882+fCdgU9u/lHusxbLR0cO5/2BZ7zifTu01f6Jdy3HnYdLN8csOtsNkZ1+fq9jB2Yhqeq8/HsCQxowrKeBD4eoLHngd0YPkh7sMCHHOxJRjLgWFYosATsdeh8GN3DpUT2bSadVgehjuAbQqu3wcLrNyBvc9fwN7HI7DgyUSssbAfvZ+NnzSmyjW7Gjig4PKvsYSgl2BBuaFY/bfHXteBzXvn5qzeM+mgo3dufXrfijSdh4ecfRfWzcGeHpxr/WSy0rqWAJ/H2j/5ds63sWWSp1HfOvzNsHNsfM39N7C2VTmFU/TXAFfW8Zjl/BobEMz7FDbolHi0VqQkl30I3M7V71jS7lPm+Mzcqa7ofdknALCibccdHNlhCR8EiB5IfmzTDSLhSRZbM/99LCqZrXLfUmYCz2LrzDcruD6/jrzeteS1uITeAEAUuz6J84DHsQ7R2ILr27Ev52bw2HKKa+jNFutyf8ezx5ZyO/BxLKlgvb4NXIRF39qwrWJq2S7mF1SOZLeq57HnYhaWcDLPYYkB929GpVJwFfAZ4D25yw4L6pwYu9/LtEAA4P2/X7sd+FHV71mGQ9P/RVLk4AGKd+ipx9i3Tpi4NVc8XS0fkUh/uhYbDJpRcN3nsXbYDGxWbaWBs62x9tNpFA/QgHXE48sMC+2OLTvMux4bUAv1T2yma/7cvxW2FOBPKZQtUugBYGrCY4e/Gq2dCBTNIugzNbvH+V0TPoAV6H0rBwDq1YNN/z0VG927iGSd/7w7gXdjSfXqXUbxf9SfPHABto1foaVYECKpP2Ojur+jvhGHNVjHMO0ZAGBTw47AEsC8WOMxndhJ6WDqS/xXaAg2u+G31PZcLMWWg3ypxvu3oiVY5P4rVN9iMu4V4MfUtxNDI6zFgkTrReK7tq6eoHNAxk5UIpISF/iZynS5oM+0SEq+hw2MFI5Ebo4NnL2KLRO8GlsKei7WqZ+NDSw9hyXWjnf+f4wF4CtJM/lfXLzNqmSAkj7vgs4BUU9Pn23J+8wAiGy6bVK+e0j3gwHHN8PNNd5vBdZ5eQt4CZsWfg82lTtNL2DTiM7BpqMfhE0T3xibFt2JRUkXY9OL78Gm3yeJ7nts28HCxGVPk2y0u9AT2DKIPYDDsP9hR2y91nDsOXsFW27xMDAfmy5fbd3w8xSv6b+vznpdio3WfgzrsL0DS9oykt7n9WHs+bwWe51DDMPeNydhCSGPAA7BlgRsgj3/r2M5I/6IBUDq6RTfg51M8+bXWb9f5R43b1W5O5bxn/SejNdWumNMF3A+9np8HHt/7Iu9xzfO3f4G9h55Aouy34w1DqpNrbuJ4qR8D9dRr7y5WIMj7/kajnkFG2E4Dsv/sRf2v/Rgn9UHsQRFA553ftfi1Sj1cYSdqESkWE+27cEoSp5ayeF2Bf6SXo1EEvshlvz61xRveRxh2wPXukXwYmzA5M9V7jeU4q0HFwK31PgYtbgGSzCdbwt9BFuiG9p+FPmXbs+DbcmbZXjr219feF2f4pZNb7+K+rdLy3tuzMyFyoIpG6ofYXkQ8g5DU8GkxUye3fkbkiczenP+0SM2rn43EamVB7d8evtbFCcxq5nz/PfoaxZWGyUVaaRh2JT+U6gtEXDeY9gMgSuobdBiOsXbKZ8B/KCOx6vFr7GBu7zvYAMkIqmZPLvzdXqTtdfHuyvnHzO8aAlynxkAzrO7TxxlcElG20TWVwHxOpGm2T3pgR6vc4BIyhz4ZY5H8EXrmGvmXfLPtEg/WY1N/b8YW9//fixH0K705sFy2EzNwuXKc7HZi7W6j+KcQ/HdiNJwJjaDMy+N/AIixZx7GO87Eh0b+T7ngKIAgJ9CZrljp2Q1A+/9Y0mPFRGRJvPeMWfVLkkPd949mmZ1RMR4z6OOZAEAYDftBCAD2PPYVPprStz2ZWxL7LwzsffxjBrLfpziJX394SU05V/6m/ePYjuLJTiWnZnhI2a4f+WpK0oCuHzQxInYeplEIocCACIiLerA36/ZBsuJkZDTOUCkH0Q+qH01evUJO26RWmVEGud8bMp/of8ATm9CXUSaxrmg9tWwA3deu13hFUUBAOejpHsM5gvo7yibiIj0E9/dE3YOiLI6B4j0A+/CPlvrerrDPtsizfNVYgnMsHX832pCXUSaw4edA3xU3L4r3gbQ+cTT/wF6BvU8EnK8iIg0T5Yo6BzQ3eN0DhDpB1l80GfLZcM+2yJNlMWS+d0du/5c4PONr45I4/W0hbWvst7tWHi5KADgi7fkqI/jlXGXL16a+HgREWmybPJzACy9c9oIrYMU6QdjZz7zHLAycQEuoH0n0nyrgU8AzxZc54ALAe1wIeu9248c8TK2FX0iDl90Dohit7cnLjhsfZqIiDSdS3wOoP8TLYlssHIJ/J5IXIBP3r4TGSBeAQ4FCgcbHXARcFxTaiTSWInbWdlYHz8WAHABEWL3VPJjRUSk+ULOATyZWjVEpC/nk3/GNANA1g+PAocD6wqui4DLgWOaUSGRRnEB7SwXm+X/rwCAP6R9CPC2xLXyLEx8rIiINFXHbb4N/MTEBTgWpVgdEYnzQZ+x7f2MPrM+RVrRPGBPYO+Cn/cCDzexTiL9zhN0Dth2r4v9oPyFtvwfK8ZG20E28cmhR40/kYXAzQWX32hWRUTq1b1k7TYZGFT9nqX5rNc5QKQfOR897Z1PevjQJY9vvyUsej7NOok0SfLlMCItynv/tHMu6eFtIzZauy3wFBQEAIh8O4nPK0Dk1PiTDd0luR+RlhN1dbeT/MSCi6KnU6yOiMQ4x6KgZlpEO6AAgIhIC4qIFvmAzrrr7mknFwDoXQLgST71E8j67DMhx4uISPNEzgWdAxw6B4j0p3XZsM9YhrDPuIiINE8m8BwAbJf/o2DKv0++/h9e3+jqhcsDjhcRkSbKehdwDnAr5k0d+Up6tRGRuPGzFr0ArEl6vA9r54mISBPdMn3kq+BWJC7A9bbz/hUAcLB1QJ00/V9EpIVFLuAc4LxG/0X6WW4rwMWJC/DRNqlVRkREGi+ovZX9VzuvdwkAbNWcyoiISLNlySY+B3jQOUCkMZJ/1lxAO09ERJouqL1VcA4ozAGQODLsvHsucWVERKTpHC7gHOCfTbMuIlJOyGdNSwBERFpZUHvLx5YA+M/sNcg5Nk9cHv6FxJUREZHmmuEjgmaBoXOASAN4XEgW/608JN/qQ0REmsqF7eSyxZQ5PgO5AMDSlUu2oCghYJ2V8Wr8iYi0qv33WLUpMChxAT7SOUCkAVzYgMvQlcdvv0lqlRERkcYKa2+1vZ5ZvTnkOv0Z70ISAJL1mgEgItKyesLOAWSdzgEiDZANG/2hp8srEaCISItyLuwc4Hss4XMbgHcuKDHMoLYhL4Yc32QbA+8A7gGWxm6bAJwK7ApsBCwDXgRuB24FllQodxhwANCe+/tN4E7gsSr12Q3YrMLtzwILgS2BnauUlfci8DiwLzAUuK3M/U4Btgf+C3ipxO07AScDtwB/rfB478GCS3+vUq82YFTB5R6g1u0k9wcGV7j9fiq/PoXehr1O5bwJPBC77r3A4cALwIUVjn0f8DHgHOz9U04bcDBwCPa6ZoHXc+UvyP2sjB2zOfbefBx7jePOwkZ1L6Zy0pAfAH8D/jd2/SbAnhWOWw3cFbtuIgX7jJbwGvDP2HUjKR597gTWVSgjb1fsOfgbsCp229bAF4C1wNlAV5ky3gZ8Dvgt1T+b+wCfwL4vMtj762XsOZiH/W95RwB7YM9tdw3/S1O5LFuFTAz2Gc0CE2mECP9CyCz+yNp796RXIxERaRTX5l6g2ycvIGvLPdusNLcZyctaN7z9sVeT16SpMsD1WKf4vbHbNgfuzf1+Hmvc74h15v4N+DxwUYkyI+ArwJnAmBK3344FFR4tU6fvANMq1PknwDeBj5Z5/FL+G/hMrl5TsQ7a4th9BgM/xTrkrwHnlSjnaOA0KnfsN8X+xwjrXJUKJORNwoIJhVZhQY5HsY71vDLHXocFZcr5EHBThdsLHQOcW+H2v2Kd80LvxJ4LsE769WWO3St3v19QPgBwIvAjLOD0HNbxH4oFUsbmjt+Pvp3tQ4BLsQ7sr0qU+zVgONZxPQDKfsq/katfPACwP3BtmWPA3kPxzv6ngNMrHHMtcFTsurnAhwsue+AV7Lm4BfghpQNDpwPHYgGTJ2K3bUHv6+OBGWXqs1XufndRPgAwCfsM7Vjm9i9jn/ezCq57CpiDfa6+U+a4AcPhKwUdq8l2vjVUAQCRBhg9OPv88nWRJ2EUIBtFIZ/1DdkoLLA8DHgDa6eIiDRUdvzQF3ltVQ/Wh01iM8gFAFyWCT55QPllN4Ns4qOb6wvYqPg+2OhzoV9indljgZkF14/GOoPzSpTXBvwe65z/HbgGGyF0wNuxztH+WGfjQOC+CnU7mdKd58W53/8LPB277UJsJPvDsevzjfPbsADAZPoGAPbFTnDZXP1LBQAmY52pOyvU+wSss7YxMB0LWFRzOvB/wJDccbsAX8RGUY/CntNSXs09Xin31vC4cWdjwYu4N6oc90tgPvBWgsc8CzgD6+ieDvwjdvsuWLAh3vmvx2QsAHRxwuN/A8wucX181L3Qv1P6/V0uWPg08Nnc32OxYMjR2HNyGPYZXV1LZcvU5XfAwwmOnYJ9jjPYe+M6ej9PY4F35ep3Rey4f+Ye81u545M8diNtGnDsa/d+1pWbYSEiKXKXL16zbHr7m9i5sv7js35CylVqZRthAyrXU35g493YefpAimeqPYedU88D1pQ4bgtssOgflG/DAHwSCy5/n8rnVHLljcbaKpVsjg0s3APcXOW+YOfbTwIPAjcUXH8ytZ8bLsNmu30TmzE5q8z9HBYU78KC+0l8Fnt+Z1B+YCNvBNaO+Aj2vHhskOth4EZs9l/cVsD3sHbHpthMwpex5/O63HGF5X8XG4S4rEI9jsTeS+fnyip0ItbWy+vE3l/PYe+fzsr/4r8cBewN/CfVZ9P+HJtxfAVwZYX7XYDNyPx6hfuMwPoWx2Btogz2HD+PtW0vxwZ18k6Eionnb8Dei2Dfc1cBV1ep5wZj3gGue/LszlewmeB1c/hNIRcAyMKmAbM/42/kVjEU+1L4K9b5LDQSG+m/k+LOP9iH6ndlyvw21nn+KTaqWmhO7vr5wO7YiOu+Fep3JzaKWM4L0Gfa7Yrc73Ij3/nR9gPp+6V3SMF9DsQ+dIUd36HYdPbHsRHqUiJsNPoX2BfBKdj/XO0L+n76nqTuAP6InVyvh5JBptXUPspfiwfrLO81LEjzDuzk/aU6H++D2HvwauwLMR6EAhuVrjY1vZKbsIDVOcD/UPwlXKuF1P8831fnMSvo+x08/Y8AACAASURBVB64CAtaTcaCZ5WWWpST//8vypVTT7ByO2zk32MNocvL3O9zZa4/DwtifBs4ro7HbTjvmBBwDkjynhKRhDy87BIGAIiCgn3rm0uxZW7fL3P7F7GOUgYLXndibaEtgG2wJV6HAIfS2/7K2xSbXXYJlQMAU7BBmx9ROQCwQ64uDjtXVpqJuQ12zr+Q2gIAm+fufynFAYB/w9o3tfgrNvCyBzYr7nZKL008AguofLXGcuO2xP6vttxjVPr/HDbr8ENYO/9P2Gu5Dbacb1v6toVH58rdGhvouwvr4E4EPo0FLgoDAMOw1/nPVA4AfDh3fH5gsNARWJ+jlJXY+7BUoKLQEKydszE2O6XaDOG9sZml78P6G/EBxbx3UzrAlfd5LCA1DguUvIj1BTbHlg3vTd8Zql/MXV/OEnoDAG9ggYRLsHblIxWO25AkDgB4xwTIJQF0zoVMCWvV6f/TsS/o60rc5rDnpp5RrWHYF9rt2KhfKUuwL511WGTx7XWUn4ansC+GA0vcdgj2QTsH+4L8aOz2fP6ABRXKPxDrNN2GfcntSOUgRyX/iz1f1dbnN9NIbAbCOmw2yQfqODbCIqtvYNHsUp3/NFwH/AH7cr60nx6jv3gsOAJwUMIyzsBOSO/HGjP1+CG2jOc0ynf+K/kH8BDWwBvQmbdd5bwjFfnWPQeItCSHT/yZc14BgJzDgI9jM8RKdbyPxPIh3Y+Nam6G5UjaEss/Mz93v/djS8D620nAk7m/T2zA44Etfxtf8HNA7vrLYtePpzdP0rexmRKl2sERNrK+CJs5mcTxueOh+vMwHev8/xRbUvnJ3DEHYLM/ji1xzAwsMHA81qY7JVfOPthMiWqzL5J6DOt7OKy98C5sBu0IbBZmpQ4zWJv9zdzftb4/stgy0fPrrWzOKdiAX4S1Y8dhn5HtsLbT5liQIZ5fLS/+Hsr/XB673w+w91QtM4o3FCHtrk3hX1v/+cQnBOeLEl+1ksNzv+eXuG0FNuo5GevUV0o2l7cf9sa9kMqjjIuwSCHU12FMyy3Y9KYdCq7bCova/gnr4L+GBSoK5YMGlQIAX8CetwXAr7FO7Wcr3L+atbnfibeo7GfDsWlfP8O+tC/AgiS12AeLjl5N7dO7khiL5X7oxEYpjujHx+oP+fdA0rVOjt7ZON/HIv+1GIN9Bl4m2cyDvD9g3x+TA8pohIBzgGvVc4BIi0r+mfM4BQDM6dhSyLklbstgnY3HseDz/bHbH8M6lvn20KfJ59TqH0OwZXxfxtqnx2EDEP1tBba0Mf+Tn+WwLnb9W/QOYvwTm7L9WWwUvdA0bNr5DGpL9BuXwUacT8MGT6ZSeSbMh3K/f1PittWUTo78IWzUvdSyxyU0JuD9Bvae+ybWlo6w17+Sz2Od8fuxnGa1zNyYhb12h1F/UGkT4Me549+HjdDHl2m+Qvl8Z9D3PZT/ib83FmMzWD+MLYmVgL63dwUBABfQ+PNRSzb+MlhkM58dv5T8SPh5WKf2XIrX6MTlR/MrrY/Py99n9xrum7b8tOwPFlz3Eayj9AfsS/w67EtwdMF98sGKUgETsKj4YVhk2GPP7V+w0c+xCeq5DxY9XE75DPYZbIZA/Cfp+3njMuWNrnDMRlhE+0ksGd0ZNT7Wrrnf/Z2NeTz2/OXrdSEWpa3HWEo/L5WSME4oc0y9jZZ8IOrBivcqbyPsJPcHLMdFrYkz27GI800ka6jk5XNKJJ0J0xgBo4LOtWwQWKQ1BQ28KAcANhq8LzZtvdSAzfuwUeB/p/xa6rVYpwvsHFnrVPkkDsPOR/OwJZEj6R3EGoi+gz2vhe2hNqzjfx99l9bW6gNYO+1WLHAzGGtjlpMfXBlfx2N05sodVe2ODZJf4lBpJmw7NshwM73r5Mvlxyq0it4kxT+mvmVF07CBkjOp3MlPS34G66ca8FgDn0ve987PAos8OG+N9WR82fXgA9m2WKcuvva/0G+wKcNLsCjmadjak1spPXV/Y3qzl1eTXxdV6cP2UWx6UvxnixrKr+QW7Iv5gILrDsE6Ofmt/a7DIs75ZIKjselHiyi9pgssAg7FkdZLsaURR1ep02bY+qqJ2HN7Cr1Z9c+idxQ4bmssMhj/KZejoZqLypT3hQrHDMWinidgwZNvU32qFvS+jqUSDI7Eor2FP3vVUGa5+oFNZbwdC6rUO93rW5R+Xn5c4ZgryxxT7qQ0mN73QDsWoLsSa+SEjMIPy/3+LPZZPhRbz19N/vUpty7uBIpfn/guEXn5wEWtW3Y2h0seAMiSbcVzgEjL8i6o3aUZADboAeV3GXo3Ngr85zK35z1C77T8ieHVKusLWLK2tdhIK1QfEW6mF7HR6JOxKeFg58x2bOZF0sThn8dG5lfQu6781Ar3vyP3eza2pKOWVDd3YO2RedhAVLPlB00qdfhOxbZDfgzLFbAGG9GvNiN1PPY8/hUb0f9FHfXK9w9KLaPuD7dh7/8Dqt1xQ+DC2l2WBHDpSduOidbVNMW9XC1asfGXX49brbN+ATaifSrWsdsIe/MtwL7ICv/3DPalVssXW35f8EpTxn5a5vqPUHlrvWrewNYlH4DNABmERVVvp3d6163YNJxPYMkLJ+XqWm76fxsWAPgLxc/pH7HO26eonIG+VOKURVjHM55dvdDfsKlmcUmfn1/Td6ofVE62k3c3ljDuVOwLdR8q7/+en9I+rMRto+jdwg5sdsU5JNvZIC+LJau7D5s++Fv6bsFYzv9QOqFfpeSEF5a5vdwMkl3oXdeX57GRgu8QPu3uFazh8Sss2dKfqHxCzb8+5Ub/f0pxAO96Sj9Hb2DPfbKEXQ2w1x/9cFatGpH0+BZeBibSmpx/neRbN432h7QPcTcsLBdY3xDsn/tdatcfsED5g9SWB+phLN9RpRlxIXYEOrDp/2Ad1Eex3AO7EJYkuD/9AFtz/10sAH8mNkJ9Y6WDKngb1v7tyF1+CJtBuTe2Xr7UrkOzsWW8e2EDQ4tz111C+eD+T7A20juwNub9WDvkMnrX2DdKht5ltOW2mh6K5Yf4Zu7yEqxTPg3LcVFqKUPeeKyd9UXs/T4VaxtWC3yBfUZWUn5QsBblZm/ckCu70GrstXgPNos1ya5b640svB6QuHlYxxw/ss2tGzw+eTAOfGuu/8xPgV5Sw31XYl8IF2MR1+9jI+LvwzpGeW9iH9axVH9j5jsDlR7/o9gWIHHlpsPX4zbsS3E3rL4jKP5S7sI68x/GggQduevvoLQPYXkERtC3EzcW+6LYjfLZO2+kN0vuYGxk+SWqb/nxOMkTyZSrR9LZA2BrzQ/GTjanYSfAcvJJUbYvcdvLsetrCUDU4hFsucIPsJkau9M3c3Epd1P/8/xH6t854Gv0Ttn7ILalzSz6blmZ1MVYDoSDsf/nqAr3zb8+5ZL3fZ3e6HqpREJ5PcAy6l920TCj1q0eX22bjkqi1lwGJtKyIu9eC/jMus6R3ePYsHfv2BkbwHm+zO3Dqa19CL3nilrz/9TrM1jw/58F112GtZNOoniwYCBZii2hnYEF8LfBdodK6mQs51JhO/RSLADwKUoHALqx9utpWABl29zf38Q6xp+lbxvoJWyd+dlYIOCduZ+zsMD/d6m+s1USo+ntEDtsFuKJWCDiF9hgXClHYgN5hbdfigUAPkXlAEB+W8snseUaP8EGwnajej9mLH076fUq9z/tSOld0B7FBtfexgYeAHDevVbTfJYyulkzPvLZ7JiQSvioJWcA5DsZ9SQWW4F9+PNrvnaL3Z7/cq4ls3/+PpW2s3gCi3DGf2rpsFWTn+o/CQtkgHXYCl2LdVp2wdafQfnR289i0bmbsRNV4c+tuft8skJ9HsAispdgI8fnYhH6U6r/KwNKJ71R+u9Qec3W/7N35/FRVef/wD/Pncm+swcIW1gUFFHcseKCG1UrSgJitZIg/qw1oHWrXUzbr63aVkhobUGCO5qJa7Fai7jviogKiOyEfcu+z9zn98fJnpnJ5J5ZMsnzfr3yIsuce0+Gmdx7nvOc5zS9Xi7z8phA+CvUjMUwqAtzd/IkWl4HWVCBkKVQ68z85RdQr9Vr0HGni9a+g7rIe1p68RRa+upt/RtBpfAFstCjFqpzaT2/TlA4XgOECF8ma73nTHuklbo8PQVBTcJ4ew5L4fuAvimLz1Olcx2RUNXom+7Hmj7+AxVcvg7WC+QGw9+gBtR3Qw1ErU5m2KACAC+j7fPQVKNnFtSyVXcqoQbto6AKNtdATWxdC+B+D232Np5vfGO/TajXw6/hfeJAxxCoLNKlUJmKD0KNFS6Cum/xNFM7D+r1EImW5+VrqOf9AqjJOV/kQc2wp0IFOzpTDjXpp+M0Dx/uJj+BlvdsoLJtwgZpLr8npyvZIGKtmSk2nOEYhWmK7FrZmmtr47/t6yZ8CHWT31lhFjta9vv05x72XfEh1Cz/WVBvtp3oWAzxTah1RFdCVavfj46z+4Da7uPHUNv+Zbr5uBxqgOTLeqQmD0NlOjwInfoUofEa1OAwBiqDwdMOBh9DRTAvhArEBEs9VFS7AWp3gHOCeO6uqIBK2U+Ff7dY2tJ4XEAN3j39/TsCtY3fOXCfpeGrZKgoe7BTB33GdrvWNYAMIxyvAUKELWK99xwbZm8OAERB/U32NsO/E2qW0RcjGv8NRHX4DKh7oD9D9bfpYyPUoHgIWuoZdEe1aMke9LSs1ReXQ01a/Bptn4dtUAPfvlBBfW+OQGUZpkHNcgOd3/9sgcpaGIeWyayJXex7VxyPlq3wmgpveyvmdwJUhsO1aPu8HIHKILDB96J5Tqj79Hqoic7OdinbAbVcNdXH47vzpYcPT8uTmgpydpcCjSFjkE3rGmC321IMJkPvQlCDMq32obEHKpo20kLbKY3/7mr3/XKotOp58F4M5hdQb5iPEPgK8J5UQK1t+hFUOk372X9ARU3fhBosAp6L5cyDGuR622P+cag/0D/xsX81UClaKfBeaK67uhPqD/CZ8Ly1SjVUehxBVbMNZpX49VCZFgbUxbm7brP4JNTygxz4t8Ly36GyUwZBLenx5P+gnpsVsJ7e2bTTx06L7QPP1BsMOI2GcLwGCBG2DDI033N6Ez9hrrbxI9bLY96GyuAb1Mmx4tFybWo/idKUHt1Z/ZemiSh36dTzoJaQ3evm436oLLUbOzl+qJW0+9eKbKj7wl+h4/Pwa7QMXn1xFCq7dCtUqrkvtkIFGBgds3/98f/szodQ94bXo2Ub7vaaChr/Ee5fI4ehAgi+Jot/i5b70s62tW4KiFzi5TH+1vR3q9ffc5hmvd5zYJrJdhtxMltfzWKmTNhe4XYX1e6tFCrV5WyoF3htu59fD5Ve9UPj40yoaNolULORVXC/d+zvoAa5q6FSmFunzEdBVXJ9qLF9qCu4roFaDw54LvjxMoAnGj93VywnAur33Ag1o+3JUwD+hM7XI7X2IlSGxPVQA8G33TymP9R+p+585uN5Whvt4XilUEsyfHUY6v+6EN73LP0zVIr5VVB/7FdBPeeti6oMhf7OD+78CqrGw4k+PDYN7p+XWnjenm8c3P+RPoqWLJrOMNTz+DlUWtxZ0ClY0sIJFdhaB+//P69BBQjuh3ov/xIqcNeVv5hNFWs9LZ8JPeJk3+8POkqKju/1F2MhgqkssaI0rtLb+LUTpubET/g7Bu/Zhdug7nma6j55cgNUtt9X6FhUbjfUvZ637aMjAYyBmpRqX3C2aXb3H1D3je5MgVrKNhh6xaG7sxFQWQ5PQ2WFujMZKvs2He4zVd2pgZpJJvh2Ta9tfNwQN9/fAfX/GAH3hSMJKnBQh64Vzfsl1O/+T6jMg9Yz47FQ998fw3OWZApUzYNpaFn625n7oV5TE+B9KcBKqNflnQCehW8FM3U17WDSbTMqgyY1oRSHqhkWb95cxMkGTEt7tDcpp1y/3JCHwhqoQbm7mdczoF7QX0ANFkyoP9AFjV/f2Ph1e6VQkboaqBnzvY3/fgJ1wfkb1EzguQjOvpneNO0tWgXPs/ur0FLJ3t0OAFdBRchXuPlZa4eg9mG/EL6n1QGqUKET6o+fu/Vdl0OtKXP34W2HBU/+7OFYSywcy4HOt0dxQa0n+x3UReQnUAGX1a0+HocagOsWW2mvDmrHAl8ufLfA/fPiqSotoLYddNfG0wXck7VQAaDT4d/9X7/3sS+5UEGo4VA3hEegLrirof6GfA8Vhff0/3MR1N+PbhwA0BoM1LwxnXpzNXEhgm7wsn3V8LxDSaeYuLcHADZDZWJ6q39yN1TKuKdJhglQwQFGy7Ky1uqglkYeD89p3PdAFX9zN6HUVANpmZufNSmAute53stjwp0vWaYFUAMhX7MAToL6f9kA3wP6mY39+M7Nz56AGmzf5eZngBozjIa6p24/4ejNHqglsWOhggGtZUAtMfT2vKyA+v281eBqrx7qns+EqmnlKVP6CNTE3gSoYs3ByCqaDBVo8DXI02O9ez45oTKJLTHYSLGz3uxPOM/8PAr1hroVqip+a7+AmnE8EyriFA81uN8NNVvurdjLNqhZxVlQkbvhUH803oQq1PEMPK9vAVSRkhdgLZp7J+BzQOcLqMFJBTz/QToGFYGOgfutZr5pPMYXPpzvDqjCJq1/911QEURPg6ONUH+IxkBFdlsHTX4Gz0VfADW49tXLcF9xtIm7tX3/Qss+tJ7cjJb1b54Kdrigoqz/gMowGQMV2T0KVaV5H1QmirtqxWug0tLcbV0IdF6g5X2oNXCxcF905VN4X1fnrrDds/C+XaG76HcRVCaBp9fhb6CCSIntvr8YavcId8f8DJ3/YXsIakYf8JzJAKj37ItQwb1JULMGFY3nPQT1nneXITIB6vkthOeiNiHHrJUOHM7XACHCWRms1TECSGvipyd4Byo761y4XwIJqMyzm6GCvU9DZSTugZr0uKDxZzFQ9zaetrb7FdQ91AqoQedbUNeMQVC70dwGtRS0fZZBLFTQYC3UfZYnr0DdW2RBDRTbD2YnNp6jPRf8u4NSoERABf43wfOWjYDatWo3VDD+91C/34lQs9lfQQ3a90Ldy58MlR5vhyqK3NpsqHvajVD3BCVQy1fPhfp/boAqltfeXwBMh9phKR3qnnI/1Pvz7MbzbYOa1Oqqh6ECCL+BGmg3ZZrcDLX02FtW7Q9Qz9vVUEsUjvh4zg+gJr4WQGXKeNpq8gGo2gzzoN4Tjsb+GY3nmwh1f3q3h/buXpuAyvhtXyR9IFTQ5hN046LKQVYKq4UYiZPt0KiwTRyQqqfBsgsqxfcnUC/g9jfo36Lttitd0QA1aHC3R31nvoBvA2p32gcyvGlASxaANx95+dlm+J4avxsdn+NtUH8YvfEU3fyPj+f1xQ+NH/52GL49x4AKtjzXxePvQsdaFF3lbenGPrRsz+irjeh6dktnGST74P510lQwxqpa+P7/UwP1muvK6+4WqBuRbl3HgkGJZHVXI6ZwvgYIEc6sBwDMXp8B8CbUoPsSeA4AAGpwtR5qnfkKqOJsTdZDDQrdLU9scgRqAPgPqKK7d7T6WQPURNOd6DigyUTns7uAmq19BmpgOQUdt2o+F+6LDDcgPAIAV0IFSx7p5HEmVKbgb6EG8P+FGhyNhPtJjAqoAXX7e/T9UIEhdzPme6GeZ3cBmRqoNPu/QQUhWrc3oQbGt8H3AXhrtVCZBS9AvY4ugwpinAWVHdLZYLgA6jVwLdpms3Z27/47qMBBmpfHmFCZKq9BTZzeCLWspelnG9CxNkZr+R6+fzM6BgCmQ03q/Ndbp3uZMnRckuITE5xEpdeOLiDqUnpIMwbeT165daqVtt3EOKjtMl6C9728hRCiK86Cuhm7G3rVjwPu3MKqf5JaDtJlTPjs/cy4M/3dJyGEd2VzRn8BtQe6Ff9IWrn1F/7sTxj6GGpWPg3edwRoLR4qS+9tqEHk+fA9HbkPgFOgUqUPQc3ue1o6FguV4ViBlmWYnkRCzQJWoyXDMhLeaxww2mbORUDNsFbBe7G+psdVwvdtD6Ogfp8ydL2GTwxUnS5fnocIqP+fGrTNJhwBNcnXHyrwcQhqEO8tfXo81BKRPo2P2w8V8PElszQBKlW9P9Tr6it0XgAxvrH/np4jQkt2bwlantPW/+ee2KCyJ+vR9ZnzptehE75vQZ4C9TyVe3nMALQECtwpQce+fgr1/zIcegUle4ypjqqPwM1buXfVcjsRxXatplULIvbHnvShtBkqVX861Bvd14uAEEJ4Uw818/BqqDvSGfJeDdt7W/b5pkAI4UcEVFit38wa7/keZDHUDH8WOqaCe1IJldJ8JdTSgI+gUp99yXo7Bt8zzqrh+/reenSsB1EP93WqPGnw8fG+Pq61OnQ+SPWkpvHDFw1wPzDcia7vwmMlk7FJBTzX1fKksxpPjLa/W1eeUxesD5i78jps4su5DnXxmOdA1eL4k4/H7xWYUWF5AT9TrAFm6zd/Jvn6xuzO/g01+yWDfyGEv6yFWp9pfY+V4NEZDFguQiOEsI6JLb/3dIJ+PUgR1Lr++9D1pRQfQKUpD4TKBhjv364JIRpFQy2/+R/UEg/RiHTuv4hj7SCOtVoEkElu/oQQIsxpDAasD0KEENYRU7VGdFECACo4ey3UTjwD4LlQrydPQs3c9oVKSw71zk5C9EQMtWX1IfhnG+geg0DVbHGOiYEYO4hirc5REXFPyAAQQojeiygWbHUo0SOywIQIO+x7arQbJAEA5Ri8b7PXmRf91REhhFt1aNn5QLTCsD4GJ+JYA2w9EsxMMvsjhBDhTGcZmCwBECJEdLJvrL/nhRBCdAca1wCmWAPgGKvtSSsCLYQQohuwfA0wJQNAiBDReu9Zfs8LIYQIPYKhcw2INXRSwVhu/oQQItxpZADIMjAhQkFzAkYyAIQQIoyZevdfMQa878XoFZEpN39CCBHeLF8DIAEAIUJCbwKGNd7zQgghQk1zAibSAGC32prZaNA4uRBCiNCzfA0gtfeyECLIGGz5vUcgy+95IYQQ3YHWGNxuALBZb2/KlgxCCBHeLF8DmAy5BggRAgbYZbUtgzXu+4QQQnQDlq8BAGxaAQAG6ZxcCCFE6GlcA7QuQEIIi/TuvyQDQAghwhlrBIGhnwGgdXIhhBChZ/kaYEgAQIgQ0ZqAkQwAIYQIY5r3X3oZAIZkAAghRJgjjQwACQILERKk9d6TAIAQQoQxzQxMvQCAZgRaCCFEyGmtB5ZrgBAhwCY5NZpLAEAIIcIZs9Y1QLMGgMz+CCFEmJMaAEKEGZ0igNDY+UMIIUToad5/2Q3Ns7NWeyGEEOFLrgFChAbJe08IIXorMvSuAQYAy9s4kSFbyQghRJizfg2QVGIhQsLUW7oj23cKIUQY07z/Mg1opRBYLx4lhBCiW7B8DZAAgBChonX/pbN2VAghRIiZmtcAQ2cNgWYEWgghROhpXAMkACBEKJAU7xRCiF5LcwLGZZDWhcCQmz8hhAhvGhkAkgUmREgQ6RTykwCAEEKEM1OrmKtLawkAmaxXRFAIIUSoWb8GMOQaIEQIaGUAkCwBEEKI8Ka5BABakWBZAiCEEGHO+hIAMuUaIERIWM/AZFMyAIQQIpxpLwGATjEYQ9I/hRAizEkRQCHCjE4NJiIJAAghRDjTnIDRCwAwI0rj5EIIIUKvwXpTkmuAECFAevdfGu95IYQQoUZ6918NBoAayycnxGqcXAghROhZvgYwk1wDhAgBJrb83mO2/p4XQggResQ6Y3CuMRiottwcHGP95EIIIboBy9cAIlMCAEKEAGkE34isv+eFEEKEnk4QGKBqQ+dCoHMBEkII0Q0QawwGSILAQoQAMyy/94glACCEEOGMde6/CNUGmTrpn9YvQEIIIboDsr4MDBIEFiIUiKy/95hkCYAQQoQzgvUlAAyqMZhII/1Tbv6EECKsacwGMskyMCFCw/p7jzSW/QghhOgGSCcLjKvtxFzNZPUQcvMnhBBhjakaxBbbSiHYYHkkwxFDKbZkW4MrhQxOcRlGCkzEgDnRMBAJ5kQmxDAb0URIAiOSwAk652RQBQj1zCgjMmuJUQOicjDXmTAqDHA1gUvZpBJXhK0kub68ZO4Tc2v99TsLrzRmfyQAIIQQ4YwZsVaH78RcbddLBeM4622FEEKEGoFrLA7/AegUoend/nL9U3G2yOjUCPBAJ9CfYAwmMgeAaQABqcwYAEIKgGQAKQCi4XKBDYBBILPxf40A5qZPAAIDjT+y/v/ahBuPCYBJHa/xXAQGQ/UFBmC4XCi3xSEv21ELoARACRilRDjEwH4QH2I2DjHMfXbgMNv4QF1N/YG7nr6hSrubvZP1IoAay36EEEKEnlqCae0qz6AaOxFXs+UUAEq02FAIIUQ3wFoVwSnJfz3pOR7KejUhBjWjTJstzTAxxAQPBjCMgMEAhjZ+JAKACYIBQA22qemzxlF3WIoGkAogtTEmobAKGhAIJgC4CJGR0cjLdpQRsAeMPQzex0TFRNhLjL0mGcURkeb2Wx/NrAzVL9NdMSOJLL5GmHUKfwohhAg9tn7/Rai2g6lU4+zJGm2FEEKEnvVrAPfea0D+dc8kuiLtow2i0TBoDDNGAxhDwGigbiDDAJlqljx8x/JBkcRAEggTVGYBmhIPQGzCWQfkZTsOANgC5q0MbCVgq8m81Vbv3Jrz7E/LQ9v9kEmx3JJQ5sd+CCGECD7r1wCg1G4Syqwu/4QEAIQQIqwxuIysDlGp518DFs1/MdXmdE5gogkAJgMYDyCdgWSj6UEsg/wAGwRgEIh+1PQ8G0Tg6EjkZTtKAGwHsBHAWmLeYDPpu1ufyDwQst4GARE0sm+oxH89EUIIEQIa1wAus6sLgeUIgKR/CiFEWNMaDCQglw3kkum37oRIbm6ukbLzhHS28SSDMImZTwIwAS7XcCarydYiCFKgAjOTAVzPRHDawHnZjp1gbABhPYPWm+B1hScncgAAIABJREFU5Wkbt+fm5ob9a5XnT44oryyLt9qeyNTJ/BRCCBFKzARHtVYQ2E5slmrMXUTxjSOi6YmdUvVXCCHCEVOp5V0AAOO8k0oT39VZRhACS+cvjah39j3JNMxTwHwSmCahGBNhM+MJTUX1RBgjACNBGAngcgLDBiCleHzF4mzHNwRez4yvyaCvSob2X5+be74zxP3tkoraKr36S3pLP4UQQoTQlH8fiQdibZYPwFRqB6NUJ3exqgrJAHp0qp0QQvRYhqsUbHT+OE/NzegkdOMAQG5urpGyZ/zJYJyDxpniWhfGgUxbc7U9md/vLRIImALQFCIADKQUH3bmZTt+AONDBn1k2mjtHY/N3BDqjnpj1jmTyfqtH0iWAAghRNiyVcclw9CYqTDMUjsMKtXZK8iMikqCBACEECIssWmU6iS4N9S5utVSsKXzl0bUcp/T2GWeR0RnoxinA+gf6n6JbssOYDwI4wk832Yy8rId2wD6BGx+REzv3/Z4xibSSJPxuwgkQWMhQwM7u23ATgghhHcGuZIY1iduYFKpnchWwuyyfhB29gOw2foBhBBChAoZRgnY+miC7NzPj93pskcyHDH2BJ5ikjGNwNNqXTgJYLss2xca0gFOB9FPmYD87KLKPHJ8CvBHZOLDBLP6w7lPzA3d0keG1nuO2ZAMACGECFeMfjqZi2TYSuxGXV2ZK8Ju/SimzKwIIUS4akB9WSQ0rgGwBfUakJubayTtOm6SjYwLmXABgHMYFE86qWxCeBcPxjSApjEB5ba48rxsx4dgrDFMrL7ticxvg9kZYs37LhvJNoBCCBGmmGz9NQr4w4WGMnscdh4ux2gTsJZLYMIYaLkHQgghQuqTjMSSqY7qegCRFg8xyJ/9aa9pDT8xT2OiaSjGWTAQJ8N9EUKJAKaDMN20AXnZjkow3oWBVabT9b/bn7h2ZyBPToyBbH32p7bvs1vL/dgdIYQQQUQGBmoUK3YNQvwxOxXBVTYHR2FxjSQRBljughBCiNAiYhRWHQYwxEpzw2S/ZwD84+eOeFc9XcyMH6OYpwEYxiCdgLcQgRQPwuVgXG7YbJyX7fgWoP+Bzdej7aUf3rzs5ga/ns1Af433wiE/9kQIIUSQscn9NZYAHCnKJFdT3uchWC2SRLIEQAghwhrhENhaAID9FAR+5KYXJtjYlQGmy511mASwRp1zIUKGAEwEeCKI7qw1U2ry5jk+Iua3TKZXFq7I1K6ZZJoYYL3EBR3UPb8QQojQYcIA65cAHARU9VsQcJCBCRa7IUsAhBAinDEsDwqsBgAYTH/PenGySeZVAC6HaZ4k+/GJHocRA2Aag6YR4c+Lsx1rAbxuwHglp2DmOiuH1Mu8ZAkACCFEGCPCAMtZYKyywOwAwMQHYXFBGZmyBEAIIcJZYxDYWlv2/RqQm5tr9NkzYYoJ8+p8LpoBYLjF04pWyNkAdjWA6usAZwPI6QIaatXnLqelY7LNDtgjgIhosN0O2O3gyCiQLQJsj/Dzb9BrEAGnAjiVYf4uL9uxjUEvEHHRguWZa7twHMv3XQzrwT4hhBDdQBfuu9qjxiwwtQTApINWJ178lf4phBAiNBh00PICe4bXLLCl85dG1Dn7nG+SeTUV01UMHkgy099RQz2ophKoqYZRWwVUV4Jqq4DaaqC+HuSsB+rrGgf5jZ831AEN9aHpb0QkOCIKiIwC7JHgSPU5R0Sqn0XHATHqg6NjwTFx4Jh4IMJqrckeKZ3A94BxT162YwfARWzwCwsfm/1FJ+0sZ14aLDUAhBAirDEPhMV1YAyzVQYAcFDjdizNelMhhBAhRzhoOZ2MMATMBKLmI+Tm5hp9do3/ERPm1LowE8R9eu2gnxlUXQGqLFOD+uoKoKocRnUFqKoCqKpQ37M4Ux8yDfWghnqgugJAFxZv2CNUICAuAWZcIhAbD45LBMcmqM/jk9Tn1he5h6uRAN1NJt2dl+3YSUQrmV3PLSiY/V3rB3EGbOUWC3YCAJPUABBCiLDFTHBU64y9DwCNAQDDwCGN7QQSjl43OlG2lRFCiPBEbB5i6wP0qB8VVfb7ADi86CbHJMOk66iYZ7HRm4LDDKosB8pLQOXHYJQfA5WXgMqOgipKw29wH0jOBlBFCVBRAo9VHm12mIkp4MQ+QOO/ZmIfIKkPOC4BvaBWxAhmvg8w7svLdnxD4JVso+cWLMvcXR11/ACYDfbOD+GBZAAIIUTYuvDlij5O2KKttidqVQPABPboXE4jTaQB2KBxCCGEEKFi8h4Y1q4CsbU1OOerL38/M9sxFSbGA9xjd+ujhjqg7BiMsqNA2REYpUeB8mPqXxnk+4/LCaPkMFByuOPP7BHgpL4wk/oASX1hJvUDkvuqAEHPXF4wkUET4cKf87IdH71m7v74gvonEck1lg5GNtrj5/4JIYQIkoY62zAyrLdnYC/QGACwOanYtFm/ZTMJQyEBACGECEsGRRS74PL58TbThdRDBzF8bzEGHD0KAt8SwO6FBFWUgo4dBB3dD+PoQdDRg6AqSXQLOWcD6OgB2I4eAIA2WQQcnwTuMxDcdyC47yCYfQeB45NC00//IwDnHDCGnVMY/SsMc27EGPNLpLq2gboQcnOZDbsD10UhhBCBRAaG6rQ3YO4GGgMAVZExu2Nc1dY7A73OCCGECJ2oxKg91RXVjE5yq5MryjFibzGG7t+LyIaGIPUu8Ki8BHR4H4wj+0BHD8A4dhCoqw11t0QXUWWZqrWw+4eWb0ZFg/sOgqvvIHC/VHD/weCElNB10g9csGOHfSJ2YCLiuARjXF9htHMt4rm006bJ8X32ATuC0U0hhBD+xkjTWQVXHpNQDDQGAAY9/U1V2ZzRJQAsXRVZAgBCCBG23phOdVMLqw7BTXXxCKcTafv3YsSe3Uiu6AEz4DVVMJoG+4f3wTi8H6izHgAX3VxdLWjfTtj37Wz+FkfHgPsNgdl/sAoI9B8Mjo4NXR81VFEKvrZfiPX2CzDI3I6xzi8wzLUBNjcZPcw4QMvW9pzInRBC9DakNeY+uvYKqgaatgEEwKoOgKUAALH1irRCCCG6hT1oFQBILi/DqD27MXT/PtjDeH07lR+DcWA3jAPFoIO7QeUloe6SCDGqrQHt2Qpjz9bm73FiH5iD0mAOGgYeOAycGF5ZAgzCfiMd+yPTEcOVGO1ci3GuzxHPLa93IhSHsItCCCH06Yy5m68BzQEAIt4NphOtHI2JR2p0RgghROjttrtck4cc3I+RxbvQp6zTdOJuiEElh2Hs3wXjwG7QwWJQdWWoOyXCAJUfg638GGw/rAcAcGx8czDATB0OTumHcNl9oIbi8W3EVHwXcS4Gu7ZgnOtzpLm+B5Ep6/+FECK8jdJo23wNaNlKhnUiw6TTGSGEECG0KOvFUQe+/mJk/5JjiGgIr9l+Kj8GY99O0P6dsO3fBdRUhbpLogeg6krYtm8Etm8EAHBMHDh1BMzB6iMc6ggwCHttY7HXNhaxXIZU147B+XMn9c95PNPN9gpCCCHCQLrVhswtAYDmcHbptem/JqL/s3jMhsR9Q2Pp3XfD685RCCF6scXZhecS0UIwfgJAY2OZ4KHaGtDerTD27VQD/8qyUHdJ9EIcnwRz8Ej1MXQkEBU2NQRqAX4G4LwFBbO/C3VnhBBC+OYsB8dEcnUVLKajMfje92fFPwS0WQKAbRp9iigbuGc4oHUMIYQQAbZ0/qrYWlfNTQBuBTCmCzuIhYZpwjiwC8beHaDiLWp/eCFCjCrLYPvha9h++BoAYKb0B6eNgTlkJMxBwwGj28bTogGaB9C8vGzHWmbKLx3Wb2Vu7vkygSOEEN1YlFmZzmRYXotGbGxv+tze6rvbwBrr2wwaBQkACCFEt/ToLc+m1NfZb6l11fwCQGqo++NVQz2MvdthK94Co3gbUCPr+EX3ZpQcBkoOw/bNx6p+wNDRMNNGg4emg+0Roe6eJ5OJ+MmU3Yd/lZ9dtDjBVfnk3Cfmyv6XQgjRDZmGMYo0Jm2YubnybXMAwIwwtxj1GhFrA+kAVls/gBBCCH9bnOUYR4RfN9QjkwhRoe6PJ1R+DMbO72Hs3gLj0B6Au3tqghDuUXVlS3YAEcwBQ2GOHA9zxDhwXGKou9cR4TgG/6vcFvfw4qyiJ9huPHj7smv2h7pbQgghWhBTOjTSNutctc0T9W2m/MvmjD4CoK+VgzLxX5Kf3Xa35V4JIYTwm/y5jvGmgbsImAMgMtT9cUcG/aJXaQoGDB8Hc/i47rzVYAVAS10NvPiOpzL3hrozQgghgPMKq/7OavmmFYfemxXXvNWzve3PaDvAlgIAYOtVCYUQQvjHoizHWTbCvQxcQd1w3zKqLIOxfYP6OHow1N0RIniYYRwshnGwGPj8LZh9B8FMnwDXyPFAfFKoe9daAsB32iKQk5dV+Kxhtz1827KZ34e6U0II0Zuxxg4AALa3/qJdAIC3ADjNylEJNN5yl4QQQmjJzy68gpnuBeHs7jaPTuXHYNv2HWjHJiniJ0Qj4+gBGEcPwP75GlVEcOTxcKWfAE7sE+quNYkE0VzTZc7Nm+d4i13GbxY+PvOzUHdKCCF6KetjbaYtrb9sGwAgbNVYWjCaLxsdRW9srbN8BCGEEF2yJLtwigm6n4GLutN8PzXUwdixCcaWb2Ec3C3p/UJ40VxEcN0HMAcNgznmJLhGHAdEdJPVO4xpZJgX5s1zvEJs/DGnYOa6UHdJCCF6iymvHk5ALdKstmfiNoX62wQACLydrd9B2isTaRSATVYPIIQQwjdNM/4mcHao+9KMGbadm2Bs/RbG3h2AS3YWE6JLmGHs3wVj/y7YP3pdbSs4+kSYw48Dh35rQQJjBsOcsTjb8ZHBnJuzYtZboe6UEEL0dEZN7BiQ9UG6AS8BAAZv1Fky6rLzBEgAQAghAmZJ1gunmmQ+wMDF3WXGvyomDruGDEG/1S8h7e1XQt0dIXoGl1MVyNy9BcMmJCBu8gnYaj8FlRT64oEETGGi1XnZjtdNA7++/bHMr0PdJyGE6KkMgyeArd/0EVGb8XmbAEBdfcymqIg6hsUoADEdb7lnQgghPFo09/lTDJvxkMnmtFD3BQBcNjt2pw7GjqHDUJqoCpiNHzjYen6aEMKjvpHHcJxzDSY51+CoMQSbbadhu/1kOBER6q5NN0xMz5vneIth/HLh8pnfhLpDQgjR4+iNsc3ymFjPAYABRRsqy+aM3g1guKXDkykBACGE8KO/3/T8WNM0/o+BmdBYo+UvZQmJ2J42HHsGDUaDvW0ZmbKh1i4dQgjvEpPM5s/7mntxtrkXpzn/ix22ifjedgaOGakh7B1UjQCY6/KzHS+6XK67b3/i2p2h7ZAQQvQoOmPsXWuvoOrW37B3eAhhE9hiAEAyAIQQwi/++f9eGlBX7/q1y+T/ByCklcBMMrBv4CBsTxuOo8l9PGahlQ8eEdR+CdFbJCaaHb4XwbUY6/wcY51f4IBtFDbbTsMu2wkwEbJaAQYDGYbNdmnevMJHas3ov92z4icVoeqMEEL0GEzHgawVU2ZgY/vvdQgAMNN3BL7U0hmA8ZwxIZKKNtRbbC+EEL3a0vmOpBoX/are6cwhQkwo+1IdHYOtw0di1+A0NER0jBe3V5k6FM7oWNhrqzt9rBDCNxERjPh4bzd+jEGubRjk2oZaisNW22Rssp+FKkoKWh/bSQDT/dFUl5OfXfgQYhMW5yyZLjtECSGEBZNXcSyqq8dYbW+Avmv/vQ53dAawQWOzpsjSqIbjAay3fgghhOh9cjMckX0S+fZaF+4icF+NLVm1HerbD9uGjcCBfgPA5PuqAyYDZWmj0HdLh2uNEMKi5OSOs/+eRHMVTnC+j/HOD7HbNgEb7WfjkBGypTkpDHoQ1ZU/X5xV9NsFK2Y+TVansIQQopeKrak5AYDNanuTzQ4ZAB3yxBjU4UFdYWPXJJ32QgjR2yye57goJRGfM+hBAH1D1A0TwIu7Bg/N/nDyGdjff2CXBv9NSkZYDlILIdxISen6mNmAiRGubzG9bilGur6dS8ArUO/xUBhGxE/mZxetWTT3+VNC1AchhAhLBlhrbG1wx7F9hwCAk8zvAetzT6ZJJ1ptK4QQvcmiec8fn5fteIMY/wNwUkg6QagB8E8XMG5BQebMT0486zkALquHKx2W7r++CSG6lAHgRsMVVS+tzCnInGEzzOPBWAag1k9d66rzDcP4Ii/b8VT+vBeHhqgPQggRVtiEztiaYYv9vv033U7vlM0ZvQXAaCtnIeDtxJVbL7TSVggheoP8uY7+bOBvAK6Dm0BsMBBQzMDfajlqRftCXVMLqzYAGG/luH23fIeLf3OTX/oohAAuuaQOffpai8kRY33ic1vbzB7lX/dMIkdHzgVwJ4DQDMQJNcyUHxHF/3fro5mVIemDEEKEgXMLqz4kYIqlxsxb3psdP7b9t93eeBKwztJJADAgSwCEEMINBlNetuN6NrAewPUIzeB/BxF+7izHuAUFmXnuqnQTyPI1oGxYOphCVoVciB7FICBRIwOAQV+3/17Osz8tX1CQmVdfX3scA7cB2KXTR4sdiyHwPc46rF2SVXRZ0M8vhBDhIJcNAk203J7cj+nd3qWZzDpF/PocvW60pHYJIUQrS7ILp+RnF60F8BSAoG/aTYSvCHxlSdrG0TnLM/95R1FmjafHMpmWrwHOqBhUDhpitbkQopX4BIbdplE3jzzfz9319A1VCwsy/16StnEUgzIBbLJ+IsvGmsSv52U73n7kphcmhOD8QgjRbZ1zYt0IgBOsH4HcXgPc7utExOs8rA7wSQThFAB7LB9ACCF6iEU3vpxs2Br+ZALzoVHF1TLG92zwA6ll9Fxm0Syf8ogZvJY0rgFH049Hwv5iy+2FEEqfPnp1+0yj84zO3NxcE0BRbu47L6cUH7oOoPsAdEgZDbDzbab55eJsx8NJrqo/z31ibqjqFAghRLdhuMzTdNoT8Vduj+v2mzb6UudkcOFMrfZCCNED5M8rvNawNWwCcAuCP/j/DqBrS4ZtnLBw+axnMosyfV5EbDa41kGjGOyx9OOtNhVCtNK3n+V6nADAJsPtzZ87ubnnOxcUzHoytRzjoeqTaO0KZUE0Ab+rsMV9m59VOC3I5xZCiG6HTPN0nfb1dvcBAI9TPGVz0vcBZDFNldYkrdwif7yFEL3SIze9MMFmmv8CcE4ITr+OmO/OWTHrLZ2DTH2+aicIljYQ7//DN5j225t1Ti+EgF4BQADbk1ZutbwtB4NpSbbjcgb9AaGo78R4DXbcumBZ5u6gn1sIIboBrQKAwP73ZsUNdvcDL5WaOhaO8R2fyrmhqWwthBCh8pfrn4pbnFWUZzPNdQj+4H8zgzJzCjIm6w7+AYANWL4GHBs5DqbN7QozIYSPbAaQnGI9A0CnoLNqT5xTMGtVSdrGyY01An7QOZ6FDlwOFzblZxfe48hwBH/5lBBChNDkpRxBwGSNQ3i8BngcpBNbv/kDkFSxddwYjfZCCBFWlmQXTomMjP6ciHMARATx1PtA/IuSckxcWJBRRCCNimEtDI1rgCsiCmVpI/3RDSF6raQUFwyNqRT2UPypq3Jzc82FBRlFFBs/EUw5AA7447g+imXQg/sS8Z4UCRRC9CaJSVXjAURrHMLjNcDbFM0nGicE2HkmgM1axxBCiG5u6fxVsTVm9QOmujEOZuZTGUB/cpXzkjuKZnms6G8VgT9hjUKAR8aeiJSdW/zYIyF6l3799GJ5DNK7j2snZ8n0OgBLls5fVVDrql0A8L0AEv15Dk8ImGIzzbWLswr/UDpswMO5uec7g3FeIYQIFSY6S689PvX0M88ZAHb+TOukTFpVC4UQortbPM9xUa2rZiMxLUTwBv+1IP69PQpDFxRkPOxtOz8dHNnwGQDLJcilEKAQevpaX/sPAK6GaNK6j/Pk5mVXVC8oyPhzRGTDCAY9BCBYFfujiOiBPsWHv1580/NyjymE6NEY0CoA6LSbHgMAXqd3yuak7wBohLXT0hdJK7dodVwIIbqjR295NsVZH7GUgYwgntYEYzkZtj/mLL8mKNusTi2s3AyQpe3Akop3YPqdc/zdJSF6jcuvqEVCguUY3MaklVuDkjL/t7nPpdkN2wMAfgqdPaS7xsmgvxmxcfc3ZiYIIUSPMvX5qu9AsPp3fOd7s+I8rsXsZMaKPrZ4UgB8yuGscQnW2wshRPeTP9cxtaE+4osgD/4/A2PqghWZNwdr8A8AYOvXgPKhI1CblOLP3gjRa8TEsM7gHwxo3L91zS8fv7Z4QUHmDWTifAb0tpH2nZ3A93B15SeL570wMUjnFEKIoDj7pYoBIIy32p5AH3n7eWcBAJ30MVtEjXmmRnshhOg2/vFzR3xelmMpG3gHgOWttbpoB4GvXFCQeeaCFZkfBumczYhg+RrARDgyVu7LhbCif3+t9H8Y8Lz2M1ByHs98b2FB5mkEvhLAziCd9mRic+3i7KIHczMckUE6pxBCBFRkg3E2NDKqmL3fv3UWANC6gJDBodgDWwgh/Cp/rmOqsw7fgjAfwUlxrSTwva5yTMgpmLUqCOdzj1jrGnD4uJP81RMhepX+A6zP/gMAcfADAE1yCmatirbFTADx70EISI2SduwEviclAR8uznKMC8L5hBAioJj5R5pH8HoN8BoASIxPWMew/sebOOj7YAshhN/k3/Z61OKsojw28DaAEUE4JQN42tWA43IKZj0UqAJ/vuqPuG8BVFptf/j4SX7sjRC9xwC9DICy+HFbN/mrL1bcvOyK6gXLZ+USbGMBPA31ty2wCKeRgXV52Y4FDA5WLQIhhPA/Ip0AQHVlWazXrZw7/QNZNmf0xwCsbkNQlbhvaDK9+65s1yKECCv5cx3j2cBTACYH6ZSb2eAFCx+b9WaQzueTcwsr3yXQVCttDZcT18y9GPa6kMYxhAgrERGMa2bWgsjymHl10sqtF/uzT7ry5hVOB9NiAGOCckLCyw2Gc/6dy+YcCcr5hBDCTy5+iuPqoqpLAERYac/AR+/PivM6Cd/ptlUEvGPl5I3iygftDdbNsxBCaGMw5c0rvJUNrEUwBv+EGhB+U1KOid1t8A8ABuhdq21Nmx1Hxp7gx94I0fP172/qDP7BwLv+641/LFg+63WKjT+RgPsRjG0DGTMiXPZv87OKulUgRAghOlMfVXUWLA7+AcDgzq8BnQYAmFir8BQRT9FpL4QQwbJo/oup+dlFq8H0dwDRQTjl06ZhS1+wPPOB3KLM+iCcr8vI5A902h+ROgBCdEn//nrr/22goBcM9UXOkul1OQWZfzDYlQ61LCDQBjHxm3nZjqeWzl8VG4TzCSGEH5DeEnqj87F7pwGAuvroDwA0WO0DE6ZZbSuEEMGyJKvoMnK6vgZwYcBPxvjeIFy4oCDzhtuXXbM/4OfTUGuL+xiA5X22D0w8zY+9EaLnG5Sqtf6/Or4hMmQFAH1x24pr9y0oyLyBgMsB7AjCKa+vc9V8npf9vKQjCSG6PSZcpNG8AYjTDwAMKNpQCWCdRkem8mWjozTaCyFEwDgyHLa8rKL7TeJVRBgQ4NO5APprfUPtqbctz3w7wOfyi08yqQbAF1bbH0mfgIYYmXwTwheRkUBKivX0fwI+o6IN3TKbqL2cgsz/2KMwEaBFAPT2PewEAxMA46O87KLZgTyPEELoOOOZo4lgnG61PRO+ejeTOi3e3GkAAAAY9L7VjgCIrUzGmRrthRAiIPLnvTh0fyLeBnEuAFtAT0b4lg3zrAUFGXfd9fQNVQE9l/9ZvgawzYbDx5/sz74I0WMNGOjSXf+vc78WdLc+mlm5oCDjDiLzHAI2BPh0iQA/l5ddVPCX65+KC/C5hBCiy2Ls0ecCsFttT0zv+fI4nwIABsGng3liEgc+pVYIIbpgcVbhNcyuDQDODfCpqgAsLBna/5SFj822PJMeSsysdQ04cOKp/uqKED3aoEF6E+Em9N6roZKzfPanx9L6TyLwvQh4kUDOioyMXrd43gsTA3seIYToGt0xs0HsUxDYtwyA+siPAWhUpaELrLcVQgj/WTp/acTirKI8IioCkBjg071DNvOkBQWZebm554ftdqiumJpPAFju/6HxshmMEL4YMFArAFBfE1/zmb/6Emy5uec7cwpmPeQCTqTA72Qwhtj8bHFW4U0BPo8QQviMQOdrNDcbGho+9uWBPgUAkoo2HAPwlUaHzjiWMSpJo70QQmj76/yV/eqcKauIOAcABfBUtcS4O7UcF+Usm70tgOcJio9+0r8CwJdW25cOT0dtYrIfeyREzxMby0hK1Fj/z/h48LJ91X7sUkjcUZC59Vha/4saswEsFyD1QTQRLcubV5ifm+GIDOB5hBCiU2e/VDEAgE5m0tcfXpdc4ssDfQoAAAABa6z3B3Z7pO1HGu2FEEJLflbhtAiXfSMTLgnwqd43CONzVmT+JbMoM6CFrYJstdWGTAYOniDLAMKVLSoSsYP6IXHUUMSm9oMtSsZKgTBQb/YfTBQWhUV90ZQNYLJtPACtrUg7xXRbSiI+eyTbMTqg5xFCCC8i620XQGNyikA+36f5XGTAZeC/hol7rHUJYObpAF6z2l4IIaxanF30cwYvAhDIkYsTxA9EG6UP3LzsZstbp3ZXbNJ/yeDfWm2/7+QpGP7xW/7sUpfN+PQZJI0d7vHnrrp61JdWoK6kHHXHynHgo3XYs/pTHPlqE9jU25s9nMQM6IMx11+O1HMnY9CUSYju2zF7o/rAEex+/UMUv/4Bdq56D2Z9j3vJB93gIZqvMXL91z896T5uX3HN9qXzl15Y40r+HYHuhUZxrE5MsgGfLr6p8LqFj816M0DnEEIIj5jwY632cPn8t8vnKANnTIgsj6g7CiDeUq+A4qSVW4dZbCuEEF22dP6q2FpXdQFAAd36iQhfOcm44Y7HZga6inXInPcO2/lQ9REAlpZzRVWUYcboqMBsAAAgAElEQVT86aAQDqQzN76MlONHdbldZfEBfPPI0/h++UtoqAz7DGuPIhLicPK9WTghZw4i4n3furFqz0F8evcibH3ujQD2rmczDODqa2oQEWF5CcCRxLFbB1KuTr2m7i0v+/kTAOMpAIHcVoQZ9HBp2ob7cnNze+xzKYToXjIcbDvE1QcA9LN4iKojFNtnQyb5tA2s70sAijbUQ287wLSK69NP0GgvhBA+Wzxv5cBaV82bAR78m8T8twRn1ZSePPgHgHfPJyeAd6y2r0tIwrH08X7skZ66knKUb9/T5qOupNztY+PTBuHsRXfh2m3/weDzeuZShsT0NFzz5XM4+b55bQf/zCjZuB17Vn+C7UX/w85X38H+99fCWd1SqD1u6EBcuPJBnLv0tyCbz7cVopV+/UydwT8IeKcnD/4BYEHB7O9c5ZgCIA+A9SfLOyLwPX2Kx6+UrQKFEMFy2Kw5DdYH/wDwga+Df6CrqVTEq8GY3uUuNWLTmA7gO6vthRDCF/nznj+T2XgJQGoAT7ODyJyTUzD70wCeo3thrAbhKqvN955yNvpu6R6XgG8WPY2v/risw/eNCDtiU/tj0DknY8gFp2P07Ethj4sBoFLjf7x6GT667c/Y+K+iYHc5YKL7p+DyNY8hYXjL26Wy+ADWPfAYdrzyDmoOHu3QxhYdhaEXnYlTc29Bv1OOBwAcP38mjMgIvJt1P8CBGp/1TKmD9TYJMYkt1+gIJ3cUZdYAWLhoXtErBvgZMIYE4jwMzIqMjD550bznr7p9+exNgTiHEEI0MYl/rFWZmnxf/w90IQMAAAzTehEoAIDJl2m1F0KITuRnF2YxG+8igIN/AgqjbTg5Z3kvGvwDYLtN6xqw75Qp/upKwJgNTlTu3o+tK1/He/Ny8eyIS7H+L0801wAw7Dac8/f7MOTCM0LbUX8hwnkr/tBm8L/5iVdROO5KbFz6gtvBPwC4auuwa9V7eOm0OVj7h6XN3x93409wyn3zAt7tnmbwYL3Je2bzf37qSli4fXnGuw2GcxKAVQE8zViDjc8WZRdaDnoKIYQvCNYn2AGAYQYuABD/3NaNAO/vWpdaMOHsw1njEqy2F0IITxhM+fOKHmDQcgBRATpNPRi/vK0g49qbl2WWBegc3db7M6O3gLHLavvS4WNQm9zXn10KuNojpfj07kX475U5cFbVAADIZuDClQ8iun9KiHun77jsGRh++bnNX//w5L/xbtb9cNb4tvsamya+vP9RrP/rk83fm3z//0PK+K7XWuitYmIZyclaAYCtKSt3WH5fhqs7l805UpK28SqA7gEQqCqUCQbohfysooUBOr4Qopc7z1E5CMAkjUMcej8jrkvplV0KAJAqjvJ61/rURqS91rxIo70QQnSwdL4jaUlW0RvMfB80tlDpxDcmmZMWrMh8hEC9Ob/Z8jWAibDv5LP82Zeg2f2fD7Dmul81p7bHDOiDk+/JCsq5o1ISmz+MCP8VQSebgVN+fVPz1xU79+GDW/9kKX3/818vQenmnQDUMopJ92Z7fXzT72OPaRurI8PA4PNPw4Sfz8Kke7Iw8Y7rMfaGKxAzMLwCR10xZLDubqH8H790JAzl5uaaCwoyHiYTk0D4NkCnsTHxorzswucev/Hx6ACdQwjRS7GJy9DFMXlrBLwB6tp9aZfvJAzGq0zwfmX31p54BoCXrLYXQojWlmQ9N7jWhX+DMDlQ52Cm5yKief6tj86uDNQ5woVB/KoJusVq++LTz8Ood8JzR9idr76DbY7/IX3WJQCA4+dfg6/+tBx1xzpPBrHHRuO4rBkYMeMC9Dv5OESlJIJNE3XHynHos2+x/YXV2PLMazCdHQeDV7y9HH0njQMArP39v/Bl7j997vPAs07ClCX3AgDY6cJrF92MhooqAEDaJVOQMGJw82O/W7KyOcuhq8z6BnzzyNM4d6naKTI94yJ88su/ovZwSYfHGpERuPGY2tr9h6dW4Z2f/QYAMGrmRTh70V2IGzqwQxt2mdjxytv47O5FKN++x6c+9Tv5OIy57scYcOZEJI8djqi+SWCTUXukBJW7D+DYt1uw+z/vo/h/n1j+vf0hLU0vAMCMf/upK2Er5/HMjfnXPXMOx0Q9BubMwJyFZpfb4/o9esuzmT//53UdX9hCCGGFQVfrlDU1mbp8DehytCHBWfsWAOv7IDEu54wJgdyLWwjRS+TPK/qRSbb1QMAG/1UAbli4ImPOrY9m9vrBPwBEJ8S9C1CF1fYHTjwNDTG+bzHX3az9/b+a6wFEJMRh5IwLOm2Tdtk5mL3535iy5F4MueB0RKUkAlCz3dH9kjHsxz/CeY//ATO/LkLSmI675W5a3hIzH/PTHwPke5LLcdkz0H/yePSfPB5V+w43D/4BYPiV5zV/bjpd2PKsToIfsL3of3DVqSLEtugojGh1fE/6ThwLADjzL3fgoqK/uh38AypbYdQ105Dx3Uttliy4Y4uKxNTlubhm7fOY+MsbMGjKJET3TwEZBgy7DbGD+mHA6SfguOwZuPilRbjxyHtIHjeiS7+rv0RGMgYM1AoAlCYlJH/gr/6Es5xnf1q+YHnGLGb6GXTuU71hTGuoj/gyf66j+2xpIoQIW1NePZwAhk52fJ1hxHS5BkyXAwBUtKcGwNtdbddKcpm9fqpGeyGEQF6243pmXg29bVM8ImCDSeZpCwoynw7E8cPVG9OpDhoVx82ISOw/KTyXAQBAyabtOPJVS1Hw1HO9x57G3nAFLv13vhrYMmPnK2/j/Zv/iNWZd+Gt2Xdj3Z+Wo3r/EQBAyoR0XPne40hMT2tzjC3PvNa8Jj8xPQ0DzzjRp77aY6IwKuPi5q83P/5Km58PPLPlOEfXb/ZY8M9XdSXlOPjx+lbHn9hpm5Txo3D6A7fhpDt/BldtHbY88x+8m/U7rM68C2//9D6s/f2/2sz422OicPFLi5D6o1M8HvPClQ/iuOwZzYGSI19twtaVr2PTshewadkL2LP6kzZZG2Vbi5uXLwTb4MEmDL2dE9+kZWsDtf49LC1ckfGUaWAKAVsDdIpRbODT/GzHjwN0fCFEL2GvibsUOnWrCO+9m0ldnqCytJiQif5DzJdbaQsAZPBVgOaOAkKIXmvxvKJfgvlhaKyZ8oaAf9sjG27MkTRPt5jxHwKuttp+z+nnYtina/zZpaDa//5X6H/qBABA6tRTPT6u38nHYepj98Ow2+CqrcPqjDux67X32zxmW+GbWPfgClzy0iMYMu1MxKb2w7TnHsIrU26A2aC2hqsvq8TOV97G6GvVRjqjr5uOg59+02k/h10+FZGJaivzqn2HUfzGh80/s8dGo88JY5q/Prr+Bx9/e++OrPseg88/DQAwwIcAgBEZgZPvm4eSjdvx+qW3oLL4QIfHrP/rk7jk5UUYMu1M1SbCjqnLc1F0UgZctW2LFQ69+CyMvPpCAEDt4RKsnnUX9r3zRYdjks1A6rmTMfLqC3H4y41d/j39ZWia3vZ/AHrt+n9vbn8s8+tHsh1n2ICnAARioJ7AwEuL5xVmL1w+65kAHF8I0RuQOUOrdJVJltZUWrp5jnAZ/wY0ViswruLAFeoSQvRQubm5xuKsojxi/isCM/h3EuPu2woyrpI1np45I8zXAFguW77v5Clw2SP82KPgOvxFS7Hd+KEDQTY3L0UinPf4H2BEqt/zw9se7DD4b9JQUYU11/0K9eUqPb//aRMw7saftHnM5sdfbf589KxLfSoGOOa6ll2Ftjy9qk19geh+KW36XeanGfCSjduaP4/3kM7fXn1ZJV6/7OduB/8A0FBZjbev/3WbWfukscMxaua0Do9Nn3Vp8+ff5j3rdvAPqJoC+975Ah/d9iB+eDI0S+htdsbgVK3q/y40REkAwIM7CjKP5RRkXAHQfQB0Ky26E0lMT+VlF90dgGMLIXq48x7naMCwPKEOAGwEMQAQ9/zmfQC+ttK20eDy2WNO12gvhOhlHsp6NSGlePwbRJwToFPsN8Dn5azI/Esvr/LfqY+vTjjEBPcjKx80xMbh0AkBq9kYcDWHjjV/TjYDUX2SOjxm6LQz0fckVbivZNN2bF7xSofHtD/mtuffaP76xIU/bfPzvWs+Q8UutQtvdP+U5tlwT6L7JWPY9B+pL5jxfbvzRybFt/m6rtRyWYe2x2k1SI9IjAP5kN/+bd6zqNztfYfh6gNH8OXv/9Xme+PmdtyePT6tJehQuedgp+cOpdRBJmx2rT81nyYVbTjW+cN6LwLxgoKMP4NxHgD3ESbdU4AfWpzteDw39x3/bdEhhOjxOKb6fIATrB8AG97PjNlhpanGDBprlXEm4p90/ighhAAWz1s5MBp1awBc3OmDLSDgE4Ndp95WMOujQBy/JzIYWteAPad6L+TWndUebVv1P9pNAGDcjVc2f771uTeaCwd6s3fNZ82fp4wfhfi0Qc1fs2nihydasgDGzJkOb0ZlXNycJXDg4/Uo+6HtNvHtAwCtiwPqaMpiAFSRw4jGJQjebC/yrX7R5sdfhbO6tvnrQWef1CETwlVb3/x52qVTfDpuqAweol39Pzy30wiBBSsyP3Q14FQAnwbi+ATcmFJ8+KWl81eFb4VTIURQMeHKzh/lBZHlDDDLAQDDBofVtgDAhFmyDEAI0ZnFWY5xxPZPQDgtICdgLENs/Pm3rbh2X0CO30OZNluhTvviMy+AaQvPCTPDbmvzdUNlx4LjA6ec3Px568J43pRva7u9Xb/JbQuNb37i1eZAwsgZFyAi3vNYY8x1Lcue2xf/A9SWgK25XcZgQfvjtD9Pew2V1SjZuN2nYzdUVOHgJy3PpS06CikT0ts8pvUyi9GzLsGke7Oal2F0JzYDGKa3/R/Drvce7G3ueCpzL8XGnwfw8gCd4opaV807+XMd/QN0fCFEDzF5KUcQMFPnGAax5bG45buvhKe3fVc2Z/T3AI6zeIhR5bPHnI7nt3zW+UOFEL3R4nkvTCQ2/wsgNQCHdwK4c8GKzLwAHLvHe39m9JaphVXfATjBSvu6hCQcPPFUpH4dkAm5gIrul9zm6/YZAVF9kpAwvOUle/xN1yA9s/PklcjkxDZfx/RPafN1xc592PfOFxhy4Rmwx8Vg+BVTsfW5N9Be4qihGHT2SQDUoHlb4ZsdHlNf1rZocERC5zP1vohMaslmNBucboMjrVXvP+JTdkSTkg3bMOTCM5q/jh86EEe/3tz89ZanV+HEnDkqMECEM/68ABMX/hQbl76Ajf9yNO+4EGqpg12IiNRK//86+enNllI/e7OcJdPrANy0OLtwI4EehsZ9sAensw1rFs1/8ZLbl13jfV2LEKLXik+qngadXawY29+ZFbfWanOtP3zEeJkJv7J8AINnAZAAgBCigyXZhVNMNl8DkNzpg7vuqEk08/blGe8G4Ni9BgEvssUAAADsPvuisAwAxKa2TPA5q2o6VKJvvyQgfdYlls4TkdBxhn/z4682D4DHXPdjtwGA0ddNb94Cb/sLq90OwuvL2wYAopKtL0NsrXVwpN6HugJdXXpQc6Rtbc7Idv121tThlSk34Jx/3KeWSRAhZmBfTP7dzTj53ixsf2kNfnhqFfa+9WnzLguhMGy43rmZ+UU/daVXWlgwa9GSeY71JqMIQB+/HpxxouFyfZg///mLc5bN3tZ5AyFEb0MqE16jPb2sc36tnD+TzZd02gM8mzNg6/xxQojeJH+eY6YJWoPADP7XEdkmyeBfn8vFWteA4tPPgyvS+va3oZJ6bsse9EfWfd/h576se/cJdVwlt/3Ft1BXUg4AGHrJ2YgZ0HHsMvb6K5o/b717QGs1h47BWdMSuEgZn+72cV3V98SWrQXLtu7u9PFdmf0HVMClNZub9P76skq8/dP78MIps7D1uTfgqlN1AYzICIyefSmmv/4PzNn+Oo7LnuH2OQ40mx0YOkSr+j8Mk4v81J1e67blmW8bhFMJ2BCAw49il/F5/rznvVfrFEL0Omc5OIaBGTrHYIJWEFgrAyD5+e1fls0ZvQPASGtHoNRK++hzgK3v6fRDCNFz5GUXzWPmfwEBCQ6uskdhzq2PXlPZ+UNFZz6YE//N1MLqzQCPs9K+ISYW+yediaGfh9ElgAiDz2spR7H/g686PKRpwNnkzRm3o8rDFnfeuKti76qtw7bn/4vxt2TCsNswauZF2PBoy1Lw/qdNQNKYYQCA0u93uO0foNLzj6zdiEHnqFoFfSdZ+i/soPVxDn3+nZdHKt7qGPjy+PZLGVo7+vVmrJlzL6L7JmPsz67ACb+4FgkjhwAA4oYOxNTluUjPvASrM37ZpnhhoA0Z4tSt/r8hsXD7D/7qT2922/LMHQ9lvXpWNOpWgqC1HZcbfZiN1YvnOa5euDxztZ+PLYQIU5GouRRAYqcP9Kz4vYwYrfRJf1T98b63USdM4tl+6IMQogfIz3LcBfAyBGDwz6CHUssx49ZHM2Xw70ekeQ3YdfZF/upKUAy77JzmQSTQtnJ/k/aD0up9h3B47cYuf9QcPOq2Dz88tar581EZbWsLjJ59WfPnW5593evvcuizb5s/7zMhHYnpaV4f35nY1H4YcPqJLcf3IQDQPoW/03MMartksvZYmYdHtnrM0VJ888jTeG7M5VideReOrm+pGTD04rNw+ZrH3G7lGCjDhunN/kNz5ke0dc+Kn1SkVuAqZsoPwOHjibFqcVbhNQE4thAiDJFpztI8xCsgve2qtQMAZBhaaxAAuprPOy88S0ELIfwmL7voV0x4GP7fHcTF/5+9Ow+Pqrz+AP49dybrZEd2RJYI4q4IKiiLFuu+QSZhkyUR6kICKP5ca6xLtSiQ4MouSEJmUKu2tXUjIBY3tFVxgYCIuLGG7MnM3PP7g5a6IIS8Z5KZyfk8j8/TtJlvTttM5t5z3/e8RDdPXZhxq9vrNjt3S/0C2TD6DPj29AHwx8RJlRNUZFk47facA1/v3bAZ37zx7i++r/aH3T85ri7t5F6idfzw9kcHJud3PPf0AzfF5LCQPnJ/A4ADNjY+/eIhc8pW/P1/XxDtXxJv4NjRlxw4BaChohpfvXT4lR3xHY5CTGrjH4T8fKXCnk/KGv1aDtjY4n0Fz/bNwlt5Dx1YqdH2jBNw6i3jG51jwhm1fwCgCZvN9n6qX3J73YGpizLyAPo/AIYdml+IIaKigoklbuFcpVSY6fsSxzPRJYf/zkOxjT8DjBsAic9sXAvAZBJtu8rO31xoWodSKnwVZnt+D/ADQYiuAdHwqQsyHglCtgKwamT8OwA3eTmyPyYO284aKllS0PS/fwo6DDz1wNcfPLAA4F824W2f/ydPv7sMO1u8ls8X7B+/QA4LPf5zwkCnIf0Q33F/M+Drv7+FqsNsO9j5/gZ8t+Z/Q4RPnj4Wqcf3aFI9ri7tcfpdk/9X3/xnGz3gr+Ogvo36vrh2aWjb738zJyu3fou6nXsP8YqD44CNTwqL8MH98/9Xw+AzjjinKY7p6ofT0fQHN8z4JLVo078ES1I/krcw40/M7AZQd9hvPjLRICoqnOgdLZyrlAojrurqEQASDCK2r/4swXjfpPkKAICJscIoxOZxpnUopcJT4cSShxm4RzyY8I0VwFl5CzIOPgVNiSFQscnrtw42bIYHmSM2BmfNnI5TfvSU+Ls167G55O+/+pqtf37jwL/ufuVQxHeSPRp8U9HfDkyx73H1+ft/zlXnHfjPNy499NP///rg/vkHmhiOmGgMffq+I3oiDwBOVxyGLrkX0f8ZfuivqcPHhUWNfn2vcZc36vv6TB4By/m/3UFbvK8cUZ0/t+Pt/22B+HFuMHXvYboIic2ut9RhTV2U+Sxb9iAAvxzCYcbBxMsKckpuEM5VSoUJIsvonpdBK5BPxquUJGYAwLJso4s/JlxeMbJX089CVEqFHQZTQbZ3FhPdFITwz21/4JwpS9wfH/6blSmigNFnwI7jT0NVu05S5YixopzoNe5yZPzbi1NuHgey9n9k1u0ux+ujbwMHfv0z+PNFfz4wC8CKjsLZD8v+mtf+sBvb/roGANB+4GmISUtGtyvPO1Df1hdKG5Wz/ZV1+Lhg+YGv255xAi5fsxhpP5rmfyjJ6V1x6WvzDhxNCADv3jEXVdsafwR69yuH4ugLBx7ye9JOTMepM8Yf+Nr2B/D5wl+ugvzvFoTG+HFTpmLLN41+XVMlJDDatjVqADDIYfReU40zdX7WexbhbABfHPabjwyBaW7BRO8U4VylVIg7x1PbFeAhJhkW2csP/12NyJEISVi+5WMGTC60oxm27o1SqpXYf/PveQLgaUGIfzMqxjdg2pKRW4OQrQ5ilTvpCwDrD/uNv4KJsPXc3wpWdHgxqUlI6tHlJ/+0OaU3Op/XH8df58Z5yx7AqK1/x9Al9yK51zEHXlf+xVb85TeTUH2QCf0/5qusxltT/njg6/SRF2HoknsPO2wuvuNR6D3+ikYti//vEX+W04HT77gWrs7tAABlRS//4iSCQ3nn1gJsf3Xdga/TTkzH8A9KMHj+3Tj6woFwxv30qEYrOgqdzz8TAwtvRcYnz6L9WScf+M82PF6Cj+c80+ifDQAgwgXPzcYJ12fC+tmxfmRZ6H71+bj09fmISvzf8YofzVqK8i+2/iLqgudm4+xZNyOld7dD/sjU43vgjPzrDny9ecXLR1ZzE3Tv4TeNeDulaOMWiVrU4U1Z4P4yAAwAsFY4mkBcUJDtyRPOVUqFMCfb18Dk3puxodSdILIFTGzYVvno9NuIYbKH993korIzD/9tSqlwV5DteQTA9CBE/80Zg0yd9N/8BpVU3USgh5v6+oTvv8alUzNBB9lTL8X96fNI7dO0Pe52gw+fLXgOb98y+xdn0R9K/wdycdpt2Qe+9lXV4KsXS/HD2x8hUO8DAEQlxCHluO5o1/9EtDm5F0CEt3IfxCdzD/2wlxwWRn35MhKO7vCTf9970vAjGo4H7F/tMHjhPeg19uAnodXv2Yf68kpEJ7oQ2zb1l9/AjPd+/zg+uG/e4X9WdBSurX8fAFCx+Wt8t2Y9ek+4EsD+xsn3az9E9Xe7EOWKQ7uzTkbiMR1/8vqv//4W/nHVNATq6n+RfXnpwgP7+Xd9+Dl2vPsJKsq2oaGiGlGuOLg6t0PHwX3Rtu/xAO2/BNrseQWvZc44bN0miIDLLq+Dy2WwcpM5N7l481y5qlRjPHa9JyFQh5VMkO5SMoNunLow43HhXKVUqGGmwZ6ajQDSmxxBuHON23W/RDliDYA91/To6vBbW00yrQAdn1iy6TOpmpRSoacg2zsT4Jvlk+npvUcflZOfP9T4MZs6cgOLqzs5LWyDwRGOw34/GUd98ZFgVT/VlAZA5VffYXPxy/h4bhFqvt3ZpJ/bM/O3GFh4K+LapTX6NY1pAAC/bDDsfG8Dnus/qkl1ggg9M4ah/wO5R3Qk4M73N2DdzbPw3er3G/X9P24A+KtrsSh5AM5++CacmDvqwDaLg2LGZwuew9ob/wi7wXfQbxm69P5fbWL8nO0P4LN5K/HPaTN/NU9Ku/YBnH/+LxsWR8Bv+dAp0VvWtF9CZeSpSU9F1QVSFwIYKxzNRLghd4H7CeFcpVQIGVRcM4Asfssggh1Oq/sbw+O+kqhH9LitfaPS1wE4q8kBRPcnL990p1xFSqlQUpDtmQNAfNkjgW/NXZj5kHSuOjKDS6pWAzSoqa9Pf/V59FvwJ8mSfmLA7BkHlskfTKDBh7pd5ajbVY59m77a/yT6mx0iPzs6yYUT80aj2+VDcNTpfX71Rrdq23fYtPxv2PDYikb97NQTeuKKN5cc+Prd2wvx6ZNeo1qt6Ch0v+o8dL34XBx94cCDNi6qv9mBbX9dg60vlGLby2sPehrCofL/2wAAgPkxZ8Bu8KHdmSfh5GljcczlQ36y7cBfU4evXlqNjwuL8MM/D7/6MbVPD3Qf/hu0638iErp2QGybFDhdcQjUN6B+TwXKP/8SO975GJtL/o7Krxo/q8BE/zMb0LOnSW+SX0su2jxMrCB1xBhMhTmeu8F0t3Q0A7lTF7ofFc5VSoWIwSuqHwfhusN/58Ex4Z01blfT77F/RrQBUD6q5yQCPdXkAML3Sa7krjRvfXBb8UqpZleQ7Z0VhD3/Npim5i3K0GWxIWCQpzqbGAua+vqo2hpcOflSOOsbv8Q+HDldcXB1bIvo5AT46+oRqK2HMz4Wtj+A8s9NTtUNDqcrDvEdjkJMSiIa9lWh+tsd8Nc0/ZS0nzcAFiac9ZNtFY7YGLg6tUVMahLqdpej5rtdRzTTINRERzOuuKrO6Pg/AGOSi8pEhj8pM4U5JbnMNAey19C6HUCpCNX3JY5PqKn5FsChhwAdAgM3rsl0PSZVk8gQwP8KEK0AUNPkAEaHfZUVjTsPSCkVNgonljwchJt/PxOP05v/0BFbF78CoMqmvt4XF9/swwBbgr+6FvvKtmHn+k+xd8NmVGzZjj2flIXkzT+wv96KzV9j5/pPsa9sm9HN/8EQ/fQ+KlBXj4ot27Fz/aeo3PptWN/8A8Ax3QKmN/97k6L9z0rVo8zkLsgsZKbxACS3mxGBHy3M9k4WzFRKhYCEmprRMLj5B1ATTfVHOF330EQbAG2Wl1UAMPqQIuJJQuUopUJAQU5JvvhRf4RaAl89dUGm6B9EZeaVa6iamD0mGZsuuFqqHKVCQnq68X3iClqyVbbrooxMXZSxFEQjAEj+/0IMfrwg2yM9Z0Ap1bKuNXs5v/CaO22fTCn7iTYAAMAGLzaMGLZvTM8mT0hUSoWOwoneqeL7JQm1lk3DcxdmviSaq0QQkdFnQPkxx2JPjz5S5SjVotq0sZGSYjD5HwDINr2uUkGQtyDjBbYoA7JNAAvAwtnZJVcKZiqlWsi5K6pPB9DPKIQg/hkg3gBIKdpcCmCzQQRRgCYKlaOUaiEF2Z48Jp4tHFthMQ+bsigj+Id2qyZZlRn/FgCj01zKfjQ9DmIAACAASURBVHOFUDVKtayehk//CfRR8vIt7wmVo4RNnZ/xFzCGAagQjI2yQJ7CbM8lgplKqRZAZPr0H9tWf+p6XaSYHxFvABDAAD1tksGEiTypb5RUTUqp5lWYUzISwCzh2N0gnDdlYabJMSqqGTDY6DPgq4HD4IuLlypHqRYRFc04plvALITN3ksq+PIWuddabJ0PYI9gbBQTvHOyS5p8qopSqmUNfGFnIgFjTDIYWIp8MlxG9kviDQAAYIf1DACTYttXVpc37iBfpVRIKcz2XMJMT0P278sugjUsb4F7vWCmChLLaS0H0OQ7H39sPLYN0BPPVHg7pqvx8D+/5fcXSdWjgmfKohHv27Y9DMAusVBGHIFeKsjx9BXLVEo1G2dt3AgACQYRbLNjmVQ9PxaUBkDKsi++BGC2XIHpRplqlFLNpXCCZzATvAAkV/B8Z5M9KHfhiA8FM1UQlQ6P387A300yNl44QqocpVrEsb3Mlv8z8JcE79bvhcpRQTZtcdYHZGMwgO8EY5PAeHl2zgodjKJUuCHje9m31mbFbhSp5WeC0gAAALLwqMnrGTivPKvHGVL1KKWCa+54z0ls4Tkw4gRjdzJZF05bkGW0p1w1P4vY6DOgvGs6fjhRPwIiEjMqtmw/8A/b4qsbW1yHjgGJ4X9G7yHV/HIXuz8lti+C5EoAoK3F1l/mTizuJJiplAqiIcWVQwCcbpLBREH7DAhaAyCxvuyvAL4yCrGs62WqUUoFU8EkT1fbiZcBpAnG7rEtXDB1wYiPBDNVMynNcP0DzJtMMr64KEOqHBVCbJ8fxT0vOfCPvybyTrjrZfj0H8DG5OVb3pCoRTWv3EVZ/yZYFwDYKxjbwybHy09N8picJa6UaibssKYYRvywG3HPixRzEMFbAeBFAKAFRhnAqKqR3dtL1aSUkvfE755rhwDeAKOzYOxuJmvotPnufwlmquZExCAYfQZ82/ccVLWX/LVSKvgSE2107mw2/I8YT+0fqqzCUe7CER8yWUMA7BaMPbkugH88NeklnZCqVAgb5KntDobpcUaLNripQaSggwhaAwAAHD7fAgA+g4iYADlNj09QSgXJzLFLXQ0N/r8A6CkYu9e28Bt98h/+KGAvgsEZ2UwWNg27WrAipYLv2GONn/7XBGL8iyRqUS1n6oIRHxGsYZBdCXBmfaC22JPhcQhmKqUEEfPvAJi8RwMBsp6UqudggtoASPBu/Z6AP5ul2NdzxgnRMhUppaTk569yRkfHloDQTzC2ksi+WJ/8R4bSUUm7CPSsScaW8y6HP0ZyrIRSwRMVxejZ07gBsDJ1ydZyiXpUy8pdOOJDm3EJgEqpTAYu/y45eHuDlVJNd8FSdgFs9PCagb+vdcdtk6rpYILaAAAAm2m+WQJ13Bddd5VMNUopKWlf73ocwCWCkVWw6MLcBVlvC2aqFkZk9hnQ4ErAVwP1SEAVHo7pFoDT8AwUYtvwukmFkmmL3Oss8EUAqsVCmX9XkF1ys1ieUkpEXWxNFoBUkwwLZtsnG/kzgiu5eNNrAIyOMCAm/SOnVAiZk+O9iQ07nD/jI/CovPkZ/xTMVCFglTtuNRgbTDI+v3QUmIL+caWUESLGcceZ7HoECPRRUvGWtUIlqRAxZWHmWyAaDcB4ecj/0EOFOV7dI6VUqGAmYtxkmPI12sX/RaSeQwj6FRXt/59jtmHMGeWjev1GpCCllJGCbM8oYp4pGOm3we7chZkvCWaqEMKEWSavr+h8DLb3GyRVjlJBcXTXABITDef2kW30XlGhK29BxgtguAGYTYj8H4uZlxdc6x0glKeUMjDYW3slgD4mGQQuLB1Kgo3Cg2uWRyo1ruqlMJyESrBnCJWjlGqiwpwVZwFYCICEIhngnGkLMw1nhahQ5kqMXw7gB5OMz668RqgapYKjTx/DazbC94kNscUy1ahQlLfI/TwxciB3wkMsbH5hVrYnXShPKdVUzLcaJlQh2hf05f9AMzUAOs37tobM9zNcsDcr/TSRgpRSR6xgkqcrs/U8gFipTCKemrcw82mpPBWaXr6Y6gHMM8nY3bMPdh53ilBFSslq1z6AtDTbLITxJHk3BO3YJxUache5lwB0h2DkUQ7gxdnjn08RzFRKHYGhJTUDAfQ3yWDGktKrUptlAGyzbap0Oq25MDsSEJZlvK9CKdUET03yJFMAfwPQQSyU8WDugsxCsTwV0mwnngBgdHPz2WWjhapRStbxpk//gTrLh8clalGhL29hxh8B/pNgZB+H5VuRn7/KKZiplGqkALHpSnUbTkezXRM3WwMgfunGb0B43jAmc++o7seIFKSUahQGU50fCxg4QS6Vns5dlHG7XJ4KdW8Od30HkMck49u+52Bfl25CFSklIyXVRsdOZtu6GShO9JbtFCpJhYG9R392G0DPSOUx4bdp23Y8KJWnlGqccz2VxxPjcqMQwt/WjIjdJFTSYTXrWGUiy/TcUqcFR65IMUqpRinM9t4LwgipPAZejnXsuZZAUnsgVZiwbBh9BjARvrhkpFQ5Sok4rrfAvCbL7L2hwk9+fr4d69gzEcArUplMdFNBtjdHKk8pdXgWW1NhOBvLYm7WzwCpQV6Ntm9U+vsA+hpEVFs+dNdOuVLBV5hdMpFBCwUj1wYqcMF0r7tWMFOFkcEl1f8EcHZTX28F/LgsLwPxO78XrEqppklIYFxyWS0sg6spBtakFJUNlqtKhZNZGZ44RyJeA0Fqmr/fJho2bUFGqVCeUupXnPds7TEBv70RQLRBzKer3fEngprvwVizH6xsgx4wjHAFoo33WSilDqMw29OfQY8JRn7m8Dmv1Jv/1o0YRp8BtsOJT66eIFWOUkZOPNFndPMPAASz94QKb9O97lqH33k5gC+EIp0W88q5OZ7uQnlKqV8R8Nt3wOzmHyB+sDlv/oEWaACkFG16HsCnJhnEdH1lRnpboZKUUj8z6xpPZwb+DKGJ/wR8TeS44MalVxsdB6rCX2lm/F8BfGyS8eXgi1HVrpNQRUo1TWKijW7djY90X59cVPYPiXpU+Lpx6dW7LcJFAKSWNrWxGc89NemleKE8pdTPDCmu7QZgvGHMVmrravbjX5u9AUD7t3E+YhjjsqNYZwEoFQSFU/4W44yCF0BHochyhn1x7oLh24XyVDgjYjKcfm07nPjs8jFSFSnVJH2O9xs/tGHimULlqDA3ZYH7SyuACwDsE4o8tS5Q95RQllLqZ5jsWwBEGYbMKh1KAoNkjkyzNwAAINGVvAzANrMUyi0f1TVVpCCl1AFcXf0IG+zR/pkAAWPyFmZ9IpSnIkE71woAW00itpx3GWrayp1KqdSRcCUwunc3vmbblNyweaVEPSoyTFni/hhE4wDYMok8pmBiye9kspRS/zXk2ZouIEw0jNlZ5YqTnLPVaC3SAKB5631ExnuLk0DR+kdNKUGF2SUTQXyDWCDjltyF7r+K5amIUDqU/MRUYJJhO5z4/OJMqZKUOiJ9+vhgmV5BEQrIC+M9BCqy5C3IeAGg28QCiQoKrvVKDRhUSgGw/fZNAGJMMgh4fP1lVCNU0hFpkQYAANRYcY8B2GWSQYxb9mWckCZUklKt2tyJK89g0ONyifx43iL3LLk8FUkqXXHzAOwwySi7YLjOAlDNLiGB0bOn8dP/b5P2YIFEPSry5C3M+BOAJ4TiomHzc7Ou8XQWylOqVRvkqe1OoOvNUqjS7/cZPQgx0WINgA7LPqomYJ5hTAqi6/NEClKqFXv0mufa2GQ/C8Nu5gGE1/Ye3U7fm+pXrb+MahgwajgFnFH4/LLRUiUp1SjHn2D+9J+Bx+jlsnqZilQkinXszQPwulBce2cUvPkZHrNp5UopkG3PgOHkf2J70drRKXuFSjpiLdYAAIBAtH8mgHKjEMZNVRnddCOoUk3EYAo4/UsAdJXII2AD1TYMz88f2uxDTVR4qffVzQawxySj7DdXorKTyK+uUoeVnMTo0cN41f6OOkd8iz35UeFh8rzJvgDgBrBRIo+Bs9MSWY+cVMrAUE9FbxAmGcbUOGz8UaSgJmrRBkDqkq3lMJ8F4ApEOeT2SinVysyd6L0ZhEuF4nYF2HF57vIxFUJ5KoK9M6ZNBQhGN0JsWfhkuOkcHqUa58STfeaT/xmzOyz7qFqoJBXBpi9072HG5QBEnhQy0fTCHM8IiSylWiObnXcCcJhkMHje66MSfhAqqUlatAEAAGiIngXA8GaBflc+tnd3kXqUakUKc1acxYT7hOJsAsZPWzR8i1CeagWiUF8Aw4vbrwYOQ/kxxwpVpNTBpaTa6NrVeGHTzjpn/FyJelTrMHWR+wsCS50MQMyYN3visz0EspRqVc4tqjoZ4FGGMTUW4SGRggy0eAMg2bthDwGPGsZEwx+4U6QgpVqJWdmeNGarBIb7mP6H7tSJ/+pIveZO28cwXAVAFj4ZoasAVHCddJLPOIOBOfr0Xx2p3IWZL4E4Xygu1WEFvIvHL44VylOqVbAcdBcM752JeX6pO+F7oZKarMUbAABADi4AYPSBSISxFZk9egmVpFREYzA5gOUQ2vcP0KK8hRktup9JhS8f+ecCVGmSsb3fIOzp3luqJKV+Iq1NAF26GO/9L7d9tum2R9VK5S3IvJeZiiWymHF6heXSORRKNdIQT9WpAK42jKm32XpEoh5TIdEASFy2eQcRTJfERbHDelikIKUiXOFE7zQAFwrFvZsUqLpBKEu1QuvcyXvAPNskg8nCh+P04AkVHH37Cjz9Z344zbtln0A5qpWyKzmbgfdFwgiTCrK9WSJZSkU4mzEH5vfN89aMjP9aoh5TIdEAAADLDsyB4SoAAJdVjOxxjkQ9SkWqORNWngnCg0Jx39oOx5UTlkyoE8pTrZQzOlBougpgR5/T8O3pA6RKUgoA0KVLAEcdZbz9upxjAvr0XxmZ7nXXkgPDmbFDJpGfmD2+uJtMllKRafCK6osINNgwpj5AofOgOmQaAAnFX/4AgvGyCCZrLueHzn8vpULJzLFLXWTZiwFECcT5wTxm2rzh3wlkqVbu9auTdjOx8WCcD8bmwXY4JUpSCg4LOO30BuMcYnogdclWs2OPlQKQN8+9DRbGADDekwIgxXI6lngyPEZTzZWKVH2f4igQGa1QBAAGzV3rjtsmUZOEkLpRrm+ImQkYdzVPrdiYPlKiHqUiTXR07BMA+khkEdOMvEWZqySylAKA2Lr4OQCMhuNUduqKzedfIVSRau3Sj/UjIcHs2D8CtifG+HTyvxIzdYH7VYBuFwljDP4uCfeIZCkVYRJSa3IANh0wtNf2NzwgUpCQkGoAtPNuqCLwTIGo+3l8N51uqtSPzMnxZAIYKxLG+MuURSN0gJAS9co1VA2Q8TDJTzJy4It3SZSkWrHoaOBEgcn/NtH9tGSrbpNSovYeveFhYvxDKO7/CiZ6dAutUj9y5jO7k8DmzTECZq0dnWJ03LG0kGoAAECNw/UEwKZLio+paHBeJ1KQUhFgVrYnnRgLhOK22HbUWAKZPRZT6iCoJm4egO0mGXVJKfjiEl0Ipsz06eNDdLTpnznemtwQvUikIKV+JD8/33bG+EYC+FIgzgkLK2Zle9IEspSKCDFRsdMAtDWM2VXrqyuUqEdSyDUAOiz7qJqBfIGoe6rH9OkokKNUWPNkeBwWsARAgnEYoZbYvnrakqt0L6sKitIJVEfEd5nmfHrFGFS16yRRkmqFEhNtHNfH/Ok/QHeSd4P5EAGlDuL6J0bvZcvOBGD+O8bo7CAOuRsVpVrCIE9tdwJuNQ5i+sM7Y9pUCJQkKuQaAACQ7Nu8EMDnhjGJPtt3v0Q9SoWz75Ixg4CBMmk8I3dR1r9lspQ6uLZwLQPwqUlGICoGH47NFapItTanne6DZX6F9K+kXmUi57Yr9Wumzs96j5j+TySMafR/tgsq1aoR7IcBmG4n31y1L+5JiXqkhWQDgLwIALjPOAe4Zm9W+mkCJSkVluaO95wEFllRAwL+nLvA/bhEllKH4nVTAEz5pjnb+w/GjuNPF6hItSbtO9jo3Nl8wDox30P5MD4/UKnDmbJoRAEYf5HIIsbcOTlF7SWylApHg0pqB4FxlWkOEd+3fjJJLCUTF5INAABIKiorAvCWYYzDsjBfjwVUrdGsDE+c7UAJgBiBuI2OGOi+f9VsVmfFewFeY5rzXs4MPRZQNZrDAvr1q5eIejWpePOfJYKUOhwCsW1HjQWwVSCuLbFzGYNJIEupsNL3KY4i2E8AMP39f680w/W0RE3BELI3xgQwCDcDML3h6Fu5qafM5HOlwogjCX+EzJF/DRZbo2943F0lkKVUo7FNUwGzJ6gVnbth02+HC1WkIl2v3j4kJhr3OQO2Zc2QqEepxpq25KpyAjIBSDxxHFaQvVKHaatWJyGl9joAxxvGMIjyQKH70CxkGwAAkLy87G0CVprmMNNDezJ6JEvUpFQ4mJtdMhDAFJEw4vumLBrxvkiWUkdgzUjXhwQy3kP9yYgc1CWlSJSkIlhcHOPEE83vnZjxdOozG3VWimp2uQvd74LpQYksAj84e3xxN4kspcLBuZ7KtgDnGwcRnl/tjl9nXlHwhHQDAAAY9h0wn27a3hltmU9yVCoMPHa9J8EGLYPM+/vVvV0+02GaqsXYRHcBMFqT3eBKwMeZk4UqUpHqpJN9cEaZZTBQG2CBC0ilmmhv1w35AF4XiEq0LMfy/Pz8kL9XUEoCsfUHAKmGMT6yAndI1BNMIf+mTi7asolBxseSMOPmvaOOPVWiJqVCmb8e9wDoLhD1fXSUc0x+fr4OsVItZo077ksAj5jmbD7/Cuw4XmfCqoNr3z6Anj39xjkEPNRmxeavBUpSqkny8/PtgA/jAOwyDiMMSN3eR7cCqIg3pLhyCAECTwr40dIRSaYn2QVdyDcAAICjfffD/A+Z0wI/pQMBVSQryPH0BSBx9hkTeNJ1T169QyBLKSNE8X8E8L1JBhPh/Yk6EFD9ksMC+vUXGdT8dZKv7k8SQUqZmL7U/Q0RySx7YnrgkQnFR4tkKRWC+j7FUUzWozAf/Lc74PffK1FTsIXFzXDqkq3lAEn8D9q/cuOx1wjkKBVyFo9fHAsbzwAwv8MhfjR3YeZL5lUpZa7UTVUE3GOas+/o7tj02xESJakI0vs4PxITzRc6EdPd5N1eK1CSUsZyF2Q8ByKJM8iTnJbjaT0VQEWqxOTaG0A4wTiI6IG1o1P2CpQUdGHRAACApF6bHgXoPdMcBj9SObZnO4malAolFQ7XnSAcJxD1RawVrzMzVEgp/Sx+HoC3TXM+ypqMqnadBCpSkSAhgXHCSQKD/4DVicWblphXpJSchvramwFsEogaWpjjvVYgR6mQMshT252JJWZd/bsd4goEcppF2DQAKB82MefB/FjANNtv6RI9FVFmXbvyBAASx04FwMiZPO+yGoEspeTkk20RbgQQMInxx8Tig3F5QkWpcHdGvwY4HcYnNfkdDr6RzK9PlBI1Y9k11WTjWhgepwoAYDw0d2Kxdk9VhLFnA4g3DGEi60avm4yuT5pT2DQAACCpuGwdAOMjoUA8tmJ0z4HmFSnV8jwZHocjYC8GEG2axeA/5i1yrxUoSylxq9yu9WAsM8355oxB+Pa0ARIlqTDWpUsAHTuaX68RaFHiss2fCJSklLjcxe7VAD8kEJXC5HhMIEepkDCopPpiYlwhEPXnUndcWF07h1UDAAAsB08DUG4aw0zLdmSckCBRk1It6btk/h0I/YyDGO+VH93OeJ+1UsHUYPlvgsB063cn344GV6JARSocRUcD/fqbnjAMANhpo163TKmQtreC8gH82zSHgStnZ5dcaV6RUi3rnOXlqQQsEIiqJidJDN9uVmHXAEhctnkHQPkCUd1jour1ZkeFtTk5Re3BIgMyG2wHJuXnDzU/B0upIFrnTt4Dwu9Nc2pT2+Bfo2+QKEmFodNOr0dsrPmKfWLcnlK0LSyGPqnWK9/rbrBteyIA44EXFmj2zLFLXQJlKdViHI6oBwF0NM0h4MHS4fHbBUpqVmHXAACApISkxwF8KhCVW57V4wyBHKVahMXOuQBSzZMof9p897/Mc5QKPmobPx+Ej0xztpx3GXYed6pESSqMtGsfQI8eIls1P0j0ly2WCFIq2KYtzvqAQH8QiOoWFRNzn0COUi1iiKf2HBByjIMYX1XGx88SKKnZhWUDgOat9wHWBJgPNXGSRc/w+G6xEnUp1ZwKs0suYyBDIGr93qOPmimQo1SzKB1KfgogG4YDAZksrLvx9/DHms7/UeHC6QTOOst86j8AX4ADE8hr9juoVHPac/RRDwL40DSHmKYU5Hj6CpSkVLO6YCm7mO2lELgHtognr7+MwnJodlg2AAAguWjju0Q83zyJelf4ou40z1Gq+Tx2vSeBQY8KRPmI7Wxd+q/CTelI1/sAHjfNqW7bER9nmD8IUOHh5FMa4HIJDERnFKYVf2m8CkWp5pSfP9TPlj0Zhs1TAA4wnvJkeBwSdSnVXOqja+8G0N00h5hLVmUm/EOgpBYRtg0AAIAj6g4AO41zmGfsGdn9ZPOClGoevnrMANDVNIeYC3MXZRkPBlKqJVB0w+8BfG+a88VFbuzp3lugIhXK0toE0KuX+QN7ZnwTsCCxlFqpZjd1ftZ7zCQxzb/v90mk3VMVNoZ4qk4F8VSBqArLsm4SyGkxYd0ASFr6+W4wSRzoHO0gR7FuBVDhYM5ET28CJKZOfwpX4h0COUq1iNKrUsst0I2mOexwYN2UexCIjpEoS4UgpxMYOLABRAKD/yy+ts3ysgqBspRqEXYl30pAmWkOg/9YOMHTVqImpYLpbA/HMVMRgCjjMMKtb7jjvzGvquWEdQMAAJKLNxWD+K8CUcfv8zm0o69CHhHmAog2jLFtRk7u3IvrJWpSqqWsyox/FsCLpjkVnY/Bv0deJ1CRCkWnntqAhASBm3/g2eTlm18WKEmpFjPd666FjRwApm+KVCboQEAV8qK5+n4AfYyDCP9c/Wn8U+YVtaywbwAAgM32DQCqTXOI6abKkemDBUpSKigKsz2XABhmHERYPG2Re515RUq1vABZUwBUmeZsvMiN7085U6AiFUo6dgrg2F4iY07KHVbUFIkgpVpa7mL3agDPGAcRsgsnrjjFvCKlgmNwSeVQQGTFuI9sezLyyXyQTAuLiAZAatGXXwH0oECUZRPmfz/2ZD3fVIWcmWOXulhg6BmA76i2YbpAjlIhYa07bhvA95rmMBHey7kFvjg9FSBSREUx+vUTmfoPEO5xPfPZdzJhSrW8ADAV5rO0HCDrCQaTRE1KSRri4QTAmg+Be14CFZZmJX4iUFaLi4gGAAAk+Tb9EaD3BKKOjffXzBbIUUpUdEyMyOA/Jr4ld/kY3b+qIsrqz1wPA1hrmlPVrhM+mBDWs33Uj/TrJzT1H1iTdGxZoUBJSoWM6QvdewhsPFOIgbMLs71jJGpSShLbNXMB9DQPwoa4xLiImZsVMQ0A8iLAFv8OgPE6PybklI9Ov0CgLKVEFEzydAXTDIGoN/MWuJcL5CgVWvLJZuLrATSYRm0ZfDG+PX2AQFGqJXXpEsAx3cyn/gOodwTod5SPsF/2qdTP7Tn6syUA3haIemDm2KW6glaFjEEl1ReDME4gyibL+t3LF1PEzM2KmAYAAKQ8U/YBgPsFoogYz1SP6dNRIEspczbNBGC6LrkOASubIDAGW6kQtMad8DGAeySy1t2Yj+qjOkhEqRbgcjHOOsu4FwQAIKa7Eks2fSYSplSIyc/PtwOWlQPAdK9Ml5iYuNslalLK1Dme2q60f8aF8dYUAs0udccZrzAMJRHVAACAJF/MAwx8LBDV1m/7lrDAL45SJgomes4Bs9s0h8EP5y0ZsUmiJqVCFbWL/xOA9aY5Da5EvH3j78FWxH1MRjyLgLMHNCAqWqLXSe8l+jfNEghSKmRNnz9iA4OMf8+Zefqj2c8eI1GTUk2V4WGHgwPLAKQKxH0WSUv//yvirmzIu6GBbYyDeScTAC6oHJk+TSBHqaYjPCCQss3XUC8xKFOpkFY6lPx2gCdC4DNgR5/TsOEqidWDqjmdeJIPbdvKLP23AhhHXoiEKRXK6jn6fhBMzzaP9SOQL1GPUk21k2tuA2iQQFQARNmRtPT/vyKuAQAAqSvKPgTwqEQWE+6vGt3jJIkspY5UwcQSN4BzTXNscN6MZdcYH5WpVDh4c1TCRyTwNAsANgyfiN3pJ0hEqWbQtm0AfU6QmvpPD+vSf9Va/N+iKyqZyfihFwHjCq716hAV1SLO9dT0Z+D3ImGMeavd8RF5ZHZENgAAIGkvbiPGvwWiYgNsPbdzYu9EgSylGm3x+MWxIJHjLf8+bWHmnwVylAof7eLuBPCuaYztcGLt9AfQkJgsUJQKppgYxoCBDbAkNu4R3kn6pnO+QJJSYWPqwgwvgFWGMUQ2P6zHAqrmdv5zFW0s5mcBRBmHMTZQbXzEHpkdsQ0AermsPsCYAIGJ0ADSo+sCDwnkKNVolZZrCoDuhjE+m+yI/QOm1K8pHUp+Js4BYLx0r6ZNO7w3UY8GDHX9+jcgPt583z8DtRYwkUpLjU8VUircBCxrCgxP1GLg7IKJnquFSlKqUfw+ay6ALgJRAVh0bekEqhPICkkR2wAA9m8FIMZtQnHX7RvV8xqhLKUOafb451OYYHw2L5jmTVuQpUtYVau0xp3wMRHdLJG1bcAwbLwwQyJKBcFxx/lw9NFCW/WZpiUuL/tUJkyp8DJ9/ogNYCwyzSGi+/PzVzklalLqcIZ4am4EaKREFgP3RurS//+K6AYAACT2LptDwBsyafR45UjdDKqCz3I03AYgzTDme6qv1yN5VKtWmhH3GIC/SWR9eE0udvXSkTChpm3bAE45TWjfP/BSSvGmp6TClApHUTG+WwHsMozpnbZ957US9Sh1KIM9NWczs8jcHya8Y7WLlzhSRmqbEAAAIABJREFUPqRFfAOA8mE7ndY1APYIxLlswnO7R6cnCWQpdVBzcoraA3SDaQ4R/pC7fEyFRE1KhS0i9tu4FsBu0yjb4cQ/8/6g8wBCiOi+f+AHy4dskSSlwtj1T4zeS8T3muYw4/bF4xfHStSk1MGc/1xFGzCvgMS+f6DKaTtGlw6liN/+FfENAACIX7rxGwJJbeDs5WDMEcpS6heInXcDcBllED7Y0+VTfYqlFIC3Rrq+ZeJciazqozrgvZwZElFKQP8zZfb9AwATbkz0lu0UCVMqzHXYR48B+MQwpkuFI0Hkb69SB+P3WY8D6CqRRUx3vZEVu1kiK9S1igYAACQVbVoCYJlEFgETykelXyeRpdSPFU5a0RNAjmkOATPy8/NtgZKUighr3AlFYBL5DNh21vnY+NsRElHKQJ/jfejSRWjfP/BEyvKylVJhSoU7t9cdAPH/mSfxbY9ftzzVPEepnxpUUn0DQG6RMMIrpZ/HFYpkhYFW0wAAgIDPngLgS6G4R/aO6XWKUJZSAAC26R4YLmMixj+mLHALzb1QKnL446pvAPMmiawPx07Bnh59JKJUExx1lI2TTxba90/4rNYRr8s6lPqZvAWZfwPwqmFMSkODU08jUqKGFFefQcAjQnE/EHgc8qnVPDhrVQ2ANO+WfWxhBASOhSIgzrLtFyvH9mwnUJpSmH2t51Sw8QTTANnQC1mlDuKtK9pWEvhqALWmWXZUNNbcMhO1aW0FKlNHIi6ece6gelgyVzA1FjCiw7KPqkXSlIowxPYMAEY3RgSatn++kVLmzvPUdGYLLwKIEYgLWGRllroTvhfIChutqgEAACnPlH0AiB0N2NUOWM9yxgnRQnmqFbMCuAOG70kiXj5liftjoZKUijilWYmfMGSaZLWpbbB22v2wo/QjoLk4nIzBg+sRGyu07x+sR/4pdQi5i7L+zUwlhjEu4iiRI1lV63bR3zgmwOwF0FEo8qFV7rjVQllho9U1AAAgqahsDhgvyqTxORXO+odkslRrVThxxSkgDDeMqSbblmpuKRWx1mS6HgPwZ4msXb1OwruTbpWIUo3Qv78PqalCqzSJi1OKNs+TCVMqctl+ngGgxiyFb5w7sbiTSEGq1aqtrHkKwNkSWQy8Re3i75bICjetsgFAAFt+5AD4VihwasXIYyeIZKlWiS3H7QCMDrJi0KNTFo2U+Z1WKsIF/L6JYHwlkfXloIt0KGAz6N3bj27dxE5n+tKOClwvFaZUJJu+1P0NMT9hGBMbsBxTRQpSrdJgT/V1DIwTitsDm0a2hiP/DqZVNgAAINFbtpMJE2C4r+m/mHjunpHdT5bIUq1L4cQVp4A5wzBmd5yD/yhSkFKtwNrRKXtB9gQAImPk/3VNLnb20o+AYGnXzsappzVIxfnJssalLtlaLhWoVKQL2NH3AdhrkkGMKboKQDXFkBU1Z4ExWyqPmG5YMzL+a6m8cNNqGwAAkLK87BUA9wrFuRzkeH5fxglpQnmqlWCy7oLh038Cz5w8z71PqCSlWoXVmYmrmCCy/C/gjMLamx5ATRudCystPp4x8ByxoX8gojuSntn4pkyaUq3DtCVXlRNolmFMLMPSEwHUERlYXN2JiZ+FzNA/MOPR0qz4FRJZ4apVNwAAIKmo7B4ALwjF9UB0/Ut8UbrIL6iKfHNyVp4M4GqjEMI3/gpqNWeXKiVpTUb8AyA8J5FVl9IGpbcXwBfvkohTAKKiGEPOqxMb+keMlUnLN/1JJEypVqa+oXY2gB9MMpjoOj0RQDXWEA8nOC38DYDQyhFeY7WPnyaTFb5afQOAAGY0TADwpUggY0BFGpay4RNd1TpYbN8J498V/uN0r9v4WDOlWiUipqiGbDC2SMTt69IN/8y7Fyz1uLoVI2IMPKcByUkyN/8APq/zx+i8HqWaaMaya6qJ6UHDmHg9EUA1RoaHHcw1JQBOEYr8zhmAu7Xu+/8xvUIBkFK0bS9gZQGQ2WDIcFeMOvZOkSwVsQrGrzyWTZ/+A9uS/DULRQpSqpUqvSq13AJfDUCkkfbtqWfj3yOvk4hq1U49zY+OHUVGNABAjYNsdzvvhiqpQKVaI38lPwXjIdo8eVa2R7fMqkP6wa69D8DFQnF+su1Rr49KMFrBEim0AfAfyUUb3wVI5Gzo/fiefaOPHSWXpyINOXgGAIdhyr0TlkyoEylIqVZsVVbCvwkQ25v62eVjsPn8K6TiWp30dD+OO84nlkdAbsLyLR+LBSrVSk33umuJcJ9hTKITuFGkIBWRhqyoziFisTN2ifiu0pGJpVJ54U4bAD+SVLRpLjM9LxRHYJ63Nyv9NKE8FUEKJnm6Mni8YczGjhW8WKIepRRQmul6kphLpPLWT5iG3eknSMW1GkcdZeP0M8Qm/gOEZ5KKynSllFJCYqy9C2C4dZaBvIcmvpAoVJKKIINXVPdjguRsq7+VfurS2S8/og2AHyGAG/zR1zDjE6FIl8PCi7tHp3cRylORIkBTAUSZRBD4IbfXLbY+VikFVLpcEwH8SyIrEBWDNTMeQk3bDhJxrYIrgXHuoHo45K5O3k9qqJsklqaUwuR5k31gNr2hSotF/bUiBamIcY6ntisILwCIEwlk3kTRDaORTyLHvkcKbQD8TDvvhio7yr4EwA6JPAa6OBmrKsf21LOhFADg4UlFRwFsekH6ZYyjfJlIQUqpA9ZfRjW2ExcD+EYiry6lDV6/ay7qknW76+HExTLOl5z4D2x3+PyXkXe7DklVShi5EhcD2G4UYmF6foYnWqYiFe7OL6pq72D7DQAdhSLLA3BeWnpVarlQXsTQBsBBpC3dso2Ir4bUUEAg3Q7QS9+PPVnPhlKI8kfdAMDod4EIMyfPmyy3QVYpdcCbw13fgSgDQL1EXlX7Llh968Pwx8ZLxEUkpxMYNKQergSZm38Gam0LVyR4t34vEqiU+oncuRfXE/FMoxBG57QkHiNUkgpjFyxll99BLwHoKRQZYObMtVmxG4XyIoo2AH5F0vLNb4EheU5k/7hAzQoeMsQpmKnCzGPXexJAnGsUQvgGcQmLhEpSSh3Eanf8OgZPlsrb06MP3pp2H9hhOPczAlkWMGhwPdLS5FZoEjA55ZmyD8QClVK/kOivmQfDEwEYdEt+fr7ej7RiQ1axsy6mpgRAP6lMAvLXZCW8IpUXafQNdwjJxWWPE/FTgpGXVnbc/rhgngoz/joeA8BoLTCDZufOvVjkyaRS6tetyUx4mhmPSuV9e+rZePu6u8BEUpER4ayz6tG+veA4E8ac5KIy3SKlVJDtP4WITP9G9k755gSpo95UGOIdNU8QcIlYIMFb6o6/XywvAmkD4DASowJTAayTymPCtRUjjxU8blCFCwYTiMye/gO7fPW1T4oUpJQ6rN1W/E0gflMqb+u5v8WnV42Tigt7J57owzHd5G7+iVGalJh8i1igUuqQqK7+MQB7jTJsnipUjgozQzxVtwLIEYz8LAr114JIZj9ZhNIGwGHQkq11Dg5cBfBWqUwmfqhidE+9AmxlCq5deQmAPkYhxIUzll1TLVORUupwNripgfz21QA2S2V+7J6EzeddLhUXttLT/TjpZNFRJpvYHzOc5q3X+ShKNZPc5WMqGJhrGHN+YfZKPTa7lRm8omoCMz0gGLkz4HRc+po7bZ9gZkTSBkAjJBR/+QNZzgth2OH8EWKmRftG9cwSylNhgJjzDCOqAkyPiRSjlGq00lFJu5isYQB2SuQxEd6bdCu2DJFb8Rhuevb0o19/qTm7AIAdtu28INm7YY9kqFLq8Cwbj4JgdNoGw/gaSYWRwSU1I0G0AIDUnrhqm3Hh2uGxW4TyIpo2ABop6ZkvvrAYV0HuZAALoKX7RvXQfU+twJyclSeD8RujEOLF0xe69eJWqRawxh33JWxrOIROBmAivDv5dnzdf4hEXFg5umsA/fqLPqSvJ+KrU1d8vlUyVCnVOLmL3TsBetoshUc+Nt7TQaYiFcqGeqovAfhpyN2HBixC5ptZLh382kjaADgCicVlqwm4XjAyimGtrBjT61zBTBWCLOYbDSP8tt+eJVKMUqpJVo+Me5OIfyeVx5aFdVPyseP406UiQ16HjgEMGFAvuT2TmXhc0vLNb0kFKqWOnG1bMwGYDPSI9jvl/r6q0DSopHaQzfACiJLKJPCtq9yuv0rltQbaADhCSUVlC8GYI5VHQBzb9kvlY9JbzxVgK/PwpKKjmMzOuSXg2WlLRm4VKkkp1USl7oQlAP1JKi8QHYM1t8zEnh5m40HCQVqbAM49px6W6JUH35+yfHOJZKJS6shNWzR8CwMvGIUwXb94/OJYoZJUiBnqqe5LsF8CECcWyniiNDPhYbG8VkIbAE2Q9F2XGQBeFoxMRgAvlo/t3V0wU4WIqIBjPNjsj51tW7OFylFKGWpHcbcDeFEqzxcXjzW3zERVh6OlIkNOYqKNwYMb4BR75rO/MZrUa/PdcolKKRPEML1WabvPGT9CpBgVUs55tq6HzXgRQJJcKr2xy4rXEySaQBsATUClpf4kX91wAGJLDonQ2QoE1pSP6tVDKlO1vPz8fAsg0yVta6cuHvGOSEFKKWNeNwV2UXwGE70ulVmb2gav/uFJVHQ+RioyZCQnMX4zrB6xsaKnMr2amJA8kvJhS4YqpZoub5F7LYC3TTLIpuuEylEh4rwVdT0d/sAaAJ0EY9+uio+7bIObRKfJthbaAGgi8m6vJafzCgCfS2Uy0IVgr9qbdVw3qUzVslK397kQQE+jEIbu/VcqxGxwU0M06oaD8JFUZl1yGlbdUYiq9p2lIltcQgJj6Hl10jf///ITRuhxf0qFIGazVQCEAQU5nr5C1agWNshT2z1AgVUA5D7YmDfZZF++/jKqEctsZbQBYCBp6ee7bdt5EQjfC8Z2tSz/q9VZvSW7ZKqlmHeyv+xYKbfUWCkl5zV32j4H6GIAX0tl1rRphzd+/yiq23aUimwxLhfj/PPrEBcvevP/ldN2XNJmeVmFZKhSSsberu2eI8O/icQ0Waoe1XLO89R0JrZfBSC5v22HA86L3nQnihzL21ppA8BQ6orPtzpgXwBgn2Bsut8KrKoe0yf8rwBbsdnji7uBYHjMIz3p9rpNpuoqpYLoDXf8N1bAvgjAXqnM6qM64I07C1CTepRUZLOLi9v/5D/eJXrzv9ciXOxa8cW3kqFKKTn5+UP9NvOTJhkMHvXUJE+yVE2q+Z37bHXHgG2vgukq2J+qBuPSN7JiNwtmtkraABCQsHzLx8QYC8AvGNvLb/v+snd8txTBTNWMHE7ntTB7j1VHRTfMl6pHKRUcq0YlbiDiUQDElqRXdTgaq2+bhfoEwXlJzSQmBhgytB6JiaI3/w0My524vOxTyVCllDy/MzAPhFqDCFdtAGPFClLNasjze1MsP/4ComMFY20GTVyd5XpPMLPV0gaAkKTispeIOAeA5BXP6VZD1Cvlo7qmCmaqZpCf4Ylm5myzFC6+/onRYk8VlVLBU+pO+DsTjwfkhtKVH3MsVt01F/WJ4fMgLCZm/5P/lBTR2XwBZoxNKdr4mmSoUio4bp43aheYik0yCLiewSRVk2oeZ3v2pbEv+lUAosebE1Hemsx4j2Rma6YNAEFJyzc/TaCJEG0CcD9C9D91JkB4SUnkywC0N8kgOB4XKkcp1QzWuBOKmHkCBD8D9nbrhVf/MA+1aW2lIoMmLp4x7IJ6pKaK3vzbYIxPKS7TCz+lwgmx6TVMnzkTvWeJ1KKaxcDi6k7RdtRbYJwhmUvEt5W64x+VzGzttAEgLKlo0xJm3C4ce5zfCqzaPTq9i3CuChYio6f/BKzLXTjiQ6lylFLNY01WwlIw5UlmVnbqilf/8BSq2oVuHzghgTFsWB0SE4VP5SPkJheXPSMbqpQKtrwF7vUAjI4wtiwYrqRUzWVQcc3RTotXgfg40WCmmaXuhAdFM5U2AIIhpbjsQWb+k3BsLyfzm+WjevUQzlXCCiZ5uhLwW5MM27xzrpRqIauz4ucycJ9kZnXbjnjj7sdQ1UFymLKMxMT90/5dsgP/ACA/eXnZY9KhSqnmwk+YvRxZhaOfCb9BKK3MeSvqehLxmwD1kswlxsLVmXH/J5mp9tMGQJAkF2++lUDzZFOpG8FetW9Mz3TZXCXK5nEwe2/ttOISvVLlKKWa35pM112A4XnYP1N9VAe8es8T2Nelm2SskeRkG+cPE5/2D2Y8klxUdo9oqFKqWQUqyANgj0GEi2Nj3FL1KHmDVtYdG6DAKhCOEY5e2daKnwwi8c6y0gZA0BDAid92voGZnheO7gqbXts3qofkZE0lhMEEpglmKfRM7tyL62UqUkq1lHbkmgGw6N71upQ2KL19Dio6S19rHbnkZBtDhtYjLlb8+qwouXfZLdKhSqnmNd3rrmUmsy08++eqqBA01FPRmwKB1wBIL01bWxUfP87rJj0GO0i0ARBEVFrqT/ZvygBohXD0MYD1TsXI9LOFc5WhOTkrBwPobhDBlkN65YhSqiV43RRoR65RBFoumVvTpj1evXcBdvU+WTL2iLRtG8CwYfWIjxe/+V+W1KtsLOXLnaaglGo5bAWeNAogDJids6KPUDlKyKDimgE2O9YB6CoaTFRaFR//2/WXUY1orvoJbQAEGXkRSEpIuoaBPwtHpzLh1fLR6RcI5yoDDtimneo3p8wb8blIMUqpFud1U6AtxY0D2OhIrJ9rcCVg1R0F+PbU5u8Dd+oUwNChDYiKFr/5X57kK5ugN/9KRY5pC7I+A+OfJhnEjnFS9ShzQzxVF5LFrwAQPqac18TUxV2qN//Bpw2AZkDz1vuSE5LdYLwoHO0ixkvlo9IzhHNVEzx2vSeBma42yWCmhVL1KKVCw39WAowl5hLJXH9MLNbOeAhfDfiNZOwh9egRwLmD6+FwSt/804okX9k48kKXfCoVYRhYZPJ6Ih7jyfA4pOpRTTeopMbNTC8AcEnmMuGdOl/9Za9cQ9WSuergtAHQTGjeel+SPyYDwF+Eo6MJKC4f3fNa4Vx1hPz1uApAgkFEhV3JOvxPqQjkdVOgcp9rLCDbCA44o7Au9x6UDbtKMvagjjvOjzPPqodF4tEvJCUkXaM3/0pFpqhYlACoanIAo/O3yThPriLVFIM91ZMIXAQgWjj6vWjU//adMW0qhHPVr9AGQDMi74aGWkd8FgOrhaMdxPTkvpE9pwjnqiMzxuTFDC6e7nXXShWjlAot6yeTr4His5jodclcJgvvZ8/AZ5eOlIz9ieOP9+O00xuCkMyvJUX7s2jeel8QwpVSIeCGx91VABkNRLXARtdYysyQFTVTwXgSgPRKjE99Ufalr7nT9gnnqkPQBkAz67Dso+rkvfgt5FcCWCAq3DcqfS5niL851WE8Nt7TAcD5JhnM9LRQOUqpELXOTbXVcXGXA3hNMpeJ8K+xufhgXB6Y5D7aLQs486x6nHKq/M0/A39O8sVeQku21omHK6VCCsM2usZhpquemvRSvFQ9qpHy2Rq8ouoRJp4NQHr91yfOAJ/3z6sTdwjnqsPQBkALoJfL6pN8McODMBMAAG7cF5W+kjO6xAUhW/2KgJPdMOmKMj6ftsi9Tq4ipVSoWn8Z1eyi+EsgPxwWX1ychTdnPAR/TKxxljMKGDykDj16yK/MZ6bnk30xmeTdEIxlBUqpEJO30P0mgM0GEYl1/ppLpepRh9f3JY4fdHzNcyCaHoT4tym64dzXRyX8EIRsdRjaAGgh5N3Q8J+ZAC+IZwNXVkTHrqrMSG8rna0OjpnM1t5aMDsnVykVVja4qaGqPN4NwnPS2d/0PQdv3P046pKbPqA5NpZx/vl16NBBfiA/Ac8mJybpzb9SrQiBGMRG1zpEhtdaqtEGPFfZLqGmZhUxrpBPp1Ux9fG/Kb0qtVw+WzWGNgBaEHk3NCT5YtxBOCIQYJxpR2HdvjE908Wz1U8UjF95LICzDCICBIcu/1eqlVk/mXztEO8GU5F09u6effDqvfNR0fHIj2hOSmJccEEd0tKCcBof4ZlEX1mm7vlXqvWx/fYSAE0+QoSBi2dle9LkKlIHM2hl3bFRDdY6AP2DEP9aVXzcpTrtv2VpA6CFkXdDQ/JeZIH4r0GI7wmb3tgzsvvJQchW/+XgESYvJ+DN3AXDt0uVo5QKH143BXZZcROY5FeDVbXvjDfufgx7u/Vq9GvS0myc95s6uBKkj/nb/+Q/yZU8Uaf9K9U6TVsycisD//x/9u48vMrq3Bv/936enWlnRAYVcSIBFBwQnJEkKLbFqbWaDQnaOrRw2h6x49Fzzns0bX9vj7y2deh0xDpUJWRQW8WpVSSAihMiVlQg4ICigphkJ9mZ9l73748EDyIIPMMev5/rytUa9lrrbiVZ67mfte7lootsW8SHN9K0Q2Vj50SJxZohGO155yLNIsELV50vEc/7pv3CBEASkMdbeov6cr+pUM+3ggI41Bb7mfZZY871oW8CAOhMV60hC72KhIhSz9qQ9HW1BqsAdVUle3e6hwzDU7/4H3xwYvleP3vooTFMn96LvFzvH/4B1BVuGcVq/0QZzhK4W/OozvIoFNpFeWPXBaqyAsBIH7p/ojMv79zmkDi/DpI8wwRAkpCmtX3FdRsvBnCTD90XwtLF7TVltT70ndF+N+f+owAc76KLXhML3O9VPESUmlbNlf5lofxZCvm1131Hc/Kw4qc3YE3N96HyxSLOIsDEiX04Y2ov7ID3D/+q+v+K6loukebmqOedE1FK6bOiTQDcJALPuvXyRta48pKqVDZ01YribwAKvO5eFHeMkOB5fPOfPJgASCICaHFdy48VuNaf7nF9e82YRXrZEe7LQxMAwMT0QpddPPGjuy9kERQiAkR0+czgzxTq+RygInjj65fiuat/iVh2zmffD9iKKVN6cfR4X57NVYFrSxZtvEZcnPslovTx0wU1n6i7a1BtI7jAs4Ay3GmNmlfZ0LVIgevh/TV/UMivm2cGv9sUEh79SiJMACShkrqW+RD8KwAfKjDprHB/YEnHpaUjvO87E+lF7tpLvTdxEFG6WD6zYD4E34cPc8B7p52FJdf9Hj3FByAvV3Hm9F4cepgv67KoiF5eUtcy34/OiSh1CbTBZQcu114EDFT6z9bIEhVxdZR1TxR67fKZwZ9BhAngJMMEQJIqXtjyB4V+D/ChWJLidGOkOTxz9L5XhqIvuOmKB0YDmOyii85cO/dhr+IhovSxLJT/J6h+Bz7MAdvHHIOnf/knHHXxwRg61Ic8MxAFcEXRwo283YSIvkB6+v8KQbfj9sD0P35vofN7TgmV94ePyuq3lwM4zYfuFSI/WT6zgAngJMUEQBIrqdu4QIFqAL2ed644Wm3rxfDsMed53neGsBD7hrse9JG5C87neSgi2q1lswruEuBiwPlCeU/aDzwM189YiOcPPtPrriOi+GZxXcu9XndMROlh3sJLwgCecNFFVn9fFtevDk2r7/q6xuwXAB3nQ/dREb1iWSj4Wx/6Jo8wAZDkSupamgCrHMBWH7ovVtWHwzVlN2gVbB/6T28CVwkAEavJq1CIKD01z8z/mxiUA/jY6767A0H86uSb8Ifj/wtRCbjuT4D3bTGnFi1qWexBeESUxgTqag2kcLcGy0STb9Osivqu24zgbwCKfBiiDTBfaQ4V3O1D3+QhJgBSQHHd+hcV1mkA1vvQvShwTTir7NH2qgkH+NB/Wrr5O3UHApjioouuaLs+7lU8RJS+mqvzX1axTgNknR/9//2Ii3HdlAVoyxnqvBPBmzETmFqwcNM/vYuMiNJVt8l9BECP0/YCfO3GS+/J9zCktHb6gx0j8ku6noRgjk9DvGfFzBnLZhYu9al/8hATACmipG79JgkETofgOZ+G+Cqyele31ZS6OdOeOYx9AVz8/Ajw2I+bQp5v6yWi9LQ8lPd2n/SfDuAZP/p/fehk/KhiETaUHLPfbRVYrto3ZUj9W+94HxkRpaNr7vx6hwD/cNFFMCcn76ueBZTGKuq7Tsrqt14WSIUvAwhWmwBOXVpTuNaX/slzTACkkKJ73toeBWYA6ub6lC9zmECWtlWXhXzqP22IyPnuOtC/ehQKEWWIlaHiT0WCMyDwZffQ9rwD8Z9TbseyUTP2p9niSEFkRknde61+xEREaUzhai2kinO9CiVdVTREqiF4GsChPg3xTB+i01dclP+hT/2TD5gASDFDF7aEi/pzz4WKX9WVC0XQ0D57zK1aNSHbpzFS2m1zFgchmO6ii74cSx7zLCAiyhjNIemU4cELAPzZj/57AkH8ZvIN+OPx/wf99l6ngD8V9bdcOHLBFhYzJaL9FhU8jIFbQxxR1fNqa2v5LLMbMx7TnIr6rj8CWgegwKdh7pdI8OyVoeJPfeqffMIfmhQkTWv7ihdtuEyhc+HiF+eXUr0qnNX7QvslpWW+9J/CemORs6DIc9HF03MXhNo9C4iIMkrzNIkum5n/XQjmAuj3Y4wnjqjC1RVNeK+wdHd/3C+K7xbXtXxfmny4qpaIMsKP7wh9qorlTtuLYMQBm8ef6GVM6WBaXceESEdkNQTf82kIVei1y0LBUPPl4riOAyUOEwAprKRu4wIA5wHw62FyIoy8wiMBu7Jcbv93t+WNiAgAloXyF0D0XABtfvT/fuER+Gn5fVhxyOeOBLSqmBlFi1p82YFARBnG5ZpIVXgd4E4q6yOzjG2vBHC0T0N0Q2Xm8pkF8yGiPo1BPmMCIMUV17X8XaFnAdji0xCFIqgPzy77b62sdH9PVIpTqCjUzWRjFNGHPAuIiDLaslDBkyI6TaDv+9F/TyCIX0/+b9x1zE8QlcC7lq3lJQs3LfFjLCLKPKYffwXg/EFSXK3J0sbk2zSrvCFyo4rWAVro0zBtltHzl80K8hrrFCeJDoC8Ea4eO8yIeUCAch+HeUViprqoYZMf1xGmhJsur59kWdYqxx0oXrr6ztAN/9I/AAAgAElEQVTJHoZERBnu0+ojj+vMG940/8Qbx74+1L/dsLbG1kUtq2p5qIBX/RGRZ265snE1gIkOm6ulsVFX3Vnt14uwpFfe2HmsGFkEwQQfh3kzFrDPe+ai3E0+jkFxwh0AaaJo0fpPeuzgOaK438dhJqltvdg2u3Smj2MkNcu29qs89hc7UBb/IyLPhGeXftsW+9nink/HXr/yB5j6gS8XBAAAYmKPE5Vnyus7Z/s2CBFlokddtJUYbHdrsxRWXt85W1Se8fPhX4FnjZgKPvynDyYA0shB977WVbSopWqwOKAvhaEAFItKfbi6rKn1siNKfBojeSlc3TlrYvqwV6EQUeZqr5pwQFtN2V9V5W4MVnjOifXgZy9fix+s+SUC6k99WABFInJfRWPXA2csbBvi1yBElDlEzCOu2gNf8yqWVHHGwrYhFY1dD4jIfQCK/BpHIPMPlGDFilDhNr/GoPjjEYA01T5rzLmw9D4Afj6kv2Ug1UPqNrzq4xhJ49bZ9xVpbvZ2AM5qIQg+mPfnqkMFLJpCRM6114w9GTB1AHZboh8AVo84Hb+ePB8d2b6tCwHVDZYl1UtD+c6PRRFRxqutrbVK3hv/oQhGOOyi9eAwhoeaQhlxK8m0xq7JRrUOkLE+DtMHwVXLQvkLfByDEoQ7ANJUcf2GR6NGjwPwso/DHGVBXwrXlN2gVRP2emF0qjPBnHI4ffgf8AQf/onIKZ1RltNeU3oLYFbiSx7+AeCErc/h1uaLMabtdf8CEhljFM9XNkRumPGY5vg3EBGls9raWiOCv7voYshHRZjsWUBJakKjZlc2RG4wiud9fvh/R0RP4cN/+mICII0Nrd+4uSg7OhXAPT4OE1Dgmo6svpdaa8Y4LeCSGmI421V74+qMGxFlsLZLyiaFh2AVIPOwj3P30O6P8d8rrsBZ7/l68iig0GsiHZGXyxd1neDnQESUzsRljST5ijdxJKfyRV0nDNPIKoVeA3cvo/ZCnpZY7KTmUEFG7O7NVEwApDm5+52eorqWy6C4HoDxaxyFHmdBn22fXfYDTdOjJSI63UXz3kAunvQsGCLKCFoLK1xd9mMxeBbY/yJP2aYX8169Dt9641ZY6uvu2GPEwrPljZGrUatcWxDRfsnK7vs7AMfFSxTq7iVNslKViobIPLHwDIBj/B0LC4KFeec01xR94us4lHBp+aBGu9dRM6bcwNQDcrDPQ60EzLeL6zZt8HmcuLlpzgMHW7HYB3D+M7P86jtCFV7GRETpLVw99igV8xcAnlwd+sbQSbjxxP+H7bnDvehuj1Twgo3Yt5eGitb5OhARpZVbrmx8HsApDpv39vX1DP3Zvd/q8jKmRDqjvmesLbG/ADjV56HaBLi8eWb+33weh5IEs/QZpLBuw3IDcxr8rQsAAKcB1kvh6rLvpMtuACsWmw4X/1sEWOJhOESUxhSQ9uqy76uYF+HRwz8AjN/+Cn69fDbGtb7mVZe7JYpTjNovVjZ0/QtU02IOICL/iYibtVJOdk5OerxoUZWKxq45tsRegu8P/7JO1Ezlw39mYQIgwwype/vdoi2jThNgvs9DFavg9vDssmc6Zo452uexfKfAmW7ax5Tb/4lo71pnlZ0Qril7BYI/ACj0uv+h3R/jhmcuw8UtdysAP4uSFinwp4rGyHNTGzvG+zgOEaWLmP7DVXuVszyKJGGmNnaMr2iMPAvFbfDxer9Bf5ZI3sTmWYU+VoulZMQEQAaS5uZoUV3LtaJ6IYB2XwdTnG5sfaW9pqxW50zO8nUsHwngJqvc3n7Y8Jc8C4aI0o5WTcgO15TdYFl4AYCvBVVtE2v99hs3X6CCbwBo83MsAKdaar1a2RC5YUKjpv1tMUTk3KedWAnA8RZ+Bco9DCeudlT4t9R6FcBpPg8XUdVvL5uZ/93my6XH57EoCXFrXobrnD362Jhai+CguNR+EzwnxrqyaNH6t3wfy0O3zGk8DDG866KLxVffEbrAs4CIKK0M/B627wD0pDgM94pYdk3RfevWAQNvmyy16gAc7/fAKnjBjporl9YUrvV7LCJKTbde0fiECr7qsHlMevoOmLfwkrCnQfls8PfwHfD/rD8AtBiR2StCwRfjMBYlKe4AyHAFCzf9s6i/5yQI/gh/t4MCitNVzOr26rLrdEZZytwZLVGZ6rILnv8noi/YMmdksH32mP8vptbLcXj4V4X8uqg/57QdD/8AsCJU+IZEgqcCeit8ngNEcYqxrVUV9V0/P61R8/wci4hSlps1k6252ad7FonPKu/S3Ir6rp9bar2C+Dz83xPNjUziwz8xAUCQpve7ixe2/EDFnA1gi8/D5ULw8/YSbGyrKavyeSxviKvt/wAMEwBE9DntNaXfyu/Ma4HqfwLwe2v8JghOL6nb8DNpWtu36x82Xy49y2YWXA2YswB84HMsORBcl62RlvL6zm/5PBYRpZiYulszibh+aRMX5fWd39JgZCME1wHw+6XYdgEuXDYz/9vPfn14h89jUQpgAoA+U7Jw0xKrHxMBLPZ7LBEcIkBje03Z4tZZRx3h93huKPQMF823zbtjJre7EhGAgav9wjVlTwPylzhcyQqILor1m0nFC1ue39tHl80sXCrZfceIaoPvcQEjReQv5Y2Rp6Y1hsfFYTwiSgGHdFpr4KI2iaqrNZvvyhu7jyxv6HpERP4CYKTf4ynw90BMJ7DKP+2MNQDoC7QWVse6MT9R0V/C/6wkAIQBua5oyyF/kObmaBzG22e/u2LRSCO24zdiCjz4wztCF3kZExGlHp0zOaujK/wjVb0OQL7v4wHdAv23orqNf5D93dqvKhWN3T8E9FcAcv2J8HM6FVprjci/pXmaJNUcQETxd8sVjYshOM9h895YGEN+3BTq9jQolyqXakC3dc+D6s8BFMRhyCgUv5IDg7/k71XaFXcA0BdILUzRog03Gss6RRXxuBqkCNCbOw5+/+WO6rKkusM1BstVJVZRPOtVLESUmtqqx5wd7mx/VVXnIw4P/wBW2TGZXFy38ff7/fAPACK6bGbwJlFzEoA13of3BQUC+bVujawub+xwdeUqEaUBy9XaKccqiktB1X1W3thxpm6NrIbqbxCfh/8WiJQvm5V/PR/+aXeYAKA9GnLf+jXFH446QYFrAfT7PZ4KjjeC5vaa0ic7Zo452u/x9oWIuCsmY2GZR6EQUYrpuLT0mHBN2RIR/QeA8XEYsk+Ba4v6W04pbNjwptvOmmcVvi4jgicq9FoAX6gd4INjRK0lFQ1dT06r6/D/ZhoiSkrGuFs7CawpXsXixrS6jgkVDV1PilpLABwThyGNQOZLJHjsslBwZRzGoxQVSHQAlNwGt+TPb581phmW3gNgbBxGnW5sXdNeU/qnqMh/DV3YkrjrXBSnujgo03FwO171MBoiSgHh6rHDIPp/TUyvQJzmWYG8ZknskoKFm/7pZb+Db4/mV9R3PQ2RewGNx3n96ca2Vlc0dP4pS/queyp0QHscxiSiJBEMtL7cExsSARB00l6g8aiov0fTGz8t7tfsXxjI9wBkxWnY9y2jly2tzmfhador7gCgfVJcv+GFWL85GYL74jRkFiDzAorXEnVbQG1VYzYEk1x0sTLUFIp5FhARJTUFpL267BIVs0ahcxCnh38F/tzTnz3F64f/nS2blf9ST3/3yQDu8muMXWQBMq9fc16vaIhUQ5U1i4gyxNwFc/sFcHxVndG4XKn3RapS0RCp7tec1wGZhzg9/Kvgof4sM3lpdQEf/mmfMAFA++yApk3txQtbLlXBVwG8G6dhDx+8LeDl1prSaXEaEwBQUmKOh4sCWAJZ4WE4RJTEwrPHnBeeXbYWgnsRh8rOA3SdqJlaUtfy3RFNazv9Hu2FS4aGl83MvwLGKgd0vd/jDRoFaF1FY+T1aY1d58ZpTCJKMFXnaygRjLjpigdGexnP3pQ3dJ1T0Rh5HdA6AKPiNOwHAC5YHsr/xnPfLNwapzEpDTABQPutZGHLP7oKIuMFmA/AxGnYyRbk6faa0ic7Z48+Nh4DisrJrtqLPudVLESUnFprxkxsryl9UlUXQxGv2iUxAeYX9feeULRo0zNxGvMzy6rzVvRJ/kSBzAcQr11O443ikYqGrien1nUeF6cxiShRXK6hLDGu1nD7ampd53EVDV1PCvAo4lPrBQAUigWS3XfMspn5vl/dTemHNQDIkZELtkQAXBueVfqwWnIHgKPiM7JMj6m8Eq4Zc6fV3399QdM7H/k4mJsbAGJWtvPta0SU3Fprjjzchn2jQi8CJJ7J9NUGcsWQug0JrS+yMiTdAK6taIw8BNU7gLglP6ZbtqyuqI8sNFl6zYqL8j+M07hEFEe5Nlb2xGDg9GWlmNMB1Hsa1E6mPtB1sNUv8yE6G/F9ofqeiM5tnlnwRBzHpDTDHQDkSlH9xud6+3NOAvB7xG83QEChc2JZgbXhmtKfatWoPF9GUXFzhuzNH/wx5PuWXCKKr61VEwraasr+w4K9RoEqxG8ejanojUX9PVMS/fC/s2Wh4MrOYPBEhd6M+M0BFkQvtaJ4o7yh85qv3KPxuFqRiOJo7oJQO4ANjjswrtZwezR5sQbLGzqvsaJ4A6KXIp7PUoq7Y9H+ic0hPvyTOyyqQ54Jzy6doioLEL8tUDtsgeBXRX05t0vTWk+uqvrj9xYO6e/L2g6HPyMK3P3DO0KXexELESWeXnZEbrg/8C9Q/DuAEXEe/lU15rsl9ZtejvO4+6WyPnKqii4AEJdjWjv5CJD/Dhbm3fb4OdIb57GJyCe3XNl0L6CXOGzeJ8GConm/O8eT3wkzHtOcSEf3XED/HcBBXvS5zxSbFPq95bMK/hHXcSltcQcAeaZo4cZni7aMOh6QHwKI59vvkVD8PpzV+35bTdk1etkRjgv37dDflz0JLhJkFuR5tzEQUeJp1ai8tpqya8J9gc1Q3IT4PvyHFTq3qK5lUrI//ANA86zg88veDE6EYC4gHXEc+iBAb4l0RN4vb+i8pvIudT0HEFESEONmLZWt3Z3HuA2h8i7NLW/ovCbSEdkM6C2I78N/r0Kv7WwPHsWHf/ISEwDkKWlujhbXbbhFLPtEBZbFefjhAtwQ7gusaZ89pkZr3fz9Nie4C0V4/p8ohWllZSA8u/Tb4azctQLcAGBYnEP4u8I6oaRu4wIBNM5jO1crZlkof4GINUlF4n0l1TCB3KDByOsVjZ2XVjWqHefxichDKupuLaXieC1X1ah2ZUPnJRqM/FMgNwAY7iqW/SV4WURPXT6zYP6qudIf17Ep7TEBQL4oum/dupK6lkoFQgDifTXJWKguDK8v29ReM+ZqZzsCnE8aACKfHjrUt/u4icg/WjUqr71mzNXhke9vUpW7ARwZ5xA2i+KC4rqWr5XUrd8U57E90xzKbVkeCk4HcAGA9+M8fClU7tmqkU3ljZGruSOAKDW1tVlrAPQ472H/X+ZU3qW55Y2Rq7dqZJNC7gVQ5nx8R7ar6reXVQVPbg4VJE29F0ovTACQr0rqWposW49V4C7Er0DUDocDenO4L/BauGbMZVpZuc+3XghwvNNBBVhTWzst6rQ9EcWfVk3Ibptd+t1wVu5aDBS0OzTOIcQA/R8JBE4oWtSSNtc6LZuZv1hisRMA3I74zwGHierNGoy8Xt7QdcXk2zQrzuMTkQu1TaE+AK85ba+QfV7LTb5Ns8obuq7QYOR1Ub0ZwGFOx3Xh/phYk5bPKrgHIqmz84tSDosAUtyEq8cepWJuBvDVBIXwsQI3Fff33CpN73fv6UM3XnpPfnZ2bjsAR9tHBfj9vDtCVzmOkojiZvvssqKA4scAvo94b/HcQfRRieqPixo2rU/I+HEyrTE8zsC+CYoZCQphq0J/2xXM/92q8yWSoBiIaD/ccmXjHwF8z2HzroPDKA41hWJ7+sDkxRrMj3RdJZAfI/4FXndYKQbzmqvzk77WC6UH7gCguClatP6torqWGQC+BWBLAkI4UIAbwlm5b4Wry3687Ypxhbv7UE5O9rFw+PAPAApZ4zhCIoqL1suOKGmrKbsmoHgTwPVIzMP/e6qYWbxw43np/vAPAEtDReuWVQXP1YF7s+N9LAAARgjkhoJIZF1lQ+dPT7lve1ECYiCi/SDu1lT5HxSbsbv7g1Pu215U2dD504JIZN3gGf9EPPx/qsC/yohgOR/+KZ6YAKC4EkCL61ruLervKVPgWsT3toAdDlPBb7J7Yh+Ga8bcFp45epfJwXJVANBS4ZktoiQVrh57VHtN2T1WX+CjweJ+IxMRBiA/LCooLitZ1NKYgPETR0SXhwrqPpFgqYr8MM63BewwSiE35mblbq2oj9wzrTE8LgExENG+kJirlyqWfn5NN60xPK6iPnJPblbuVoXcCGCUq/ic6RXg5zm9wcOWz8z/Q/M04bFRiqt9PhNN5KXBLfjz22aW3W/ZmK/ARQkII1+hc2Bbl7XVlC20Fb8pXNSyVlWPcXE6JtbfYdZ6GSQRuddaM2aiBf2pwoQAJOosuEK0PmbrtQfcs+m9BMWQFNaGpA/ALeWN3Q+LmhsAqUL8jyXmQPRSo/asioauRSamv1lRU+D4vDERec/Otl6P9sLA6UtLxbEAMLWu8zjLlp8YRTUkofVAnlTRnywLFbBYNCUMawBQUghfMnaqGvNbACcmMAyF4O/1Of8xqkcKHN0dK8DaeXeEXN87S0TuaS2sjpay89TIPEDPSnA4K2HkR8X1G15IcBxJqXxR5HTY+ltRnJLAMBTAU5bglqVvBB9HrcS7aCER7cYtVzauA7Dbrfx705Ob++JjFWe1QXE2Evvc86Yl+NnSUP6jCYyBCAB3AFCSKLpv/QoAJ4Wry85XwU0AShMQhkDxNRXnJ2NUlNv/iRIsXD12mIr51/AGzIXioIHnuoRZq7B+WFK3/qlEBpHsllcHnwNwakVD1/kAfov4X70FDDwcnG0UZ1ccHflQGroWIBb7fXNN0ScJiIWIdhB5FaqOEgAxyzo5sVMAPlTVa5e/lX8fk4qULFgDgJJK0aKWxV0FkeOguB5AV7zH75EC9CLouL0YFgAkSpTwzNFj22vKfqdiNgG4fuDhP3HhqOLfi7KjJ/Lhf98tm5m/uE+CxwH4zwTVB9jhYAWuVzuwqaKh69by+3vGJDAWooymxjheWwUj3bBjCTli3yeQ30h23/jlswru4cM/JRPuAKCkM3LBlgiAX3RWH3lbzAr8J1TnAsiOx9ht4q4IrFrK8/9EcaRVE7Lbs3svEMUcBaYj8UfbelTxBwvWDcWL1vPNsQMrQ9IN4FdTGztuF5X/EMj3AOQkJhotBHCVxGI/KG/oetKG3B5uy3t41VzpT0w8RJlHLGst1NlrfIGiIBJBe2HcLv2IAVgoxrq+uTrvnXgNSrQ/Er1QItqrjqqy4ZqFnyjwQ/i8CHwrcCqez7rAcXsb9hH/esdF73oYEhHtRuslY4+3jX5foTMBFCc6HgA9AtwCtX5dxAd/T1XWhYfBDvxUoVcDyE10PADaoWgwRv/AooFE/vvtlY1lNrDBafuXjp2IzQcf4mVIuxOD4g47y/rV0xflcR1ISY0JAEoZHbPLxsdUfymQC+HT392VWV/HuoDjGlRd8+6oKhRIYk+bEaUpnVGWEx6iFwrkuwpMQ3LMYQaQRiB2XXHdJscLVNq7aY3hcQb2L6G4GEnz7x5PQ2VBsCjv4cfPkd5EB0SUjhqrGu0Pi9AJhwnAdUeWYu2YozyO6nOeMiL/uSIUfNHPQYi8kgwTKNF+aZ89+iTA+gUUX/O67ydyvoOPrNGO2hZo27aLIzeezyrfRN5RQDpml54Otb6l0CoAQxId0yAF8IiBXDekbgOLf8bR1PquSSL4hQDnJjqWnXwKRQMsuXdZKLgy0cEQpZOKxshpM5YteSSvp/sAJ+0/HHEQVk6c7HVYUOBZiLlueajwac87J/IREwCUsjouLT1GY3Kdwru3QY25/46IFDpqOzq2BuV9DRDgfYU+aCz7ziH3rWdRQCIHWmeVnWBZehkgFwMYmeh4dhIDUGcJbihc2PJGooPJZNPqOiYYy74GojUA7ETHs5MPAH1ABHc1hwqYHCJyoLKxc6IqLgfkIgCHnLLmFRzy8YeO+urIz8eTUyq9Ck0heBSQXzHZR6mKCQBKee2zy07FQMVvVzsC+pGDhXnXO24/KfokjutfuvO3VIEVgC6U/tz7i5vWfuomPqJ0F64eO0xhQrAwG4rTkFxzlAJ4RKE/L6nbuCrRwdD/qqjvOkkF1yfZjgBg4O/MswIstLNiTUu+WbQ90QERJbOzHgwPjfXbVQrMBjAFO80BR29cj6M3OjtlZSwLD531Nai4nlKeUli/XD4zb7nbjogSKZkWV0SuuE0EtMpBeCh3nuPxp/UtxOGxPV4C0AfFE2ppXXFf78PS9H6344GI0sjWqgkFOVm9XwekBtCzAWQlOqZd8ME/RSRxIgAA+iH4O1TqOoN5D606XyKJDogoGXzlHs3vzem+AKI1UHwVe5gDRn20BSe/ttrxOE9MnYZInsNrngWPA/JLvvGndMEEAKWdtprSyRbkGgW+if3YFvquPQFLs2c7HvfrvbdgiPl4Xz7aAeBvUK0rKixZIgtW8Topyig6oyynowRfUUurofJ1AA5XZb6KAmgwlnUjj/KklvJFXSeIpf8GSBWS62jADp0CechA67ZL8Km1IelLdEBE8TShUbNHIHK2qlQr9BsA8vfWprgjjLNWrnA85ooTT8W2A4buTxMD4EGj+O8Vs/JfcTwwURJiAoDSVmfVEQfFsgL/goHrA/d6Tdg/syqwKvBVR2MJFJd0Xw8b0f1qp0C3AEsUujig5qGCRW/vUwaBKNV0XXL0wVETDQHmPEDOQHJc57Y7rQButTX2J/48praz6joPjNnyPQWuBlCS6Hj2oBuCJQAWC/Th5lDBR4kOiMgPlY2dBynkAgDnQzEd+zkHBGJRnP/03x3fs7T66GPw9qGH78tHI4D+2Q7Yv+V1fpSumACgtLd9dllRQOVywFwDyMF7+txzWRdifeAkR2MEtR2hnvmOYxwUA/C8AoutmPlrUcOm9W47JEqkcPXYo1TMLADnATgBgJXgkPZIFR+IyI19udadw+9c15HoeMg7p9y3vSgnO+9yUf03JFdByV0ZBVYCutgW87eloaJ1iQ6IyI1pjeFxMbW+Acj5ApwGl3PAuc1PIafP2W2bG44YjX+OPfrLPtImwC0xMX9YESrc5mgQohTBBABljG1XjCvM7ol9B8BVAI7c9c/dXAF4kHkbX+u93WWEn2MAWQXoY4D1WNHY9S9LLYyXAxB5TatgdwTKTlbRcwA5BwMP/ck+z2yA4JZuK3j3Qfe+1pXoYMg/lY1aoNp9BaDzAJQmOp69UACvAHjMMvLo0nV5L6FWOAdQcqtVa9q47pOMpedCMAOKyfBwDqh88Tkc0NbqqO2XXAX4IQT/Y2D+xAd/yhTJvjAj8pwC0l4z9iyBuRoDxaIEAJpy/w1d4myX6JjoKkzpf8DDKL+gC8BShS7ODtiPBu9Z/4GfgxHtq+2zy0bZqucI5HwAZyI5z/PvKibAg1Bza9GiTc8kOhiKv8rG7jMU5hro/84BSa4LgqUAFtuQR58OBTkHUFKofCAySmN6Dga29k/DPpznd+rEf67GYR9ucdS2vbAQS04r3/GPCmAJgFuXvRl8lMk1yjSpMOkR+aatpnSyQH5kYFXdm/eLbHW4O21S/5M4Lrp07x/0RhSCF6H6tAGeLmmV5+TxFmd74oj2k1aNymvPCk6x1JypFs6E4kQkZ6G13ekFdJGx7JtZ2I+AHQUD8UMAswBkJzqefRQD8JIolhjLPG11FTzXfLn0JDooygyVd2muye88XdQ6CwNJ35MQpznAzVWAUTuAh8/6aj+g94tatzbPCj7vcXhEKYMJACIAS771bye/nnXiC07bV/Q14MhYYp4nBgoJ6rMq8rTE5Omi2IaXpQmxhARDaUcrKwMdB20+WS3rTIGeqcDpAHISHdf+EOB9VdxuI3YbC/vR7lQ2dh5kVOYK8F0AhyQ6nv3UA8hzgC4RladxYN7LzdNk/yrSEu1B5VIN4OPuE1X0TEDOAvR0JKiI62FbPsCJr7/quP2rR0+YcNdPJ7zhYUhEKYkJACIAv7uyYYqBON4KfF7vHzHMvO9lSG5EAawR4Ckono3lRFcMufudtkQHRamhvWrCAZrVe5ZAzwBkCoDjAQQSHZcD/QL8zcBaUFy3fokMbPkk+nK1alUe3XWmisyB4hvYw53kSW5wDpCnFPpsLNr/zDOzS5wdnKaMc8bCtiF2IOsMgUxR6HQk0RwwtPVTVLy00nF7UTNx3p2zuPuLMl5S/EATJZoKDnPzeJCvSfV8HQAwWYHJEMDqC/S2V5e+KCIrVPQZsbNeLLrnre2JDpKSQ0dV2XDNllOgeoYKpkJ7TxQgO4Xzwx+L4k4TsG8vvnfd24kOhlJMrZhm4CkAT53xQM/oQNTMUejlAEYkOLL9MTgH6GQAsANZveUNXS8LsNwSPKvR2AvNNUWfJDhGShKVdeFhxrZPFuAMBcoFOBFAjiZhzjSS57LEjMhhAJgAoIzHBAARAFXrUKcvCG2NIk+Tunh4DkSmKjAVKtBoFO01ZRsh+iJUXhLRFzvzu1ePXLAlkuhAyV8fXXpcflB7JkFjJ6vKSYCeYoAjoIN/95NvvbevYoD8XaF3F/fnPCRNa/sSHRClvmcuyt0E4NoZj+n1XZ3d3xDVywCcjdSpebFDjgBTAEwxCsC2UVHftQmiL0KslwTyYkde7iurzhfOAWlu8mINFnb3TFLVkwBzMlROVsHoHeneZE/79uTkQEUg6myyMrAO9TgkopTEBAARAIEe6vTZJw8dSMEnp1KolAKoVhXkdwaj7TVlr6viFRFdLaqv9uZlreF96Klr++yyomyViQaYCJgTBNYkjUUmKGD/7zIv2XPKAEUAACAASURBVJd7e/WGqNxtq7Uwv36ds9LQRHvx+DnSC6ABQMOZjZFDomouEbUug+hRiY7NMcFoQEZDdZZCURCJRCsautYCeAUqq6HyajTY+eqzXx/OOSBFTXloW2FWb8HxavQEiJ4AYBIikQn62dpfUm4KUBH05OQgr8dZzUtRZQKACEwAEO0wymnDfISjSP2fpQCAiSKYCAhUBNk9MdNeU9YCwauqeEWMvI6AWVfUu/FtFhlMHlpZGeg48L3RsKxxRnCsBUxUYBIUow10cHknSMbtnA61QrAIav2luG79i4kOhjLL4PV78wHMr6yPnGpEvy0DNwg4u0M2eQQwcNb7eIheDlEEeoJaUd/ZAkteFegrMPK6CdjrrKE5b7PIYPKoXKoBs733SCsaGwdLj1HIJBidiB4pUxhJtYf8venJzTV5PT3OrmyymAAgAlIu90fkj5uvbHxp8NzbfrMQa7q0578aoZgtwAykWIV0B/oAtCj0LUtkPVTWqehblqWbCu/duDXRwaWrzqojDjK2PRq2HAXFWAOME+AoAKVIzUJl+0yBbgt4BKp1hW3yOK+9pGRSeZfmmrzuc8TS2VCcgwRVSI+jPgAbAbylKusEZj0s661A1GxaUlPAWzZ8clZd54HRgDUaxhylsMaK6Dj87xyQKldYOmUAWaaiC7/x5OPn28Z83VEvgmVX/zlU6W1oRKkn1d9aEnlCBAc7fUFqEHi3ZGHL/QDub73siBK7L3ARgBoFKgE4y1Int2wA4wUyfuAYngIKmJigvaasUxQbDWQToJsg2CjAJism7xWY7nek6f3uBMeetD669Lj8fBM53Bg9DJaUQjEaQKkCowUYHQPyAXx22iQDsrcxAEtEtC4K+WvJwpZwogMi2p3my6UHwIMAHpze+Glxv8n+JkRqAExD6tUL2BfZAI4GcLSIAhBAFVFbUNHQ1QXBRig2CWSjqm4SSzcZo+925Re8yzoDezZ5sQbzuzoPtyw5XI2MFpHRCi2FYDQUo6NAAVQBEUj67Ojam1UQqbOBhsHdN7joyqYJTjsTTbkrPol8kQFrSKIvV1tbaw3ZPL4XDhNiInr1vD/PvHXX73fNGjcyJrFZKpgJ4CTw5w0APgGwGYrNsORdMdisFj5Q6Ccq1sdGzfYDsqKfyN3vODvgl4S0alTep9m5Qy2VYRb0QADDROQQHTiLeLgoDlPBoQAOSHCoyUAhWAmj9TZMY8Git/k2kVLW1Ae6Drb7ZaaKzgRwCjgHAMB2AJsBbFbFuyK6WQXvw+ATy8JW2NYnCOd9MphUSQuVd2kuirqHIWaGGYMRsDBMgEOgciiAIwAcOvg1NKGBJguVt0S0QSS2aGmoaN2uf3zzlQ0/EshvHfbeefUdoUKXERKlPE5GlPF+/60Hh8ayoo6vRBJB1bw/h+7/ss+01hx5uC3WxapyMbgQ3BedALZBsBWKdgjaRKUN0FYjaIcO/rPE2g2kW4CwpXZXTK0esSLtxf2FXV5UgtcZZTntQ/qCaoLFAY3lxWwThKJYRHMhdgmMlqiFYhgtscQqAXSIAsUYOA98IIBh2PHmnvbEAPIcgPujog8MXdjyfqIDIvLaGY3dh9mqF0H0YihOA+eAvenEQMJ4KwRtUG2DShtE2gDTBpE2hbYPfM/02LDa1Yp1oT+rJ2p62wuHFEcGize6MuMxzelobQ8GrJxiZPXnirHzjZoihZUnkGKIlkC1BLAG/lO0BCIlUJRg4OrIYQAK3MaR9gSrRfFgTMyDK0KFb3zZR2/+TuNMUdQ7HSrXzsufu+B87kShjMYJiDLerZc3jlcLa522F5HyeX+uWrGvn98+q/TQgC0XAaiC4lSk5zGBZGAAtLtoXwL+jvSLUeAZUb0/oIEHWMGfMknlA5FRJoaLRPViAKeDc4BfFECbi/bF4L8bvxgInlfVByH2g8tDeW/va8ObvtNUaakudTqwJRh91Z9D+zweUTpiDQDKeCp6oJvnPGN0vwrfDa3fuBnAzQBu7po1bmS/HT0XxpohomeDbwq8ZAEYkugg6DNhUfwDkMcsRB/j9n7KVM0XBd8HcAuAW6Y+0HWwxHCOAOdA5WxAuT3ZOwLOAckkAmAJgMUmgEdWXJT/oZNO7JhuVRdpGYU5EAATAJTRmAAgEutAuCiooybL8YPM4JvP2wHcrlWw27NKJwrkfADnAZgEvoGm1KUAnlNgMaBPFY/duFpqYRIdFFEyGXwIugPAHahVa9r4yAkx1emAnC8DuwM4B1DqUnlLBA9B5JHhyF3ZFBLXVwj3ZUW3ZsWcP74o7APdxkCU6pgAIBoozOZU74/uvtDNFsPPSBNiwMZVAFYBqG2vGT0GKl+DyNkYuFGAb4Yo2bWrytMQfRK2/UTJvev4loVoX9WKWTrw+38VgPln1veURiX2NQjOFsU0AEUJjpBob/oBXSmQJ0Xw+NJQ3isYuCrCM50j1386ZPP4KBw+w6gxI7yMhygVMQFAGU9ERqg6nJ8EjosH7k1x3aYNADYA+J3WwmpfX3oCINMFOh2QqQBy/BqbaB/1APoMYD2ikMUldes3JTogonTx9KzcjQD+MPiFaXUdE2K2nCeQ6QDOAJCbyPiIMFBrZ7VAnoLIIxie+3zzNIn6OWBtba255crG7RgotLvfxBImACjjMQFAGU+NDnO8yVKxX+f/nRrYOv3Z7oD5bTWHDYHmnCkWKsRouQqOBYsVkf9iANZAsVwEzdF+03xA0yY3hRaJaB8trSlcC2AtgPmVf20t0f6caVBTCUg5gOPAOYDiQfEuIMtVtBlGnlxeHdwc9xgGbghytntTMdzjaIhSDhMARJaUwOEOAIlTAmBXJXXvtQJ4YPALW+aMDBZ05E4yYk0R6HSFTBEgLxGxUVoJA1iuwDOWmmcLo32rpOn97kQHRZTpmi8c0gbgr4NfmLxYg4XdPZOMxqYM7hCYAs4B5N5nb/gV+mx/lnnhuW8WJmTd8zku1l4iysKQlPGYACBSLXHa1EA+9TIUp0Yu2BIB8Mzg1/ytVRMKsrP6TxU1p0NwKoBTwWrItHfbIfq8GqxUwXPdBd0vDP7dIqIktup8+dwc8JV7NL8/q+tUteQ0BU7DwBxwQEKDpFTQBdFXVK0XbOB5K2aeWVJTkHQ3tgjwqePCAiqO13xE6YIJAKKB+94dEVFPCgB6bUTT2k4ATw1+QQHpnDnmKLVwqhE9XQYWhEeDW0YzmVFgrQVZCTHPQQLPF963br24uRKDiJLCP74lXRi4cm0JAEBVKh/oGAdjnaoqp2NgDhgPzgGZzEDxJgQvquIFy9IXMDz/db/P8HtD2pxOVcqXIURMABDBzWSgSInzzwIoGja8CeBNAHcBgM6ZnNXZ0T7WiE4WyHgFJgA4BeD5uDS0FcCLAqxV6BuWyqqCD0etk+bmFFjoEZFrItoMvIWBr7sBoHKpBuTDznExSyZbYo1X0QlQzgFpahsEL4jKWqPmDdvoKj24YF1qPOx/kRFtc3y3gDh/6UOULpgAIHKxAwBWaiQAdkcWrOrHQEGptTu+p1WwO7PLxhkjx4ulx6liAgYSA0eAb4pSgQGwSYHXLeANI/qaZew1hdH1GwaumdxZS0ICJKLkMPjw97k5oKpR7Y9N51gL9vEqepwKxoviGABHgnNAKjAA3sbgv1dRec0gtuZAq2B9U0hie2mbMgTO116iTAAQMQFA5CYBYJLzCIBTAw+JLW8AeAPAoh3f3zJnZDAYzh1v2TLBABNErQmAjgNwOPh7JBH6AbwDYN3AW32sVQtri3t73mSRPiJyavAhccdusfod35+8WINF3ZGjY0YniFgTFDpBgB1zQFaCws1kUQDvKLBOIGtVzVrbkrXhvOCbg/Ug0poq2p1f3sQjAERcuFNGu/HSe/LhYvEiKbwDYH8MFoJ7efDrMzpncla4s/UIiJRBrTEQlAE6BooyAIcCyElEvGmiB8B7gLQAZgOAFiha1MiG4o9Hvcvt+0QUL4MPlTuuov3M5Ns0q3BI7+FAtEyNNQZiyiAyBkbLIHIogNyEBJweeqH6HixpgeoGqNUiltkABFo6WnPeXTVX+hMdYMKItkGdpgBQcNuc27LmLpibuf//UcZjAoAyWtDOLXTzFKUutqGlg8FjBBsGvx7f9c87Li0dEY1ZI23BKAOMEjUjodZhEB2pioNFMAID500dz+QpSAFsVcU2EWwBdAtE3lMjWywLH8RENgd6zZbCppZte+6C2/eJKPEGH0JbBr+e2PXPT3+wY0R2VEbCyCgIRikwUoDDFBgJ4GAgI+cAYCDB+wmADyHYLEY3A9Y7ItgcFWyGrZtXfDP4EcTxSfe0Zina3fwf0xUbUgggKW5xIkoEJgAoo/VZdtDa9Wj0/jAS9i6a9FN478atGChA9+qePqOVlYHIQR+O6LPMCEvMwQKMAKwDjTFDLcgQAENUtASD/32nr2SgAFoHv9oAbRVIKyCtRk2bJdimwFYotsZgtuTYuduCvW9u/eJ5fCKi9DN4Z/yXzgGVSzUQ+zQyPNCvIwxkpEKHi4UDodYwQIdAUAId/L2vGDJYxG0IkiNpoADaoGiFDM4FglYo2gBpBcx2KLZB5BNR2WbB2masnI+bQ9KZ6MBTmYHzIwAAEBA7CCYAKIMxAUAZzZL+oJu6RiJWl4fhZKTBrexbBr/2uEjcVetlR5QEYnZ2LGYXGO0vsFSyYQVKxGiOWhq0BIVG1fHvOEutfiPaKTBdikAfEGsNiPZFNdBl27HOqB3rG3L3O2lVA4KIKN4GixF+OPi1Zl/bVf61taRPA9mWZhVYsWi+DclW1SEGki0q+SpaKOJ8nauKqKh0WJZGVLVXRFpj0D5jB7qM9HdmS7Sv+cIhnAMSwFY7YsQ4bm9MLN/DcIhSDhMAlNEEVtDNNjKxwYJrCbLTw/fWhAZCRERxt9PDN+eADNNvo9t2/vwPtZHnXTREqYdXulBGi4kE3bQ3MGlfbZeIiIgoWWSpu7WXBXdrP6JUxwQAZbSAcZcF7keUCQAiIiKiOIm5XHtJzDABQBmNCQDKaDG4mwS0O8ojAERERERxYnUbV2svwx0AlOGYAKCMJi6PAHSVbmICgIiIiChOPh1ziLvdlxZrAFBmYwKAMpzkuGjcU1tb66IMDRERERHtj9raaVEA/U7bWy6PfxKlOiYAKLOpcXMThuPJh4iIiIgcc7wGUxHegkYZjQkAymwWbBetY57FQURERET7yvkazN3LH6KUxwQAZTQBEwBEREREKcb5Gszdyx+ilMcEAGU0o84nAVUmAIiIiIgSIOq0ocuXP0QpjwkAymhuJgERsAAgERERUfw5fgmjhjUAKLMxAUAZzVUWWLgDgIiIiCgBHK/BuAOAMh0TAJTR3BwBAI8AEBEREcWduNkBwBoAlOGYAKCMZonl5meACQAiIiKiOFN3azAmACijMQFAGc2ocXOOnxMIERERUZy52cavRtXLWIhSDRMAlNEsN+f4hQkAIiIionhTV0WcLcc3CBClAyYAKKO52kLmpn4AERERETnlfAcAizhThmMCgDIaz5ARERERpRzHV/lZhgkAymxMAFBGc3UEgAkAIiIiokRwvgOARZwpwzEBQBnN5STAnx8iIiKi+HNeA8BS1gCgjMYHGMps7raBcQcAERERUfxxBwCRQ0wAUEZzOQlkeRYIEREREe0rx2swZQ0AynBMAFBGE5EeF81za2tr+TNEREREFCe3zbktCy4SACLo8zAcopTDhxfKaKoacdN++NbxQa9iISIiIqK9GeJq7eV27UeU6pgAoIxmw3I1CcS6kedVLERERET05aJ97tZebtd+RKmOCQDKaFEL3W7aW5bNHQBEREREcdLncu3FHQCU6ZgAoIxmu5wE1FbuACAiIiKKE7drLxMwTABQRmMCgDKawt0kEO2PcgcAERERUZxYcLf2MggwAUAZjQkAymhiuzwCIBYTAERERETxYsTVDgCJiau1H1GqYwKAMloMWe6ywJYWeRQKEREREe2FBRS7aZ9tYtwBQBmNCQDKaNmBWIeb9uJyEiIiIiKifaeQElcdBNHpUShEKYkJAMpoP/hjqBNAn/MeXE5CRERERLTv1NXaq29w7UeUsZgAIALanTZUd5MQEREREe0HEVe7Lx2v+YjSBRMARECr04bKIwBEREREceNy7dXmWSBEKYoJACIXk4HLLDQRERER7RfjZvel45c+ROmCCQAiN9lgdTUJEREREdH+cHf8kjsAKOMxAUAk4nwHgMoQL0MhIiIioi8hcL72crHmI0oXTABQxlM1zmsACEZ4GQsRERERfQkXay83az6idMEEAGU8S6ztjhszAUBEREQUP4rhTpuKChMAlPGYACCC+dhxU8UIhYqHwRARERHRbtTW1lqAiwQAxPmajyhNMAFAGc+4mwyy/vS9OhYCJCIiIvJZwZaxBwCwHXdguXjpQ5QmmACgjCdGt7pp39ebxWMARERERD7L7g+4WnNxBwAREwBEEHU3GViWMAFARERE5LOY7W7NZdS4eulDlA6YAKCM15cVdTsZOD6LRkRERET7RlwUAASA7KxsJgAo4zEBQBnvJwuqtwPod96DGeVZMERERES0B67WXNGPD3rtE89CIUpRTABQxhOIAtjmtL2BMAFARERE5DOBdaiL5p/U1tYaz4IhSlFMABABEMFHjtsqDvEyFiIiIiLaDXG15mIBQCIwAUA0QPGei9ZustFEREREtC9UD3PR2s1ajyhtMAFABEBFN7tozgQAERERkd/ExZpLhQkAIjABQAQAECNuEgCH1NbW8meJiIiIyCe3zbktC4qDnLYXMW7WekRpgw8tRABUXCUAsoa/M97VvbREREREtGc9GHIwANtpe4WrtR5R2mACgAgAVN930zxmw82ZNCIiIiL6MlF3ay2Fu7UeUbpgAoAIAALuCsMoUOZVKERERET0eeJyraUxwxoARGACgAgA0Dpy+BYAMaftBTLaw3CIiIiIaCdGcKSL5rFgdvgDz4IhSmFMABABqK2dFgXgeGJQuJqUiIiIiOhLuHzZ8vHcBXP7PQuGKIUxAUD0vzY4b6o8AkBERETkE4GWumjsYo1HlF6YACAapNAWx40FziclIiIiIvpSRl2ttZyv8YjSDBMARIMslY2OGytG/raqMc/DcIiIiIgIwPwrHioUgfMrl92s8YjSDBMARDtYriYHkWJzhFehEBEREdGAHKvfXa0lNUwAEA1iAoBokETV1fkwG/bRXsVCRERERDsYV2ssEZs1AIgGMQFANCg7O28jAHXcgWK8d9EQEREREQAI1FUCwM4xTAAQDWICgGjQ3AXnRyDY4rS9upyciIiIiOiLRMXNS5aPf/DHUKdnwRClOCYAiHYi6vyaGBEc5WUsRERERASomzWWguf/iXbCBADR573utKECR9fW1vJnioiIiMgjtbVLA1CMc9GF47UdUTriwwrRTgzkTceNFXnF7x17hHfREBEREWW2kve2lQLIdtyB4A3voiFKfUwAEO1E1DhPAACwrCiPARARERF5RCxxtbYSdfFyhygNMQFAtBNRcbdNTK3jPQqFiIiIiGCOc9NaEOURAKKdMAFAtJN5d4W2AdjmtL1AmQAgIiIi8oqKm7XVp1fdWe34hieidMQEANGuXJwVUwUTAERERETemei0oQLc/k+0CyYAiHalLorFCMbceOk9+R5GQ0RERJSRbp19XxGA0U7bWxAWACTaBRMARLtQuKoDYOdk507wLBgiIiKiDKXBnGMAiOP20LUehkOUFpgAINqVkVXuOpATvAmEiIiIKIOpcbWmEpFXvAqFKF0wAUC0C9NpXgMQddpeWQiQiIiIyDVxd7uSQXfvGs+CIUoTTAAQ7eLHTaFuABucthcXxWqIiIiIaIDLlyrvzFt4SdizYIjSBBMARLvl/BiAApNuveqxHC+jISIiIsokv61qzAPg+AiAAC6PdBKlJyYAiHZHdbWL1jmmJ3ycZ7EQERERZRgpxEQAWU7bG9VXPQyHKG0wAUC0G8ZyVzRGVE72KhYiIiKiTGMJXK2lbFhuXuYQpS0mAIh2Iyerbw0AddpeVU70MBwiIiKiDON2LRVlAUCi3WACgGg3vv+n2a0AWpy2F7jLWhMRERFlNj3FReMPr7qzeotnoRClESYAiPZARFe6aH70TZf9tcSzYIiIiIgyxK/n1A0DUOaii+e8ioUo3TABQLQHCrzoorkEAv2TPAuGiOj/Z+/O4+Oq6v+Pv86dNF3oyiYgIJuyuIA7IiAgoqKoQDMtVLBNQguFJm1BQUTJF0VZpG1SoLTNUsrWTkpB2ZR9U1T0JyrgwiJSFgXsSrckcz+/P24q6ZA0ydwzS5L38/Hoo53p3M/5ZGk653PP+RwRkQFiULrkE4DLPoKL8x5OpF9TAUCkC2E61goAQuxIX7mIiIiIDBTOuSNiBTDTCgCRLqgAINKFNe97z5+B9VkHMHe4v2xEREREBgYzi1MAaEmv4w/ekhHpZ1QAEOlCTc3RbRDrP5BD50+en/X5tSIiIiIDTdPEpiHEaKZs8OeZzcmNHlMS6VdUABDZJvtNjIu322ijDvGWioiIiEg/93Zi2MeBwdleH0Cc924i/Z4KACLbYBarESAuDA7zlYuIiIhIf2fmYr13itnEWaTfUwFAZBvaStKPAJbt9QZqBCgiIiLSQ3HfO7WF6Yc9pSLSL6kAILIN5y049S2Mv2d7vYPDDItxjI2IiIjIwFBTUxPg+EyMEC+f23TKCm8JifRDKgCIdCdwD8e4epe6iqUf9JWKiIiISH815pWDPgrskO31ztnD/rIR6Z9UABDpjtljcS53ljjWVyoiIiIi/ZUzi/WeKQzdo75yEemvVAAQ6Ua6lUfiXG/Y533lIiIiItJfGS7We6bQxXvPJjIQaG+ySA/UVqSeB/bN8vJ1QxKrdpiyYEqrz5xERERE+otZZamhiZGsBIZkFcDxanV9cne/WYn0P1oBINITZnGWlI3Y1Dbm095yEREREelnEiPdYWQ7+QdMy/9FekQFAJGeCIJYfQAI7GhPmYiIiIj0Q/HeKwVBvJ5NIgOFCgAiPeAI7osVwJwaAYqIiIh0Ldb+f2sL7veViEh/ph4AIj1UV5F62iDbI/3awvSgnWYsOnG116RERERE+rh5Zy7fuaW17XWyvzn5YnVDMtteTSIDilYAiPRQ6CzOKoCSIGg5zlsyIiIiIv3E5rbW44gzL3HuXn/ZiPRvKgCI9JCDWNsAzLkv+8pFRKQfGQIcARxU6EREpDCcxXuPFPc9mshAogKASA8NCYY9DGzOOoBxfE1Njf7NSX81GDgWuAhoAH4GPA78vv3XbcClwNeBHQqUoxSfAHgSeBR4BrilsOmISL6lylIJ4EsxQrSl20oe9JWPSH+nHgAivVBXkXrI4Khsrw8s+OS0xrG/95iSSKF9CJgBlAEjenhNG/AAcDnwUI7ykr5hP+C5Do8NGAOsKUw6IpJvtWc0H0Zov4oR4jfVDcnPeEtIpJ/T3UiRXnEPxLk6DMIv+spEpMC2A64FngLK6fnkH6AE+CLwIHAr8B7v2UlfEWY8NqICkYgMEBZa3PdGsd6biQw0KgCI9EI6TN8dK0DI8Z5SESmkXYHfAmcBiYy/SwO/AW4Caonu8s8jmui/2Emsk4iWgB+cq2QlL84hmrw/2svr/gX8of3PIbAAWO8xLxEpcs6I1yPJ+IWnVEQGBG0BEOkFw1xdZfMKjPdmGSJdOqhkt7OuO+kNr4mJ5M9wokneRzOefwm4GPg5sK3jLvclWjEwAxja4fm3gM8Bz/pKVPLqF0SrOh4DjuzltQng48B/iAoCIjJAzC2/ZbfQJVaQ/U3JlbuuZedkczLtMy+R/kwrAER6weEM4+cxQiRa2tq+4S0hkfyrZ+vJvwE/AQ4EFrPtyT/AC8D32l//WIfndwSWEnWEl75lODF6oxCtGvkdmvyLDDhplziJePORuzT5F+kdFQBEesvZnbGuN070lIlIvn0FGJfx3LeBC4FNvYz1L+ALbN0E8ENEJwVI33IU0SkQIiK9E/M9kTnu8pWKyEChAoBIL41s2/Ag8faofn72xNtG+8pHJE8c0Z3+ju4HrooRczNwGrCuw3PTgUNixJT8i7d/V0QGpJ9OvnlH5/hcjBCtQwPt/xfprZJCJyDS10xaNGlTXUXqAYOvZRliUKKk5cvovGvpW44DPtzhcQsw1UPcV4Ea3ikkBESrCiZ0c93OREvPAf7Lu4+NKyHqKfA5olMGWoj6DDwH/LL9Gh9GEq1k2A94L1H+bwJ/bR8nF8fZfRo4kei4PIg+lseAe7q5bh/gcKLtF/sDuxB9HtNEWzf+QtTf4VZ6VuQcBJzc/muLXYHJXbx+M3B9J8/vxTs3JNqAl3swdqYDiL5HjyL6uHbgna/Fq0QnTvwC+Gcv424PbCnYruHd3zfDic4vP5BoG8sQ4G3gDeAJoq0NvV0ds8VQYCzR1+wD7fGHtcdbRdRU8x/Ar4iacm7IchyRgihtK/mquXc1ku0xB7+asiCpI0NFekkFAJEshGZ3OueyLQCAuRNRAUD6lm9mPP4ZW5/fHsd8ogaCI9sfJ4n6BLy0jWuu6pDTT4i2IUA02b+YaKvC9l1cmyaaDH6H7JsO7k90wsGX6Hr5eyuwHPg+Pf9cXcE7E+o5wNwOf7cXUQ+Gz3dy3Sg6LwAMJpqQz2y/fls+BVQQnd7wE6LPcWd7a3cEziQ6BWK3jL/bj+jr2ZmVdF4A+AvvFHNWAHt2k2dHBwI/BrrqrbJf++9jiU4ZWEz09Xilh/HPA77b/ufFwLfa/zwU+AFREWxkJ9dt8R+gDvgpURGqJ0qITlX4Pl1/DwN8tsOf1wO3Ea2g8VXcEsktF3P5P6bl/yJZ0BYAkSyEbe5uouZnWTH4Yt20u7VnVvoKRzTR7ajeY/z1bF0QKwHG9+L6/dt/Pwp4mmhiuq2JU4Kon8GfgMpekdjBhwAAIABJREFUjLPFecCfga+z7b3vg4gKEc8QnXzQEzsR3anfh6gnwhYHE91N7mzyD10XGC4kmoDu1cPxIbrjfTlwJ1Dayd+PBX7Iuyf/+TaZ6OvQ08aqATCRaHXGV7IY74D23z/TPu4FbHvyD1FB6lKir917ejDGSOBuYDbb/h7OtB3RSoHumnCKFIX5k+8YZnBsnBjpINHdqicR6YRWAIhkYebi5Ku1FanfAodmGWIkG9YdB9zhMS2RXNmH6K7vFhuIllT7dAcwpcPjo4HLenjt/kQnE/yMaAKVJjpb/tdEy/7TRPl/jGjytuWkgRKiu9UbgJt7ONb3gB9lPPca0WR5BVGxZD+iCeYO7X8/iKhgMgy4uofjAP87bnR/4F6i4kBHG4juag8nOl2hMymiO9UQfR4ebv/1N+B1ouXkpUR30icCR3S49kvARR2u3+IFoLnD4+OIViAAPA9c2UUum7t4PhuTget45zjjELgLuL09h/VEn/8DiYpJHX9WDydamfF16NX+4f2JVkk8yDvfQ6uJPp/PAmuJVgbsS1SM2r3DtQcTfY9/hs5XVWxRT7SlZIsXiU7HeJJoO8NGosLAvkTf81/lnULMdd3EFikaG9s2fNk5NyxGiL/PXDj2GW8JiQwgKgCIZMtoxmVdAMDgVFQAkL7hMxmP/x/RXm2fnsx4fDjR3fWeTBr3J5qUjQQeJ1qe3tUbw72IJv3HtT8OgHnAI0R7xbfleLae/IdEk+MriJb7dzSs/e++QzRJdURL6p8gKk70xB5EE8pm3tmrXw/cADzFO/v0dyfaE96ZZ4h+zvwGaCBakt6ZJ4AmYBFweofnzyL6mDsuX7+v/dcWf+ad/hCvAwu2+VHFdzDRqoYtk//niH6e/r6T195LtKXhG+15bSmilAKNRKssVvZw3FFEd+eHEE3ELyYq6Gzs5LUlQDXR98aW1ZafbM/j1i7ifxoo6/D4cqIVHGEnr93y+Q+IihsnEX19RfoEF7gJ2a+jBIsKYyKSBW0BEMlSGKaXE2MbALivXTM1Nbz714kU3AczHj+VgzHeILqTvsUw4KAeXltCtGz9EaK7p9u6K/QSUQPPjscPjiSabG3LcKJCQUfVRMu7Myf/EN2dv4CooeEWpWx917o7e7aP+WHg30RFkTOJmr51bNL3Cttu2vc1on3yXU3+tzBgRkasHdm6+WMxaOKdrRf/Ao6k88l/R7cDx7D1/vhd6f2xkzsQNfk7imilQ2eTf4gKZFcBCzOe/1Ynr93iqxnX/x+dT/47ColWupxHtNpFpOjNn5wahXF8rCAu6KqQJiLdUAFAJEszFp3yEtGd0GwNa9vsvtr9y0QKboeMx691+qr4MuPu1YtrW4ka2PWk4/pmYBJbT97K2Pae69PZujndL+nZcv7ZRPu/t/gE9PiN72iiCeMqosn/b3p4XRwrgZ9nPFdMBYBjiJa+b1FFVBzpiaeJmiF29E1gRC9zOJetv6bbchVbF4o/Q9cFoI49FdL0vGmgSJ+yKW3fYNv9U7bN+Nv0+rF/9peRyMCiAoBILC5mBdp60+hMpFBGZzzOVaOxzGXsO3b6qs79gq73wXfmX0TL3bcoZevl15kyj7a7qIfjhLy7UHBKD6/dYgq9+9jiytyikPn1L6QzO/x5Bb3fRnUD0b76LYYTNTXsqdVEpwH01HNsffTgjnT9fd3xZILBRFsGRPodw42Lc70L3HJfuYgMRCoAiMSRdstiRvjyrIpUbzo9ixRC5gRwbY7GyYw7tBfX3p7FeKmMx4d38bp9iPadb/E3ul9y3tFDGY+P7sW1z9H1nvFceTPjcbFsVXJES++3uIveb8MyIPPn9mG9uP4BerbKpKO/ZTzu6mf+oxmP59D71QkiRW3emct3dls3uuy1dDqt5f8iMagAIBJD9aKxzxEdKZWt0sC0DUCKXuaS5UE5GiezMW1vusb3dEl25jUd91gf3MXrMpsg3tfpq7r2CtG+8S12493bKrpyG93vA/ctc+l5Is/jd2V/tj4J4Y9ZxsncSvGxXlybTdfxzJUtXU3qHyZambLFp4lONLgI2CWLcUWKzuaWthOI14T8pelN47L9ty8i6BQAkfjMLcVZTbaXO2cT6N2SUpF8y1zyP6rTV8WXudKgq872nfln9y95lw1EE6692x9/oIvXfSLj8Xrg41mM1fFO+k5s3ZCuK7l4o+uA9xFNKrcnKkaMBsa0//6RHIzpw/szHj+XZZx/ZDzeu9NXdW5FFuNlHs3XVQ+ANHAGUdFnu/bndgZ+CHy//fktJ1aI9EnOMSHO9eZodrgYDZhFRAUAkZhCghsC0hfT887emY6tnZzas3pB8mWfeYl4tCbjca4KACMzHve010Ar2+6Cvy1v8s4EcDDREW+ZS7x3ynh8QfuvOMb08HVvxBxni/cRHZX3DaLTFYplWX9vZH7Oenp8X6bMbvkjiX5+92RS8Xb3L4nlPqI7/zcCh3R4vhQY1/7rGaLTJBaTu+04It7VTV6yr6W32saTheBGL8mIDGDaAiAS04zGk18EfhsjREDIab7yEcmBzIn4fjkYw/Hurv89uUMOXR/F1hOZE7rOlmfnogleT///zbawscW+RJPJF4mOAvwUfXPyD+/+OmzIMk7m1zzBO3fcu9Pb/f/ZeIZo1clZwOud/P0HgbnAy8CPyF1BTsQrC91pZH+zBOBpdf8XiU8rAEQ8cM5uMXOHZh3A+JZhP9ayNilSmU3MMpfE+7AvW9/hTXcybldKY4ybORHvbL975uTwN2S3FLyjfJzZfhxRo8PMCeJf2n/9g2hCu4lou8XK9l/nASfmIb+4sr2J0dnXuNiO3EsT3eWvJzo2sqL9947v20YB32v/u4lER1OKFCXDXJ01fytWDLNbfOUjMpCpACDiwaCSQUtaWtuuIvt/U++fU958KI084TMvEU8yO95/gOguss/l0Jl76v9Oz+9+DyGa1GXute6JzDv+nfUdyPw4G4GFWYyVTx8Gfkb0uYFom8RsojvHr3R1UbvMUwCKReb3Q0/v2mfK/JpvoPgKAFu0AT9v/7UbUA5UEm3p2GKX9r8/nuiUApGiU1uROsLh9ooRwkpcyU1+shEZ2LQFQMSDs6476Q3gwTgxnLNYlXGRHHqarZdbJ/B/h/jkjMe9nchkuwx6tw5/3kjnJw9k7rPuaQf/QrqOrSf/XwTOp/vJPxTvzYHXMh5n2xl/t4zHPd1qUmivES353wcYC7zQ4e9KiXoCDCtAXiLdcgTx3uMYT5zTcPK/un+hiHRHBQART5wRa2maw42fVZbqzbnnIvnSBvwq4zmffSt2AL6W8VzmWe3d6aqD/7aMBnbt8PiFLl6XOWnuzbFxhXAgW59tfy3wUC+uz2x6WCyez3h8UJZxDsx43Nf2FIfArcAniVbKbLEbxOuwLpIL8yffMQxsbJwY5uK9xxKRd6gAIOJJOhx0Oy5WM7JRwah3TYJEikXmm6/PE01AfJhJ1IF/i2eAx3oZ46NZjHt0xuOumnlmPv854vUdyLXM7RS39vL6bCfWufY8W29PODLLOJlf919nGafQVgHj2fr0gqMKk4pI1zaGG07i3ae89EbboHSvi8Ii0gUVAEQ8mbHoxNUOa44TwxlTfeUj4tlStj6SLgDm03lDtd44kKjpXEc/pGdHsnWUzZaEUzIeP97F655g6/4CO1Pcd1rfk/E4c+n8tnyIqCFjb3T83HR2ioIvBtzf4fFxwPa9jDEM+HrGc/fGSarAngL+2eFx5tdepOBc6M6KdT3cefai5L995SMy0KkAIOJRmqApZogjZ52x7INekhHxawPwk4znPgrMihFze6LCQse76Q8Tda7vrc8Dn+nF6z/F1n0H3qbrO+WvA3dmPHcpW28fKCZrMh6/txfX/iCL8ToeE7lHFtf3RscmYIOJ9sT3xvlsfdrEE7y7yWVfM6TDn1cWLAuRTtRWLPkQbqstSb0WGnHfW4lIByoAiHg0vX7sI3S9j7hHEqFVeEpHxLergd9lPFcFLKH3dx4/QzT5+nCH5/5L1OU8m+MwA+B6ejbZ3QG4ga3/D7wJWLeNa+ZkPN4VuIPsigBDun9JLH/PeHx6D6+rAMqyGK/j3vwd6F0hprfuAf7U4fEUorx74hjggoznMotahfQxoLd9YA5n66aGT/tLRyQ+s8QZMUO8vnrPne72koyIACoAiHjlcIaz6+NFsdObJjbleoIgko02ou7jr2Y8Pw54DqgBDgZcF9cPBb5A1E/gV2zduG89cBJbL2furfe3xz1+G6/5CNEJAx3HXkWU+7Y8DO+6C/VxooLIOLr+mLfYEZjUnl91N6+N6wm23q4xiW1P7EcAl/PO0YadHYW4LZn9Gq4nu6aMPREC5/DOtoMAWADU0vVJEI7oc3AbW682aSIq4hSLc4m2a8xl68JYZxzRtpflHZ5LE62oESkK8yffMcw562kBslPmuLGm5ug2XzmJSPEe9SPSZzlKmoz0xWS/N3qHNSXDxgI3ekxLxJcVRHcd72LrZnEjgIvbf/0HeBF4C9hE1PxpZ6L9/p0Vt94EvkH2zdjaiI7hPI7ofPS7iBoJ3k3UwX8T0XaDo4i2CnT8v8+IJuQ92V86FdiLrZvI7U60AuIyom0CLxIVM4a0j7kPsD9RsWDLz4Sf9+qj67024Mr2XxBNkpcSTZz/ALzU/podifb8H8s7y+J/QbSsvqt+CJ1ZBvyUd04PeD/R3vSbie7WtxEVhj4LJIG/9v5D2srjwHSgjmgiHBCtRDmDaEL/F6ICyDCi74cTeHdfg1+1X1NsRhN9nc4BniTqT/AKUeGjlGilzfuIPpf7ZFxby7tXf4gUzKb0hjJwo2OEMEIavCUkIoAKACLeVdWf/EptRephoolGVgJzFagAIMXrJaI99LOBSt599/s99HxLwANEy/5fjpFPCdGEaRnRHX6AD7b/2hYjmgTe0MNxNhGtYLiUaC95R3u151As5gBfJJrcQ/Q1OpJtd87/JdEqjDTRx9rTlUgbgMlEPRS2rCwcSudL832dnnA1UYHpOt658z+UqMCQ7ObaJUQrAjZ5yiVXPknPT9poAL6Tw1xEsuDKY11u/H56Y1JFLRHPtAVAJDca41xs8Dk1A5Qit55o0nc40dLq1l5e/xjRZPMLxJv8bxG057KI6G5pd14EvkI0keyNNNE+8uOBP/by2teIltov6eV12WgjuvN9Tfuft2U9MIPoY9oItND7j+12ou76K7p5Xbqbv++NJURFnmuIPobu/IGoKHIKxTn5n030b2lzL675LdHXrRK/n1uRWOZOTH2Y7I/qbGex3kuJSOe0AkAkB1atZdmYkcwi+yOZXCK0mfS8uZVIofyaaCI/mmgyfyjRXfj9geEdXvcy0bL83xEtM/d9V2cwURO/SURL2L9BtCVgT6Kl6a1EWw3+RLRM/A6iyW627iH6OI4kust+JNG/9x3a//5NomXo/yBa8v5Q+9jdNTh8Etiuw+M4Xd03Ea1K+CnRxPcgomX/g4j2+b9FNNG/F1ibce2FvLOP/w89HO/O9lhfAg4jak43hKi54/8D7iNaPZKpqj0niE5j6I1XiT7G7xB9HQ4hWo0xnGhlwlvA34iOD+xs7O7cnnHdU1nEWES05WCLrvL4PdG/paFEn7/9gb2JtmdsOUN9DdH31vPtMXV3VIpSOsHM7hqjdGNtyRCnlZAiORDz36aIdKWusvlSM7swRojNpYNK9jzrupPe6P6lIgPODcA3Ozz+ONEkU0RECuiaiald2hK8RFSYzY5z11XXl53lLSkR+R9tARDJEQtsPvGWZA7e3NJa6SsfkX5OBW0RkSKQTjCZOJN/wHDzPKUjIhlUABDJkeoFyZcx7okTwzl39vzJ8wd1/0oRERGRwqopS5UanBkzzG+m14/9s5eERORdVAAQyaXA4lawd9sYjjnJSy4iIiIiOTR6lCWBXePEcMZ8T+mISCdUABDJoV3XuF8Ss8O5M872lI6IiIhIzjhzcd+zrNncuqnZSzIi0ikVAERyKNmcTONYEDPMEXMmLfu0l4REREREcqC2PHU40Ukw2TN347dvOL0nx3qKSJZUABDJsdKSkoXEPHPaBeG3PaUjIiIi4p1zxH2vYs7sWi/JiEiXVAAQybGzrjvpDYe7IWaYk2ZXLjnQS0IiIiIiHtVWLPmQwQmxghh3VTUln/WUkoh0QQUAkTxoC1wtYDFCuIQlZvjKR0RERMQXIziXmMexBgGzPaUjItugAoBIHsxcOPYZHA/EiWHY6bMn3xqrs66IiIiIT1dNumUPBxNihnlqWn3yQS8Jicg2lRQ6AZGBwpyrdWbHxggxOEinzwYu8pWTSB/2O2Bwh8erCpWIiMhAVhIE5wCD4sRwRq2ndESkG7GW6ohIz6XKUonXR/IPYJ8YYd5qadm0lzrkioiISKHVTbhxpA0pfQkYk20MM94YFa5/36RFk2I1TBaRntEWAJE8STYn087c3Jhhdhw0eOiZXhISERERicGGDD6bGJN/ABzXafIvkj8qAIjk0UZKG4CVcWI4s/NmlaWGekpJREREpNeuPG3xdmDxGhQ7NuLadPSfSB6pACCSR+c3fn0d5upihtklGGlaBSAiIiIFU1o69GxgpzgxLHQLp9ef+h9PKYlID6gAIJJnaWdzgbfjxHC472gVgIiIiBTC/Ml3DDOzc2OGaUlb20+9JCQiPaYCgEiezWxIrgS3MGaYXYKRbpKXhERERER6YXPbpsnOsXOcGM7ZknObTlnhKycR6RkVAEQKwLlgFtASJ0aAXVBTlir1lJKIiIhIt2aVpYaas/NjhgnT2GVeEhKRXlEBQKQAqupPfgVYGieGwR5jRrrTPaUkIiIi0q2SUUwEdokZ5hcz6sf/1UM6ItJLKgCIFEx4BWDxYtj3myY2DfGSjoiIiMg2zCpLDTXjorhxDLvcRz4i0nsqAIgUSHXD+Kcd/CxmmD3XJrab4iUhERERkW0oGcE5wG4xwzw2vWHcoz7yEZHeUwFApIDaguAiIIwZ5vt1E24c6SMfERERkc7Mqkhtb44L48ZxId/3kY+IZEcFAJECmrlw7DPAbTHD7GBDB830kY+IiIhIZxIwExgdJ4aDh6uako94SklEsqACgEiBpYPgYuKuAjB37rwzl8c6jkdERESkM3Mqb34PMD1unLRz/+chHRGJQQUAkQJrXwVwV8wwwze3prUKQERERLwLwsS3ge1iBTF+PaO+7GEvCYlI1lQAECkK4YXEXAXgsBmzy2/dx1NCIiIiIsyqSO1nzk2LGycItPdfpBioACBSBKobxj+NcXfMMKXOpfWfq4iIiHiTwF0MlMaJ4eCJafXJBz2lJCIxqAAgUiScC34AWKwYcNqcymUf8ZSSiIiIDGB1Fcs+CnZq3Dih42If+YhIfCoAiBSJqoaxf8TZzTHDJAILa70kJCIiIgOaEc4h/nzh3un1yft85CMi8akAIFJEwrbwIqAlTgyDo2orUl/ylJKIiIgMQHUVS08AjowZxnBc6CMfEfFDBQCRIjJj0SkvAQ2xAzmuSJWlErHjiIiIyIBTU/NQiZm7wkOo5dX1yT94iCMinqgAIFJk2sL0T4BNsYIYH359pH3TT0YiIiIykIxZ8dZEHAfEDBNCWOMjHxHxRwUAkSJzbtMpK8Dq4sYxc1fMnnjbaB85iYiIyMDw08k37wh2edw4BourG8Y/7SMnEfFHBQCRItSaSF8JrI0Twzl2diWt2ncnIiIiPVYSJr4HbB8zTKtZ4oc+8hERv1QAEClC5y049S1n/ChuHGfMmDsx9WEfOYmIiEj/Vle+5GBnblrcOM6sbkbjyS/6yElE/FIBQKRIrVxHrYPnY4YpCRPM9pKQiIiI9FuGOXPB1UDcJsJvpcPS2DcxRCQ3VAAQKVI1zckWM/ueh1Cfn12x9Bse4oiIiEg/VVuxbCxweOxA5i6ZsejE1fEzEpFcUAFApIhVNSabMZ6MGyfAXVE37e7BPnISERGR/mVWWWqowy7zEOqFVetsvoc4IpIjKgCIFDGHM7NgGmAxQ70/3LDuIh85iYiISP8SjHQXA/vEDuTcuTXNyZb4GYlIrrhCJyAi3autbF6KWTJmmJbQhYfMqB//Vy9JiYiISJ9XV77kYHPB74GSWIEc91fXJ7/gJysRyRWtABDpA9JRL4DNMcOUJsJADQFFREQEiBr/hQSziDv5h9BcqKOHRfoAFQBE+oCZDcnnMXdF3Djm+OKcyqXf9JGTiIiI9G1zK1KTnOOYuHEMWzh94fjYPYtEJPdUABDpI9Lr7CfAS3HjOHM/vfasm8bEz0hERET6qrpJqZ0Md6WHUG+FON39F+kjVAAQ6SNmNic3Omc+/oN9T8vm0hoPcURERKSPsoS7BNg+fiB3ycyG5Mr4GYlIPqgAINKHVNWPu8UZv4wbxzk7Z07F0iN95CQiIiJ9y5zK1Bcwm+Ih1O9W7fnMNR7iiEieqAAg0tcYM4HWmFECh6ufVZYa6iMlERER6RuumZoa7owFxD8NzEJjek1NTegjLxHJDxUARPqYqqbks+bMR7X9/YmR7hIPcURERKSPaNvMj4C94sYxuH5GY/KJ+BmJSD6pACDSB5UOarsE+E/8SDZ99qQlH4sfR0RERIrdnDOWfBI4x0OoNQlLf89DHBHJMxUARPqgqfMmrDLcNA+hSgIX3NQ0sWmIh1giIiJSpJomNg1xYXADkIgdzPGdaY2nvBY/KxHJNxUARPqo6Q1lzcAdsQM5DliTGKYqvoiISD+2NjHsB8D+HkI9XlVfttBDHBEpABUARPqwNMzEsTFuHIf7zuwzUof4yElERESKS7Tdz53nIVSbs/AchzMPsUSkAFQAEOnDZjYkn8dcjYdQpUGaW3QqgIiISP9yzdTU8CAIUsCguLGcc1dUNY7/k4e0RKRAVAAQ6eNW7bHjLOCPsQM5DkiMdJfGz0hERESKRVuL/RjY10OoF9rW2I88xBGRAop7/qeIFIHa8tThOB4hflEvjXFUdWPycR95iYiISOHUTUp9zgIexMNNPwdfrWpI3uUhLREpIK0AEOkH2ifsczyESuC45dqzbhrjIZaIiIgUyKyK1PaW4Ca8vN9312vyL9I/qAAg0k+k13IR8JyHULu3bi65ykMcERERKZAErhbjvbEDOV4dkrBqDymJSBFQAUCkn5jZnNwYOM4E4nfmdW5iXcXSE+JnJSIiIvlWW546EeybPmIZnDtlQXKNj1giUnjqASDSz8wpb651zqo8hFqdIHHIOQ0n/8tDLBEREcmD2RNv2StIJJ4CRsWN5aC5qiGZ9JCWiBQJrQAQ6WeGlgz5roPnPYQanSZ9Q6oslfAQS0RERHKspuahEpdI3IiHyb8Zb7Qk2qZ6SEtEiogKACL9zJQFJ2xIO3cGPrYCwBH/Hum+6yGOiIiI5NjoFW9+38FnfcQKcDPPW3DqWz5iiUjx0BYAkX6qtrJ5HmZnegjVGlhw2LTGsb/3EEtERERyoK5yyaFmwWNASdxYBvdUN5R9xeF83EwQkSKiFQAi/dTItrdnAE97CDXIXLhcRwOKiIgUp6tPX76DWdCMh8k/8O8g5Fua/Iv0TyoAiPRTkxZN2hQak4F03FgGe7S2lsz1kJaIiIh4Fg5quwbY3Ucs55hW1ZR800csESk+KgCI9GMzGpNPOLjESzBzE2rLm6d5iSUiIiJezKlsPtdgnJ9orrGqPrnMTywRKUYqAIj0cyv32OnHwG+9BHN21dyKpV6aC4mIiEg8dZXNRzizy3zEcvB8S8tGH8cIi0gRUxNAkQGgbvKSfS0dPAUMjxvLwYqWRNvH1BlYRESkcK6ZmNqlLcEfgV08hEsH2OemNYz7lYdYIlLEtAJAZACoWjD+BeAiH7EM9hiULqk3TAVEERGRAqipqQnaEjTgZ/IPuDpN/kUGBhUARAaI6oZkLY7bPIX7el1l84WeYomIiEgvjF5x0MXA8T5iOXhi1R47fsdHLBEpfioAiAwgLs0U4DUvwYya2ZXNR3mJJSIiIj0ypzL1BQff8xTu7SAIJ9bUHN3mKZ6IFDkVAEQGkKqm5JsY4wAf/9GXBGbL6yYv2ddDLBEREenG7MolBzrjViDhI57hys9ZOP4fPmKJSN+gAoDIAFPdmHzcwQ89hRtj6WD5lact3s5TPBEREelE3YQbRwZhsBwY4SWgWdP0hrJmL7FEpM9QAUBkAFq5x7M/MuNBT+E+Mqh0yGI1BRQREckNwxxDSq/HcYCnkH9tad08zVMsEelDvCwfEpG+5eGHH7avfmz8I4Z9CxgaN56DA3/7sWdX/eKPzb/1kJ6IiIh0MKbyQ+cCVZ7CtVgQfu3cpgkveYonIn2I7tiJDGBzK1PHhMa9+CkGhoG5r05rLLvHQywREREBaiuXHo+5O/C1ctcxpbo+ucBLLBHpc7QFQGQAm1affNA5d7mncEHobPHs8lv38RRPRERkQJtVkdoPc4vx9p7dlmjyLzKwqQAgMsCt3P2Z7xv4umu/Y+DS99dNSu3kKZ6IiMiANO/M5Tsn4F5gB08h/zgyvWGSp1gi0kdpC4CIcO1ZN41pbRn0B2BvTyEfc8OGf6Fq7vGbPcUTEREZMOqm3T3YNrx9P3C4p5Br0vCJmQ3J5z3FE5E+SisARISp8yassiAcB/iasB8Rbnj7Ok+xREREBpaN6xbgb/JvZpyuyb+IgAoAItJu+sLxTzpzF/iK52BibUWq2lc8ERGRgWBOZfO5Zu50bwGdXT29Mflzb/FEpE9TAUBE/qeqsWwOuBs9hryqriL1FY/xRERE+q055amvObMrvAV0PDIkWH2ut3gi0uepACAiW3HDtqsEfuspXMIczbVnNB/mKZ6IiEi/VFueOtw5luLp/bmD59PGSVMWTGn1EU9E+gc1ARSRd7lmYmqXthJ+j/FeTyH/a8Znpzcm/+4pnoiISL8xd/KyA8J0+Dj+Ov6vDV146Iz68X+xdRucAAAeEUlEQVT1FE9E+gmtABCRdzl7UfLfYUgZ/poC7uAc98ypvPk9nuKJiIj0C9dMTO0SpsO78Tf5D0PsW5r8i0hnVAAQkU7NaEw+4XA+m/jtjZXceeVpi7fzGFNERKTPumZqanhbgjvxdwwvBj+a0TDudl/xRKR/UQFARLpU1VA2H9z1vuI5+ERp6ZDra2pq9LNHREQGtFRZKpHezA3Axz2GvXu3tVziMZ6I9DN6Ey4i2+SGbTcFeNxjyJPHvHLgHI/xRERE+pzXR1qdwTd8xXPwjNvUckqyOZn2FVNE+h8VAERkm6rmHr95UGnr1wB/DfzMTastT/3EWzwREZE+ZE55cy24qR5DvuIsfVzVTd9c6zGmiPRDKgCISLemzpuwKrTE8cCb3oI6LqitaP6Ot3giIiJ9QG1F83edsyqPIdeHYfj1aY2nvOYxpoj0UyoAiEiPzGg8+UXn3Mn4OxkAsMtqK1OT/cUTEREpXnUVzVPALvUYMnTOnT6jafz/8xhTRPoxFQBEpMeq6ssec8aZHkM6jHlzKlPjPMYUEREpOrUVzeMNuxZwvmKa2fer6suW+4onIv2ftx9AIjJw1Fak5gA+jwjcFDr35Rn1ZQ97jCkiIlIUaiuaPw92FzDYX1RbUtWQPNXhzF9MEenvtAJARHqtqqFshnO22GPIIYHZXXMrU8d4jCkiIlJwcytTx+DsDjxO/p3xyyGJ1adr8i8ivaUCgIj0msPZ4GB1JXCfx7DDQuOO2ZXNR3mMKSIiUjC15UuPDo07MIZ6DPvHjQwum7JgSqvHmCIyQGgLgIhkrW7CjSNtSOkjwCEew6437PjpDeMe9RhTREQkr+ompT5nAXcDwzyGfSlMJA6bseDk1z3GFJEBRAUAEYllbvktu4Uu8WvgfR7DrrUwOG5609jfeowpIiKSF3WVzUeY2T3Adh7DvpmGw2Y2JJ/3GFNEBhgVAEQktrpJqYMs4DFge49h1zg4rqoh+TuPMUVERHKqriL1KYN7gVEew26wMDhGhXERiUs9AEQktqqm5LOBowzY5DHsKIM751Qu+4jHmCIiIjkzp3LZRwzuwu/kPwRXocm/iPigAoCIeDGtPvmgMzsB2Owx7E7OwkfrKpcc6jGmiIiId3WVSw51Fj4K7OgxbAhMrG4oW+IxpogMYCoAiIg3VY3j7nfOnQqkPYYdZRb8YnZ56jMeY4qIiHhTe0bzYWbBL/F75x+D6uqG5A0+Y4rIwKYCgIh4VVVfttwZlYDPs4lHBY77dESgiIgUm9rypUcT2r3ASJ9xDS6Z3pC82mdMEREVAETEu6rG5CKHfddz2O0CszvnVqaO8RxXREQkK7UVzZ/HuTvx2+0fYNb0huTFnmOKiKgAICK5UdUw7nKg1nPY7ULj9try1OGe44qIiPRK3aTU58BuB4Z5Dexcate1fMdrTBGRdioAiEjOVDckp4P7qeewI3A8UFeZGus5roiISI/Uli9NWsC9wHC/kW3Jrmvs1GRz0mcvHRGR/1EBQERyqqph7Hdw7jrPYUvNWFJb0VzpOa6IiMg2zSlfegbO3QyU+ozr4OdDEqtP1+RfRHJJBQARySmHs6r6sVMdbqHn0AmwBXXlqW97jisiItKpuoql5zvn5gMJz6HvWrmWsikLprR6jisishUVAEQk5xzOdllrZwE3+w5tjivmVDRfZpjzHFtERAQAw9yc8uZaw10G+P7/5qH0WspqmpMtnuOKiLyL3jCLSN7UlKVKx4zkNuD4HISvrWoom+FwPo8fFBGRAa6mpiYY88qBczA3zXdsg98PTXDslAXJNb5ji4h0RgUAEcmrpolNQ9YF291uji/6j25L3LARE6vmHr/Zf2wRERlo6qbdPdg2rl+MWTIH4f+YhmNnNiRX5iC2iEinVAAQkbybP3n+oE1tY27GkYtO/r91ISdUNSXfzEFsEREZIOaduXznlta2O4BP5SD8Qy0tm0749g2nr89BbBGRLqkAICIFkSpLJf49yhrN3Ok5CP8C6eDL1YvGPpeD2CIi0s9dfcaSD6TD4B5gH+/BHfcPCYZ+fcqCEzZ4jy0i0g01ARSRgkg2J9O7rHHlmDXlIPy+JMJHaytTH89BbBER6cdqz2g+LB0GvyYXk3+4N72Gr2nyLyKFogKAiBRMsjmZ3nWdO8M5W5yD8LtgPDC3MnVMDmKLiEg/NKcy9QVCuwfYIQfh7xuSGHrizObkxhzEFhHpERUARKSgks3J9Mrd/zoJrD4H4UeFxj21Fc2VOYgtIiL9SG350jOdcRcwMgfh7xqZXq87/yJScOoBICJFo65i6fntZyx753ALBydWnj1lwZTWXMQXEZG+qaYsVTpmFNdiVORmBKvfda07M9mcTOcmvohIz6kAICJFpbZy6dmYqyM3K5QedyEn6YQAERGBqNP/5ta25Q4+m4v45riyur7sfIezXMQXEektFQBEpOjUlTdPMGdNwKAchH8hdOEJM+rH/zUHsUVEpI+om5Q6yALuIDfN/sxh361qGHd5DmKLiGRNPQBEpOhUNZbdZLgJQEsOwu8bWPDo7Mrmo3IQW0RE+oC5laljLOBRcjX5NzdTk38RKUYqAIhIUZreUNbszJ0ArM9B+B0Ds3trK5eenYPYIiJSxOoql1aFxi/JTaf/NjM3saqxbE4OYouIxKYtACJS1OoqUp8yuBPYKScDOBrc0OFnV809fnNO4ouISFFomtg0ZE1iu3kOJuZoiPUOxlU1JO/KUXwRkdhUABCRojd74i17BUHiHhwH5GiIp8J0+sQZi055KUfxRUSkgOZWpvYOjduAg3MR38EKIzy+umH807mILyLii7YAiEjRm7HolJfSjs8a/CpHQxwSJBJP1pYvPTpH8UVEpEBqK5o/HxpPkqPJP/AnZ+lDNfkXkb5ABQAR6RNmNiRXbrbBXwbuy9EQO+Lc3bUVzZU5ii8iInlWW770TLC7yM1+fxw80ZpoO3Za4ymv5SK+iIhv2gIgIn1KqiyVeG2kXeNwU3I1hoPb0+lBk2YsOnF1rsYQEZHcufasm8a0tQxaZPC1HA5z86q1TKppTubixBoRkZxQAUBE+hzDXG1F6hKH+x65+zn2dJAIyqYtGPu3HMUXEZEcqJuUOsgClgEH5nCY2l3Xcm6yOZnO4RgiIt6pACAifVZdZfNJZnYDMCxHQ2zCUV1dn1yQo/giIuJRbUWqGrgMGJKjIVpw7szq+rKmHMUXEckpFQBEpE+rPaP5MEvbbc6xc+5GsWvdsBEzdVSgiEhxaprYNGRtsF0tjsk5HGYdkKxuSP4ih2OIiOSUCgAi0ufNLb9lt7RL/MzBJ3I2iPE354JTqxrG/jFnY4iISK/NnrTkY0EQ3Azsn8Nh/pGGr8xsSD6fwzFERHJOpwCISJ83rfGU1zbb4GOAu3M2iOMAI3y8rqI5Z80HRUSk5wxztZVLzw4SwePkcvJvPBkmEkdp8i8i/YFWAIhIv5EqSyVeH2k/BvdtcvjzzcHtQWtJ5TmLT/pvrsYQEZGu1U1K7WSORhxfzeU4Zu6WoSVDKqcsOGFDLscREckXFQBEpN+pq0h9xeAmYFQOh3nTYRVVDePuyOEYIiKSobay+euY1QM75nCYFhzT1ARWRPobFQBEpF+qK19ysLngNmDvHA4TOrPZI8INF01aNGlTDscRERnwZpWlhiZG8hOgity+h11pjvHT65P35XAMEZGCUAFARPqty8t/NmKo27zY4Bs5HuqfLmRSVVPykRyPIyIyIM2ubD4qMGsC9srxUL9Lt3LSzMXJV3M8johIQagAICL9Wk3NQyVjVrx5OTAzx0O14ezSIcHqS6csmNKa47FERAaE+ZPnD9qYHv0Dh7sAKMnpYM6lWjZvLP/2Daevz+k4IiIFpAKAiAwI7X0BFgPb53IcB8+Y41vV9ck/5HIcEZH+bm75sk+ELrweOCinAzk2WujOnN5Ytjin44iIFAEVAERkwLj6jCUfSFuwDOPDOR5qkzN+sMs6ZiWbk+kcjyUi0q/U1DxUsv2KN8413P8Bg3M83CsEblz1wrJf53gcEZGioAKAiAwoddPuHhyuX3+Fc1aVh+GetiAsn75w/JN5GEtEpM+rq0h9yqAB+FAehrvVbWopr7rpm2vzMJaISFFQAUBEBqS68uYJ5mw+sF2Oh2ozc9e2tm68UPtKRUQ6d+Vpi7crHTRkFo5KIMjxcK3At6sayuocznI8lohIUVEBQEQGrLqKZR81wqXA+3M+mOMv5sIKrQYQEdlaXeWSQ7Gg3uCDeRjuTQvstOkLx/0yD2OJiBQdFQBEZEC7ZmpqeLrFrjFzp+dhuDS42S0tG2u0GkBEBrprpqaGt212l4BVAYk8DPlAmEicNmPBya/nYSwRkaKkAoCICFBbnjoRRz05PiWg3etm7gJ1nBaRgWpOefPpztnlwC55GG4zcL6W/IuIqAAgIvI/tZNTe5LmJuDwPA15d5hOnz1j0Skv5Wk8EZGCmlOe2t855gFH52nIf4RheMqMpvH/L0/jiYgUNRUAREQ6qClLlY4ZyU+AGeTnZ+Ra5+z7u6xx1+jIQBHpr2pqHioZveKNaQ53CTA8H2M6aE6nB02esejE1fkYT0SkL1ABQESkE3XlzcdZYI0Y783TkH+wMDh7etPY3+ZpPBGRvKg9o/kwQrsa+GiehlyLc9Or68ua8jSeiEifoQKAiEgX6ibcONIGl16JY3LeBjXuDMP0NG0LEJG+bm5lau8wpA7HV/M47B3m2s6YXn/qf/I4pohIn6ECgIhIN+oqm08ys/nAjnkZ0LHRzNUNGmw/Ovva5Nt5GVNExJPLy382YrBr+Z5zVoUxNE/Dvm3mzlZzVRGRbVMBQESkB+aduXznlta2euCEPA77ipn7XnXj2BvUuVpEip1hrrZ82WkusB/ncfsUOB4J29ITtXJKRKR7KgCIiPRQTU1NsP3LH6wyZ5cCw/I49L1hwPkzFiafyuOYIiI9VluZ+jjG5cDn8zhsi4NLV+6x049rao5uy+O4IiJ9lgoAIiK9dHXFre9Lk14IfCGvAxt3EgYzqxeNfS6v44qIdGHuxNSHwxJmYRyb14Edj7ggrKhaMP6FvI4rItLHqQAgIpKF/y11dTYHGJPHoVsxmkpCLj57UfLfeRxXROR/Zk++ddegLV2DoxwoyePQ63HMXLX7s/U1NTVhHscVEekXVAAQEYmhbvKSfS0MGjA+l+ehV4G7LL3W5s5sTm7M89giMkDNn3zHsE3hxiqM84HR+Rzb4PeOcFJ1w/in8zmuiEh/ogKAiEhMNTU1wegVB0118GNgRJ6Hfw1nP161xi2saU625HlsERkg6qbdPdjWr5+MswuBXfI8/CZwl6zaY8crtddfRCQeFQBERDyZU3nze5yVXAl8k/z/fH3TYVeNSG+onbRo0qY8jy0i/VTTxKYh6xLDqg13LrBT3hMwlgWkq6c1nvJa3scWEemHVAAQEfFsdmXzUUFo83AcUIDhX8Zx6ardd2rUnTIRyVZNzUMlY155s9wZFxnsUYAUXnbYOVUN4+4owNgiIv2WCgAiIjlw5WmLtxs8aPD/mXPV5LdB1hZPg7t01R7PpNQoS0R6KlWWSrw+knHA94CDCpBCiFE/aHDrBVPnTVhVgPFFRPo1FQBERHJo9hmpQ4KQecChBUnA+JsFdulua9wtyeZkuiA5iEjRq6l5qGTMijcmgLsQ+EBBknD8JTA7a1rDuF8VZHwRkQFABQARkTyoq1h6guHmAu8rUAovA7PSa1mgUwNEZItZZamhJSOtynAzgPcUIgcz3gD37erGsTc4nBUiBxGRgUIFABGRPJk98bbRQaK1BjibwmwLAPinc1zZtoZFKgSIDFxXnrZ4u0GlQyY5OI/CFSYNs0WlpYMuOOu6k94oUA4iIgOKCgAiInk2qyK1XwLmAF8pYBrrzFxTEARXVtWf/EoB8xCRPLpq0i17JFzJec7ZJPJ/bGlHj4cB02YsTD5VwBxERAYcFQBERApkTmVqnDOuAPYsWBKOjRiL0jBrZkPy+YLlISI5dfUZSz6QTgfn4jgdGFKoPKLl/nbR6j3/2qAGpSIi+acCgIhIAc0qSw1NjKIa4wJgVAFTCYHbnHO1VfVljxUwDxHxaHZl81EJs2qDrwFBwRJxbMRsjtvUelnVTd9cW7A8REQGOBUARESKwDVTU8PbWuw8zJ1PAe/OtXsOuKZkMA1nX5t8u8C5iEgvzZ542+hEomUKuEqD/QqcTpuZu7atpPWH5y049a0C5yIiMuCpACAiUkSumnTLHiUucRGOSgp5ty6y1swtSgQ2Z1p98p8FzkVEujF38rIDwrZwBo7xwMhC5+OgOTS+P70x+fdC5yIiIhEVAEREilBdZfMRmF1u8JlC5wK0gt0aumD+9Pqxj+iYLpHiYZi7urL5aDMmG5wEDCp0TsCfHVxY1ZC8q9CJiIjI1lQAEBEpYnXlS48lcJeb8bFC5wKA41Uzd2MJwbxzGk7+V6HTERmoZk+8ZS+XKDnTYacBuxU6n3Z/cmbnVTWOu7/QiYiISOdUABARKXKGudqKZWMD7MdFsJ93ixDHg2Zuweo9drytpubotkInJNLfzZ88f9DG9PbfcM4mYxxD4bcJbfGC4b67eo9nblVnfxGR4qYCgIhIHzGrLDW0ZATnmOMCYPtC59PBCzi7PmEli7UqQMS/uZWpvcPQnY6zbwF7FzqfDv7rjMvb1nH1zObkxkInIyIi3VMBQESkj5k/OTVqU2hVmKsGdih0Ph2EZjzsHItaWjYt//YNp68vdEIifdU1U1PD2zbbyTg3CeNIius920qHm82mzXU60k9EpG8ppv9MRESkFy4v/9mIoW7TVMOdC+xU6HwyrMNsmTN3/cr3PfuYlgWLdC9Vlkq8PsKOxAXfAjsZGF7onDJo4i8i0sepACAi0sfVlKVKR49w452zHwD7FjqfTqwC7nRY88o9dr5H/QJE3lFT81DJ9ive+LLhyoCvAmMKnVMnXgcuH5IYunDKghM2FDoZERHJngoAIiL9xKyy1NDECFeJs/OAPQudTxdeMtxSC2zJjIXJpwqdjEihzJ605GMuEYx3RhJ4X6Hz6YwZb7iAOrexZa7u+IuI9A8qAIiI9DPzJ88ftLltzASD83EcUOh8tuEfGMstES6vXjju9w5nhU5IJFcMc7WTbv2UC9InOdxJRXSiR2deNNxV4VprUnM/EZH+RQUAEZF+rLY8dTiOGuDzhc6lG/8F7nZY88q17pc1zcmWQickElfdtLsHs2Hdce3L+79CcZ3e8W7Gr52zy6Y1JO9UQU5EpH9SAUBEZACoK28+zpxdABxd6Fy6Y8YbztnPzfiFhaUPzFh04upC5yTSU9eeddOYlpbSYx18CewEiq9BZ2cecOauqGosu7fQiYiISG6pACAiMoDMqkjtF+AqHTYFGF3ofHroWcPdEVh4/8p17lGtDpBiUlOWKt1+hB0ZuuBYF034Dyp0Tj203sw1hM7mzmxIPl/oZEREJD9UABARGYB+OvnmHQeFJZXOmGqwR6Hz6amoKZndh3FfYOF90xpPea3QOcnAU1d56+6E6WND3HHO2ReAHQudU0+1/xuaZ6TnTa8/9T+FzkdERPJLBQARkQGspuahktEr3jrRYdOAIwqdT285eMbgfgf3JQbzyNnXJt8udE7S/1wzNTU8vdmODi04tn3Cf2Chc8rCnx1Wy7ARN1XNPX5zoZMREZHCUAFAREQAmFO57CNYeqrDTQCGFzqfLLQAvzF4GMfjg0p5QgUBycbl5T8bMZSWz4QuPMLhjgI+DQwqcFrZ2IyzZYTuuurG5OOFTkZERApPBQAREdlK08SmIWuC4UnnbAZwSKHzielFjPsN9ysL2x6dseiUlwqdkBSfuZWpvUP4AsbhwGeBfQqdU0x/wnGt29iypOqmb64tdDIiIlI8VAAQEZFOGebqKpYdY9hUByfQN++AdmTAP4DfYe5JM/e7YPiwp7QcemBpmtg0ZF3J0EPAfcos+CTYp4D30/ffE7UCP3dm101rTD6gY/xERKQzff0/OxERyYN5Zy7feXNr6wSHmwh8pND5eNRq8CeH/c7BH8y5P41sW//MpEWTNhU6MYlvVllq6KARwQfThAc7x8eBTxF9//b1YlZHz5pzjYNLEjecdd1JbxQ6GRERKW4qAIiISK/UVSz7aGg20Tk7lT7U/bwX2oB/gP0Z5/4E9ue2dPiXc5tOWVHoxKRrtZNTe7o0HzbcRxx2sEUT/Q8AiULnlgNrHW4pLt1YVT/+N4VORkRE+g4VAEREJCs1ZanSMSP4inOcbvBlYHChc8qxNcDfwD3jzP6G49m0Jf66Zs+/vFRTUxMWOrmBoKamJhj18of3conwIBdykGEHOjgIOAAYWej8ciwEHjFzi4aWDFk2ZcEJGwqdkIiI9D0qAIiISGyzJ9422gWtJzvHBOBzQFDonPLGsRF43hkvGLyIsxcx90IiCF98a3XwUk1zsqXQKfYlNWWp0tEj2DuB2ycMwn2wYF+wfXDsA+yHMbTQOebZHzBuTrexdObi5KuFTkZERPo2FQBERMSrueW37BaSGI/jVODjhc6nwNIOXjNjBfAajlfNuRUB4WsQvJIOg1dtXfr1mc3JjYVONB/mT75j2Ia2ll0SQfheM9sDbDdwu2O8F9gNx57AbgykAlLnnjO4BePm6Y3Jvxc6GRER6T9UABARkZy5+owlH0hbUIZRBhxc6HyK2NsO/h3CfwJ40+B1nL0BvOnCYHWYYI1L22pcuLottDVtbtjq8xu/vq6QCV9e/rMRJbZhdKklRocBoyzhRmPhaAejzNzOzrmdndkuZuzsHDsb7AIML2TORe45wy0nSN86feH4JwudjIiI9E8qAIiISF7UTlz2fhI21jkba8bHCp1PP5AG/n979xdaZR3Hcfz9/Z39OTtz00OKkA0RF6RoSuIoLMiwoGxU0AZdJOmFA8MgQbrdbQReaF40SEZeFEcSxOpGqVAjrFxgoCOOUW5oorXNue3M7fl9u5gXFoI2557t7PO6e87FOW/OzfOcDzzPue7OmBk3gFFg2KFkxog5w7dem4xqN3Lu1BhkcWoxqoA6oIKJ++3L8eF60+0sbodD9MM7O1t/STtGRETKnwYAERGZdnu3f7acxF537FVgPfoxKXNDNDgNfmQc+3zXx63FtINERGRu0QAgIiKp+uDNT2qrq6qfc7eXCWy+dT+4SLm4gnPEzL8YvTn69e6DW4bSDhIRkblLA4CIiMwYhZZC5nIdTwGbMV5k4r/cda6S2eZ33L70TDwasnXfvrPvpcneiiEiIjKldFElIiIz1v4dhXlJyZ+MhGYzbwaWpd0kcgeXcY662fHKxE++3dn6Z9pBIiIid6IBQEREZgXH7cO3Dq1KKuyFEP15N54Bcml3yZyUAD/idswCx/5+ZOH37e0bx9OOEhERuRsNACIiMisVWgqZ3gXhsYzHDeZsctgE5NPukrI0gHPSzE+52fFs6Dvb1tE2lnaUiIjI/6UBQEREysLenV9VMzLUhPtGh2eBJqA25SyZnW6484NhJyCeyFbkTrd1NA+nHSUiInK/NACIiEjZ2rft04cTq9iA8zTm6wzWAdm0u2RGKTmcwe0MxqmMj3+388Abl9KOEhEReRA0AIiIyJzx/rYjdbkwuj5CkzlPOKwBGoGQdptMm99wugicIfrpEtmf3jvwymDaUSIiItNBA4CIiMxp+3cU5o2P2ePmvsYjazHWYqzGqUm7Te5LxPkVo8vNuizGrhirfn6387X+tMNERETSogFARETkPwothUxvPcsMX2XOSjNWg60AVgBVaffJv4zhXHDjXDDrJnLOg3ffHC117z64ZSjtOBERkZlEA4CIiMg9am//puKhS381evSV7jQaNII/6hO3ESxB59UHxQ16HYqGFR2KZhQTkvO5MFDUE/lFRETujS5UREREpsCelkJNZS2NMdCI+XL30GDmS81ocKcBWJR24wx31Ywed3rc7Q8CF93jhYAX65OR4tbOraW0A0VERGY7DQAiIiLTYE9LoaYyH5YmMTaEyBJgEfhit7AQfBGwEFg88Tq5VGOnzhBwDbgCXAW7Zh6vgd069t6I9cRBLu461DqSbqqIiEj50wAgIiIyw3y0/WhuqDSSpzosyCQxb+Z5xxaYed5jyGOex6nBvN6xKjPq3akxyBrM94nnFNTd9pYBmH+Xjx0A4m3HgwY3HQYcSmaMuHMdt1HDBz34sMXQbyH2uVufB+uzxPuTTOirTMb6qirm9bd1NA9P9XcjIiIik/cPFo3Y2OgcnbEAAAAASUVORK5CYII=;" vertex="1" parent="1">
                    <mxGeometry x="30" y="200" width="410.86" height="390" as="geometry"/>
                </mxCell>
            </root>
        </mxGraphModel>
    </diagram>
</mxfile>